<svg aria-hidden="true" focusable="false" data-prefix="fab" data-icon="free-code-camp" class="svg-inline--fa fa-free-code-camp fa-w-18" role="img" xmlns="http://www.w3.org/2000/svg" viewBox="0 0 220.07965 335.36908">  <path
     id="path848"
     d="m 61.604534,334.8 c 0.58,0.37 0.91,0.55 0.91,0.55 z m 93.789996,0.55 0.17,-0.13 c -0.19,0.13 -0.26,0.18 -0.17,0.13 z m 3.13,-158.18 c -16.24,-4.15 50.41,-82.89 -68.049996,-177.17 0,0 15.539996,49.38 -62.83,159.57 -74.27,104.35 23.46,168.73 34,175.23 -6.73,-4.35 -47.4,-35.7 9.55,-128.64 11,-18.3 25.53,-34.87 43.499996,-72.16 0,0 15.91,22.45 7.6,71.13 -12.46,73.6 53.84,52.51 54.84,53.54 22.75,26.78 -17.72,73.51 -21.58,76.55 5.49,-3.65 117.71,-78 33,-188.1 -5.99,6.01 -13.8,34.2 -30.03,30.05 z" /></svg>
