<?xml version="1.0" encoding="UTF-8" standalone="no"?>
<svg
   xmlns:dc="http://purl.org/dc/elements/1.1/"
   xmlns:cc="http://creativecommons.org/ns#"
   xmlns:rdf="http://www.w3.org/1999/02/22-rdf-syntax-ns#"
   xmlns:svg="http://www.w3.org/2000/svg"
   xmlns="http://www.w3.org/2000/svg"
   xmlns:sodipodi="http://sodipodi.sourceforge.net/DTD/sodipodi-0.dtd"
   xmlns:inkscape="http://www.inkscape.org/namespaces/inkscape"
   aria-hidden="true"
   focusable="false"
   data-prefix="fas"
   data-icon="hand-holding-water"
   class="svg-inline--fa fa-hand-holding-water fa-w-18"
   role="img"
   viewBox="0 0 192 255.97501"
   version="1.1"
   id="svg835"
   sodipodi:docname="teardrop.svg"
   width="192"
   height="255.97501"
   inkscape:version="1.0.1 (c497b03c, 2020-09-10)">
  <metadata
     id="metadata841">
    <rdf:RDF>
      <cc:Work
         rdf:about="">
        <dc:format>image/svg+xml</dc:format>
        <dc:type
           rdf:resource="http://purl.org/dc/dcmitype/StillImage" />
        <dc:title></dc:title>
      </cc:Work>
    </rdf:RDF>
  </metadata>
  <defs
     id="defs839">
    <clipPath
       clipPathUnits="userSpaceOnUse"
       id="clipPath857">
      <g
         inkscape:label="Clip"
         id="use859">
        <path
           fill="currentColor"
           d="m 288,256 c 53,0 96,-42.1 96,-94 C 384,122 326.9,41.3 300.8,6.4 294.4,-2.1 281.6,-2.1 275.2,6.4 249.1,41.3 192,122 192,162 c 0,51.9 43,94 96,94 z m 277.3,72.1 c -11.8,-10.7 -30.2,-10 -42.6,0 L 430.3,402 c -11.3,9.1 -25.4,14 -40,14 H 272 c -8.8,0 -16,-7.2 -16,-16 0,-8.8 7.2,-16 16,-16 h 78.3 c 15.9,0 30.7,-10.9 33.3,-26.6 C 386.9,337.4 371.5,320 352,320 H 192 c -27,0 -53.1,9.3 -74.1,26.3 L 71.4,384 H 16 c -8.8,0 -16,7.2 -16,16 v 96 c 0,8.8 7.2,16 16,16 h 356.8 c 14.5,0 28.6,-4.9 40,-14 L 564,377 c 15.2,-12.1 16.4,-35.3 1.3,-48.9 z"
           id="path863" />
      </g>
    </clipPath>
  </defs>
  <sodipodi:namedview
     pagecolor="#ffffff"
     bordercolor="#666666"
     borderopacity="1"
     objecttolerance="10"
     gridtolerance="10"
     guidetolerance="10"
     inkscape:pageopacity="0"
     inkscape:pageshadow="2"
     inkscape:window-width="2135"
     inkscape:window-height="1045"
     id="namedview837"
     showgrid="false"
     inkscape:zoom="1.0729167"
     inkscape:cx="96"
     inkscape:cy="255.975"
     inkscape:window-x="0"
     inkscape:window-y="23"
     inkscape:window-maximized="0"
     inkscape:current-layer="g855" />
  <g
     id="g855"
     clip-path="url(#clipPath857)"
     transform="translate(-192,-0.025)">
    <path
       fill="currentColor"
       d="m 288,256 c 53,0 96,-42.1 96,-94 C 384,122 326.9,41.3 300.8,6.4 294.4,-2.1 281.6,-2.1 275.2,6.4 249.1,41.3 192,122 192,162 c 0,51.9 43,94 96,94 z"
       id="path833"
       sodipodi:nodetypes="ssccss" />
  </g>
</svg>
