<!--?xml version="1.0" encoding="UTF-8"?-->
<svg xmlns="http://www.w3.org/2000/svg" width="1000" height="356.39" viewBox="135.5 361.38 1000 356.39">
  <polygon points="245.8,717.6,234.9,716.9,219.5,714.5,209.8,712.1,200.7,709,192,705.3,183.9,700.9,176.2,695.9,172.6,693.1,169.1,690.1,160.5,681.4,157.4,677.9,152,670.7,145.6,659.7,142.3,652.1,140.9,648.2,139,642.1,136.5,629,135.5,615.2,136,600.6,138,585.2,141.5,569.2,146.5,552.7,153,535.7,156.7,527,160.3,519.6,168,504.5,176.9,489.3,187,473.6,204.8,448.9,234.1,412.8,251.4,393,268.3,374.2,280,361.4,279.3,362.7,277.5,365.8,272.8,374,264.2,390.9,256.6,408.3,250.5,425.4,248.1,433.6,246.4,440.1,243.9,452.6,242.3,464.6,241.7,476.2,242.2,487.2,243.6,497.6,246,507.5,249.4,516.7,251.4,521.1,254.7,527,262.7,537.9,272.3,547.5,283.1,555.3,288.8,558.4,294.1,560.8,305.4,564.6,317.9,567.3,331.4,568.9,346,569.3,361.6,568.5,378,566.6,395.4,563.6,404.4,561.6,515.2,532.3,773,463.8,1029,395.7,1135.5,367.4,873.9,479.4,431.9,668.5,408,678.7,378.2,690.7,365.7,695.2,348.8,700.8,316.4,709.7,286.2,715.3,265.3,717.4,252.1,717.8,245.8,717.6,245.8,717.6"></polygon>
</svg>
