<?xml version="1.0" encoding="iso-8859-1"?>
<!-- Generator: Adobe Illustrator 16.0.0, SVG Export Plug-In . SVG Version: 6.00 Build 0)  -->
<!DOCTYPE svg PUBLIC "-//W3C//DTD SVG 1.1//EN" "http://www.w3.org/Graphics/SVG/1.1/DTD/svg11.dtd">
<svg id="wand10original" version="1.1" xmlns="http://www.w3.org/2000/svg" xmlns:xlink="http://www.w3.org/1999/xlink" x="0px" y="0px"
	 width="460.43px" height="49.608px" viewBox="0 0 460.43 49.608" style="enable-background:new 0 0 460.43 49.608;"
	 xml:space="preserve">
<g id="Layer_10">
	<path d="M459.93,23.206v3.198c-0.28,0.014-0.565,0.023-0.846,0.035c-2.28,0.088-4.652,0.174-7.113,0.259v0.002
		c-0.53,0.02-1.084,0.035-1.622,0.054c-0.703,0.025-1.407,0.049-2.126,0.072c-0.635,0.021-1.28,0.043-1.926,0.062
		c-0.834,0.027-1.672,0.054-2.523,0.08c-0.54,0.017-1.088,0.034-1.633,0.051c-0.977,0.03-1.963,0.06-2.961,0.091
		c-0.542,0.017-1.087,0.031-1.637,0.047c-0.818,0.025-1.643,0.048-2.478,0.073c-0.516,0.015-1.019,0.027-1.541,0.043l0,0
		c-3.588,0.1-7.283,0.199-11.087,0.296c-0.074,0.002-0.148,0.004-0.225,0.007c-2.403,0.059-4.849,0.119-7.328,0.177
		c-0.033,0.002-0.067,0.002-0.101,0.002c-7.661,0.183-15.671,0.355-23.925,0.521v0.002c-0.608,0.013-1.224,0.021-1.832,0.035
		c-1.006,0.021-2.021,0.041-3.034,0.061c-0.252,0.005-0.503,0.01-0.755,0.015c-1.664,0.03-3.338,0.063-5.018,0.095
		c-0.094,0.002-0.189,0.003-0.283,0.005c-9.635,0.183-19.527,0.353-29.537,0.514c-0.515,0.008-1.027,0.017-1.543,0.024h0.002
		c-7.23,0.114-14.514,0.224-21.796,0.329c-0.002,0.002-0.002,0.002-0.002,0.002c-0.492,0.006-0.986,0.015-1.481,0.021
		c-3.47,0.049-6.939,0.097-10.401,0.146c-0.657,0.008-1.311,0.017-1.965,0.024c-4.032,0.058-8.051,0.11-12.046,0.163
		c-2.045,5.552-5.144,7.247-11.502,7.247c-0.399,0-0.782-0.009-1.152-0.021c-0.09-0.001-0.17-0.01-0.257-0.014
		c-0.279-0.013-0.556-0.025-0.823-0.045c-0.089-0.009-0.171-0.019-0.26-0.027c-0.254-0.025-0.506-0.049-0.747-0.078
		c-0.084-0.013-0.163-0.027-0.246-0.039c-0.237-0.036-0.472-0.073-0.697-0.117c-0.075-0.015-0.147-0.034-0.223-0.052
		c-0.222-0.047-0.442-0.098-0.654-0.154c-0.07-0.021-0.138-0.044-0.206-0.064c-0.206-0.062-0.412-0.126-0.608-0.198
		c-0.068-0.024-0.134-0.054-0.202-0.082c-0.188-0.076-0.375-0.151-0.554-0.238c-0.069-0.032-0.133-0.068-0.199-0.104
		c-0.172-0.089-0.34-0.178-0.503-0.277c-0.017-0.013-0.037-0.021-0.054-0.03c0.001-0.002,0.001-0.002,0.001-0.004
		c-1.711-1.063-2.952-2.761-3.988-5.365c-1.395,0.017-2.837,0.033-4.302,0.047c-0.234,0.004-0.463,0.006-0.698,0.009
		c-7.006,0.075-14.61,0.145-21.387,0.212c-0.443,0.003-0.871,0.007-1.306,0.012c-1.199,0.011-2.368,0.024-3.499,0.034
		c-1.879,2.923-5.196,4.867-8.977,4.867c-0.198,0-0.394-0.008-0.588-0.019c0-0.007,0-0.014,0-0.018
		c-2.824-0.152-5.345-1.382-7.157-3.286c0.001,0.006,0,0.015,0,0.021c-0.066-0.07-0.128-0.146-0.194-0.221
		c-0.085-0.096-0.17-0.19-0.253-0.287c-0.236-0.281-0.466-0.573-0.672-0.879c-0.47,0.005-0.934,0.008-1.401,0.012
		c-0.107,0.164-0.223,0.323-0.338,0.479c-0.03,0.04-0.058,0.081-0.088,0.119c-0.275,0.365-0.575,0.709-0.895,1.035
		c-0.042,0.042-0.082,0.087-0.125,0.129c-0.319,0.315-0.658,0.609-1.015,0.881c-0.028,0.023-0.052,0.051-0.081,0.072
		c-0.002-0.002-0.002-0.005-0.003-0.005c-1.829,1.376-4.112,2.199-6.594,2.199c-0.138,0-0.267-0.017-0.4-0.024
		c0.003,0.007,0.006,0.008,0.009,0.015c-0.076-0.007-0.146-0.02-0.221-0.028c-0.133-0.009-0.266-0.022-0.395-0.044
		c-0.131-0.019-0.258-0.044-0.385-0.07c-0.125-0.027-0.25-0.056-0.372-0.089c-0.122-0.033-0.24-0.072-0.357-0.112
		s-0.236-0.082-0.35-0.128c-0.113-0.045-0.224-0.097-0.335-0.148c-0.111-0.054-0.223-0.105-0.331-0.164
		c-0.107-0.056-0.211-0.118-0.315-0.18c-0.106-0.062-0.212-0.126-0.316-0.194c-0.101-0.066-0.2-0.136-0.297-0.207
		c-0.102-0.072-0.205-0.143-0.304-0.219c-0.097-0.073-0.19-0.151-0.287-0.229c-0.097-0.08-0.196-0.159-0.293-0.244
		c-0.091-0.077-0.183-0.161-0.272-0.243c-0.097-0.087-0.195-0.174-0.29-0.265c-0.09-0.083-0.178-0.171-0.267-0.255
		c-0.097-0.093-0.194-0.188-0.292-0.283c-0.084-0.083-0.168-0.169-0.253-0.254c-0.219-0.221-0.44-0.443-0.661-0.67
		c-0.04-0.042-0.079-0.082-0.119-0.12c-0.112-0.112-0.225-0.225-0.338-0.339c-0.081-0.083-0.162-0.163-0.243-0.244
		c-0.006-0.006-0.009-0.01-0.015-0.014c-2.259,0.018-4.479,0.039-6.661,0.055c-0.58,0.007-1.152,0.011-1.727,0.016
		s-1.15,0.01-1.72,0.016c-0.258,0.002-0.513,0.004-0.77,0.006c-3.99,0.034-7.838,0.066-11.51,0.096
		c-1.404,0.01-2.787,0.021-4.141,0.03c-1.123,0.856-2.294,1.578-3.842,1.578c-1.507,0-2.657-0.699-3.762-1.518
		c-0.166,0-0.337,0.003-0.501,0.003c-0.209,0.754-0.511,1.461-0.877,2.136c0.002,0.002,0.004,0.006,0.006,0.008
		c-0.035,0.062-0.078,0.122-0.114,0.187c-0.109,0.188-0.224,0.378-0.344,0.563c-0.069,0.104-0.138,0.206-0.21,0.31
		c-0.128,0.185-0.263,0.362-0.402,0.541c-0.075,0.092-0.15,0.19-0.228,0.284c-0.153,0.182-0.313,0.357-0.476,0.533
		c-0.076,0.082-0.148,0.164-0.225,0.242c-0.192,0.197-0.396,0.391-0.602,0.578c-0.055,0.051-0.106,0.104-0.163,0.154
		c-0.538,0.479-1.117,0.931-1.729,1.354c-0.08,0.054-0.162,0.104-0.243,0.16c-0.227,0.151-0.455,0.303-0.689,0.447
		c-0.107,0.065-0.218,0.129-0.328,0.196c-0.214,0.128-0.428,0.254-0.647,0.376c-0.12,0.066-0.243,0.132-0.364,0.197
		c-0.214,0.115-0.431,0.228-0.649,0.336c-0.127,0.063-0.254,0.129-0.383,0.189c-0.219,0.105-0.441,0.209-0.665,0.312
		c-0.127,0.061-0.256,0.116-0.385,0.173c-0.234,0.104-0.471,0.203-0.708,0.3c-0.118,0.051-0.236,0.1-0.355,0.147
		c-0.264,0.105-0.529,0.207-0.795,0.305c-0.095,0.036-0.189,0.074-0.284,0.105c-0.728,0.266-1.46,0.508-2.188,0.729
		c-0.094,0.029-0.188,0.054-0.282,0.082c-0.267,0.078-0.534,0.156-0.799,0.229c-0.13,0.037-0.259,0.068-0.389,0.104
		c-0.227,0.062-0.453,0.122-0.677,0.179c-0.05,0.012-0.101,0.026-0.151,0.039l-0.002-0.002c-3.25,0.806-6.237,1.198-8.164,1.302h0
		c-0.07,0.005-0.132,0.007-0.201,0.009c-0.104,0.007-0.21,0.012-0.307,0.015c-0.163,0.004-0.317,0.006-0.459,0.006
		c-0.641,0-1.244-0.024-1.818-0.074c-0.009-0.002-0.02-0.002-0.03-0.002c-0.563-0.05-1.093-0.124-1.599-0.215
		c-0.019-0.005-0.038-0.007-0.055-0.011c-0.496-0.091-0.964-0.205-1.412-0.335c-0.023-0.009-0.048-0.013-0.073-0.021
		c-0.438-0.131-0.854-0.279-1.254-0.44c-0.028-0.013-0.057-0.023-0.084-0.036c-0.392-0.16-0.765-0.338-1.125-0.528
		c-0.032-0.017-0.066-0.034-0.098-0.049c-0.352-0.191-0.691-0.394-1.021-0.604c-0.036-0.022-0.072-0.046-0.108-0.068
		c-0.322-0.211-0.635-0.435-0.942-0.664c-0.04-0.028-0.081-0.058-0.12-0.086c-0.3-0.229-0.593-0.464-0.884-0.704
		c-0.047-0.038-0.095-0.078-0.144-0.117c-0.014-0.013-0.029-0.024-0.044-0.036c0,0,0,0,0-0.002c-2.125-1.786-4.164-3.89-7.171-5.736
		c-0.193,0.3-0.396,0.591-0.607,0.88c0.001,0.006,0.002,0.012,0.003,0.016c-0.078,0.107-0.165,0.205-0.246,0.311
		c-0.136,0.175-0.272,0.354-0.416,0.525c-0.145,0.172-0.295,0.34-0.448,0.508c-0.146,0.164-0.292,0.329-0.446,0.485
		c-0.161,0.169-0.329,0.324-0.498,0.484c-0.156,0.149-0.31,0.302-0.471,0.445c-0.182,0.161-0.372,0.31-0.56,0.462
		c-0.27,0.22-0.545,0.433-0.829,0.637c-0.232,0.168-0.462,0.335-0.703,0.492c-0.194,0.126-0.396,0.24-0.596,0.358
		c-0.188,0.111-0.372,0.228-0.564,0.33c-0.209,0.116-0.426,0.22-0.641,0.325c-0.19,0.095-0.378,0.189-0.572,0.279
		c-0.223,0.099-0.45,0.189-0.677,0.281c-0.128,0.051-0.251,0.108-0.38,0.159c-0.001-0.005-0.003-0.007-0.005-0.01
		c-1.966,0.738-4.094,1.156-6.326,1.156c-0.304,0-0.588-0.035-0.876-0.062c0.002,0.009,0.004,0.012,0.007,0.021
		c-0.077-0.009-0.145-0.027-0.22-0.035c-0.234-0.023-0.463-0.062-0.688-0.104c-0.187-0.035-0.372-0.072-0.553-0.118
		c-0.219-0.055-0.435-0.115-0.645-0.186c-0.172-0.056-0.34-0.118-0.506-0.185c-0.205-0.08-0.409-0.165-0.606-0.258
		c-0.158-0.075-0.312-0.157-0.465-0.237c-0.194-0.105-0.389-0.212-0.576-0.326c-0.145-0.089-0.286-0.188-0.428-0.282
		c-0.185-0.127-0.372-0.251-0.552-0.386c-0.133-0.1-0.261-0.208-0.392-0.312c-0.179-0.144-0.36-0.284-0.534-0.438
		c-0.292,0.205-0.583,0.413-0.875,0.615c-0.006,0.005-0.011,0.009-0.017,0.012c-0.24,0.165-0.48,0.329-0.721,0.492
		c-0.068,0.044-0.135,0.091-0.203,0.134c-0.211,0.142-0.425,0.277-0.64,0.414c-0.092,0.06-0.185,0.121-0.278,0.178
		c-0.2,0.124-0.402,0.242-0.604,0.362c-0.108,0.062-0.215,0.128-0.323,0.19c-0.194,0.108-0.392,0.212-0.59,0.314
		c-0.119,0.062-0.235,0.129-0.354,0.189c-0.193,0.098-0.391,0.186-0.586,0.277c-0.127,0.057-0.251,0.119-0.38,0.176
		c-0.196,0.085-0.399,0.159-0.599,0.235c-0.131,0.05-0.261,0.105-0.395,0.153c-0.204,0.07-0.413,0.13-0.621,0.192
		c-0.136,0.041-0.268,0.089-0.405,0.125c-0.215,0.059-0.438,0.103-0.658,0.147c-0.135,0.03-0.268,0.067-0.405,0.09
		c-0.25,0.046-0.507,0.074-0.765,0.104c-0.114,0.016-0.224,0.036-0.339,0.046c-0.376,0.035-0.759,0.056-1.151,0.056
		c-0.322,0-0.639-0.016-0.95-0.042c-0.119-0.009-0.233-0.03-0.35-0.044c-0.19-0.021-0.382-0.039-0.569-0.07
		c-0.146-0.025-0.286-0.059-0.429-0.087c-0.154-0.03-0.309-0.059-0.461-0.093c-0.161-0.041-0.318-0.089-0.477-0.132
		c-0.128-0.038-0.259-0.069-0.385-0.108c-0.174-0.054-0.344-0.115-0.515-0.175c-0.109-0.041-0.218-0.075-0.326-0.115
		c-0.182-0.069-0.361-0.143-0.54-0.217c-0.094-0.04-0.188-0.076-0.282-0.115c-0.189-0.082-0.376-0.169-0.563-0.258
		c-0.082-0.036-0.163-0.071-0.244-0.11c-0.194-0.093-0.387-0.189-0.579-0.288c-0.06-0.03-0.119-0.058-0.177-0.087h0
		c-2.19-1.128-4.281-2.495-6.574-3.383c-1.138-0.444-2.455,0.025-3.697,0.025c-0.466,0-0.932-0.01-1.397-0.025
		c-0.083-0.005-0.166-0.009-0.248-0.012c-0.014,0.003-0.029,0.005-0.044,0.01c-0.356,0.099-0.724,0.177-1.099,0.237
		c-0.083,0.012-0.167,0.022-0.252,0.032c-0.393,0.053-0.794,0.089-1.211,0.089c-0.254,0-0.503-0.015-0.747-0.035
		c-0.062-0.006-0.123-0.017-0.185-0.023c-0.181-0.02-0.362-0.042-0.539-0.073c-0.014-0.002-0.027-0.002-0.042-0.007l0-0.001
		c-1.081-0.195-2.083-0.579-3.05-1.047c-3.138-0.538-6.214-1.252-9.174-1.884c-0.125-0.025-0.25-0.051-0.374-0.077
		c-0.24-0.052-0.479-0.102-0.717-0.149c-0.174-0.034-0.349-0.073-0.523-0.108c-0.21-0.04-0.419-0.082-0.625-0.123
		c-0.197-0.039-0.393-0.077-0.587-0.115c-0.191-0.034-0.38-0.068-0.568-0.104c-0.211-0.039-0.42-0.076-0.628-0.111
		c-0.175-0.031-0.349-0.06-0.522-0.089c-0.222-0.037-0.441-0.072-0.66-0.105c-0.16-0.025-0.32-0.049-0.479-0.072
		c-0.235-0.036-0.467-0.066-0.699-0.096c-0.142-0.018-0.284-0.039-0.425-0.055c-0.258-0.032-0.513-0.058-0.768-0.083
		c-0.114-0.013-0.227-0.025-0.34-0.035c-0.326-0.031-0.65-0.054-0.972-0.074c-0.039-0.002-0.079-0.007-0.118-0.008
		c-0.731-0.042-1.447-0.058-2.15-0.038c-0.082,0.002-0.161,0.006-0.242,0.01c-0.264,0.011-0.527,0.023-0.786,0.042
		c-0.106,0.008-0.212,0.021-0.318,0.03c-0.231,0.021-0.462,0.044-0.69,0.075c-0.116,0.015-0.23,0.032-0.345,0.051
		c-0.214,0.031-0.428,0.069-0.64,0.107c-1.174,0.228-2.299,0.584-3.362,1.105c-2.77,1.357-5.101,3.353-7.356,5.389
		c-0.329,0.297-0.656,0.592-0.983,0.889c-0.39,0.354-0.779,0.707-1.169,1.055c-0.027,0.023-0.054,0.048-0.08,0.07
		c-0.356,0.317-0.713,0.629-1.072,0.935c-0.025,0.023-0.051,0.044-0.077,0.067c-0.362,0.307-0.729,0.609-1.099,0.901
		c-0.006,0.006-0.013,0.009-0.019,0.015l0-0.002c-2.763,2.183-5.762,3.857-9.61,4.027c0.002,0,0.003,0.003,0.004,0.005
		c-0.213,0.008-0.426,0.015-0.645,0.015c-0.715,0-1.421-0.035-2.122-0.095c-0.076-0.007-0.15-0.009-0.225-0.018
		c-0.672-0.062-1.334-0.152-1.989-0.267c-0.049-0.011-0.102-0.013-0.15-0.021c0.002-0.001,0.004-0.003,0.006-0.003
		c-1.938-0.35-3.795-0.918-5.547-1.681c0.001,0.002,0.001,0.004,0.002,0.006c-0.055-0.025-0.108-0.054-0.163-0.078
		c-0.447-0.198-0.887-0.408-1.318-0.631c-0.051-0.027-0.104-0.05-0.155-0.078c-0.476-0.25-0.942-0.518-1.399-0.794
		c-0.078-0.05-0.154-0.101-0.231-0.147c-0.405-0.253-0.804-0.519-1.192-0.796c-0.057-0.038-0.115-0.077-0.172-0.119
		c-0.431-0.312-0.852-0.638-1.26-0.975c-0.066-0.055-0.13-0.111-0.195-0.167c-0.358-0.302-0.707-0.612-1.046-0.935
		c-0.062-0.059-0.125-0.112-0.186-0.172c-0.378-0.365-0.745-0.744-1.1-1.132c-0.054-0.059-0.106-0.121-0.16-0.181
		c-0.307-0.343-0.604-0.696-0.891-1.057c-0.062-0.078-0.125-0.155-0.187-0.233c-0.319-0.411-0.627-0.833-0.921-1.266
		c-0.043-0.062-0.083-0.126-0.125-0.19c-0.253-0.381-0.495-0.768-0.728-1.166c-0.057-0.094-0.114-0.189-0.169-0.289
		c-0.257-0.449-0.501-0.911-0.73-1.381c-0.03-0.062-0.056-0.124-0.086-0.186c-0.198-0.418-0.382-0.842-0.556-1.27
		c-0.047-0.114-0.093-0.229-0.138-0.344c-0.188-0.488-0.366-0.977-0.522-1.48c-0.017-0.054-0.031-0.109-0.048-0.163
		c-0.138-0.455-0.261-0.914-0.373-1.376c-0.031-0.131-0.063-0.259-0.092-0.387c-0.115-0.517-0.218-1.038-0.3-1.564
		c-0.005-0.037-0.009-0.074-0.014-0.108c-0.074-0.499-0.129-0.998-0.172-1.503c-0.011-0.141-0.022-0.279-0.032-0.418
		C0.526,25.901,0.5,25.355,0.5,24.804C0.5,11.383,11.581,0.5,25.25,0.5c9.663,0,14.016,9.398,22.106,13.367
		c0.331,0.162,0.67,0.305,1.013,0.435c2.367,0.912,5,1.119,7.829,0.927c0.733-0.05,1.481-0.126,2.24-0.223
		c0.058-0.009,0.117-0.014,0.175-0.023c0.755-0.102,1.521-0.221,2.301-0.358c2.475-0.433,5.057-1.017,7.711-1.588h0
		c0.062-0.015,0.124-0.026,0.186-0.039c0.441-0.095,0.884-0.19,1.329-0.281c0.092-0.021,0.184-0.039,0.276-0.058
		c0.517-0.107,1.036-0.21,1.556-0.313c0.118-0.024,0.235-0.045,0.353-0.067c0.438-0.085,0.876-0.166,1.316-0.245
		c0.116-0.02,0.232-0.041,0.349-0.062c0.027-0.004,0.054-0.008,0.081-0.015c0.257-0.124,0.519-0.238,0.781-0.348
		c0.057-0.025,0.113-0.048,0.17-0.071c0.335-0.137,0.675-0.26,1.023-0.367c0.05-0.014,0.1-0.025,0.15-0.04
		c0.36-0.102,0.727-0.191,1.105-0.25c0.034-0.004,0.068-0.007,0.102-0.013c0.398-0.057,0.808-0.095,1.231-0.095
		c0.924,0,1.783,0.138,2.597,0.368c0.012,0,0.022,0,0.034,0c0.54-0.021,1.081-0.038,1.621-0.038c1.242,0,2.559,0.47,3.697,0.028
		c4.494-1.744,8.208-5.322,13.422-5.322c0.45,0,0.886,0.029,1.315,0.073c0.135,0.015,0.265,0.038,0.398,0.054
		c0.295,0.041,0.586,0.089,0.872,0.148c0.142,0.029,0.285,0.06,0.426,0.095c0.28,0.069,0.556,0.146,0.829,0.229
		c0.123,0.04,0.247,0.074,0.367,0.114c0.349,0.12,0.692,0.251,1.03,0.394c0.03,0.012,0.062,0.021,0.091,0.035l0,0
		c1.979,0.851,3.785,2.081,5.582,3.357c0.577-0.502,1.182-0.957,1.816-1.358c0.006-0.006,0.012-0.013,0.018-0.021
		c0.033-0.021,0.068-0.038,0.101-0.058c0.172-0.105,0.353-0.201,0.53-0.298c0.104-0.055,0.203-0.122,0.309-0.172
		c0,0.006,0,0.01-0.001,0.016c1.249-0.625,2.633-1.015,4.261-1.015c1.03,0,2.038,0.087,3.021,0.252
		c0.428,0.073,0.85,0.167,1.267,0.267c0.132,0.034,0.262,0.068,0.394,0.104c0.307,0.083,0.61,0.172,0.91,0.272
		c0.125,0.04,0.25,0.077,0.374,0.123c0.398,0.138,0.791,0.287,1.175,0.455c0.073,0.033,0.144,0.068,0.217,0.102
		c0.316,0.142,0.629,0.293,0.935,0.453c0.13,0.068,0.258,0.138,0.386,0.208c0.261,0.146,0.518,0.296,0.771,0.454
		c0.114,0.069,0.228,0.138,0.34,0.21c0.335,0.219,0.664,0.448,0.983,0.689c0.108,0.083,0.213,0.168,0.319,0.253
		c0.221,0.176,0.439,0.356,0.653,0.54c0.125,0.109,0.25,0.221,0.373,0.334c0.202,0.187,0.398,0.377,0.59,0.571
		c0.103,0.105,0.209,0.207,0.31,0.312c0.262,0.281,0.513,0.567,0.756,0.863c0.111,0.133,0.216,0.273,0.323,0.409
		c0.148,0.192,0.293,0.388,0.434,0.583c0.106,0.152,0.213,0.302,0.316,0.458c0.046,0.07,0.095,0.142,0.141,0.21
		c0.189-0.115,0.387-0.229,0.569-0.349c0.06-0.039,0.125-0.078,0.185-0.118c0.392-0.258,0.764-0.521,1.124-0.789
		c0.102-0.076,0.2-0.15,0.3-0.227c0.284-0.214,0.56-0.43,0.828-0.647c0.077-0.062,0.155-0.123,0.23-0.185
		c0.328-0.268,0.644-0.537,0.953-0.805c0.088-0.077,0.176-0.154,0.264-0.229c0.256-0.226,0.51-0.452,0.758-0.673
		c0.338-0.3,0.672-0.599,1.003-0.891c0.056-0.05,0.113-0.098,0.17-0.148c0.237-0.208,0.476-0.412,0.714-0.615
		c0.091-0.075,0.183-0.152,0.275-0.229c0.293-0.241,0.588-0.479,0.89-0.707c0.031-0.022,0.064-0.045,0.095-0.067
		c0.271-0.203,0.549-0.397,0.832-0.585c0.096-0.063,0.192-0.125,0.29-0.188c0.273-0.174,0.555-0.339,0.844-0.499
		c0.057-0.031,0.112-0.066,0.17-0.096c0.008-0.006,0.015-0.01,0.024-0.013v0.002c1.9-1.003,4.182-1.642,7.315-1.663
		c0,0,0-0.001,0-0.003c0.049,0,0.096-0.003,0.145-0.003c0.207,0,0.446,0.009,0.698,0.019c0.059,0.002,0.118,0.004,0.18,0.007
		c0.263,0.013,0.542,0.03,0.846,0.055c0.011,0.002,0.024,0.002,0.037,0.004c0.297,0.023,0.616,0.056,0.946,0.092
		c0.066,0.006,0.13,0.013,0.196,0.019c0.355,0.041,0.723,0.087,1.11,0.143c0.014,0,0.029,0.004,0.042,0.006
		c0.377,0.052,0.769,0.114,1.171,0.18c0.061,0.009,0.119,0.019,0.179,0.029c0.422,0.072,0.854,0.151,1.296,0.238
		c0.033,0.005,0.067,0.014,0.101,0.021c0.415,0.082,0.838,0.172,1.268,0.268c0.065,0.017,0.128,0.029,0.194,0.044
		c0.454,0.105,0.913,0.216,1.378,0.336c0.022,0.006,0.043,0.01,0.065,0.017c0,0,0,0,0,0.002c3.774,0.985,7.822,2.534,10.922,4.833
		c-0.003-0.004-0.005-0.011-0.008-0.014c0.059,0.043,0.113,0.091,0.172,0.134c0.157,0.123,0.311,0.244,0.464,0.367
		c0.118,0.097,0.236,0.193,0.352,0.293c0.148,0.125,0.292,0.256,0.435,0.389c0.11,0.102,0.219,0.203,0.326,0.305
		c0.138,0.138,0.271,0.275,0.403,0.415c0.101,0.108,0.201,0.214,0.298,0.325c0.127,0.142,0.248,0.292,0.368,0.44
		c0.09,0.111,0.182,0.221,0.266,0.335c0.117,0.154,0.225,0.315,0.334,0.476c0.076,0.113,0.157,0.225,0.229,0.343
		c0.106,0.169,0.201,0.344,0.298,0.521c0.062,0.112,0.129,0.224,0.188,0.336c0.1,0.199,0.186,0.404,0.273,0.609
		c0.042,0.099,0.091,0.194,0.129,0.293c0.121,0.309,0.226,0.623,0.316,0.947c0.05,0,0.099,0,0.149,0.001
		c0.116,0,0.236,0.002,0.353,0.002c1.105-0.82,2.255-1.52,3.762-1.52c1.206,0,2.183,0.44,3.088,1.039c0,0,0,0,0,0
		c0.003,0.002,0.006,0.003,0.01,0.005c0.252,0.167,0.5,0.348,0.743,0.534c1.031,0.008,2.078,0.016,3.138,0.025
		c0.237,0.002,0.477,0.004,0.715,0.006c0.46,0.004,0.92,0.006,1.385,0.011c6.606,0.053,13.732,0.113,21.291,0.179
		c0.888-0.876,1.727-1.784,2.622-2.574c0,0-0.001-0.002-0.002-0.002c0.023-0.021,0.047-0.04,0.07-0.058
		c0.108-0.095,0.219-0.188,0.33-0.279c0.08-0.067,0.161-0.13,0.242-0.194c0.106-0.082,0.21-0.159,0.315-0.238
		c0.092-0.064,0.187-0.129,0.281-0.192c0.101-0.068,0.204-0.134,0.308-0.198c0.103-0.064,0.21-0.123,0.315-0.179
		c0.102-0.058,0.203-0.113,0.308-0.164c0.115-0.056,0.233-0.106,0.353-0.158c0.101-0.043,0.201-0.087,0.305-0.124
		c0.131-0.051,0.267-0.088,0.404-0.129c0.1-0.028,0.196-0.062,0.298-0.085c0.158-0.038,0.323-0.064,0.486-0.09
		c0.089-0.015,0.172-0.034,0.262-0.045c0.259-0.03,0.525-0.049,0.803-0.049c3.838,0,7.209,1.958,9.139,4.913
		c0.467,0.004,0.931,0.009,1.401,0.013c1.899-2.824,5.16-4.689,8.864-4.689c0.418,0,0.829,0.031,1.234,0.079
		c0.128,0.014,0.255,0.032,0.38,0.054c0.29,0.043,0.575,0.099,0.857,0.166c0.123,0.028,0.247,0.053,0.369,0.087
		c0.336,0.091,0.666,0.196,0.985,0.319c-0.006,0-0.012,0-0.018,0c2.144,0.812,3.957,2.278,5.168,4.16
		c1.906,0.021,3.925,0.04,6.009,0.062c4.469,0.042,9.236,0.09,13.944,0.135c3.874,0.038,7.694,0.078,11.238,0.118
		c1.625-4.087,3.754-5.949,7.422-6.608c0.102-0.019,0.208-0.033,0.311-0.049c0.251-0.04,0.508-0.075,0.775-0.105
		c0.125-0.015,0.255-0.028,0.385-0.039c0.27-0.023,0.549-0.043,0.833-0.058c0.123-0.007,0.243-0.017,0.369-0.021
		c0.41-0.017,0.833-0.028,1.278-0.028c6.358,0,9.455,1.694,11.502,7.247c11.66,0.151,23.501,0.316,35.288,0.495
		c0.24,0.001,0.48,0.006,0.72,0.01c3.441,0.051,6.875,0.106,10.3,0.16c0.362,0.006,0.724,0.011,1.087,0.016c0,0,0,0-0.002,0
		c11.092,0.178,22.052,0.366,32.687,0.565c0.33,0.009,0.653,0.016,0.982,0.021c7.164,0.137,14.177,0.278,20.974,0.426
		c0.008,0,0.016,0,0.023,0c0.819,0.02,1.63,0.038,2.442,0.054c2.531,0.059,5.04,0.115,7.505,0.172
		c2.522,0.06,4.995,0.12,7.439,0.181l0,0c0.678,0.017,1.345,0.033,2.021,0.051c0.244,0.004,0.485,0.011,0.731,0.018
		c0.861,0.021,1.715,0.044,2.566,0.067c3.348,0.087,6.612,0.176,9.781,0.266c0.057,0.002,0.109,0.004,0.166,0.004
		c1.276,0.039,2.529,0.075,3.774,0.113c0.119,0.002,0.242,0.005,0.36,0.01c2.678,0.082,5.278,0.164,7.8,0.244
		c0.117,0.004,0.235,0.008,0.351,0.012c1.01,0.034,1.996,0.068,2.977,0.102c0.276,0.009,0.564,0.019,0.838,0.03
		c2.457,0.084,4.819,0.17,7.098,0.26C459.36,23.183,459.647,23.193,459.93,23.206z M128.213,25.343
		c0.033-0.575-0.003-1.151-0.094-1.717c-0.046-0.283-0.105-0.564-0.177-0.839c-0.074-0.28-0.147-0.543-0.258-0.828
		c-0.43-1.1-1.175-2.03-2.025-2.805c-0.853-0.778-1.828-1.407-2.858-1.915c-1.031-0.505-2.122-0.895-3.248-1.146
		c-1.126-0.246-2.29-0.36-3.455-0.271c-1.159,0.089-2.335,0.394-3.342,1.029c-0.502,0.317-0.954,0.714-1.326,1.173
		c-0.373,0.456-0.665,0.973-0.875,1.513c-0.054,0.134-0.1,0.272-0.145,0.41c-0.044,0.141-0.081,0.295-0.106,0.441
		c-0.05,0.297-0.06,0.597-0.038,0.893c0.042,0.592,0.21,1.16,0.461,1.685c0.253,0.526,0.59,1.012,1.02,1.421
		c0.428,0.403,0.96,0.743,1.583,0.845c0.309,0.053,0.635,0.034,0.936-0.064c0.3-0.092,0.57-0.255,0.796-0.455
		c0.228-0.195,0.416-0.425,0.578-0.666c0.161-0.243,0.3-0.499,0.398-0.778c0.096-0.281,0.144-0.584,0.111-0.886
		c-0.031-0.303-0.15-0.592-0.321-0.835c-0.171-0.243-0.389-0.446-0.623-0.618c-0.118-0.084-0.236-0.161-0.364-0.235
		c-0.125-0.073-0.276-0.134-0.428-0.161c-0.31-0.062-0.652,0.053-0.859,0.275c-0.211,0.222-0.325,0.521-0.318,0.815
		c0,0.299,0.174,0.6,0.445,0.734c0.269,0.139,0.57,0.145,0.852,0.112l-0.008-0.069c-0.274,0.019-0.56-0.006-0.788-0.137
		c-0.23-0.133-0.354-0.388-0.347-0.642c0.004-0.254,0.116-0.508,0.298-0.68c0.182-0.175,0.44-0.251,0.682-0.192
		c0.242,0.05,0.462,0.22,0.675,0.384c0.21,0.165,0.397,0.357,0.536,0.573c0.139,0.218,0.225,0.458,0.243,0.707
		c0.02,0.248-0.028,0.5-0.118,0.74c-0.189,0.474-0.515,0.934-0.908,1.262c-0.394,0.329-0.9,0.48-1.389,0.379
		c-0.49-0.095-0.94-0.392-1.308-0.76c-0.365-0.37-0.664-0.813-0.881-1.289c-0.216-0.477-0.354-0.988-0.381-1.499
		c-0.014-0.256,0-0.511,0.047-0.757c0.023-0.126,0.053-0.24,0.094-0.363c0.043-0.125,0.087-0.247,0.138-0.368
		c0.395-0.976,1.091-1.809,1.995-2.349c0.9-0.542,1.964-0.812,3.038-0.887c1.078-0.074,2.173,0.041,3.236,0.282
		c2.124,0.484,4.165,1.455,5.781,2.875c0.8,0.714,1.485,1.56,1.872,2.525c0.366,0.977,0.567,2.061,0.519,3.107
		c-0.047,1.051-0.371,2.082-0.951,2.962c-0.579,0.885-1.408,1.605-2.354,2.123c-1.905,1.033-4.211,1.313-6.379,0.936
		c-2.181-0.392-4.224-1.384-6.07-2.614c-1.86-1.225-3.586-2.643-5.392-3.961c-0.904-0.66-1.831-1.294-2.812-1.849
		c-0.977-0.558-2.01-1.037-3.104-1.366c-1.091-0.33-2.248-0.497-3.402-0.428c-1.153,0.061-2.291,0.357-3.343,0.815
		c-1.053,0.456-2.031,1.049-2.952,1.704c-0.921,0.65-1.797,1.35-2.661,2.057l-1.298,1.051l-0.655,0.514
		c-0.216,0.166-0.438,0.329-0.664,0.482c-0.538,0.368-1.106,0.69-1.689,0.988c0.833-0.902,1.441-2.001,1.737-3.183
		c0.303-1.207,0.282-2.498-0.1-3.685c-0.375-1.19-1.081-2.257-1.985-3.109c-0.906-0.85-2.042-1.476-3.273-1.745
		c-0.614-0.134-1.25-0.176-1.878-0.12c-0.626,0.062-1.244,0.223-1.814,0.487c-1.147,0.516-2.067,1.428-2.688,2.47
		c-0.313,0.522-0.561,1.073-0.762,1.64c-0.192,0.571-0.341,1.171-0.307,1.792c0.02,0.309,0.098,0.625,0.28,0.894
		c0.171,0.259,0.401,0.485,0.674,0.643c0.273,0.155,0.589,0.246,0.908,0.227c0.187-0.01,0.376-0.074,0.533-0.183
		c0.007,0.005,0.012,0.008,0.02,0.018l0.052,0.062c0.009,0.01,0.019,0.024,0.034,0.033c0.012,0.011,0.039,0.033,0.08,0.016
		c0.056-0.041,0.046-0.069,0.058-0.099c0.021-0.118,0.02-0.226,0.022-0.335l0.004-0.202l-0.1,0.18
		c-0.136,0.245-0.427,0.365-0.708,0.367c-0.285,0.008-0.569-0.084-0.81-0.233c-0.241-0.153-0.44-0.363-0.586-0.605
		c-0.146-0.233-0.205-0.511-0.212-0.792c-0.009-0.566,0.153-1.133,0.358-1.675c0.208-0.542,0.466-1.07,0.777-1.559
		c0.621-0.975,1.503-1.794,2.567-2.237c1.059-0.45,2.26-0.524,3.375-0.258c2.249,0.526,4.091,2.369,4.734,4.515
		c0.318,1.078,0.337,2.235,0.053,3.322c-0.28,1.089-0.855,2.102-1.638,2.918c-0.705,0.741-1.589,1.311-2.557,1.67
		c-0.654,0.187-1.319,0.329-1.991,0.438c-0.584,0.053-1.171,0.079-1.758,0.064c-2.357-0.039-4.676-0.67-6.834-1.636
		c-4.341-1.944-8.091-5.014-12.335-7.303c-1.061-0.572-2.152-1.098-3.281-1.529c-1.131-0.431-2.298-0.774-3.491-0.989
		c-1.193-0.215-2.413-0.292-3.623-0.228c-1.213,0.069-2.414,0.283-3.573,0.631c-1.159,0.347-2.284,0.811-3.35,1.379
		c-1.067,0.565-2.082,1.231-3.013,2.003c-0.465,0.386-0.911,0.798-1.329,1.236c-0.417,0.44-0.8,0.896-1.191,1.348
		c-0.225,0.262-0.451,0.521-0.676,0.783c0.211-0.44,0.333-0.892,0.333-1.354c0-1.335-0.97-2.592-2.415-3.688
		c-1.454-1.286-4.049-2.404-6.478-3.139c-1.848-0.581-3.575-0.911-4.707-0.911c-3.67,0-6.644,3.466-6.644,7.738
		c0,4.275,2.974,7.741,6.644,7.741c1.042,0,2.588-0.28,4.269-0.778c0.436,0.068,0.875,0.108,1.319,0.077
		c0.317-0.023,0.633-0.07,0.944-0.147c0.293-0.072,0.599-0.163,0.889-0.262c0.586-0.199,1.155-0.449,1.695-0.751
		c1.084-0.599,2.027-1.405,2.866-2.276c0.837-0.874,1.58-1.813,2.33-2.735c0.376-0.46,0.749-0.928,1.14-1.362
		c0.393-0.436,0.815-0.848,1.258-1.236c1.778-1.555,3.9-2.749,6.182-3.453c1.142-0.347,2.324-0.582,3.517-0.63
		c1.195-0.057,2.395,0.031,3.568,0.252c2.357,0.429,4.562,1.431,6.629,2.606c2.072,1.185,4.018,2.571,6.012,3.901
		c1.99,1.334,4.023,2.647,6.239,3.657c0.255,0.115,0.515,0.228,0.774,0.338c0.707,0.321,1.435,0.603,2.192,0.795
		c0.115,0.028,0.235,0.041,0.351,0.068c1.228,0.327,2.492,0.529,3.772,0.561c0.615,0.021,1.233,0.001,1.847-0.053
		c0.61-0.047,1.252-0.158,1.85-0.354c0.625-0.196,1.221-0.479,1.773-0.83c0.146-0.055,0.3-0.096,0.444-0.154
		c1.057-0.421,2.074-0.945,3.021-1.578c0.236-0.159,0.468-0.324,0.696-0.494l0.666-0.514l1.316-1.039
		c1.744-1.377,3.469-2.797,5.463-3.709c0.992-0.453,2.051-0.764,3.141-0.854c1.089-0.095,2.195,0.03,3.26,0.318
		c1.066,0.284,2.091,0.723,3.071,1.244c0.979,0.527,1.911,1.138,2.817,1.782c1.815,1.292,3.526,2.731,5.389,3.979
		c0.933,0.621,1.899,1.203,2.919,1.689c1.02,0.485,2.096,0.868,3.217,1.093c1.118,0.226,2.276,0.286,3.418,0.159
		c1.143-0.126,2.272-0.443,3.297-0.983c1.023-0.536,1.944-1.303,2.601-2.266C127.784,27.645,128.147,26.495,128.213,25.343z
		 M82.415,23.323c0.006,0.005,0.012,0.009,0.018,0.015c-0.011-0.036-0.028-0.066-0.04-0.102c-0.024-0.07-0.054-0.136-0.082-0.204
		c-0.064-0.162-0.135-0.314-0.216-0.466c-0.037-0.069-0.074-0.134-0.114-0.199c-0.094-0.156-0.198-0.302-0.309-0.438
		c-0.034-0.043-0.064-0.089-0.098-0.127c-0.15-0.172-0.311-0.327-0.484-0.466c-0.042-0.032-0.087-0.06-0.13-0.091
		c-0.137-0.103-0.278-0.192-0.427-0.269c-0.064-0.035-0.129-0.066-0.196-0.095c-0.141-0.062-0.288-0.116-0.438-0.157
		c-0.065-0.02-0.129-0.042-0.195-0.057c-0.216-0.046-0.436-0.076-0.663-0.076c-1.998,0-3.617,1.885-3.617,4.211
		c0,2.328,1.62,4.214,3.617,4.214c0.226,0,0.445-0.031,0.659-0.076c0.039-0.009,0.077-0.018,0.113-0.025
		c0.204-0.053,0.4-0.124,0.589-0.213c0.036-0.017,0.071-0.037,0.107-0.056c0.19-0.1,0.375-0.21,0.546-0.346
		c0.01-0.007,0.019-0.017,0.027-0.022c0.165-0.131,0.317-0.283,0.461-0.443c0.027-0.029,0.054-0.06,0.081-0.09
		c0.113-0.135,0.221-0.274,0.318-0.427c-0.006,0.003-0.013,0.003-0.018,0.005c0.454-0.705,0.733-1.569,0.733-2.521
		C82.658,24.281,82.565,23.785,82.415,23.323z M122.594,23.704c0.003,0.003,0.008,0.004,0.012,0.008
		c-0.008-0.025-0.02-0.047-0.028-0.072c-0.02-0.056-0.043-0.11-0.065-0.163c-0.047-0.117-0.097-0.227-0.154-0.333
		c-0.03-0.058-0.06-0.11-0.093-0.163c-0.066-0.108-0.14-0.21-0.218-0.309c-0.03-0.036-0.055-0.074-0.085-0.11
		c-0.11-0.124-0.229-0.239-0.354-0.34c-0.036-0.028-0.072-0.051-0.108-0.075c-0.099-0.073-0.201-0.139-0.308-0.194
		c-0.049-0.028-0.1-0.05-0.151-0.073c-0.104-0.048-0.212-0.084-0.321-0.115c-0.05-0.015-0.098-0.033-0.149-0.042
		c-0.16-0.036-0.324-0.06-0.493-0.06c-1.489,0-2.696,1.407-2.696,3.14c0,1.735,1.208,3.14,2.696,3.14
		c0.206,0,0.404-0.031,0.597-0.084c0.063-0.015,0.121-0.043,0.181-0.064c0.127-0.045,0.251-0.094,0.371-0.161
		c0.065-0.035,0.125-0.076,0.188-0.117c0.107-0.073,0.209-0.15,0.307-0.238c0.056-0.051,0.11-0.102,0.162-0.156
		c0.096-0.102,0.182-0.211,0.264-0.329c0.03-0.04,0.066-0.072,0.093-0.113c-0.005,0.002-0.01,0.002-0.014,0.002
		c0.339-0.523,0.546-1.169,0.546-1.878C122.773,24.416,122.706,24.047,122.594,23.704z M185.355,23.052
		c-0.261-0.888-0.845-1.586-1.464-2.178c-0.622-0.587-1.371-1.102-2.206-1.394c-0.835-0.295-1.735-0.375-2.598-0.289
		c-0.866,0.084-1.7,0.316-2.495,0.616c-0.795,0.302-1.557,0.671-2.297,1.071c-1.485,0.79-2.896,1.695-4.354,2.511
		c-0.731,0.398-1.473,0.785-2.249,1.076c-0.782,0.287-1.581,0.531-2.397,0.705c-1.63,0.356-3.302,0.498-4.968,0.461
		c-1.667-0.037-3.327-0.229-4.972-0.508c-1.645-0.288-3.277-0.652-4.904-1.05c-3.25-0.854-6.654-1.449-10.084-1.175
		c-0.856,0.077-1.713,0.219-2.547,0.47c-0.833,0.25-1.65,0.615-2.353,1.164c-0.702,0.542-1.267,1.273-1.589,2.093l-0.059,0.151
		l-0.029,0.084l-0.024,0.074c-0.034,0.107-0.065,0.227-0.084,0.339c-0.041,0.229-0.049,0.465-0.025,0.696
		c0.048,0.469,0.242,0.909,0.527,1.272c0.572,0.729,1.491,1.142,2.407,1.122c0.458-0.008,0.91-0.129,1.309-0.338
		c0.2-0.105,0.388-0.23,0.556-0.369c0.171-0.138,0.333-0.296,0.47-0.479c0.135-0.182,0.248-0.4,0.282-0.644
		c0.036-0.243-0.028-0.502-0.16-0.703c-0.268-0.407-0.709-0.611-1.144-0.696c-0.438-0.08-0.924-0.028-1.297,0.24
		c-0.184,0.131-0.326,0.318-0.411,0.523c-0.085,0.202-0.12,0.417-0.122,0.632l0,0.057l0.05,0.01
		c0.184,0.034,0.352,0.011,0.517-0.002c0.163-0.013,0.331-0.031,0.475,0.019l0.029-0.062c-0.169-0.069-0.345-0.056-0.51-0.056
		c-0.144,0.005-0.288,0.005-0.417-0.018c0.035-0.379,0.194-0.746,0.506-0.941c0.323-0.209,0.747-0.236,1.124-0.145
		c0.378,0.09,0.74,0.304,0.922,0.608c0.187,0.3,0.098,0.67-0.143,0.957c-0.238,0.285-0.575,0.53-0.918,0.697
		c-0.351,0.168-0.734,0.251-1.119,0.245c-0.766-0.014-1.521-0.389-1.966-0.982c-0.221-0.296-0.36-0.643-0.388-1
		c-0.015-0.182-0.004-0.36,0.033-0.536c0.018-0.093,0.041-0.172,0.07-0.263l0.026-0.073l0.024-0.062l0.056-0.134
		c0.304-0.718,0.803-1.336,1.436-1.799c0.63-0.465,1.372-0.79,2.146-1.015c0.776-0.224,1.589-0.351,2.407-0.415
		c1.639-0.131,3.305-0.044,4.952,0.158c0.825,0.1,1.648,0.23,2.464,0.388c0.817,0.152,1.622,0.356,2.447,0.545
		c1.639,0.379,3.293,0.732,4.967,0.977c1.672,0.25,3.367,0.407,5.065,0.376c1.695-0.024,3.392-0.214,5.034-0.624
		c0.82-0.209,1.631-0.454,2.419-0.757c0.792-0.308,1.536-0.706,2.268-1.117c1.462-0.82,2.886-1.703,4.379-2.445
		c0.749-0.368,1.511-0.703,2.295-0.968c0.784-0.262,1.592-0.455,2.404-0.504c0.81-0.05,1.624,0.055,2.362,0.347
		c0.745,0.288,1.398,0.743,1.975,1.311c0.576,0.551,1.085,1.192,1.29,1.905c0.103,0.354,0.118,0.721,0.031,1.07
		c-0.083,0.351-0.27,0.68-0.515,0.971c-0.495,0.583-1.193,1.015-1.927,1.35c-0.74,0.331-1.534,0.558-2.341,0.71
		c-0.807,0.15-1.633,0.219-2.454,0.183c-0.794-0.034-1.591-0.168-2.317-0.466c-0.101-0.322-0.177-0.65-0.163-0.972
		c0.011-0.346,0.162-0.679,0.47-0.842c0.301-0.163,0.695-0.171,1.043-0.074c0.174,0.049,0.347,0.123,0.474,0.244
		c0.063,0.059,0.112,0.132,0.12,0.212c0.009,0.081-0.024,0.157-0.086,0.228l0.053,0.046c0.067-0.067,0.128-0.17,0.122-0.28
		c-0.003-0.109-0.061-0.206-0.129-0.28c-0.139-0.151-0.322-0.244-0.508-0.311c-0.375-0.125-0.805-0.149-1.189,0.029
		c-0.189,0.091-0.355,0.239-0.462,0.421c-0.109,0.183-0.162,0.384-0.185,0.585c-0.038,0.403,0.032,0.794,0.137,1.166l0.02,0.068
		l0.072,0.033c0.788,0.37,1.646,0.541,2.501,0.608c0.856,0.065,1.719,0.024,2.568-0.105c0.849-0.133,1.685-0.358,2.483-0.698
		c0.793-0.338,1.566-0.793,2.159-1.477c0.293-0.343,0.533-0.751,0.648-1.206C185.497,23.975,185.48,23.492,185.355,23.052z
		 M181.986,24.001c0.002,0.003,0.006,0.003,0.008,0.007c-0.005-0.019-0.014-0.036-0.021-0.051c-0.015-0.041-0.031-0.083-0.047-0.121
		c-0.035-0.085-0.071-0.166-0.113-0.244c-0.021-0.039-0.042-0.079-0.066-0.115c-0.049-0.082-0.103-0.156-0.16-0.228
		c-0.021-0.027-0.04-0.055-0.062-0.079c-0.08-0.094-0.167-0.176-0.26-0.251c-0.024-0.018-0.052-0.035-0.077-0.053
		c-0.073-0.054-0.147-0.102-0.225-0.143c-0.036-0.019-0.073-0.036-0.111-0.052c-0.076-0.036-0.154-0.063-0.235-0.085
		c-0.036-0.009-0.071-0.023-0.107-0.03c-0.118-0.025-0.237-0.042-0.36-0.042c-1.087,0-1.966,1.024-1.966,2.288
		c0,1.265,0.879,2.291,1.966,2.291c0.15,0,0.295-0.023,0.435-0.061c0.046-0.012,0.089-0.032,0.134-0.05
		c0.092-0.03,0.183-0.068,0.268-0.115c0.048-0.027,0.092-0.058,0.139-0.087c0.077-0.053,0.15-0.109,0.221-0.174
		c0.042-0.036,0.083-0.073,0.122-0.116c0.068-0.071,0.129-0.147,0.187-0.231c0.022-0.03,0.051-0.054,0.072-0.089
		c-0.003,0-0.008,0-0.011,0.002c0.248-0.382,0.4-0.853,0.4-1.37C182.118,24.521,182.068,24.251,181.986,24.001z M221.242,27.324
		c0.455-0.705,0.734-1.569,0.734-2.521c0-0.522-0.091-1.019-0.242-1.48c0.005,0.005,0.013,0.009,0.018,0.015
		c-0.011-0.036-0.027-0.066-0.039-0.102c-0.025-0.07-0.056-0.136-0.083-0.204c-0.063-0.162-0.136-0.314-0.216-0.463
		c-0.037-0.072-0.075-0.137-0.114-0.205c-0.094-0.153-0.197-0.297-0.306-0.431c-0.035-0.045-0.067-0.091-0.103-0.134
		c-0.149-0.169-0.31-0.325-0.482-0.463c-0.042-0.032-0.089-0.06-0.134-0.092c-0.136-0.102-0.275-0.191-0.422-0.268
		c-0.065-0.035-0.132-0.066-0.199-0.095c-0.141-0.062-0.286-0.114-0.435-0.157c-0.065-0.02-0.13-0.042-0.197-0.057
		c-0.215-0.046-0.435-0.076-0.661-0.076c-1.999,0-3.617,1.885-3.617,4.211c0,2.328,1.618,4.214,3.617,4.214
		c0.225,0,0.445-0.031,0.659-0.078c0.039-0.007,0.075-0.016,0.112-0.023c0.205-0.053,0.4-0.124,0.589-0.213
		c0.037-0.017,0.071-0.037,0.107-0.055c0.191-0.101,0.376-0.211,0.549-0.347c0.007-0.007,0.015-0.014,0.023-0.021
		c0.166-0.132,0.318-0.285,0.464-0.446c0.026-0.028,0.053-0.059,0.077-0.087c0.114-0.135,0.222-0.274,0.32-0.429
		C221.256,27.322,221.249,27.322,221.242,27.324z M240.684,26.682c0.338-0.523,0.546-1.169,0.546-1.878
		c0-0.388-0.067-0.757-0.179-1.1c0.004,0.003,0.008,0.004,0.012,0.008c-0.008-0.025-0.02-0.046-0.027-0.068
		c-0.02-0.06-0.045-0.116-0.069-0.173c-0.046-0.112-0.096-0.22-0.15-0.325c-0.03-0.056-0.061-0.111-0.094-0.166
		c-0.066-0.106-0.14-0.207-0.216-0.303c-0.03-0.038-0.057-0.078-0.088-0.114c-0.109-0.126-0.227-0.239-0.354-0.34
		c-0.035-0.028-0.074-0.051-0.109-0.075c-0.099-0.073-0.2-0.139-0.306-0.194c-0.051-0.028-0.102-0.05-0.152-0.073
		c-0.104-0.048-0.212-0.084-0.321-0.115c-0.05-0.015-0.098-0.033-0.149-0.042c-0.16-0.036-0.324-0.06-0.492-0.06
		c-1.488,0-2.697,1.407-2.697,3.14c0,1.735,1.209,3.14,2.697,3.14c0.207,0,0.404-0.031,0.597-0.084
		c0.062-0.015,0.122-0.043,0.184-0.064c0.124-0.045,0.249-0.094,0.368-0.161c0.066-0.035,0.126-0.076,0.188-0.119
		c0.107-0.071,0.209-0.148,0.307-0.236c0.055-0.051,0.11-0.102,0.162-0.159c0.095-0.099,0.181-0.208,0.263-0.324
		c0.029-0.042,0.066-0.072,0.095-0.115C240.692,26.682,240.688,26.682,240.684,26.682z M295.422,29.431
		c0.829-1.291,1.326-2.89,1.326-4.627c0-0.95-0.154-1.86-0.424-2.702c0.003,0.004,0.007,0.007,0.011,0.009
		c-0.011-0.031-0.027-0.062-0.038-0.093c-0.108-0.327-0.231-0.645-0.373-0.949c-0.014-0.028-0.03-0.051-0.042-0.076
		c-0.138-0.284-0.292-0.553-0.458-0.811c-0.034-0.056-0.068-0.11-0.104-0.165c-0.182-0.266-0.376-0.521-0.585-0.758
		c-0.035-0.041-0.072-0.075-0.107-0.112c-0.192-0.211-0.396-0.405-0.609-0.587c-0.041-0.035-0.08-0.072-0.122-0.107
		c-0.238-0.191-0.49-0.369-0.75-0.524c-0.056-0.035-0.11-0.063-0.167-0.094c-0.243-0.136-0.495-0.258-0.754-0.36
		c-0.034-0.015-0.066-0.029-0.102-0.043c-0.282-0.105-0.575-0.185-0.875-0.245c-0.068-0.014-0.137-0.024-0.208-0.037
		c-0.307-0.049-0.617-0.085-0.936-0.085c-3.67,0-6.646,3.466-6.646,7.738c0,4.275,2.977,7.741,6.646,7.741
		c0.254,0,0.502-0.021,0.749-0.053c0.079-0.01,0.156-0.028,0.232-0.041c0.168-0.029,0.334-0.062,0.497-0.105
		c0.087-0.022,0.173-0.05,0.258-0.078c0.152-0.048,0.302-0.1,0.45-0.159c0.081-0.036,0.165-0.068,0.246-0.105
		c0.151-0.07,0.297-0.147,0.441-0.229c0.072-0.039,0.143-0.075,0.212-0.115c0.179-0.111,0.354-0.232,0.522-0.361
		c0.028-0.021,0.059-0.039,0.088-0.062c0.197-0.154,0.386-0.32,0.567-0.498c0.047-0.046,0.091-0.097,0.139-0.146
		c0.127-0.134,0.256-0.272,0.376-0.417c0.059-0.07,0.113-0.143,0.168-0.215c0.102-0.135,0.2-0.271,0.296-0.412
		c0.027-0.04,0.061-0.078,0.087-0.121C295.43,29.429,295.427,29.429,295.422,29.431z"/>
</g>
<g id="Layer_1">
</g>
</svg>
