<?xml version="1.0" encoding="iso-8859-1"?>
<!-- Generator: Adobe Illustrator 16.0.0, SVG Export Plug-In . SVG Version: 6.00 Build 0)  -->
<!DOCTYPE svg PUBLIC "-//W3C//DTD SVG 1.1//EN" "http://www.w3.org/Graphics/SVG/1.1/DTD/svg11.dtd">
<svg id="wand11original" version="1.1" xmlns="http://www.w3.org/2000/svg" xmlns:xlink="http://www.w3.org/1999/xlink" x="0px" y="0px"
	 width="478.029px" height="31.006px" viewBox="0 0 478.029 31.006" style="enable-background:new 0 0 478.029 31.006;"
	 xml:space="preserve">
<g id="Layer_11">
	<path d="M477.529,15.504c0,3.513-194.14,6.431-296.691,7.359c-0.021,0-0.042,0-0.063,0c-1.291,0.011-2.566,0.024-3.828,0.034
		c-0.225,0.003-0.453,0.005-0.677,0.006c-1.215,0.011-2.42,0.021-3.607,0.029c-0.421,0.005-0.836,0.01-1.254,0.012
		c-0.796,0.007-1.586,0.015-2.369,0.021c-0.485,0.004-0.968,0.006-1.449,0.01c-0.899,0.009-1.789,0.017-2.668,0.022
		c-0.375,0.002-0.75,0.005-1.121,0.009c-0.935,0.007-1.857,0.014-2.769,0.021c-0.443,0.004-0.881,0.007-1.319,0.011
		c-0.619,0.004-1.229,0.008-1.836,0.012c-0.507,0.004-1.016,0.006-1.514,0.009c-0.917,0.007-1.819,0.014-2.708,0.021
		c-0.4,0-0.792,0.002-1.187,0.005c-0.652,0.007-1.296,0.009-1.932,0.013c-0.378,0.003-0.755,0.006-1.127,0.006
		c-0.729,0.006-1.446,0.011-2.152,0.013c-0.478,0.004-0.948,0.006-1.416,0.008c-0.606,0.002-1.206,0.007-1.794,0.011
		c-0.362,0-0.718,0.003-1.074,0.004c-0.63,0.002-1.248,0.006-1.857,0.008c-0.223,0-0.453,0.002-0.672,0.002
		c-0.339,0.003-0.667,0.005-0.997,0.005c-0.202,3.646-0.617,6.632-1.432,7.244h0.002c-0.002,0-0.003,0-0.006,0.002
		c-0.074,0.055-0.151,0.088-0.23,0.102c-0.016,0.003-0.031,0.003-0.046,0.005c-0.077,0.006-0.156-0.002-0.238-0.034
		c-0.005-0.002-0.012-0.002-0.018-0.006c-0.086-0.033-0.178-0.096-0.271-0.175c-0.022-0.019-0.043-0.036-0.065-0.058
		c-0.096-0.09-0.195-0.195-0.297-0.33c-0.15-0.198-0.469-0.398-0.953-0.596c-0.066-0.027-0.131-0.054-0.203-0.08
		c-0.039-0.015-0.082-0.028-0.122-0.043c-0.079-0.029-0.157-0.058-0.243-0.084c-0.032-0.01-0.067-0.02-0.098-0.03
		c-0.332-0.104-0.711-0.208-1.143-0.309c-0.037-0.01-0.069-0.019-0.106-0.025c-0.112-0.025-0.23-0.053-0.348-0.077
		c-0.07-0.016-0.137-0.03-0.21-0.046c-0.112-0.023-0.233-0.048-0.351-0.07c-0.085-0.016-0.169-0.032-0.257-0.05
		c-0.118-0.022-0.242-0.044-0.364-0.066c-0.099-0.018-0.196-0.036-0.298-0.053c-0.122-0.022-0.249-0.044-0.375-0.063
		c-0.111-0.019-0.224-0.037-0.339-0.055c-0.127-0.019-0.258-0.04-0.391-0.061c-0.123-0.018-0.247-0.036-0.375-0.054
		c-0.134-0.021-0.272-0.039-0.411-0.058c-0.134-0.019-0.269-0.037-0.407-0.055c-0.144-0.021-0.287-0.04-0.434-0.057
		c-0.143-0.02-0.288-0.035-0.435-0.055c-0.15-0.019-0.303-0.036-0.458-0.056c-0.156-0.015-0.316-0.034-0.478-0.052
		c-0.155-0.019-0.309-0.036-0.469-0.052c-0.107-0.012-0.22-0.021-0.33-0.034c-0.373,1.813-0.939,2.579-1.794,1.38
		c-0.55-0.772-3.577-1.566-9.654-2.17c-0.277-0.013-0.554-0.025-0.837-0.037c-0.195-0.009-0.394-0.017-0.592-0.025
		c-0.334-0.011-0.672-0.024-1.014-0.038c-0.196-0.006-0.394-0.014-0.592-0.021c-0.348-0.011-0.7-0.024-1.055-0.037
		c-0.212-0.006-0.425-0.012-0.64-0.02c-0.356-0.012-0.716-0.02-1.08-0.031c-0.218-0.006-0.436-0.011-0.658-0.018
		c-0.38-0.011-0.765-0.02-1.153-0.028c-0.208-0.005-0.416-0.011-0.627-0.016c-0.425-0.01-0.856-0.019-1.292-0.026
		c-0.186-0.004-0.369-0.008-0.558-0.011c-0.471-0.008-0.95-0.017-1.433-0.023c-0.164-0.004-0.324-0.006-0.489-0.008
		c-0.541-0.009-1.09-0.015-1.645-0.023c-0.115,0-0.226-0.002-0.341-0.004c-2.738-0.031-5.653-0.043-8.752-0.034
		c-0.101,0-0.204,0-0.305,0c-0.667,0.002-1.341,0.003-2.025,0.007c-0.163,0.003-0.329,0.003-0.491,0.003
		c-0.625,0.004-1.252,0.011-1.889,0.015c-0.211,0.002-0.427,0.004-0.64,0.006c-0.604,0.006-1.214,0.013-1.831,0.019
		c-0.234,0.002-0.472,0.007-0.708,0.009c-0.482,0.006-0.97,0.014-1.459,0.021c-1.591-0.213-3.163-0.486-4.577-1.055
		c-1.428-0.539-2.648-1.41-3.432-2.552c-0.792-1.14-1.175-2.519-1.342-3.951c-0.084-0.719-0.125-1.454-0.132-2.198
		c-0.015-0.744-0.001-1.499,0.01-2.269c0.002-0.387,0.006-0.764,0.002-1.17c-0.008-0.421-0.035-0.845-0.101-1.263
		c-0.132-0.84-0.373-1.669-0.745-2.442c-0.733-1.559-1.964-2.869-3.405-3.771c-1.442-0.918-3.073-1.444-4.699-1.719
		c-1.634-0.255-3.278-0.276-4.881-0.07c1.6,0.209,3.17,0.482,4.648,0.967c1.481,0.46,2.866,1.134,4.024,2.022
		c1.157,0.887,2.068,2.01,2.598,3.279c0.264,0.635,0.448,1.301,0.53,1.984c0.044,0.34,0.067,0.685,0.068,1.03
		c0.001,0.363-0.006,0.751-0.013,1.133c-0.007,0.766-0.012,1.548,0.014,2.337c0.035,0.788,0.093,1.591,0.226,2.394
		c0.136,0.802,0.331,1.609,0.647,2.392c0.311,0.783,0.742,1.541,1.305,2.205c0.56,0.663,1.249,1.227,2.003,1.646
		c0.756,0.421,1.562,0.712,2.378,0.904c0.695,0.151,1.392,0.23,2.086,0.271c-0.36-0.009-0.719-0.009-1.08-0.044
		c-0.606,0.013-1.217,0.022-1.835,0.035c-0.255,0.004-0.51,0.01-0.766,0.014c-0.669,0.015-1.347,0.027-2.03,0.045
		c-0.246,0.004-0.49,0.01-0.737,0.015c-0.71,0.017-1.429,0.034-2.154,0.053c-0.229,0.004-0.456,0.011-0.688,0.017
		c-0.769,0.018-1.547,0.039-2.331,0.061c-0.193,0.007-0.383,0.011-0.576,0.018c-0.889,0.023-1.788,0.048-2.696,0.077
		c-0.092,0.002-0.179,0.004-0.271,0.008c-4.091,0.123-8.384,0.271-12.884,0.447c-0.151,0.008-0.306,0.015-0.46,0.019
		c-0.949,0.039-1.907,0.077-2.875,0.118c-0.263,0.011-0.533,0.023-0.798,0.033c-0.865,0.036-1.735,0.073-2.615,0.109
		c-0.34,0.016-0.684,0.031-1.026,0.048c-0.281,0.011-0.566,0.024-0.849,0.037c-1.851-0.211-3.687-0.505-5.352-1.14
		c-1.677-0.609-3.129-1.608-4.068-2.937c-0.951-1.327-1.41-2.938-1.611-4.6c-0.102-0.834-0.152-1.684-0.163-2.542
		c-0.018-0.862-0.003-1.733,0.011-2.616c0.003-0.445,0.009-0.882,0.003-1.347c-0.009-0.476-0.041-0.956-0.115-1.435
		c-0.149-0.952-0.425-1.893-0.849-2.773c-0.836-1.77-2.242-3.26-3.896-4.3c-1.654-1.051-3.53-1.668-5.41-2.001
		c-0.132-0.022-0.265-0.034-0.397-0.051C28.087,2.4,33.553,2.686,38.763,2.933c0.84-0.095,1.688-0.131,2.541-0.111
		c-0.736,0-1.47,0.037-2.197,0.125c1.702,0.21,3.373,0.491,4.949,1.001c1.578,0.483,3.058,1.197,4.296,2.141
		c1.239,0.945,2.218,2.146,2.788,3.509c0.283,0.681,0.481,1.393,0.57,2.125c0.047,0.365,0.072,0.734,0.074,1.105
		c0,0.387-0.008,0.8-0.014,1.207c-0.006,0.816-0.014,1.646,0.014,2.487c0.037,0.839,0.097,1.688,0.238,2.54
		c0.143,0.851,0.346,1.709,0.682,2.537c0.326,0.829,0.781,1.632,1.374,2.337c0.59,0.701,1.315,1.301,2.113,1.745
		c0.797,0.446,1.651,0.76,2.514,0.968c1.737,0.39,3.491,0.414,5.192,0.208c-1.698-0.213-3.378-0.494-4.896-1.097
		c-1.524-0.569-2.834-1.493-3.677-2.715c-0.855-1.221-1.266-2.694-1.446-4.228c-0.091-0.767-0.136-1.551-0.144-2.345
		c-0.016-0.794-0.003-1.599,0.011-2.415c0.001-0.413,0.007-0.816,0.001-1.247c-0.007-0.444-0.037-0.894-0.106-1.339
		c-0.139-0.887-0.394-1.764-0.785-2.585c-0.772-1.647-2.071-3.038-3.594-3.998c-1.285-0.823-2.715-1.339-4.164-1.667
		c33.278,1.47,56.116,1.497,70.69,0.854c6.084-0.604,9.115-1.401,9.666-2.172c0.855-1.199,1.421-0.433,1.795,1.38
		c5.995-0.623,9.019-1.412,9.598-2.178c0.083-0.111,0.165-0.204,0.245-0.282c0.023-0.026,0.047-0.043,0.071-0.066
		c0.054-0.048,0.107-0.093,0.16-0.127c0.025-0.017,0.052-0.031,0.077-0.045c0.05-0.027,0.098-0.047,0.146-0.061
		c0.023-0.006,0.046-0.014,0.068-0.019c0.053-0.008,0.104-0.006,0.153,0.002c0.015,0.003,0.03,0,0.045,0.004
		c0.066,0.017,0.128,0.044,0.188,0.088c0.006,0.005,0.012,0.013,0.018,0.016c0.053,0.041,0.104,0.09,0.155,0.151
		c0.015,0.018,0.029,0.041,0.044,0.06c0.041,0.057,0.081,0.117,0.119,0.183c0.015,0.026,0.03,0.056,0.044,0.081
		c0.04,0.077,0.077,0.158,0.114,0.245c0.007,0.019,0.015,0.032,0.021,0.05h-0.001c0.495,1.244,0.777,3.659,0.933,6.471
		c0.054,0,0.107,0,0.162,0c0.282,0.002,0.559,0.002,0.846,0.003c0.249,0,0.507,0.002,0.76,0.004c0.428,0.002,0.852,0.002,1.29,0.004
		c0.066,0,0.135,0,0.201,0.003c8.716,0.039,19.514,0.112,31.833,0.217c0.071,0,0.141,0,0.212,0.003
		c0.929,0.006,1.866,0.017,2.812,0.024c0.006,0,0.012,0,0.018,0c0.91,0.008,1.828,0.016,2.752,0.025
		c0.121,0,0.242,0.002,0.362,0.002c0.898,0.007,1.801,0.015,2.712,0.024c0.086,0.002,0.173,0.002,0.26,0.003
		c0.865,0.006,1.736,0.017,2.612,0.025c0.295,0.002,0.593,0.004,0.889,0.008c0.542,0.005,1.084,0.009,1.631,0.014
		c0.789,0.009,1.584,0.016,2.382,0.024c0.182,0.003,0.363,0.003,0.543,0.005c7.754,0.075,15.921,0.161,24.407,0.256h0
		C322.3,9.694,477.529,12.36,477.529,15.504z M35.857,26.504c-0.864-0.481-1.649-1.125-2.287-1.882
		c-0.641-0.755-1.131-1.616-1.485-2.507c-0.361-0.89-0.582-1.813-0.735-2.728c-0.152-0.919-0.218-1.834-0.256-2.737
		c-0.029-0.908-0.022-1.804-0.014-2.686c0.007-0.438,0.016-0.885,0.014-1.305c-0.002-0.404-0.029-0.806-0.082-1.204
		c-0.101-0.798-0.319-1.578-0.634-2.319c-0.634-1.486-1.719-2.792-3.089-3.814c-1.37-1.023-3-1.786-4.735-2.301
		c-1.732-0.54-3.565-0.833-5.426-1.04c0.539-0.06,1.082-0.093,1.627-0.11c-0.04,0-0.081-0.003-0.121-0.003
		c-4.089-0.234-8.299-0.49-12.638-0.763C3.867,0.973,2.481,2.972,1.633,5.859c0,0-0.002,0-0.003,0
		C1.603,5.95,1.582,6.048,1.556,6.14C1.489,6.387,1.42,6.632,1.359,6.893C1.335,6.992,1.315,7.1,1.292,7.204
		C1.231,7.475,1.171,7.752,1.118,8.035c-0.019,0.099-0.034,0.2-0.05,0.299C1.016,8.627,0.965,8.924,0.92,9.228
		C0.906,9.327,0.895,9.429,0.881,9.53c-0.041,0.306-0.082,0.613-0.117,0.925c-0.013,0.116-0.021,0.232-0.034,0.35
		c-0.03,0.299-0.061,0.601-0.086,0.904c-0.01,0.143-0.017,0.285-0.027,0.429c-0.019,0.276-0.039,0.557-0.054,0.836
		c-0.011,0.208-0.016,0.417-0.024,0.623c-0.009,0.216-0.019,0.433-0.024,0.647C0.505,14.667,0.5,15.088,0.5,15.504
		c0,0.38,0.006,0.764,0.015,1.149c0.002,0.122,0.006,0.239,0.011,0.361c0.007,0.274,0.018,0.545,0.031,0.82
		c0.005,0.135,0.012,0.267,0.02,0.401c0.016,0.296,0.036,0.594,0.059,0.89c0.007,0.097,0.012,0.195,0.02,0.288
		c0.031,0.37,0.066,0.737,0.105,1.103c0.016,0.139,0.034,0.276,0.051,0.415c0.027,0.234,0.057,0.47,0.09,0.702
		c0.023,0.159,0.046,0.316,0.071,0.475c0.034,0.22,0.071,0.436,0.11,0.65c0.026,0.147,0.05,0.294,0.079,0.437
		c0.063,0.322,0.131,0.64,0.205,0.95c0.034,0.145,0.073,0.281,0.11,0.423c0.048,0.185,0.096,0.367,0.148,0.545
		c0.044,0.153,0.091,0.3,0.138,0.447c0.052,0.161,0.107,0.319,0.164,0.477c0.049,0.139,0.099,0.275,0.152,0.412
		c0.083,0.209,0.172,0.41,0.264,0.604c0.071,0.151,0.145,0.294,0.221,0.435c0.075,0.142,0.151,0.28,0.232,0.41
		c0.065,0.106,0.133,0.206,0.202,0.306c0.08,0.115,0.163,0.224,0.247,0.328c0.071,0.087,0.141,0.178,0.214,0.257
		c0.017,0.019,0.033,0.041,0.051,0.062c0.004,0,0.008,0,0.013,0c0.684,0.712,1.499,1.112,2.475,1.051
		c1.422-0.09,2.829-0.177,4.224-0.263c0.424-0.027,0.84-0.053,1.262-0.076c0.98-0.062,1.959-0.122,2.926-0.178
		c0.462-0.027,0.916-0.054,1.375-0.079c0.896-0.054,1.791-0.106,2.674-0.158c0.498-0.029,0.988-0.057,1.481-0.085
		c0.866-0.05,1.73-0.098,2.585-0.146c0.445-0.027,0.884-0.049,1.325-0.073c0.876-0.05,1.75-0.096,2.616-0.144
		c0.438-0.024,0.87-0.047,1.305-0.07c0.857-0.046,1.71-0.092,2.556-0.136c0.438-0.022,0.873-0.045,1.308-0.067
		c0.815-0.04,1.625-0.081,2.429-0.122c0.455-0.022,0.907-0.047,1.359-0.068c0.796-0.039,1.585-0.079,2.371-0.116
		c0.423-0.02,0.846-0.04,1.265-0.06c0.801-0.04,1.596-0.077,2.385-0.113c0.138-0.006,0.274-0.012,0.412-0.019
		c-1.086-0.018-2.178-0.125-3.264-0.374C37.65,27.328,36.723,26.987,35.857,26.504z"/>
</g>
<g id="Layer_1">
</g>
</svg>
