<?xml version="1.0" encoding="iso-8859-1"?>
<!-- Generator: Adobe Illustrator 16.0.0, SVG Export Plug-In . SVG Version: 6.00 Build 0)  -->
<!DOCTYPE svg PUBLIC "-//W3C//DTD SVG 1.1//EN" "http://www.w3.org/Graphics/SVG/1.1/DTD/svg11.dtd">
<svg id="wand02original" version="1.1" xmlns="http://www.w3.org/2000/svg" xmlns:xlink="http://www.w3.org/1999/xlink" x="0px" y="0px"
	 width="420.029px" height="44.396px" viewBox="0 0 420.029 44.396" style="enable-background:new 0 0 420.029 44.396;"
	 xml:space="preserve">
<g id="Layer_2">
	<path d="M419.529,21.67c0,2.182-123.843,4.04-211.381,4.903c-0.612,1.251-1.759,2.207-3.18,2.662
		c-2.035,0.65-3.669-0.067-5.383-1.01c-0.07-0.04-0.118-0.068-0.146-0.087c-0.125-0.047-0.248-0.094-0.372-0.141
		c-0.145-0.057-0.209-0.089-0.231-0.105c-0.047-0.005-0.104-0.012-0.185-0.023c-0.303-0.039-0.607-0.079-0.91-0.119
		c-0.976-0.135-1.973-0.034-2.96-0.103c-1.103-0.075-2.206-0.2-3.304-0.324c-1.326-0.147-2.648-0.346-3.969-0.56
		c-0.587,0.005-1.177,0.01-1.76,0.016c0.165,0.316,0.26,0.673,0.26,1.086c0,0.912-0.504,1.771-1.307,2.233
		c-1.847,1.061-3.797-0.336-3.971-2.233c-0.033-0.356,0.026-0.713,0.149-1.046c-1.208,0.01-2.403,0.019-3.585,0.028
		c-14.636,0.118-27.177,0.195-36.478,0.227c1.052,1.685,1.442,3.763,0.876,5.778c-1.084,3.861-5.288,6.197-9.23,5.135
		c-2.108-0.568-3.941-2.124-4.866-4.071c-0.863-1.024-1.453-2.198-1.663-3.523c-1.286-0.234-3.043-0.455-5.315-0.646
		c-0.25-0.011-0.5-0.021-0.757-0.029c-0.085-0.002-0.172-0.005-0.257-0.008c-0.362-0.014-0.729-0.025-1.102-0.036
		c-0.07-0.003-0.141-0.005-0.212-0.007c-0.401-0.013-0.807-0.024-1.222-0.035c-0.048-0.001-0.098-0.003-0.146-0.004
		c-0.445-0.013-0.897-0.024-1.358-0.035c-0.02,0-0.041,0-0.061-0.001c-6.632-0.153-14.883-0.18-24.939-0.024
		c2.042,0.928,3.677,2.795,4.262,4.881c0.908,3.234-0.556,6.749-3.506,8.442c-2.959,1.698-6.824,1.204-9.246-1.17
		c-1.896-1.857-2.73-4.728-1.962-7.272c0.068-0.222,0.146-0.431,0.228-0.636c-0.754-0.313-1.766-0.605-3.074-0.861
		c-2.853-0.228-6.336-0.356-10.572-0.345c-0.121,0.001-0.244,0.002-0.367,0.002c-0.481,0.003-0.979,0.009-1.479,0.015
		c-0.592,0.008-1.197,0.019-1.816,0.03c-0.132,0.003-0.263,0.005-0.396,0.008c-5.72,0.128-12.578,0.481-20.746,1.132
		c-0.144,0.012-0.287,0.023-0.432,0.036c-0.846,0.067-1.709,0.139-2.583,0.215c-0.49,0.041-0.981,0.083-1.48,0.127
		c-0.518,0.046-1.041,0.092-1.569,0.141c-0.862,0.078-1.736,0.158-2.625,0.243c-0.399,0.038-0.803,0.078-1.207,0.117
		c-1.022,0.098-2.057,0.2-3.115,0.307c-0.273,0.029-0.552,0.058-0.828,0.086c-1.185,0.122-2.385,0.247-3.613,0.379
		c-0.149,0.016-0.303,0.034-0.453,0.049c-1.353,0.147-2.727,0.298-4.134,0.458C17.545,36.209,0.5,28.372,0.5,21.67
		c0-6.703,17.045-14.54,19.347-14.278c28.54,3.231,46.068,3.75,56.262,3.098c0.076-0.065,0.158-0.126,0.228-0.196
		c0.234-0.228,0.444-0.479,0.661-0.721c0.082-0.092,0.164-0.184,0.246-0.274c0.003-0.005,0.005-0.009,0.009-0.015
		c0.21-0.358,0.592-1.369,0.134-0.043c0.087-0.251,0.18-0.502,0.263-0.755c0.239-0.838,0.673-1.567,1.298-2.187
		c0.135-0.17,0.269-0.342,0.405-0.512c0.146-0.183,0.295-0.36,0.447-0.537c0.13-0.323,0.29-0.65,0.492-0.988
		c1.016-1.699,2.698-2.971,4.637-3.495c4.077-1.098,8.425,1.317,9.546,5.312c0.803,2.858-0.237,5.846-2.384,7.721
		c12.084,0.168,21.47,0.064,28.521-0.201c3.026-0.257,5.138-0.562,6.441-0.884c0.289-0.167,0.58-0.333,0.872-0.498
		c0.188-0.106,0.33-0.207,0.446-0.31c0-0.026,0.001-0.056,0.002-0.094c0.038-1.526,0.567-2.833,1.331-4.121
		c1.733-2.924,5.377-4.365,8.701-3.469c2.589,0.698,4.668,2.735,5.381,5.272c0.67,2.387,0.057,4.92-1.481,6.781
		c1.995,0.007,4.129,0.017,6.387,0.028c3.633,0.018,7.59,0.041,11.835,0.068c0.688-0.275,1.376-0.544,2.076-0.787
		c1.639-0.57,3.265-1.07,4.93-1.553c0.75-0.217,1.505-0.453,2.241-0.712c0.136-0.048,0.354-0.15,0.539-0.232
		c0.471-0.852,1.269-1.602,2.043-2.047c1.313-0.754,2.62-0.772,4.071-0.522c0.539,0.093,1.069,0.206,1.598,0.34
		c1.981,0.503,3.153,2.011,3.799,3.813c0.223,0.624,0.272,1.251,0.196,1.86c4.989,0.042,10.193,0.086,15.573,0.136
		c3.248-1.872,7.281-2.467,10.972-2.589c3.73-0.123,7.499-0.049,11.183,0.609c1.795,0.321,3.589,0.766,5.246,1.535
		c0.319,0.148,0.631,0.311,0.933,0.484c1.47,0.067,2.941,0.015,4.399-0.195c2.37-0.341,4.6-1.033,6.848-1.783
		c-0.004-0.076-0.007-0.152-0.01-0.228c-0.06-1.285,0.983-2.674,2.284-2.94c0.015-0.002,0.028-0.006,0.044-0.009
		c2.144-0.44,3.616,0.904,3.889,2.903c0.002,0.016,0.004,0.031,0.006,0.046c0.162,1.187-0.58,2.132-1.588,2.631
		C324.276,18.092,419.529,19.756,419.529,21.67z"/>
</g>
<g id="Layer_1">
</g>
</svg>
