<?xml version="1.0" encoding="iso-8859-1"?>
<!-- Generator: Adobe Illustrator 16.0.0, SVG Export Plug-In . SVG Version: 6.00 Build 0)  -->
<!DOCTYPE svg PUBLIC "-//W3C//DTD SVG 1.1//EN" "http://www.w3.org/Graphics/SVG/1.1/DTD/svg11.dtd">
<svg id="wand15original" version="1.1" xmlns="http://www.w3.org/2000/svg" xmlns:xlink="http://www.w3.org/1999/xlink" x="0px" y="0px"
	 width="100.43px" height="396.683px" viewBox="0 0 100.43 396.683" style="enable-background:new 0 0 100.43 396.683;"
	 xml:space="preserve">
<g id="Layer_15">
	<g>
		<path style="fill:#020202;" d="M69.996,13.099c11.338,6.789,19.602,18.753,20.767,32.144c-0.334,3.988,3.904,5.402,6.044,8.002
			c4.052,4.284,3.838,11.021,1.203,15.991c-4.358,8.272-12.154,13.876-17.438,21.474c-5.228,5.687-11.23,11.331-13.236,19.103
			c2.233,8.436,9.399,14.254,14.106,21.314c-1.645,1.979-1.497,3.569,0.415,4.743c0.294-1.174,0.855-3.503,1.137-4.677
			c0.066,1.389,0.174,4.163,0.241,5.552c2.499,1.75,6.351,1.979,7.621,5.145c-1.992,3.653-6.472,4.42-9.896,6.144
			c-6.284,2.815-13.372,6.21-16.164,13c-1.524,7.355,4.759,12.813,8.062,18.632c-3.729-4.405-7.114-9.135-9.867-14.24
			c-0.16-4.46,2.395-8.029,3.758-12.029c0.267,0.147,0.801,0.431,1.069,0.565c1.109-0.851,3.328-2.547,4.439-3.397
			c-1.538,0.136-4.613,0.417-6.15,0.566c2.179-0.983,4.491-1.589,6.845-2.062c4.921-2.289,9.388-6.007,14.855-6.817
			c-2.179-0.981-4.292-2.114-6.657-2.532c-1.271-0.634-2.542-1.251-3.811-1.859c-4.092,3.06-8.358,5.927-12.784,8.461
			c3.382-3.208,7.448-5.524,11.085-8.419c-9.508-4.783-20.688-10.053-24.002-21.181c-2.22-9.052,6.058-15.438,11.699-21.002
			c0.764-5.348,1.712-10.697,3.731-15.734c4.091-11.344,12.208-22.068,10.148-34.825c-9.024-4.231-18.077-9.579-23.722-18.106
			c-1.764-2.277-3.008-5.59-6.218-6.009c-11.192-2.533-22.837-4.311-34.297-3.058c3.825,20.667,7.449,41.373,11.26,62.052
			c1.204,6.763,2.7,13.486,4.827,20.019c3.583,9.134,4.252,19.078,5.321,28.737c1.98,4.228,2.487,8.878,3.878,13.283
			c-0.12,6.266,3.17,11.908,3.664,18.132c2.541,11.479,2.34,23.726,7.221,34.555c-0.588,1.31-1.178,2.615-1.751,3.922
			c2.447,5.012,7.032,10.644,3.207,16.247c3.251,4.971,4.534,10.778,6.566,16.274c-0.348,0.579-1.058,1.723-1.416,2.289
			c0.227,4.083,0.266,8.259,2.191,11.978c-0.294,0.756-0.909,2.262-1.201,3.005c2.779,4.067,5.387,8.445,3.742,13.551
			c7.97,15.075,7.996,32.63,10.537,49.121c0.949,7.583,7.982,14.845,3.838,22.578c1.096,1.643,2.193,3.272,3.275,4.93
			c-2.059,4.312-0.241,9.039,2.741,12.368c-0.387,1.671-1.03,3.327-1.057,5.079c1.256,3.244,4.694,6.505,2.26,10.103
			c2.22,4.3,7.089,9.284,3.958,14.284c2.207,2.934,4.667,6.76,2.648,10.492c-3.999,5.686-12.489,6.292-18.452,3.8
			c-4.547-2.657-8.6-6.388-11.515-10.778c-3.103-5.295,4.106-9.754,2.984-14.997c-1.66-2.223-3.585-4.27-4.614-6.883
			c0.614-0.82,1.832-2.466,2.445-3.285c-1.203-3.288-3.007-6.303-4.438-9.485c1.069-0.891,2.14-1.779,3.223-2.653
			c-1.311-3.315-3.302-6.278-5.229-9.229c1.337-1.685,2.688-3.354,3.999-5.066c-1.979-2.924-3.919-5.874-5.684-8.932
			c1.243-0.97,2.312-2.113,3.196-3.408c-1.338-5.727-5.215-10.508-6.112-16.383c-2.406-12.339-0.695-24.99-1.469-37.438
			c-0.163-3.623-3.625-6.13-3.853-9.674c0.737-1.79,1.62-3.517,2.328-5.321c-1.109-2.346-3.169-4.189-3.838-6.734
			c-0.334-3.139,0.388-6.252,0.669-9.351c-0.656-0.484-1.965-1.455-2.621-1.938c0.081-0.823,0.229-2.466,0.295-3.289
			c-0.548-0.795-1.632-2.398-2.167-3.191c0.641-5.739,1.913-12.017-0.83-17.419c-2.301-3.53,1.551-7.073,0.75-10.778
			c-0.909-3.126-3.25-5.834-3.021-9.242c0.508-7.452-2.983-14.308-3.21-21.69c-0.708-14.765-5.335-28.964-6.378-43.69
			c-4.132-21.178-5.737-42.813-10.67-63.816c-2.141-13.58-4.12-27.227-7.689-40.511C5.785,15.308,0.316,13.53,0.505,8.653
			c1.148-6.128,8.237-8.231,13.612-8.151C33.278,0.422,53.269,3.076,69.996,13.099z M51.263,17.06
			c6.766,2.68,13.69,5.348,19.335,10.131c5.215,3.812,8.279,9.794,10.057,15.896c0.601,0.041,1.779,0.136,2.366,0.176
			c-3.624-14.429-16.647-24.546-30.688-27.538c-0.4-0.255-1.217-0.794-1.631-1.064C50.834,15.268,51.115,16.453,51.263,17.06z
			 M65.37,128.176c3.396,2.803,7.822,4.137,10.886,7.357c-0.51-1.16-1.525-3.476-2.021-4.635l4.936,2.882
			c0.681-4.81-4.172-5.226-7.623-4.904l3.277,0.917c-0.628,0.782-1.23,1.563-1.833,2.345c-5.403-7.451-14.119-12.166-17.302-21.246
			C54.552,118.193,60.035,124.147,65.37,128.176z M75.318,39.584c-3.235-7.557-10.536-12.542-18.185-14.765
			C61.306,31.596,67.684,37.227,75.318,39.584z M65.263,122.262c-1.028-4.889,0.308-9.887-0.694-14.752
			c0.4-1.036,0.828-2.074,1.269-3.098l1.767,1.146c0.307-1.847-0.295-3.96,0.748-5.619c2.526-1.818,4.841-3.961,5.977-6.965
			c-2.714,2.479-5.414,4.985-8.396,7.127l-0.428,0.54c1.779,4.552-4.894,4.229-6.445,7.287
			C55.621,113.304,61.306,119.016,65.263,122.262z M66.468,92.45c10.509-8.447,17.127-21.516,17.743-35.055
			c-0.174-3.638,1.645-9.162-3.131-10.374c-0.574,6.573-1.951,13.135-4.838,19.089C72.43,74.599,66.599,82.83,66.468,92.45z
			 M68.393,125.024c2.634,1.967,5.508,3.436,8.946,3.207c-3.705-4.783-6.833-10.133-11.273-14.241
			C65.893,117.831,66.787,121.561,68.393,125.024z M88.195,77.777c3.998-4.203,8.49-8.877,8.92-15.008
			c0.587-3.974-1.927-8.447-5.697-9.752C90.456,61.288,89.132,69.507,88.195,77.777z"/>
	</g>
</g>
<g id="Layer_1">
</g>
</svg>
