<?xml version="1.0" encoding="iso-8859-1"?>
<!-- Generator: Adobe Illustrator 16.0.0, SVG Export Plug-In . SVG Version: 6.00 Build 0)  -->
<!DOCTYPE svg PUBLIC "-//W3C//DTD SVG 1.1//EN" "http://www.w3.org/Graphics/SVG/1.1/DTD/svg11.dtd">
<svg id="wand14original" version="1.1" xmlns="http://www.w3.org/2000/svg" xmlns:xlink="http://www.w3.org/1999/xlink" x="0px" y="0px"
	 width="508.541px" height="32.462px" viewBox="0 0 508.541 32.462" style="enable-background:new 0 0 508.541 32.462;"
	 xml:space="preserve">
<g id="Layer_14">
	<path style="fill-rule:evenodd;clip-rule:evenodd;" d="M3.285,27.714c2.903,4.421,9.075,5.604,13.882,2.539
		c2.489-1.586,4.826-3.395,7.066-4.983c10.154,5.185,15.261,6.093,22.892,1.371c5.873-3.637,11.808-3.255,17.971-3.36
		c2.204-0.036,4.414,0.26,6.621,0.406c2.112,2.25,4.511,4.126,7.249,5.095c7.769,2.735,15.129,0.985,22.507-2.126
		c4.3-1.816,9.044-3.227,13.688-3.575c11.124-0.835,22.303-0.932,33.953-1.347c8.671,7.862,14.876,8.735,25.354,4.056
		c3.031-1.355,6.285-2.813,9.526-3.039c6.158-0.429,12.38,0.06,18.573,0.047c8.942-0.017,17.894,0.087,26.819-0.317
		c4.041-0.184,7.027,1.065,10.377,3.069c6.61,3.959,13.67,7.643,21.672,3.19c2.54-1.413,4.773-3.348,7.444-5.255
		c18.826,0,38.167,0,57.467,0c7.763,8.135,16.143,10.322,23.913,5.292c5.938-3.847,11.438-6.48,19.13-6.294
		c12.573,0.307,25.195-1.138,37.802-1.864c2.045,0.595,4.036,1.359,5.889,2.376c6.373,3.503,12.586,3.662,18.754-0.771
		c0.575-0.415,1.234-0.786,1.932-1.105c4.739-0.522,9.411-0.314,14.082-0.504c15.929-0.651,31.894-0.469,47.847-0.633
		c2.26-0.023,4.546,0.082,6.773-0.204c3.316-0.43,5.455-2.143,5.574-5.475c-2.665-3.583-6.323-3.207-9.791-3.214
		c-13.795-0.031-27.593,0.206-41.38-0.057c-4.924-0.093-9.867-0.054-14.792-0.253c-4.623-0.353-9.72-1.54-13.714-3.736
		c-5.585-3.068-11.029-3.208-16.431,0.675c-1.469,1.057-3.53,1.841-5.331,1.865c-4.573,0.057-9.151,0.915-13.729,1.47
		c-3.449,0.106-6.918,0.004-10.364-0.178c-7.423-0.387-14.844-0.911-22.993-1.453c-2.646-0.763-5.21-1.795-7.571-3.17
		c-7.075-4.128-14.069-4.485-21.15,0.332c-0.482,0.33-1.011,0.634-1.571,0.907c-1.631,0.419-3.414,0.553-5.073,0.573
		c-6.27,0.071-12.544-0.294-18.816-0.303c-1.977-0.002-3.951,0.02-5.928,0.051c-0.536-0.017-1.07-0.045-1.607-0.061l1.367,0.064
		c-4.885,0.078-9.771,0.215-14.657,0.211c-6.964-0.004-14.066,0.975-20.535-2.8c-7.073-4.127-14.069-4.482-21.15,0.334
		c-1.926,1.309-4.602,2.25-6.919,2.221c-8.696-0.11-17.381-0.837-26.077-1.052c-8.54-0.214-17.088-0.13-25.632-0.088
		c-3.097,0.014-5.671-0.698-8.377-2.47c-5.929-3.883-16.145-5.404-22.896,1.177c-3.775,3.681-8.548,3.346-13.289,3.363
		c-6.906,0.03-13.817-0.025-20.709,0.294c-6.698,0.308-12.944-0.628-18.264-4.854C96.71,1.015,92.261,0.492,87.3,0.5
		c-7.97,0.009-13.687,4.034-18.494,8.41c-4.744,0.235-8.726,0.631-12.698,0.542c-2.107-0.049-4.434-0.531-6.25-1.526
		C43.212,4.282,36.506,2.987,29.371,6.37c-1.961,0.93-3.863,1.979-5.375,2.758c-3.313-1.997-5.96-3.869-8.85-5.272
		C10.088,1.403,7.642,2.097,4.137,6.472C-0.357,12.079-0.739,21.592,3.285,27.714z"/>
</g>
<g id="Layer_1">
</g>
</svg>
