<?xml version="1.0" encoding="iso-8859-1"?>
<!-- Generator: Adobe Illustrator 16.0.0, SVG Export Plug-In . SVG Version: 6.00 Build 0)  -->
<!DOCTYPE svg PUBLIC "-//W3C//DTD SVG 1.1//EN" "http://www.w3.org/Graphics/SVG/1.1/DTD/svg11.dtd">
<svg id="wand13original" version="1.1" xmlns="http://www.w3.org/2000/svg" xmlns:xlink="http://www.w3.org/1999/xlink" x="0px" y="0px" width="496.2px"
	 height="36.986px" viewBox="0 0 496.2 36.986" style="enable-background:new 0 0 496.2 36.986;" xml:space="preserve">
<g id="Layer_13">
	<path style="fill-rule:evenodd;clip-rule:evenodd;" d="M2.292,12.12c1.731,1.619,2.512,3.448,2.069,5.591
		c-0.609,2.943,0.417,5.667,2.165,7.527c2.278,2.429,3.137,5.159,3.902,8.098c0.396,1.521,1.096,2.648,2.92,2.921
		c7.709,1.147,14.676-2.324,22.041-3.296c0.222-0.028,0.408-0.277,0.623-0.402c4.053-2.391,8.354-3.721,13.187-3.755
		c7.66-0.052,15.316-0.574,22.977-0.665c4.893-0.058,9.792,0.32,14.69,0.469c2.584,0.076,5.171,0.154,7.753,0.084
		c1.496-0.04,2.989-0.339,4.471-0.591c10.079-1.718,19.971,0.686,29.937,1.32c5.511,0.355,10.989,1.155,16.499,1.551
		c1.385,0.097,3.226-0.179,4.177-1.017c3.775-3.324,7.682-5.828,13.123-4.982c2.093,0.326,4.27,0.266,6.402,0.199
		c20.474-0.619,40.949-1.224,61.418-1.973c4.251-0.156,8.471-1.149,12.723-1.296c11.182-0.394,22.374-0.542,33.56-0.768
		c17.478-0.35,34.956-0.677,52.434-1.03c27.034-0.547,54.071-0.929,81.099-1.711c26.146-0.756,52.28-1.925,78.416-2.954
		c1.485-0.058,3.032-0.288,4.41-0.799c1.634-0.606,2.898-2.013,2.237-3.733c-0.446-1.159-1.74-2.282-2.939-2.818
		c-1.173-0.524-2.709-0.371-4.084-0.362C467.878,7.854,447.26,8,426.641,8.156c-21.374,0.158-42.748,0.258-64.121,0.522
		c-21.504,0.264-43.012,1.15-64.507,0.892c-14.695-0.176-29.353,1.674-44.172-0.925c-9.863-1.731-20.295-0.537-30.468-0.373
		c-10.924,0.178-21.841,0.795-32.765,1.005c-9.798,0.189-19.606,0.261-29.4,0.006c-2.736-0.071-5.722-1.019-8.078-2.397
		c-2.862-1.678-5.554-2.674-8.861-2.033c-1.218,0.237-2.501,0.156-3.755,0.225c-10.259,0.586-20.521,1.114-30.774,1.805
		c-2.357,0.16-4.656,1.119-7.014,1.294c-5.766,0.422-11.549,0.667-17.331,0.854c-3.733,0.121-7.474,0.008-11.179,0
		c-0.608-1.366-1.04-2.339-1.631-3.67c-1.71,0.531-3.118,0.738-4.287,1.366c-4.633,2.495-9.714,2.261-14.708,2.382
		c-3.254,0.078-6.673,0.273-9.736-0.56c-3.503-0.952-6.775-1.323-10.335-0.67c-1.339,0.245-3.039-0.158-4.273-0.812
		C25.438,5.066,21.868,2.616,18,0.745c-1.187-0.574-3.079-0.004-4.576,0.336c-1.305,0.297-2.471,1.301-3.77,1.476
		C6.439,2.99,4.085,4.575,2.112,6.956C0.01,9.495-0.145,9.842,2.292,12.12z"/>
</g>
<g id="Layer_1">
</g>
</svg>
