<?xml version="1.0" encoding="UTF-8" standalone="no"?>
<svg
   xmlns:dc="http://purl.org/dc/elements/1.1/"
   xmlns:cc="http://creativecommons.org/ns#"
   xmlns:rdf="http://www.w3.org/1999/02/22-rdf-syntax-ns#"
   xmlns:svg="http://www.w3.org/2000/svg"
   xmlns="http://www.w3.org/2000/svg"
   xmlns:sodipodi="http://sodipodi.sourceforge.net/DTD/sodipodi-0.dtd"
   xmlns:inkscape="http://www.inkscape.org/namespaces/inkscape"
   width="76.546638mm"
   height="72.943878mm"
   viewBox="0 0 76.546638 72.943878"
   version="1.1"
   id="svg8"
   inkscape:version="1.0.1 (c497b03c, 2020-09-10)"
   sodipodi:docname="teardropTextToPath.svg">
  <defs
     id="defs2" />
  <sodipodi:namedview
     id="base"
     pagecolor="#ffffff"
     bordercolor="#666666"
     borderopacity="1.0"
     inkscape:pageopacity="0.0"
     inkscape:pageshadow="2"
     inkscape:zoom="1.01"
     inkscape:cx="62.066891"
     inkscape:cy="93.136488"
     inkscape:document-units="mm"
     inkscape:current-layer="layer1"
     inkscape:document-rotation="0"
     showgrid="false"
     inkscape:window-width="2150"
     inkscape:window-height="1111"
     inkscape:window-x="96"
     inkscape:window-y="152"
     inkscape:window-maximized="0" />
  <metadata
     id="metadata5">
    <rdf:RDF>
      <cc:Work
         rdf:about="">
        <dc:format>image/svg+xml</dc:format>
        <dc:type
           rdf:resource="http://purl.org/dc/dcmitype/StillImage" />
        <dc:title />
      </cc:Work>
    </rdf:RDF>
  </metadata>
  <g
     inkscape:label="Layer 1"
     inkscape:groupmode="layer"
     id="layer1"
     transform="translate(-117.33313,-27.185241)">
    <path
       id="path833-5"
       d="M 147.33313,67.12912 V 78.23088 A 11.10177,11.10177 0 1 1 136.23136,67.12912 h 11.10177"
       style="opacity:0.6;fill:#394c97;stroke-width:1"
       inkscape:export-xdpi="200"
       inkscape:export-ydpi="200" />
    <path
       id="path840-8"
       d="m 149.33313,67.12912 v 16.49999 a 16.5,16.5 0 1 0 16.5,-16.49999 h -16.5"
       style="font-variation-settings:'wght' 400;opacity:0.6;fill:#394c97;stroke-width:1"
       inkscape:export-xdpi="200"
       inkscape:export-ydpi="200" />
    <path
       id="path842-9"
       d="m 149.33313,65.12911 v -8 a 8.0000001,8.0000001 0 1 1 8,8 h -8"
       style="opacity:0.6;fill:#394c97;stroke-width:1"
       inkscape:export-xdpi="200"
       inkscape:export-ydpi="200" />
    <path
       id="path844-6"
       d="m 147.33313,65.12911 v -15 a 15,15 0 1 0 -15,15 h 15"
       style="opacity:0.6;fill:#394c97;stroke-width:1"
       inkscape:export-xdpi="200"
       inkscape:export-ydpi="200" />
    <g
       aria-label="deaths"
       id="text848-0"
       style="font-style:normal;font-variant:normal;font-weight:normal;font-stretch:normal;font-size:6.35px;line-height:1.25;font-family:Raleway;-inkscape-font-specification:'Raleway, @wght=400';font-variant-ligatures:normal;font-variant-caps:normal;font-variant-numeric:normal;font-variant-east-asian:normal;font-variation-settings:'wght' 400;fill:#3f3027;fill-opacity:1;stroke:none;stroke-width:0.264583;stroke-opacity:1"
       inkscape:export-xdpi="200"
       inkscape:export-ydpi="200">
      <path
         d="m 151.73593,59.245189 q 0,-0.4699 0.1905,-0.85725 0.19685,-0.3937 0.53975,-0.62865 0.3429,-0.23495 0.78105,-0.23495 0.41275,0 0.7366,0.22225 0.3302,0.2159 0.51435,0.52705 v -2.0193 h 0.4318 v 4.1148 q 0,0.0889 0.0381,0.13335 0.0381,0.0381 0.1143,0.04445 v 0.3429 q -0.127,0.01905 -0.19685,0.0127 -0.13335,-0.0063 -0.23495,-0.10795 -0.1016,-0.1016 -0.1016,-0.22225 v -0.32385 q -0.19685,0.32385 -0.5334,0.51435 -0.33655,0.1905 -0.6985,0.1905 -0.3429,0 -0.635,-0.1397 -0.28575,-0.1397 -0.50165,-0.381 -0.20955,-0.2413 -0.3302,-0.5461 -0.1143,-0.31115 -0.1143,-0.64135 z m 2.76225,0.508 v -1.02235 q -0.0825,-0.2286 -0.2667,-0.41275 -0.18415,-0.1905 -0.4191,-0.29845 -0.2286,-0.1143 -0.4572,-0.1143 -0.2667,0 -0.4826,0.1143 -0.2159,0.10795 -0.37465,0.29845 -0.1524,0.1905 -0.23495,0.4318 -0.0825,0.2413 -0.0825,0.4953 0,0.2667 0.0889,0.508 0.0952,0.2413 0.2667,0.4318 0.17145,0.18415 0.3937,0.28575 0.22225,0.1016 0.4826,0.1016 0.1651,0 0.3429,-0.0635 0.1778,-0.0635 0.33655,-0.17145 0.1651,-0.1143 0.27305,-0.2667 0.10795,-0.1524 0.13335,-0.3175 z"
         style="font-style:normal;font-variant:normal;font-weight:normal;font-stretch:normal;font-size:6.35px;font-family:Raleway;-inkscape-font-specification:'Raleway, @wght=400';font-variant-ligatures:normal;font-variant-caps:normal;font-variant-numeric:normal;font-variant-east-asian:normal;font-variation-settings:'wght' 400;fill:#3f3027;fill-opacity:1;stroke:none;stroke-width:0.264583;stroke-opacity:1"
         id="path1079" />
      <path
         d="m 157.33088,60.953339 q -0.3556,0 -0.6604,-0.13335 -0.3048,-0.1397 -0.52705,-0.37465 -0.22225,-0.2413 -0.34925,-0.55245 -0.12065,-0.31115 -0.12065,-0.66675 0,-0.46355 0.20955,-0.8509 0.2159,-0.38735 0.59055,-0.61595 0.37465,-0.23495 0.8509,-0.23495 0.48895,0 0.8509,0.23495 0.3683,0.23495 0.57785,0.6223 0.20955,0.381 0.20955,0.8382 0,0.0508 0,0.1016 0,0.04445 -0.006,0.06985 h -2.8321 q 0.0317,0.3556 0.19685,0.635 0.17145,0.27305 0.43815,0.43815 0.27305,0.15875 0.59055,0.15875 0.32385,0 0.6096,-0.1651 0.2921,-0.1651 0.4064,-0.4318 l 0.37465,0.1016 q -0.1016,0.23495 -0.31115,0.42545 -0.20955,0.1905 -0.4953,0.29845 -0.2794,0.1016 -0.60325,0.1016 z m -1.2192,-1.87325 h 2.44475 q -0.0254,-0.36195 -0.19685,-0.635 -0.1651,-0.27305 -0.43815,-0.42545 -0.2667,-0.15875 -0.59055,-0.15875 -0.32385,0 -0.59055,0.15875 -0.2667,0.1524 -0.43815,0.4318 -0.1651,0.27305 -0.1905,0.62865 z"
         style="font-style:normal;font-variant:normal;font-weight:normal;font-stretch:normal;font-size:6.35px;font-family:Raleway;-inkscape-font-specification:'Raleway, @wght=400';font-variant-ligatures:normal;font-variant-caps:normal;font-variant-numeric:normal;font-variant-east-asian:normal;font-variation-settings:'wght' 400;fill:#3f3027;fill-opacity:1;stroke:none;stroke-width:0.264583;stroke-opacity:1"
         id="path1081" />
      <path
         d="m 159.36853,59.937339 q 0,-0.31115 0.1778,-0.5334 0.1778,-0.2286 0.48895,-0.34925 0.3175,-0.127 0.73025,-0.127 0.2413,0 0.50165,0.0381 0.26035,0.0381 0.46355,0.1143 v -0.2794 q 0,-0.4191 -0.24765,-0.66675 -0.24765,-0.24765 -0.6858,-0.24765 -0.2667,0 -0.52705,0.1016 -0.254,0.09525 -0.5334,0.28575 l -0.1651,-0.3048 q 0.32385,-0.22225 0.635,-0.3302 0.31115,-0.1143 0.635,-0.1143 0.6096,0 0.9652,0.34925 0.3556,0.34925 0.3556,0.9652 v 1.53035 q 0,0.0889 0.0381,0.13335 0.0381,0.0381 0.12065,0.04445 v 0.3429 q -0.0699,0.0063 -0.12065,0.0127 -0.0508,0.0064 -0.0762,0 -0.15875,-0.0063 -0.2413,-0.1016 -0.0825,-0.09525 -0.0889,-0.2032 l -0.006,-0.2413 q -0.22225,0.28575 -0.57785,0.4445 -0.3556,0.1524 -0.7239,0.1524 -0.3175,0 -0.57785,-0.13335 -0.254,-0.1397 -0.40005,-0.3683 -0.1397,-0.23495 -0.1397,-0.51435 z m 2.21615,0.254 q 0.0699,-0.0889 0.10795,-0.17145 0.0381,-0.08255 0.0381,-0.14605 v -0.4826 q -0.2159,-0.08255 -0.45085,-0.127 -0.2286,-0.04445 -0.46355,-0.04445 -0.46355,0 -0.7493,0.18415 -0.28575,0.18415 -0.28575,0.50165 0,0.18415 0.0952,0.34925 0.0952,0.15875 0.2794,0.2667 0.18415,0.1016 0.4318,0.1016 0.31115,0 0.57785,-0.12065 0.27305,-0.12065 0.4191,-0.31115 z"
         style="font-style:normal;font-variant:normal;font-weight:normal;font-stretch:normal;font-size:6.35px;font-family:Raleway;-inkscape-font-specification:'Raleway, @wght=400';font-variant-ligatures:normal;font-variant-caps:normal;font-variant-numeric:normal;font-variant-east-asian:normal;font-variation-settings:'wght' 400;fill:#3f3027;fill-opacity:1;stroke:none;stroke-width:0.264583;stroke-opacity:1"
         id="path1083" />
      <path
         d="m 164.65818,60.731089 q -0.0508,0.01905 -0.15875,0.06985 -0.10795,0.0508 -0.26035,0.0889 -0.1524,0.0381 -0.3302,0.0381 -0.18415,0 -0.34925,-0.06985 -0.15875,-0.06985 -0.254,-0.20955 -0.0953,-0.14605 -0.0953,-0.3556 v -2.36855 h -0.4572 v -0.3429 h 0.4572 v -1.1176 h 0.4318 v 1.1176 h 0.762 v 0.3429 h -0.762 v 2.2479 q 0.0127,0.1778 0.127,0.2667 0.12065,0.0889 0.27305,0.0889 0.1778,0 0.32385,-0.05715 0.14605,-0.0635 0.1778,-0.0889 z"
         style="font-style:normal;font-variant:normal;font-weight:normal;font-stretch:normal;font-size:6.35px;font-family:Raleway;-inkscape-font-specification:'Raleway, @wght=400';font-variant-ligatures:normal;font-variant-caps:normal;font-variant-numeric:normal;font-variant-east-asian:normal;font-variation-settings:'wght' 400;fill:#3f3027;fill-opacity:1;stroke:none;stroke-width:0.264583;stroke-opacity:1"
         id="path1085" />
      <path
         d="m 167.98519,60.889839 h -0.4318 v -1.84785 q 0,-0.5588 -0.19685,-0.8382 -0.19685,-0.28575 -0.56515,-0.28575 -0.2413,0 -0.4826,0.127 -0.23495,0.12065 -0.4191,0.33655 -0.1778,0.20955 -0.254,0.4826 v 2.02565 h -0.4318 v -4.6355 h 0.4318 v 2.07645 q 0.19685,-0.3683 0.5461,-0.5842 0.3556,-0.22225 0.75565,-0.22225 0.28575,0 0.4826,0.1016 0.2032,0.1016 0.32385,0.29845 0.127,0.1905 0.18415,0.45085 0.0571,0.254 0.0571,0.57785 z"
         style="font-style:normal;font-variant:normal;font-weight:normal;font-stretch:normal;font-size:6.35px;font-family:Raleway;-inkscape-font-specification:'Raleway, @wght=400';font-variant-ligatures:normal;font-variant-caps:normal;font-variant-numeric:normal;font-variant-east-asian:normal;font-variation-settings:'wght' 400;fill:#3f3027;fill-opacity:1;stroke:none;stroke-width:0.264583;stroke-opacity:1"
         id="path1087" />
      <path
         d="m 169.99804,60.953339 q -0.4064,0 -0.75565,-0.13335 -0.34925,-0.13335 -0.60325,-0.4064 l 0.1778,-0.3048 q 0.2794,0.26035 0.5588,0.381 0.28575,0.1143 0.60325,0.1143 0.38735,0 0.62865,-0.1524 0.2413,-0.15875 0.2413,-0.45085 0,-0.19685 -0.12065,-0.29845 -0.1143,-0.10795 -0.33655,-0.17145 -0.2159,-0.06985 -0.5207,-0.14605 -0.3429,-0.09525 -0.57785,-0.19685 -0.2286,-0.10795 -0.34925,-0.2667 -0.1143,-0.1651 -0.1143,-0.42545 0,-0.32385 0.15875,-0.5334 0.1651,-0.2159 0.4445,-0.32385 0.28575,-0.1143 0.635,-0.1143 0.381,0 0.6731,0.12065 0.2921,0.12065 0.47625,0.33655 l -0.20955,0.2921 q -0.1778,-0.2032 -0.42545,-0.29845 -0.2413,-0.1016 -0.53975,-0.1016 -0.2032,0 -0.38735,0.05715 -0.18415,0.0508 -0.3048,0.1778 -0.1143,0.12065 -0.1143,0.33655 0,0.1778 0.0889,0.2794 0.0889,0.09525 0.2667,0.1651 0.1778,0.0635 0.43815,0.1397 0.37465,0.1016 0.65405,0.20955 0.2794,0.1016 0.4318,0.2667 0.1524,0.1651 0.1524,0.46355 0,0.46355 -0.34925,0.7239 -0.34925,0.26035 -0.92075,0.26035 z"
         style="font-style:normal;font-variant:normal;font-weight:normal;font-stretch:normal;font-size:6.35px;font-family:Raleway;-inkscape-font-specification:'Raleway, @wght=400';font-variant-ligatures:normal;font-variant-caps:normal;font-variant-numeric:normal;font-variant-east-asian:normal;font-variation-settings:'wght' 400;fill:#3f3027;fill-opacity:1;stroke:none;stroke-width:0.264583;stroke-opacity:1"
         id="path1089" />
    </g>
    <g
       aria-label="total affected"
       id="text852-2"
       style="font-style:normal;font-variant:normal;font-weight:normal;font-stretch:normal;font-size:6.35px;line-height:1.25;font-family:Raleway;-inkscape-font-specification:'Raleway, @wght=400';font-variant-ligatures:normal;font-variant-caps:normal;font-variant-numeric:normal;font-variant-east-asian:normal;font-variation-settings:'wght' 400;fill:#3f3027;fill-opacity:1;stroke:none;stroke-width:0.264583;stroke-opacity:1"
       inkscape:export-xdpi="200"
       inkscape:export-ydpi="200">
      <path
         d="m 153.64093,76.710871 q -0.0508,0.01905 -0.15875,0.06985 -0.10795,0.0508 -0.26035,0.0889 -0.1524,0.0381 -0.3302,0.0381 -0.18415,0 -0.34925,-0.06985 -0.15875,-0.06985 -0.254,-0.20955 -0.0952,-0.14605 -0.0952,-0.3556 v -2.36855 h -0.4572 v -0.3429 h 0.4572 v -1.1176 h 0.4318 v 1.1176 h 0.762 v 0.3429 h -0.762 v 2.2479 q 0.0127,0.1778 0.127,0.2667 0.12065,0.0889 0.27305,0.0889 0.1778,0 0.32385,-0.05715 0.14605,-0.0635 0.1778,-0.0889 z"
         style="font-style:normal;font-variant:normal;font-weight:normal;font-stretch:normal;font-size:6.35px;font-family:Raleway;-inkscape-font-specification:'Raleway, @wght=400';font-variant-ligatures:normal;font-variant-caps:normal;font-variant-numeric:normal;font-variant-east-asian:normal;font-variation-settings:'wght' 400;fill:#3f3027;fill-opacity:1;stroke:none;stroke-width:0.264583;stroke-opacity:1"
         id="path1092" />
      <path
         d="m 155.54672,76.933121 q -0.3556,0 -0.6604,-0.13335 -0.29845,-0.1397 -0.5207,-0.37465 -0.2159,-0.2413 -0.33655,-0.5461 -0.12065,-0.31115 -0.12065,-0.65405 0,-0.3556 0.12065,-0.6604 0.12065,-0.31115 0.3429,-0.5461 0.22225,-0.2413 0.5207,-0.37465 0.3048,-0.1397 0.6604,-0.1397 0.3556,0 0.65405,0.1397 0.29845,0.13335 0.5207,0.37465 0.22225,0.23495 0.3429,0.5461 0.12065,0.3048 0.12065,0.6604 0,0.3429 -0.12065,0.65405 -0.12065,0.3048 -0.3429,0.5461 -0.2159,0.23495 -0.5207,0.37465 -0.29845,0.13335 -0.6604,0.13335 z m -1.20015,-1.7018 q 0,0.3683 0.15875,0.6731 0.1651,0.29845 0.43815,0.47625 0.27305,0.17145 0.60325,0.17145 0.3302,0 0.60325,-0.1778 0.27305,-0.1778 0.43815,-0.4826 0.1651,-0.31115 0.1651,-0.6731 0,-0.3683 -0.1651,-0.6731 -0.1651,-0.3048 -0.43815,-0.4826 -0.27305,-0.1778 -0.60325,-0.1778 -0.3302,0 -0.60325,0.18415 -0.2667,0.18415 -0.4318,0.48895 -0.1651,0.29845 -0.1651,0.6731 z"
         style="font-style:normal;font-variant:normal;font-weight:normal;font-stretch:normal;font-size:6.35px;font-family:Raleway;-inkscape-font-specification:'Raleway, @wght=400';font-variant-ligatures:normal;font-variant-caps:normal;font-variant-numeric:normal;font-variant-east-asian:normal;font-variation-settings:'wght' 400;fill:#3f3027;fill-opacity:1;stroke:none;stroke-width:0.264583;stroke-opacity:1"
         id="path1094" />
      <path
         d="m 159.45763,76.710871 q -0.0508,0.01905 -0.15875,0.06985 -0.10795,0.0508 -0.26035,0.0889 -0.1524,0.0381 -0.3302,0.0381 -0.18415,0 -0.34925,-0.06985 -0.15875,-0.06985 -0.254,-0.20955 -0.0952,-0.14605 -0.0952,-0.3556 v -2.36855 h -0.4572 v -0.3429 h 0.4572 v -1.1176 h 0.4318 v 1.1176 h 0.762 v 0.3429 h -0.762 v 2.2479 q 0.0127,0.1778 0.127,0.2667 0.12065,0.0889 0.27305,0.0889 0.1778,0 0.32385,-0.05715 0.14605,-0.0635 0.1778,-0.0889 z"
         style="font-style:normal;font-variant:normal;font-weight:normal;font-stretch:normal;font-size:6.35px;font-family:Raleway;-inkscape-font-specification:'Raleway, @wght=400';font-variant-ligatures:normal;font-variant-caps:normal;font-variant-numeric:normal;font-variant-east-asian:normal;font-variation-settings:'wght' 400;fill:#3f3027;fill-opacity:1;stroke:none;stroke-width:0.264583;stroke-opacity:1"
         id="path1096" />
      <path
         d="m 159.73663,75.917121 q 0,-0.31115 0.1778,-0.5334 0.1778,-0.2286 0.48895,-0.34925 0.3175,-0.127 0.73025,-0.127 0.2413,0 0.50165,0.0381 0.26035,0.0381 0.46355,0.1143 v -0.2794 q 0,-0.4191 -0.24765,-0.66675 -0.24765,-0.24765 -0.6858,-0.24765 -0.2667,0 -0.52705,0.1016 -0.254,0.09525 -0.5334,0.28575 l -0.1651,-0.3048 q 0.32385,-0.22225 0.635,-0.3302 0.31115,-0.1143 0.635,-0.1143 0.6096,0 0.9652,0.34925 0.3556,0.34925 0.3556,0.9652 v 1.53035 q 0,0.0889 0.0381,0.13335 0.0381,0.0381 0.12065,0.04445 v 0.3429 q -0.0699,0.0064 -0.12065,0.0127 -0.0508,0.0063 -0.0762,0 -0.15875,-0.0063 -0.2413,-0.1016 -0.0825,-0.09525 -0.0889,-0.2032 l -0.006,-0.2413 q -0.22225,0.28575 -0.57785,0.4445 -0.3556,0.1524 -0.7239,0.1524 -0.3175,0 -0.57785,-0.13335 -0.254,-0.1397 -0.40005,-0.3683 -0.1397,-0.23495 -0.1397,-0.51435 z m 2.21615,0.254 q 0.0699,-0.0889 0.10795,-0.17145 0.0381,-0.08255 0.0381,-0.14605 v -0.4826 q -0.2159,-0.08255 -0.45085,-0.127 -0.2286,-0.04445 -0.46355,-0.04445 -0.46355,0 -0.7493,0.18415 -0.28575,0.18415 -0.28575,0.50165 0,0.18415 0.0952,0.34925 0.0952,0.15875 0.2794,0.2667 0.18415,0.1016 0.4318,0.1016 0.31115,0 0.57785,-0.12065 0.27305,-0.12065 0.4191,-0.31115 z"
         style="font-style:normal;font-variant:normal;font-weight:normal;font-stretch:normal;font-size:6.35px;font-family:Raleway;-inkscape-font-specification:'Raleway, @wght=400';font-variant-ligatures:normal;font-variant-caps:normal;font-variant-numeric:normal;font-variant-east-asian:normal;font-variation-settings:'wght' 400;fill:#3f3027;fill-opacity:1;stroke:none;stroke-width:0.264583;stroke-opacity:1"
         id="path1098" />
      <path
         d="m 163.48264,72.234121 h 0.4318 v 3.8862 q 0,0.24765 0.0889,0.32385 0.0889,0.0762 0.2159,0.0762 0.1143,0 0.2286,-0.0254 0.1143,-0.0254 0.19685,-0.0508 l 0.0762,0.34925 q -0.12065,0.0508 -0.29845,0.08255 -0.17145,0.03175 -0.29845,0.03175 -0.2921,0 -0.4699,-0.17145 -0.17145,-0.17145 -0.17145,-0.4699 z"
         style="font-style:normal;font-variant:normal;font-weight:normal;font-stretch:normal;font-size:6.35px;font-family:Raleway;-inkscape-font-specification:'Raleway, @wght=400';font-variant-ligatures:normal;font-variant-caps:normal;font-variant-numeric:normal;font-variant-east-asian:normal;font-variation-settings:'wght' 400;fill:#3f3027;fill-opacity:1;stroke:none;stroke-width:0.264583;stroke-opacity:1"
         id="path1100" />
      <path
         d="m 151.78673,83.854621 q 0,-0.31115 0.1778,-0.5334 0.1778,-0.2286 0.48895,-0.34925 0.3175,-0.127 0.73025,-0.127 0.2413,0 0.50165,0.0381 0.26035,0.0381 0.46355,0.1143 v -0.2794 q 0,-0.4191 -0.24765,-0.66675 -0.24765,-0.24765 -0.6858,-0.24765 -0.2667,0 -0.52705,0.1016 -0.254,0.09525 -0.5334,0.28575 l -0.1651,-0.3048 q 0.32385,-0.22225 0.635,-0.3302 0.31115,-0.1143 0.635,-0.1143 0.6096,0 0.9652,0.34925 0.3556,0.34925 0.3556,0.9652 v 1.53035 q 0,0.0889 0.0381,0.13335 0.0381,0.0381 0.12065,0.04445 v 0.3429 q -0.0698,0.0064 -0.12065,0.0127 -0.0508,0.0063 -0.0762,0 -0.15875,-0.0063 -0.2413,-0.1016 -0.0825,-0.09525 -0.0889,-0.2032 l -0.006,-0.2413 q -0.22225,0.28575 -0.57785,0.4445 -0.3556,0.1524 -0.7239,0.1524 -0.3175,0 -0.57785,-0.13335 -0.254,-0.1397 -0.40005,-0.3683 -0.1397,-0.23495 -0.1397,-0.51435 z m 2.21615,0.254 q 0.0699,-0.0889 0.10795,-0.17145 0.0381,-0.08255 0.0381,-0.14605 v -0.4826 q -0.2159,-0.08255 -0.45085,-0.127 -0.2286,-0.04445 -0.46355,-0.04445 -0.46355,0 -0.7493,0.18415 -0.28575,0.18415 -0.28575,0.50165 0,0.18415 0.0952,0.34925 0.0953,0.15875 0.2794,0.2667 0.18415,0.1016 0.4318,0.1016 0.31115,0 0.57785,-0.12065 0.27305,-0.12065 0.4191,-0.31115 z"
         style="font-style:normal;font-variant:normal;font-weight:normal;font-stretch:normal;font-size:6.35px;font-family:Raleway;-inkscape-font-specification:'Raleway, @wght=400';font-variant-ligatures:normal;font-variant-caps:normal;font-variant-numeric:normal;font-variant-east-asian:normal;font-variation-settings:'wght' 400;fill:#3f3027;fill-opacity:1;stroke:none;stroke-width:0.264583;stroke-opacity:1"
         id="path1102" />
      <path
         d="m 155.64763,84.807121 v -2.96545 h -0.4572 v -0.3429 h 0.4572 v -0.0381 q 0,-0.2794 0.1143,-0.5334 0.12065,-0.254 0.34925,-0.41275 0.23495,-0.15875 0.5715,-0.15875 0.22225,0 0.40005,0.05715 0.18415,0.0508 0.3302,0.1397 l -0.1397,0.32385 q -0.12065,-0.08255 -0.254,-0.1143 -0.127,-0.03175 -0.26035,-0.03175 -0.1778,0 -0.31115,0.06985 -0.127,0.0635 -0.20955,0.17145 -0.0825,0.10795 -0.12065,0.23495 -0.0381,0.127 -0.0381,0.2413 v 0.0508 h 0.9144 v 0.3429 h -0.9144 v 2.96545 z m 1.4605,0 v -2.96545 h -0.4572 v -0.3429 h 0.4572 v -0.0889 q 0,-0.4064 0.12065,-0.6985 0.12065,-0.2921 0.33655,-0.4445 0.2159,-0.15875 0.5207,-0.15875 0.1905,0 0.37465,0.05715 0.18415,0.05715 0.3175,0.1524 l -0.127,0.31115 q -0.0889,-0.06985 -0.22225,-0.10795 -0.127,-0.0381 -0.26035,-0.0381 -0.29845,0 -0.46355,0.23495 -0.1651,0.23495 -0.1651,0.67945 v 0.1016 h 0.9144 v 0.3429 h -0.9144 v 2.96545 z"
         style="font-style:normal;font-variant:normal;font-weight:normal;font-stretch:normal;font-size:6.35px;font-family:Raleway;-inkscape-font-specification:'Raleway, @wght=400';font-variant-ligatures:normal;font-variant-caps:normal;font-variant-numeric:normal;font-variant-east-asian:normal;font-variation-settings:'wght' 400;fill:#3f3027;fill-opacity:1;stroke:none;stroke-width:0.264583;stroke-opacity:1"
         id="path1104" />
      <path
         d="m 160.51431,84.870621 q -0.3556,0 -0.6604,-0.13335 -0.3048,-0.1397 -0.52705,-0.37465 -0.22225,-0.2413 -0.34925,-0.55245 -0.12065,-0.31115 -0.12065,-0.66675 0,-0.46355 0.20955,-0.8509 0.2159,-0.38735 0.59055,-0.61595 0.37465,-0.23495 0.8509,-0.23495 0.48895,0 0.8509,0.23495 0.3683,0.23495 0.57785,0.6223 0.20955,0.381 0.20955,0.8382 0,0.0508 0,0.1016 0,0.04445 -0.006,0.06985 h -2.8321 q 0.0318,0.3556 0.19685,0.635 0.17145,0.27305 0.43815,0.43815 0.27305,0.15875 0.59055,0.15875 0.32385,0 0.6096,-0.1651 0.2921,-0.1651 0.4064,-0.4318 l 0.37465,0.1016 q -0.1016,0.23495 -0.31115,0.42545 -0.20955,0.1905 -0.4953,0.29845 -0.2794,0.1016 -0.60325,0.1016 z m -1.2192,-1.87325 h 2.44475 q -0.0254,-0.36195 -0.19685,-0.635 -0.1651,-0.27305 -0.43815,-0.42545 -0.2667,-0.15875 -0.59055,-0.15875 -0.32385,0 -0.59055,0.15875 -0.2667,0.1524 -0.43815,0.4318 -0.1651,0.27305 -0.1905,0.62865 z"
         style="font-style:normal;font-variant:normal;font-weight:normal;font-stretch:normal;font-size:6.35px;font-family:Raleway;-inkscape-font-specification:'Raleway, @wght=400';font-variant-ligatures:normal;font-variant-caps:normal;font-variant-numeric:normal;font-variant-east-asian:normal;font-variation-settings:'wght' 400;fill:#3f3027;fill-opacity:1;stroke:none;stroke-width:0.264583;stroke-opacity:1"
         id="path1106" />
      <path
         d="m 164.25376,84.870621 q -0.36195,0 -0.66675,-0.13335 -0.29845,-0.1397 -0.52705,-0.381 -0.22225,-0.2413 -0.34925,-0.55245 -0.12065,-0.31115 -0.12065,-0.6604 0,-0.4699 0.20955,-0.85725 0.20955,-0.38735 0.5842,-0.61595 0.37465,-0.2286 0.8636,-0.2286 0.46355,0 0.81915,0.2159 0.3556,0.20955 0.52705,0.5715 l -0.4191,0.13335 q -0.1397,-0.254 -0.3937,-0.3937 -0.24765,-0.14605 -0.55245,-0.14605 -0.3302,0 -0.60325,0.17145 -0.27305,0.17145 -0.43815,0.4699 -0.15875,0.29845 -0.15875,0.67945 0,0.37465 0.1651,0.67945 0.1651,0.3048 0.43815,0.48895 0.27305,0.1778 0.60325,0.1778 0.2159,0 0.41275,-0.0762 0.2032,-0.0762 0.34925,-0.2032 0.1524,-0.13335 0.2032,-0.28575 l 0.42545,0.127 q -0.0889,0.23495 -0.29845,0.42545 -0.2032,0.18415 -0.4826,0.2921 -0.27305,0.1016 -0.59055,0.1016 z"
         style="font-style:normal;font-variant:normal;font-weight:normal;font-stretch:normal;font-size:6.35px;font-family:Raleway;-inkscape-font-specification:'Raleway, @wght=400';font-variant-ligatures:normal;font-variant-caps:normal;font-variant-numeric:normal;font-variant-east-asian:normal;font-variation-settings:'wght' 400;fill:#3f3027;fill-opacity:1;stroke:none;stroke-width:0.264583;stroke-opacity:1"
         id="path1108" />
      <path
         d="m 167.89122,84.648371 q -0.0508,0.01905 -0.15875,0.06985 -0.10795,0.0508 -0.26035,0.0889 -0.1524,0.0381 -0.3302,0.0381 -0.18415,0 -0.34925,-0.06985 -0.15875,-0.06985 -0.254,-0.20955 -0.0952,-0.14605 -0.0952,-0.3556 v -2.36855 h -0.4572 v -0.3429 h 0.4572 v -1.1176 h 0.4318 v 1.1176 h 0.762 v 0.3429 h -0.762 v 2.2479 q 0.0127,0.1778 0.127,0.2667 0.12065,0.0889 0.27305,0.0889 0.1778,0 0.32385,-0.05715 0.14605,-0.0635 0.1778,-0.0889 z"
         style="font-style:normal;font-variant:normal;font-weight:normal;font-stretch:normal;font-size:6.35px;font-family:Raleway;-inkscape-font-specification:'Raleway, @wght=400';font-variant-ligatures:normal;font-variant-caps:normal;font-variant-numeric:normal;font-variant-east-asian:normal;font-variation-settings:'wght' 400;fill:#3f3027;fill-opacity:1;stroke:none;stroke-width:0.264583;stroke-opacity:1"
         id="path1110" />
      <path
         d="m 169.81607,84.870621 q -0.3556,0 -0.6604,-0.13335 -0.3048,-0.1397 -0.52705,-0.37465 -0.22225,-0.2413 -0.34925,-0.55245 -0.12065,-0.31115 -0.12065,-0.66675 0,-0.46355 0.20955,-0.8509 0.2159,-0.38735 0.59055,-0.61595 0.37465,-0.23495 0.8509,-0.23495 0.48895,0 0.8509,0.23495 0.3683,0.23495 0.57785,0.6223 0.20955,0.381 0.20955,0.8382 0,0.0508 0,0.1016 0,0.04445 -0.006,0.06985 h -2.8321 q 0.0318,0.3556 0.19685,0.635 0.17145,0.27305 0.43815,0.43815 0.27305,0.15875 0.59055,0.15875 0.32385,0 0.6096,-0.1651 0.2921,-0.1651 0.4064,-0.4318 l 0.37465,0.1016 q -0.1016,0.23495 -0.31115,0.42545 -0.20955,0.1905 -0.4953,0.29845 -0.2794,0.1016 -0.60325,0.1016 z m -1.2192,-1.87325 h 2.44475 q -0.0254,-0.36195 -0.19685,-0.635 -0.1651,-0.27305 -0.43815,-0.42545 -0.2667,-0.15875 -0.59055,-0.15875 -0.32385,0 -0.59055,0.15875 -0.2667,0.1524 -0.43815,0.4318 -0.1651,0.27305 -0.1905,0.62865 z"
         style="font-style:normal;font-variant:normal;font-weight:normal;font-stretch:normal;font-size:6.35px;font-family:Raleway;-inkscape-font-specification:'Raleway, @wght=400';font-variant-ligatures:normal;font-variant-caps:normal;font-variant-numeric:normal;font-variant-east-asian:normal;font-variation-settings:'wght' 400;fill:#3f3027;fill-opacity:1;stroke:none;stroke-width:0.264583;stroke-opacity:1"
         id="path1112" />
      <path
         d="m 171.89817,83.162471 q 0,-0.4699 0.1905,-0.85725 0.19685,-0.3937 0.53975,-0.62865 0.3429,-0.23495 0.78105,-0.23495 0.41275,0 0.7366,0.22225 0.3302,0.2159 0.51435,0.52705 v -2.0193 h 0.4318 v 4.1148 q 0,0.0889 0.0381,0.13335 0.0381,0.0381 0.1143,0.04445 v 0.3429 q -0.127,0.01905 -0.19685,0.0127 -0.13335,-0.0063 -0.23495,-0.10795 -0.1016,-0.1016 -0.1016,-0.22225 v -0.32385 q -0.19685,0.32385 -0.5334,0.51435 -0.33655,0.1905 -0.6985,0.1905 -0.3429,0 -0.635,-0.1397 -0.28575,-0.1397 -0.50165,-0.381 -0.20955,-0.2413 -0.3302,-0.5461 -0.1143,-0.31115 -0.1143,-0.64135 z m 2.76225,0.508 v -1.02235 q -0.0825,-0.2286 -0.2667,-0.41275 -0.18415,-0.1905 -0.4191,-0.29845 -0.2286,-0.1143 -0.4572,-0.1143 -0.2667,0 -0.4826,0.1143 -0.2159,0.10795 -0.37465,0.29845 -0.1524,0.1905 -0.23495,0.4318 -0.0825,0.2413 -0.0825,0.4953 0,0.2667 0.0889,0.508 0.0952,0.2413 0.2667,0.4318 0.17145,0.18415 0.3937,0.28575 0.22225,0.1016 0.4826,0.1016 0.1651,0 0.3429,-0.0635 0.1778,-0.0635 0.33655,-0.17145 0.1651,-0.1143 0.27305,-0.2667 0.10795,-0.1524 0.13335,-0.3175 z"
         style="font-style:normal;font-variant:normal;font-weight:normal;font-stretch:normal;font-size:6.35px;font-family:Raleway;-inkscape-font-specification:'Raleway, @wght=400';font-variant-ligatures:normal;font-variant-caps:normal;font-variant-numeric:normal;font-variant-east-asian:normal;font-variation-settings:'wght' 400;fill:#3f3027;fill-opacity:1;stroke:none;stroke-width:0.264583;stroke-opacity:1"
         id="path1114" />
    </g>
    <g
       aria-label="damages"
       id="text858-7"
       style="font-style:normal;font-variant:normal;font-weight:normal;font-stretch:normal;font-size:6.35px;line-height:1.25;font-family:Raleway;-inkscape-font-specification:'Raleway, @wght=400';font-variant-ligatures:normal;font-variant-caps:normal;font-variant-numeric:normal;font-variant-east-asian:normal;font-variation-settings:'wght' 400;fill:#3f3027;fill-opacity:1;stroke:none;stroke-width:0.264583;stroke-opacity:1"
       inkscape:export-xdpi="200"
       inkscape:export-ydpi="200">
      <path
         d="m 118.04157,75.224971 q 0,-0.4699 0.1905,-0.85725 0.19685,-0.3937 0.53975,-0.62865 0.3429,-0.23495 0.78105,-0.23495 0.41275,0 0.7366,0.22225 0.3302,0.2159 0.51435,0.52705 v -2.0193 h 0.4318 v 4.1148 q 0,0.0889 0.0381,0.13335 0.0381,0.0381 0.1143,0.04445 v 0.3429 q -0.127,0.01905 -0.19685,0.0127 -0.13335,-0.0063 -0.23495,-0.10795 -0.1016,-0.1016 -0.1016,-0.22225 v -0.32385 q -0.19685,0.32385 -0.5334,0.51435 -0.33655,0.1905 -0.6985,0.1905 -0.3429,0 -0.635,-0.1397 -0.28575,-0.1397 -0.50165,-0.381 -0.20955,-0.2413 -0.3302,-0.5461 -0.1143,-0.31115 -0.1143,-0.64135 z m 2.76225,0.508 v -1.02235 q -0.0825,-0.2286 -0.2667,-0.41275 -0.18415,-0.1905 -0.4191,-0.29845 -0.2286,-0.1143 -0.4572,-0.1143 -0.2667,0 -0.4826,0.1143 -0.2159,0.10795 -0.37465,0.29845 -0.1524,0.1905 -0.23495,0.4318 -0.0825,0.2413 -0.0825,0.4953 0,0.2667 0.0889,0.508 0.0953,0.2413 0.2667,0.4318 0.17145,0.18415 0.3937,0.28575 0.22225,0.1016 0.4826,0.1016 0.1651,0 0.3429,-0.0635 0.1778,-0.0635 0.33655,-0.17145 0.1651,-0.1143 0.27305,-0.2667 0.10795,-0.1524 0.13335,-0.3175 z"
         style="stroke-width:0.264583"
         id="path1047" />
      <path
         d="m 121.94106,75.917121 q 0,-0.31115 0.1778,-0.5334 0.1778,-0.2286 0.48895,-0.34925 0.3175,-0.127 0.73025,-0.127 0.2413,0 0.50165,0.0381 0.26035,0.0381 0.46355,0.1143 v -0.2794 q 0,-0.4191 -0.24765,-0.66675 -0.24765,-0.24765 -0.6858,-0.24765 -0.2667,0 -0.52705,0.1016 -0.254,0.09525 -0.5334,0.28575 l -0.1651,-0.3048 q 0.32385,-0.22225 0.635,-0.3302 0.31115,-0.1143 0.635,-0.1143 0.6096,0 0.9652,0.34925 0.3556,0.34925 0.3556,0.9652 v 1.53035 q 0,0.0889 0.0381,0.13335 0.0381,0.0381 0.12065,0.04445 v 0.3429 q -0.0699,0.0064 -0.12065,0.0127 -0.0508,0.0063 -0.0762,0 -0.15875,-0.0063 -0.2413,-0.1016 -0.0825,-0.09525 -0.0889,-0.2032 l -0.006,-0.2413 q -0.22225,0.28575 -0.57785,0.4445 -0.3556,0.1524 -0.7239,0.1524 -0.3175,0 -0.57785,-0.13335 -0.254,-0.1397 -0.40005,-0.3683 -0.1397,-0.23495 -0.1397,-0.51435 z m 2.21615,0.254 q 0.0698,-0.0889 0.10795,-0.17145 0.0381,-0.08255 0.0381,-0.14605 v -0.4826 q -0.2159,-0.08255 -0.45085,-0.127 -0.2286,-0.04445 -0.46355,-0.04445 -0.46355,0 -0.7493,0.18415 -0.28575,0.18415 -0.28575,0.50165 0,0.18415 0.0953,0.34925 0.0952,0.15875 0.2794,0.2667 0.18415,0.1016 0.4318,0.1016 0.31115,0 0.57785,-0.12065 0.27305,-0.12065 0.4191,-0.31115 z"
         style="stroke-width:0.264583"
         id="path1049" />
      <path
         d="m 130.58927,76.869621 h -0.4318 v -1.84785 q 0,-0.57785 -0.18415,-0.8509 -0.18415,-0.27305 -0.5461,-0.27305 -0.37465,0 -0.6731,0.2667 -0.2921,0.2667 -0.41275,0.6858 v 2.0193 h -0.4318 v -1.84785 q 0,-0.5842 -0.1778,-0.8509 -0.1778,-0.27305 -0.5461,-0.27305 -0.3683,0 -0.66675,0.26035 -0.29845,0.26035 -0.4191,0.6858 v 2.02565 h -0.4318 v -3.30835 h 0.3937 v 0.7493 q 0.20955,-0.38735 0.5334,-0.5969 0.3302,-0.20955 0.73025,-0.20955 0.41275,0 0.66675,0.23495 0.254,0.23495 0.31115,0.61595 0.2286,-0.4191 0.5461,-0.635 0.32385,-0.2159 0.73025,-0.2159 0.2794,0 0.4699,0.1016 0.19685,0.1016 0.31115,0.2921 0.12065,0.18415 0.17145,0.45085 0.0572,0.26035 0.0572,0.5842 z"
         style="stroke-width:0.264583"
         id="path1051" />
      <path
         d="m 131.24282,75.917121 q 0,-0.31115 0.1778,-0.5334 0.1778,-0.2286 0.48895,-0.34925 0.3175,-0.127 0.73025,-0.127 0.2413,0 0.50165,0.0381 0.26035,0.0381 0.46355,0.1143 v -0.2794 q 0,-0.4191 -0.24765,-0.66675 -0.24765,-0.24765 -0.6858,-0.24765 -0.2667,0 -0.52705,0.1016 -0.254,0.09525 -0.5334,0.28575 l -0.1651,-0.3048 q 0.32385,-0.22225 0.635,-0.3302 0.31115,-0.1143 0.635,-0.1143 0.6096,0 0.9652,0.34925 0.3556,0.34925 0.3556,0.9652 v 1.53035 q 0,0.0889 0.0381,0.13335 0.0381,0.0381 0.12065,0.04445 v 0.3429 q -0.0699,0.0064 -0.12065,0.0127 -0.0508,0.0063 -0.0762,0 -0.15875,-0.0063 -0.2413,-0.1016 -0.0825,-0.09525 -0.0889,-0.2032 l -0.006,-0.2413 q -0.22225,0.28575 -0.57785,0.4445 -0.3556,0.1524 -0.7239,0.1524 -0.3175,0 -0.57785,-0.13335 -0.254,-0.1397 -0.40005,-0.3683 -0.1397,-0.23495 -0.1397,-0.51435 z m 2.21615,0.254 q 0.0699,-0.0889 0.10795,-0.17145 0.0381,-0.08255 0.0381,-0.14605 v -0.4826 q -0.2159,-0.08255 -0.45085,-0.127 -0.2286,-0.04445 -0.46355,-0.04445 -0.46355,0 -0.7493,0.18415 -0.28575,0.18415 -0.28575,0.50165 0,0.18415 0.0952,0.34925 0.0952,0.15875 0.2794,0.2667 0.18415,0.1016 0.4318,0.1016 0.31115,0 0.57785,-0.12065 0.27305,-0.12065 0.4191,-0.31115 z"
         style="stroke-width:0.264583"
         id="path1053" />
      <path
         d="m 136.29692,76.914071 q -0.33655,0 -0.6223,-0.1397 -0.28575,-0.1397 -0.4953,-0.37465 -0.2032,-0.2413 -0.3175,-0.5461 -0.1143,-0.3048 -0.1143,-0.62865 0,-0.34925 0.10795,-0.65405 0.1143,-0.31115 0.3175,-0.55245 0.20955,-0.2413 0.48895,-0.37465 0.2794,-0.1397 0.6223,-0.1397 0.42545,0 0.7366,0.2159 0.3175,0.2159 0.5334,0.5334 v -0.69215 h 0.38735 v 3.32105 q 0,0.4572 -0.22225,0.76835 -0.2159,0.3175 -0.59055,0.47625 -0.3683,0.15875 -0.80645,0.15875 -0.56515,0 -0.9144,-0.2032 -0.34925,-0.2032 -0.5715,-0.5461 l 0.2667,-0.20955 q 0.19685,0.31115 0.5207,0.46355 0.3302,0.1524 0.6985,0.1524 0.32385,0 0.59055,-0.12065 0.27305,-0.1143 0.4318,-0.34925 0.1651,-0.23495 0.1651,-0.59055 v -0.65405 q -0.1905,0.31115 -0.5207,0.50165 -0.3302,0.18415 -0.69215,0.18415 z m 0.12065,-0.36195 q 0.19685,0 0.37465,-0.06985 0.18415,-0.06985 0.33655,-0.18415 0.1524,-0.12065 0.254,-0.2667 0.1016,-0.14605 0.127,-0.29845 v -1.02235 q -0.0952,-0.2413 -0.27305,-0.42545 -0.1778,-0.1905 -0.4064,-0.2921 -0.22225,-0.10795 -0.46355,-0.10795 -0.2794,0 -0.50165,0.12065 -0.2159,0.1143 -0.3683,0.31115 -0.14605,0.1905 -0.2286,0.4318 -0.0826,0.2413 -0.0826,0.4826 0,0.2667 0.0953,0.508 0.0952,0.23495 0.26035,0.42545 0.17145,0.18415 0.3937,0.28575 0.2286,0.1016 0.4826,0.1016 z"
         style="stroke-width:0.264583"
         id="path1055" />
      <path
         d="m 140.31766,76.933121 q -0.3556,0 -0.6604,-0.13335 -0.3048,-0.1397 -0.52705,-0.37465 -0.22225,-0.2413 -0.34925,-0.55245 -0.12065,-0.31115 -0.12065,-0.66675 0,-0.46355 0.20955,-0.8509 0.2159,-0.38735 0.59055,-0.61595 0.37465,-0.23495 0.8509,-0.23495 0.48895,0 0.8509,0.23495 0.3683,0.23495 0.57785,0.6223 0.20955,0.381 0.20955,0.8382 0,0.0508 0,0.1016 0,0.04445 -0.006,0.06985 h -2.8321 q 0.0317,0.3556 0.19685,0.635 0.17145,0.27305 0.43815,0.43815 0.27305,0.15875 0.59055,0.15875 0.32385,0 0.6096,-0.1651 0.2921,-0.1651 0.4064,-0.4318 l 0.37465,0.1016 q -0.1016,0.23495 -0.31115,0.42545 -0.20955,0.1905 -0.4953,0.29845 -0.2794,0.1016 -0.60325,0.1016 z m -1.2192,-1.87325 h 2.44475 q -0.0254,-0.36195 -0.19685,-0.635 -0.1651,-0.27305 -0.43815,-0.42545 -0.2667,-0.15875 -0.59055,-0.15875 -0.32385,0 -0.59055,0.15875 -0.2667,0.1524 -0.43815,0.4318 -0.1651,0.27305 -0.1905,0.62865 z"
         style="stroke-width:0.264583"
         id="path1057" />
      <path
         d="m 143.70787,76.933121 q -0.4064,0 -0.75565,-0.13335 -0.34925,-0.13335 -0.60325,-0.4064 l 0.1778,-0.3048 q 0.2794,0.26035 0.5588,0.381 0.28575,0.1143 0.60325,0.1143 0.38735,0 0.62865,-0.1524 0.2413,-0.15875 0.2413,-0.45085 0,-0.19685 -0.12065,-0.29845 -0.1143,-0.10795 -0.33655,-0.17145 -0.2159,-0.06985 -0.5207,-0.14605 -0.3429,-0.09525 -0.57785,-0.19685 -0.2286,-0.10795 -0.34925,-0.2667 -0.1143,-0.1651 -0.1143,-0.42545 0,-0.32385 0.15875,-0.5334 0.1651,-0.2159 0.4445,-0.32385 0.28575,-0.1143 0.635,-0.1143 0.381,0 0.6731,0.12065 0.2921,0.12065 0.47625,0.33655 l -0.20955,0.2921 q -0.1778,-0.2032 -0.42545,-0.29845 -0.2413,-0.1016 -0.53975,-0.1016 -0.2032,0 -0.38735,0.05715 -0.18415,0.0508 -0.3048,0.1778 -0.1143,0.12065 -0.1143,0.33655 0,0.1778 0.0889,0.2794 0.0889,0.09525 0.2667,0.1651 0.1778,0.0635 0.43815,0.1397 0.37465,0.1016 0.65405,0.20955 0.2794,0.1016 0.4318,0.2667 0.1524,0.1651 0.1524,0.46355 0,0.46355 -0.34925,0.7239 -0.34925,0.26035 -0.92075,0.26035 z"
         style="stroke-width:0.264583"
         id="path1059" />
    </g>
    <g
       aria-label="location"
       id="text864-0"
       style="font-style:normal;font-variant:normal;font-weight:normal;font-stretch:normal;font-size:6.35px;line-height:1.25;font-family:Raleway;-inkscape-font-specification:'Raleway, @wght=400';font-variant-ligatures:normal;font-variant-caps:normal;font-variant-numeric:normal;font-variant-east-asian:normal;font-variation-settings:'wght' 400;fill:#3f3027;fill-opacity:1;stroke:none;stroke-width:0.264583;stroke-opacity:1"
       inkscape:export-xdpi="200"
       inkscape:export-ydpi="200">
      <path
         d="m 122.48348,49.443281 h 0.4318 v 3.8862 q 0,0.24765 0.0889,0.32385 0.0889,0.0762 0.2159,0.0762 0.1143,0 0.2286,-0.0254 0.1143,-0.0254 0.19685,-0.0508 l 0.0762,0.34925 q -0.12065,0.0508 -0.29845,0.08255 -0.17145,0.03175 -0.29845,0.03175 -0.2921,0 -0.4699,-0.17145 -0.17145,-0.17145 -0.17145,-0.4699 z"
         style="stroke-width:0.264583"
         id="path1019" />
      <path
         d="m 125.59806,54.142281 q -0.3556,0 -0.6604,-0.13335 -0.29845,-0.1397 -0.5207,-0.37465 -0.2159,-0.2413 -0.33655,-0.5461 -0.12065,-0.31115 -0.12065,-0.65405 0,-0.3556 0.12065,-0.6604 0.12065,-0.31115 0.3429,-0.5461 0.22225,-0.2413 0.5207,-0.37465 0.3048,-0.1397 0.6604,-0.1397 0.3556,0 0.65405,0.1397 0.29845,0.13335 0.5207,0.37465 0.22225,0.23495 0.3429,0.5461 0.12065,0.3048 0.12065,0.6604 0,0.3429 -0.12065,0.65405 -0.12065,0.3048 -0.3429,0.5461 -0.2159,0.23495 -0.5207,0.37465 -0.29845,0.13335 -0.6604,0.13335 z m -1.20015,-1.7018 q 0,0.3683 0.15875,0.6731 0.1651,0.29845 0.43815,0.47625 0.27305,0.17145 0.60325,0.17145 0.3302,0 0.60325,-0.1778 0.27305,-0.1778 0.43815,-0.4826 0.1651,-0.31115 0.1651,-0.6731 0,-0.3683 -0.1651,-0.6731 -0.1651,-0.3048 -0.43815,-0.4826 -0.27305,-0.1778 -0.60325,-0.1778 -0.3302,0 -0.60325,0.18415 -0.2667,0.18415 -0.4318,0.48895 -0.1651,0.29845 -0.1651,0.6731 z"
         style="stroke-width:0.264583"
         id="path1021" />
      <path
         d="m 129.40617,54.142281 q -0.36195,0 -0.66675,-0.13335 -0.29845,-0.1397 -0.52705,-0.381 -0.22225,-0.2413 -0.34925,-0.55245 -0.12065,-0.31115 -0.12065,-0.6604 0,-0.4699 0.20955,-0.85725 0.20955,-0.38735 0.5842,-0.61595 0.37465,-0.2286 0.8636,-0.2286 0.46355,0 0.81915,0.2159 0.3556,0.20955 0.52705,0.5715 l -0.4191,0.13335 q -0.1397,-0.254 -0.3937,-0.3937 -0.24765,-0.14605 -0.55245,-0.14605 -0.3302,0 -0.60325,0.17145 -0.27305,0.17145 -0.43815,0.4699 -0.15875,0.29845 -0.15875,0.67945 0,0.37465 0.1651,0.67945 0.1651,0.3048 0.43815,0.48895 0.27305,0.1778 0.60325,0.1778 0.2159,0 0.41275,-0.0762 0.2032,-0.0762 0.34925,-0.2032 0.1524,-0.13335 0.2032,-0.28575 l 0.42545,0.127 q -0.0889,0.23495 -0.29845,0.42545 -0.2032,0.18415 -0.4826,0.2921 -0.27305,0.1016 -0.59055,0.1016 z"
         style="stroke-width:0.264583"
         id="path1023" />
      <path
         d="m 131.18943,53.126281 q 0,-0.31115 0.1778,-0.5334 0.1778,-0.2286 0.48895,-0.34925 0.3175,-0.127 0.73025,-0.127 0.2413,0 0.50165,0.0381 0.26035,0.0381 0.46355,0.1143 v -0.2794 q 0,-0.4191 -0.24765,-0.66675 -0.24765,-0.24765 -0.6858,-0.24765 -0.2667,0 -0.52705,0.1016 -0.254,0.09525 -0.5334,0.28575 l -0.1651,-0.3048 q 0.32385,-0.22225 0.635,-0.3302 0.31115,-0.1143 0.635,-0.1143 0.6096,0 0.9652,0.34925 0.3556,0.34925 0.3556,0.9652 v 1.53035 q 0,0.0889 0.0381,0.13335 0.0381,0.0381 0.12065,0.04445 v 0.3429 q -0.0699,0.0063 -0.12065,0.0127 -0.0508,0.0063 -0.0762,0 -0.15875,-0.0064 -0.2413,-0.1016 -0.0825,-0.09525 -0.0889,-0.2032 l -0.006,-0.2413 q -0.22225,0.28575 -0.57785,0.4445 -0.3556,0.1524 -0.7239,0.1524 -0.3175,0 -0.57785,-0.13335 -0.254,-0.1397 -0.40005,-0.3683 -0.1397,-0.23495 -0.1397,-0.51435 z m 2.21615,0.254 q 0.0699,-0.0889 0.10795,-0.17145 0.0381,-0.08255 0.0381,-0.14605 v -0.4826 q -0.2159,-0.08255 -0.45085,-0.127 -0.2286,-0.04445 -0.46355,-0.04445 -0.46355,0 -0.7493,0.18415 -0.28575,0.18415 -0.28575,0.50165 0,0.18415 0.0952,0.34925 0.0952,0.15875 0.2794,0.2667 0.18415,0.1016 0.4318,0.1016 0.31115,0 0.57785,-0.12065 0.27305,-0.12065 0.4191,-0.31115 z"
         style="stroke-width:0.264583"
         id="path1025" />
      <path
         d="m 136.47908,53.920031 q -0.0508,0.01905 -0.15875,0.06985 -0.10795,0.0508 -0.26035,0.0889 -0.1524,0.0381 -0.3302,0.0381 -0.18415,0 -0.34925,-0.06985 -0.15875,-0.06985 -0.254,-0.20955 -0.0952,-0.14605 -0.0952,-0.3556 v -2.36855 h -0.4572 v -0.3429 h 0.4572 v -1.1176 h 0.4318 v 1.1176 h 0.762 v 0.3429 h -0.762 v 2.2479 q 0.0127,0.1778 0.127,0.2667 0.12065,0.0889 0.27305,0.0889 0.1778,0 0.32385,-0.05715 0.14605,-0.0635 0.1778,-0.0889 z"
         style="stroke-width:0.264583"
         id="path1027" />
      <path
         d="m 137.02478,54.078781 v -3.30835 h 0.4318 v 3.30835 z m 0,-4.0005 v -0.635 h 0.4318 v 0.635 z"
         style="stroke-width:0.264583"
         id="path1029" />
      <path
         d="m 139.82355,54.142281 q -0.3556,0 -0.6604,-0.13335 -0.29845,-0.1397 -0.5207,-0.37465 -0.2159,-0.2413 -0.33655,-0.5461 -0.12065,-0.31115 -0.12065,-0.65405 0,-0.3556 0.12065,-0.6604 0.12065,-0.31115 0.3429,-0.5461 0.22225,-0.2413 0.5207,-0.37465 0.3048,-0.1397 0.6604,-0.1397 0.3556,0 0.65405,0.1397 0.29845,0.13335 0.5207,0.37465 0.22225,0.23495 0.3429,0.5461 0.12065,0.3048 0.12065,0.6604 0,0.3429 -0.12065,0.65405 -0.12065,0.3048 -0.3429,0.5461 -0.2159,0.23495 -0.5207,0.37465 -0.29845,0.13335 -0.6604,0.13335 z m -1.20015,-1.7018 q 0,0.3683 0.15875,0.6731 0.1651,0.29845 0.43815,0.47625 0.27305,0.17145 0.60325,0.17145 0.3302,0 0.60325,-0.1778 0.27305,-0.1778 0.43815,-0.4826 0.1651,-0.31115 0.1651,-0.6731 0,-0.3683 -0.1651,-0.6731 -0.1651,-0.3048 -0.43815,-0.4826 -0.27305,-0.1778 -0.60325,-0.1778 -0.3302,0 -0.60325,0.18415 -0.2667,0.18415 -0.4318,0.48895 -0.1651,0.29845 -0.1651,0.6731 z"
         style="stroke-width:0.264583"
         id="path1031" />
      <path
         d="m 144.97786,54.078781 h -0.4318 v -1.84785 q 0,-0.5842 -0.17145,-0.8509 -0.17145,-0.27305 -0.53975,-0.27305 -0.254,0 -0.50165,0.127 -0.24765,0.12065 -0.43815,0.33655 -0.18415,0.20955 -0.2667,0.4826 v 2.02565 h -0.4318 v -3.30835 h 0.3937 v 0.7493 q 0.13335,-0.2413 0.34925,-0.4191 0.2159,-0.18415 0.48895,-0.28575 0.27305,-0.1016 0.56515,-0.1016 0.27305,0 0.46355,0.1016 0.1905,0.1016 0.3048,0.2921 0.1143,0.18415 0.1651,0.45085 0.0508,0.26035 0.0508,0.5842 z"
         style="stroke-width:0.264583"
         id="path1033" />
    </g>
    <g
       aria-label="(USD '21)"
       id="text870-0"
       style="font-style:normal;font-variant:normal;font-weight:normal;font-stretch:normal;font-size:6.35px;line-height:1.25;font-family:Raleway;-inkscape-font-specification:'Raleway, @wght=400';font-variant-ligatures:normal;font-variant-caps:normal;font-variant-numeric:normal;font-variant-east-asian:normal;font-variation-settings:'wght' 400;fill:#3f3027;fill-opacity:1;stroke:none;stroke-width:0.264583;stroke-opacity:1"
       inkscape:export-xdpi="200"
       inkscape:export-ydpi="200">
      <path
         d="m 121.62503,82.438589 q 0,-0.6477 0.26035,-1.2573 0.26035,-0.61595 0.62865,-1.23825 l 0.3302,0.15875 q -0.127,0.1905 -0.27305,0.4699 -0.1397,0.2794 -0.2667,0.60325 -0.12065,0.3175 -0.19685,0.6477 -0.0762,0.3302 -0.0762,0.635 0,0.4953 0.2159,1.0795 0.2159,0.5842 0.59055,1.16205 l -0.32385,0.17145 q -0.2667,-0.40005 -0.4699,-0.80645 -0.19685,-0.4064 -0.31115,-0.8128 -0.10795,-0.41275 -0.10795,-0.8128 z"
         style="font-style:normal;font-variant:normal;font-weight:normal;font-stretch:normal;font-size:6.35px;font-family:Raleway;-inkscape-font-specification:'Raleway, @wght=400';font-variant-ligatures:normal;font-variant-caps:normal;font-variant-numeric:normal;font-variant-east-asian:normal;font-variation-settings:'wght' 400;fill:#3f3027;fill-opacity:1;stroke:none;stroke-width:0.264583;stroke-opacity:1"
         id="path1062" />
      <path
         d="m 125.19075,84.663911 q -0.47413,0 -0.80151,-0.169333 -0.32738,-0.169333 -0.51929,-0.451555 -0.19191,-0.287867 -0.28222,-0.649111 -0.0847,-0.361244 -0.0847,-0.745066 v -2.02071 h 0.38947 v 2.02071 q 0,0.310444 0.0621,0.609599 0.0677,0.299156 0.21448,0.536222 0.14676,0.237067 0.39512,0.378178 0.24835,0.135466 0.62088,0.135466 0.38383,0 0.63218,-0.141111 0.254,-0.146755 0.39511,-0.383822 0.14676,-0.237066 0.20885,-0.530577 0.0621,-0.299155 0.0621,-0.603955 v -2.02071 h 0.39511 v 2.02071 q 0,0.400755 -0.0903,0.767644 -0.0903,0.366888 -0.29352,0.643466 -0.19755,0.276577 -0.51928,0.440266 -0.32174,0.163689 -0.78458,0.163689 z"
         style="font-style:normal;font-variant:normal;font-weight:normal;font-stretch:normal;font-size:5.64444px;font-family:Raleway;-inkscape-font-specification:'Raleway, @wght=400';font-variant-ligatures:normal;font-variant-caps:normal;font-variant-numeric:normal;font-variant-east-asian:normal;font-variation-settings:'wght' 400;fill:#3f3027;fill-opacity:1;stroke:none;stroke-width:0.264583;stroke-opacity:1"
         id="path1064" />
      <path
         d="m 130.16835,81.378847 q -0.0847,-0.09596 -0.19755,-0.169333 -0.11289,-0.07902 -0.254,-0.135467 -0.14111,-0.05644 -0.3048,-0.09031 -0.15805,-0.03387 -0.33867,-0.03387 -0.52493,0 -0.77329,0.2032 -0.24271,0.197556 -0.24271,0.541866 0,0.237067 0.11289,0.372534 0.11853,0.135466 0.36689,0.220133 0.24835,0.08467 0.63218,0.174977 0.42897,0.09031 0.73942,0.214489 0.31044,0.124178 0.47977,0.338666 0.16934,0.208845 0.16934,0.570089 0,0.276577 -0.10725,0.479777 -0.10724,0.2032 -0.29915,0.338667 -0.19191,0.135466 -0.4572,0.2032 -0.26529,0.06209 -0.58138,0.06209 -0.31044,0 -0.59831,-0.06209 -0.28222,-0.06773 -0.53622,-0.191911 -0.254,-0.129823 -0.47413,-0.327378 l 0.19755,-0.321733 q 0.10725,0.112889 0.254,0.214489 0.1524,0.09595 0.33302,0.174977 0.18627,0.07902 0.39511,0.124178 0.21449,0.03951 0.44027,0.03951 0.47978,0 0.74507,-0.174978 0.27093,-0.174977 0.27093,-0.519288 0,-0.248355 -0.13547,-0.395111 -0.13546,-0.1524 -0.4064,-0.248355 -0.27093,-0.09596 -0.66604,-0.186267 -0.41769,-0.09596 -0.70556,-0.214488 -0.28786,-0.118534 -0.43462,-0.310445 -0.14111,-0.197555 -0.14111,-0.519288 0,-0.372533 0.18062,-0.626533 0.18627,-0.259644 0.508,-0.389466 0.32174,-0.135467 0.73942,-0.135467 0.26529,0 0.49107,0.05644 0.23142,0.0508 0.42333,0.1524 0.19756,0.1016 0.36689,0.254 z"
         style="font-style:normal;font-variant:normal;font-weight:normal;font-stretch:normal;font-size:5.64444px;font-family:Raleway;-inkscape-font-specification:'Raleway, @wght=400';font-variant-ligatures:normal;font-variant-caps:normal;font-variant-numeric:normal;font-variant-east-asian:normal;font-variation-settings:'wght' 400;fill:#3f3027;fill-opacity:1;stroke:none;stroke-width:0.264583;stroke-opacity:1"
         id="path1066" />
      <path
         d="m 131.25446,84.635689 v -4.007553 h 1.36031 q 0.63783,0 1.06116,0.270933 0.42898,0.265289 0.64347,0.722489 0.21448,0.451555 0.21448,1.00471 0,0.6096 -0.23706,1.061155 -0.23142,0.451555 -0.66605,0.69991 -0.42897,0.248356 -1.016,0.248356 z m 2.88431,-2.009421 q 0,-0.479777 -0.18062,-0.85231 -0.17498,-0.372533 -0.51364,-0.581378 -0.33867,-0.214488 -0.82974,-0.214488 h -0.96519 v 3.307641 h 0.96519 q 0.49672,0 0.83538,-0.220133 0.33867,-0.220133 0.51365,-0.592666 0.17497,-0.378177 0.17497,-0.846666 z"
         style="font-style:normal;font-variant:normal;font-weight:normal;font-stretch:normal;font-size:5.64444px;font-family:Raleway;-inkscape-font-specification:'Raleway, @wght=400';font-variant-ligatures:normal;font-variant-caps:normal;font-variant-numeric:normal;font-variant-east-asian:normal;font-variation-settings:'wght' 400;fill:#3f3027;fill-opacity:1;stroke:none;stroke-width:0.264583;stroke-opacity:1"
         id="path1068" />
      <path
         d="m 136.71343,81.327339 v -1.23825 h 0.37465 v 1.23825 z"
         style="font-style:normal;font-variant:normal;font-weight:normal;font-stretch:normal;font-size:6.35px;font-family:Raleway;-inkscape-font-specification:'Raleway, @wght=400';font-variant-ligatures:normal;font-variant-caps:normal;font-variant-numeric:normal;font-variant-east-asian:normal;font-variation-settings:'wght' 400;fill:#3f3027;fill-opacity:1;stroke:none;stroke-width:0.264583;stroke-opacity:1"
         id="path1070" />
      <path
         d="m 137.80732,84.635689 q 0,-0.2159 0.0381,-0.4318 0.0381,-0.22225 0.14605,-0.43815 0.10795,-0.2159 0.3175,-0.41275 0.20955,-0.2032 0.55245,-0.381 0.18415,-0.09525 0.381,-0.18415 0.19685,-0.09525 0.3683,-0.2032 0.1778,-0.1143 0.2794,-0.254 0.10795,-0.14605 0.10795,-0.3429 0,-0.15875 -0.0953,-0.31115 -0.0889,-0.1524 -0.2794,-0.24765 -0.18415,-0.09525 -0.46355,-0.09525 -0.2032,0 -0.3683,0.05715 -0.1651,0.05715 -0.2921,0.14605 -0.127,0.08255 -0.2159,0.17145 -0.0889,0.08255 -0.14605,0.1397 l -0.27305,-0.29845 q 0.0317,-0.0381 0.1397,-0.13335 0.1143,-0.1016 0.28575,-0.20955 0.1778,-0.10795 0.41275,-0.18415 0.2413,-0.0762 0.52705,-0.0762 0.38735,0 0.6604,0.1397 0.2794,0.13335 0.42545,0.36195 0.14605,0.2286 0.14605,0.4953 0,0.26035 -0.1143,0.45085 -0.10795,0.18415 -0.28575,0.32385 -0.17145,0.13335 -0.36195,0.23495 -0.18415,0.09525 -0.33655,0.1651 -0.29845,0.1397 -0.50165,0.2794 -0.2032,0.1397 -0.32385,0.28575 -0.12065,0.1397 -0.1905,0.2794 -0.0635,0.13335 -0.0889,0.2794 h 2.2733 v 0.3937 z"
         style="font-style:normal;font-variant:normal;font-weight:normal;font-stretch:normal;font-size:6.35px;font-family:Raleway;-inkscape-font-specification:'Raleway, @wght=400';font-variant-ligatures:normal;font-variant-caps:normal;font-variant-numeric:normal;font-variant-east-asian:normal;font-variation-settings:'wght' 400;fill:#3f3027;fill-opacity:1;stroke:none;stroke-width:0.264583;stroke-opacity:1"
         id="path1072" />
      <path
         d="m 143.41745,84.241989 v 0.3937 h -2.15265 v -0.3937 h 0.9017 v -2.7178 q -0.0508,0.0762 -0.17145,0.1651 -0.12065,0.0889 -0.2794,0.1651 -0.1524,0.0762 -0.3048,0.127 -0.1524,0.0508 -0.2794,0.0508 v -0.4191 q 0.14605,0 0.3175,-0.08255 0.17145,-0.08255 0.3302,-0.1905 0.15875,-0.10795 0.2667,-0.2032 0.10795,-0.09525 0.12065,-0.127 h 0.4445 v 3.23215 z"
         style="font-style:normal;font-variant:normal;font-weight:normal;font-stretch:normal;font-size:6.35px;font-family:Raleway;-inkscape-font-specification:'Raleway, @wght=400';font-variant-ligatures:normal;font-variant-caps:normal;font-variant-numeric:normal;font-variant-east-asian:normal;font-variation-settings:'wght' 400;fill:#3f3027;fill-opacity:1;stroke:none;stroke-width:0.264583;stroke-opacity:1"
         id="path1074" />
      <path
         d="m 144.97786,82.438589 q 0,0.40005 -0.10795,0.8128 -0.10795,0.4064 -0.31115,0.8128 -0.2032,0.4064 -0.4699,0.80645 l -0.3175,-0.17145 q 0.37465,-0.57785 0.59055,-1.16205 0.2159,-0.5842 0.2159,-1.0795 0,-0.3048 -0.0762,-0.635 -0.0762,-0.3302 -0.2032,-0.6477 -0.127,-0.32385 -0.2667,-0.60325 -0.1397,-0.2794 -0.27305,-0.4699 l 0.33655,-0.15875 q 0.3683,0.6223 0.6223,1.23825 0.26035,0.6096 0.26035,1.2573 z"
         style="font-style:normal;font-variant:normal;font-weight:normal;font-stretch:normal;font-size:6.35px;font-family:Raleway;-inkscape-font-specification:'Raleway, @wght=400';font-variant-ligatures:normal;font-variant-caps:normal;font-variant-numeric:normal;font-variant-east-asian:normal;font-variation-settings:'wght' 400;fill:#3f3027;fill-opacity:1;stroke:none;stroke-width:0.264583;stroke-opacity:1"
         id="path1076" />
    </g>
    <g
       aria-label="count"
       id="text878-0"
       style="font-style:normal;font-variant:normal;font-weight:normal;font-stretch:normal;font-size:6.35px;line-height:1.25;font-family:Raleway;-inkscape-font-specification:'Raleway, @wght=400';font-variant-ligatures:normal;font-variant-caps:normal;font-variant-numeric:normal;font-variant-east-asian:normal;font-variation-settings:'wght' 400;fill:#3f3027;fill-opacity:1;stroke:none;stroke-width:0.264583;stroke-opacity:1"
       inkscape:export-xdpi="200"
       inkscape:export-ydpi="200">
      <path
         d="m 130.15349,60.953339 q -0.36195,0 -0.66675,-0.13335 -0.29845,-0.1397 -0.52705,-0.381 -0.22225,-0.2413 -0.34925,-0.55245 -0.12065,-0.31115 -0.12065,-0.6604 0,-0.4699 0.20955,-0.85725 0.20955,-0.38735 0.5842,-0.61595 0.37465,-0.2286 0.8636,-0.2286 0.46355,0 0.81915,0.2159 0.3556,0.20955 0.52705,0.5715 l -0.4191,0.13335 q -0.1397,-0.254 -0.3937,-0.3937 -0.24765,-0.14605 -0.55245,-0.14605 -0.3302,0 -0.60325,0.17145 -0.27305,0.17145 -0.43815,0.4699 -0.15875,0.29845 -0.15875,0.67945 0,0.37465 0.1651,0.67945 0.1651,0.3048 0.43815,0.48895 0.27305,0.1778 0.60325,0.1778 0.2159,0 0.41275,-0.0762 0.2032,-0.0762 0.34925,-0.2032 0.1524,-0.13335 0.2032,-0.28575 l 0.42545,0.127 q -0.0889,0.23495 -0.29845,0.42545 -0.2032,0.18415 -0.4826,0.2921 -0.27305,0.1016 -0.59055,0.1016 z"
         style="font-style:normal;font-variant:normal;font-weight:normal;font-stretch:normal;font-size:6.35px;font-family:Raleway;-inkscape-font-specification:'Raleway, @wght=400';font-variant-ligatures:normal;font-variant-caps:normal;font-variant-numeric:normal;font-variant-east-asian:normal;font-variation-settings:'wght' 400;fill:#3f3027;fill-opacity:1;stroke:none;stroke-width:0.264583;stroke-opacity:1"
         id="path1036" />
      <path
         d="m 133.57594,60.953339 q -0.3556,0 -0.6604,-0.13335 -0.29845,-0.1397 -0.5207,-0.37465 -0.2159,-0.2413 -0.33655,-0.5461 -0.12065,-0.31115 -0.12065,-0.65405 0,-0.3556 0.12065,-0.6604 0.12065,-0.31115 0.3429,-0.5461 0.22225,-0.2413 0.5207,-0.37465 0.3048,-0.1397 0.6604,-0.1397 0.3556,0 0.65405,0.1397 0.29845,0.13335 0.5207,0.37465 0.22225,0.23495 0.3429,0.5461 0.12065,0.3048 0.12065,0.6604 0,0.3429 -0.12065,0.65405 -0.12065,0.3048 -0.3429,0.5461 -0.2159,0.23495 -0.5207,0.37465 -0.29845,0.13335 -0.6604,0.13335 z m -1.20015,-1.7018 q 0,0.3683 0.15875,0.6731 0.1651,0.29845 0.43815,0.47625 0.27305,0.17145 0.60325,0.17145 0.3302,0 0.60325,-0.1778 0.27305,-0.1778 0.43815,-0.4826 0.1651,-0.31115 0.1651,-0.6731 0,-0.3683 -0.1651,-0.6731 -0.1651,-0.3048 -0.43815,-0.4826 -0.27305,-0.1778 -0.60325,-0.1778 -0.3302,0 -0.60325,0.18415 -0.2667,0.18415 -0.4318,0.48895 -0.1651,0.29845 -0.1651,0.6731 z"
         style="font-style:normal;font-variant:normal;font-weight:normal;font-stretch:normal;font-size:6.35px;font-family:Raleway;-inkscape-font-specification:'Raleway, @wght=400';font-variant-ligatures:normal;font-variant-caps:normal;font-variant-numeric:normal;font-variant-east-asian:normal;font-variation-settings:'wght' 400;fill:#3f3027;fill-opacity:1;stroke:none;stroke-width:0.264583;stroke-opacity:1"
         id="path1038" />
      <path
         d="m 135.91721,59.524589 v -1.9431 h 0.4318 v 1.8669 q 0,0.56515 0.1905,0.84455 0.19685,0.2794 0.57785,0.2794 0.254,0 0.48895,-0.10795 0.2413,-0.1143 0.42545,-0.3175 0.18415,-0.20955 0.2794,-0.4826 v -2.0828 h 0.4318 v 2.78765 q 0,0.0889 0.0381,0.13335 0.0381,0.0381 0.1143,0.04445 v 0.3429 q -0.0762,0.0063 -0.12065,0.0063 -0.0445,0.0063 -0.0825,0.0063 -0.127,-0.0127 -0.22225,-0.1016 -0.0889,-0.0889 -0.0952,-0.2159 l -0.0127,-0.4445 q -0.2159,0.381 -0.59055,0.5969 -0.3683,0.2159 -0.8001,0.2159 -0.5207,0 -0.7874,-0.36195 -0.2667,-0.36195 -0.2667,-1.0668 z"
         style="font-style:normal;font-variant:normal;font-weight:normal;font-stretch:normal;font-size:6.35px;font-family:Raleway;-inkscape-font-specification:'Raleway, @wght=400';font-variant-ligatures:normal;font-variant-caps:normal;font-variant-numeric:normal;font-variant-east-asian:normal;font-variation-settings:'wght' 400;fill:#3f3027;fill-opacity:1;stroke:none;stroke-width:0.264583;stroke-opacity:1"
         id="path1040" />
      <path
         d="m 142.50057,60.889839 h -0.4318 v -1.84785 q 0,-0.5842 -0.17145,-0.8509 -0.17145,-0.27305 -0.53975,-0.27305 -0.254,0 -0.50165,0.127 -0.24765,0.12065 -0.43815,0.33655 -0.18415,0.20955 -0.2667,0.4826 v 2.02565 h -0.4318 v -3.30835 h 0.3937 v 0.7493 q 0.13335,-0.2413 0.34925,-0.4191 0.2159,-0.18415 0.48895,-0.28575 0.27305,-0.1016 0.56515,-0.1016 0.27305,0 0.46355,0.1016 0.1905,0.1016 0.3048,0.2921 0.1143,0.18415 0.1651,0.45085 0.0508,0.26035 0.0508,0.5842 z"
         style="font-style:normal;font-variant:normal;font-weight:normal;font-stretch:normal;font-size:6.35px;font-family:Raleway;-inkscape-font-specification:'Raleway, @wght=400';font-variant-ligatures:normal;font-variant-caps:normal;font-variant-numeric:normal;font-variant-east-asian:normal;font-variation-settings:'wght' 400;fill:#3f3027;fill-opacity:1;stroke:none;stroke-width:0.264583;stroke-opacity:1"
         id="path1042" />
      <path
         d="m 144.97786,60.731089 q -0.0508,0.01905 -0.15875,0.06985 -0.10795,0.0508 -0.26035,0.0889 -0.1524,0.0381 -0.3302,0.0381 -0.18415,0 -0.34925,-0.06985 -0.15875,-0.06985 -0.254,-0.20955 -0.0953,-0.14605 -0.0953,-0.3556 v -2.36855 h -0.4572 v -0.3429 h 0.4572 v -1.1176 h 0.4318 v 1.1176 h 0.762 v 0.3429 h -0.762 v 2.2479 q 0.0127,0.1778 0.127,0.2667 0.12065,0.0889 0.27305,0.0889 0.1778,0 0.32385,-0.05715 0.14605,-0.0635 0.1778,-0.0889 z"
         style="font-style:normal;font-variant:normal;font-weight:normal;font-stretch:normal;font-size:6.35px;font-family:Raleway;-inkscape-font-specification:'Raleway, @wght=400';font-variant-ligatures:normal;font-variant-caps:normal;font-variant-numeric:normal;font-variant-east-asian:normal;font-variation-settings:'wght' 400;fill:#3f3027;fill-opacity:1;stroke:none;stroke-width:0.264583;stroke-opacity:1"
         id="path1044" />
    </g>
    <g
       aria-label="Deadliest event metrics"
       id="text884-8"
       style="font-size:10.5833px;line-height:1.25;font-family:Raleway;-inkscape-font-specification:'Raleway, Normal';fill:#3f3027;fill-opacity:1;stroke-width:0.264583"
       inkscape:export-xdpi="200"
       inkscape:export-ydpi="200">
      <path
         d="m 117.78739,32.3358 v -5.009448 h 1.70039 q 0.79728,0 1.32645,0.338667 0.53622,0.331612 0.80433,0.903112 0.26811,0.564445 0.26811,1.25589 0,0.762 -0.29633,1.326445 -0.28928,0.564445 -0.83256,0.87489 -0.53622,0.310444 -1.27,0.310444 z m 3.60539,-2.511779 q 0,-0.599723 -0.22578,-1.06539 -0.21872,-0.465667 -0.64205,-0.726722 -0.42333,-0.268112 -1.03717,-0.268112 h -1.2065 v 4.134558 h 1.2065 q 0.62089,0 1.04422,-0.275166 0.42334,-0.275167 0.64206,-0.740834 0.21872,-0.472723 0.21872,-1.058334 z"
         style="font-style:normal;font-variant:normal;font-weight:normal;font-stretch:normal;font-size:7.05556px;font-family:Raleway;-inkscape-font-specification:'Raleway, @wght=400';font-variant-ligatures:normal;font-variant-caps:normal;font-variant-numeric:normal;font-variant-east-asian:normal;font-variation-settings:'wght' 400;fill:#3f3027;fill-opacity:1;stroke-width:0.264583"
         id="path976" />
      <path
         d="m 124.31974,32.406356 q -0.39511,0 -0.73378,-0.148167 -0.33867,-0.155222 -0.58561,-0.416278 -0.24695,-0.268111 -0.38806,-0.613834 -0.13405,-0.345722 -0.13405,-0.740834 0,-0.515055 0.23283,-0.945445 0.23989,-0.430389 0.65617,-0.684389 0.41628,-0.261056 0.94544,-0.261056 0.54328,0 0.94545,0.261056 0.40922,0.261056 0.64205,0.691445 0.23284,0.423334 0.23284,0.931334 0,0.05644 0,0.112889 0,0.04939 -0.007,0.07761 h -3.14678 q 0.0353,0.395111 0.21872,0.705556 0.1905,0.303389 0.48684,0.486834 0.30339,0.176389 0.65616,0.176389 0.35984,0 0.67734,-0.183445 0.32455,-0.183444 0.45155,-0.479778 l 0.41628,0.112889 q -0.11289,0.261056 -0.34572,0.472722 -0.23283,0.211667 -0.55033,0.331612 -0.31045,0.112889 -0.67028,0.112889 z m -1.35467,-2.08139 h 2.71639 q -0.0282,-0.402167 -0.21872,-0.705556 -0.18345,-0.30339 -0.48684,-0.472723 -0.29633,-0.176389 -0.65616,-0.176389 -0.35984,0 -0.65617,0.176389 -0.29633,0.169333 -0.48683,0.479778 -0.18345,0.303389 -0.21167,0.698501 z"
         style="font-style:normal;font-variant:normal;font-weight:normal;font-stretch:normal;font-size:7.05556px;font-family:Raleway;-inkscape-font-specification:'Raleway, @wght=400';font-variant-ligatures:normal;font-variant-caps:normal;font-variant-numeric:normal;font-variant-east-asian:normal;font-variation-settings:'wght' 400;fill:#3f3027;fill-opacity:1;stroke-width:0.264583"
         id="path978" />
      <path
         d="m 126.5838,31.277466 q 0,-0.345722 0.19756,-0.592667 0.19755,-0.254 0.54327,-0.388056 0.35278,-0.141111 0.81139,-0.141111 0.26812,0 0.55739,0.04233 0.28928,0.04233 0.51506,0.127001 v -0.310445 q 0,-0.465667 -0.27517,-0.740834 -0.27516,-0.275167 -0.762,-0.275167 -0.29633,0 -0.58561,0.112889 -0.28222,0.105834 -0.59267,0.3175 l -0.18344,-0.338666 q 0.35983,-0.246945 0.70555,-0.36689 0.34573,-0.127 0.70556,-0.127 0.67733,0 1.07245,0.388056 0.39511,0.388056 0.39511,1.072445 v 1.70039 q 0,0.09878 0.0423,0.148167 0.0423,0.04233 0.13406,0.04939 v 0.381 q -0.0776,0.0071 -0.13406,0.01411 -0.0564,0.0071 -0.0847,0 -0.17639,-0.0071 -0.26811,-0.112889 -0.0917,-0.105833 -0.0988,-0.225778 l -0.007,-0.268111 q -0.24695,0.3175 -0.64206,0.493889 -0.39511,0.169334 -0.80433,0.169334 -0.35278,0 -0.64206,-0.148167 -0.28222,-0.155222 -0.4445,-0.409222 -0.15522,-0.261056 -0.15522,-0.571501 z m 2.46239,0.282223 q 0.0776,-0.09878 0.11995,-0.190501 0.0423,-0.09172 0.0423,-0.162277 v -0.536223 q -0.23989,-0.09172 -0.50095,-0.141111 -0.254,-0.04939 -0.51505,-0.04939 -0.51506,0 -0.83256,0.204611 -0.3175,0.204611 -0.3175,0.557389 0,0.204612 0.10584,0.388056 0.10583,0.176389 0.31044,0.296334 0.20461,0.112889 0.47978,0.112889 0.34572,0 0.64205,-0.134056 0.30339,-0.134056 0.46567,-0.345722 z"
         style="font-style:normal;font-variant:normal;font-weight:normal;font-stretch:normal;font-size:7.05556px;font-family:Raleway;-inkscape-font-specification:'Raleway, @wght=400';font-variant-ligatures:normal;font-variant-caps:normal;font-variant-numeric:normal;font-variant-east-asian:normal;font-variation-settings:'wght' 400;fill:#3f3027;fill-opacity:1;stroke-width:0.264583"
         id="path980" />
      <path
         d="m 130.47792,30.50841 q 0,-0.522111 0.21167,-0.952501 0.21872,-0.437444 0.59972,-0.6985 0.381,-0.261056 0.86783,-0.261056 0.45861,0 0.81845,0.246945 0.36689,0.239889 0.5715,0.585611 v -2.243668 h 0.47978 v 4.572003 q 0,0.09878 0.0423,0.148167 0.0423,0.04233 0.127,0.04939 v 0.381 q -0.14111,0.02117 -0.21872,0.01411 -0.14817,-0.0071 -0.26106,-0.119944 -0.11289,-0.112889 -0.11289,-0.246945 v -0.359833 q -0.21872,0.359833 -0.59267,0.5715 -0.37394,0.211667 -0.77611,0.211667 -0.381,0 -0.70555,-0.155223 -0.3175,-0.155222 -0.55739,-0.423333 -0.23284,-0.268111 -0.36689,-0.606778 -0.127,-0.345723 -0.127,-0.712612 z m 3.06917,0.564445 V 29.93691 q -0.0917,-0.254 -0.29634,-0.458612 -0.20461,-0.211666 -0.46566,-0.331611 -0.254,-0.127 -0.508,-0.127 -0.29634,0 -0.53623,0.127 -0.23989,0.119945 -0.41627,0.331611 -0.16934,0.211667 -0.26106,0.479778 -0.0917,0.268112 -0.0917,0.550334 0,0.296334 0.0988,0.564445 0.10583,0.268111 0.29633,0.479778 0.1905,0.204611 0.43744,0.3175 0.24695,0.112889 0.53623,0.112889 0.18344,0 0.381,-0.07055 0.19755,-0.07056 0.37394,-0.190501 0.18345,-0.127 0.30339,-0.296333 0.11994,-0.169334 0.14817,-0.352778 z"
         style="font-style:normal;font-variant:normal;font-weight:normal;font-stretch:normal;font-size:7.05556px;font-family:Raleway;-inkscape-font-specification:'Raleway, @wght=400';font-variant-ligatures:normal;font-variant-caps:normal;font-variant-numeric:normal;font-variant-east-asian:normal;font-variation-settings:'wght' 400;fill:#3f3027;fill-opacity:1;stroke-width:0.264583"
         id="path982" />
      <path
         d="m 135.1282,27.185241 h 0.47977 v 4.318003 q 0,0.275167 0.0988,0.359834 0.0988,0.08467 0.23989,0.08467 0.127,0 0.254,-0.02822 0.127,-0.02822 0.21872,-0.05644 l 0.0847,0.388055 q -0.13406,0.05644 -0.33161,0.09172 -0.1905,0.03528 -0.33161,0.03528 -0.32456,0 -0.52211,-0.190501 -0.1905,-0.1905 -0.1905,-0.522111 z"
         style="font-style:normal;font-variant:normal;font-weight:normal;font-stretch:normal;font-size:7.05556px;font-family:Raleway;-inkscape-font-specification:'Raleway, @wght=400';font-variant-ligatures:normal;font-variant-caps:normal;font-variant-numeric:normal;font-variant-east-asian:normal;font-variation-settings:'wght' 400;fill:#3f3027;fill-opacity:1;stroke-width:0.264583"
         id="path984" />
      <path
         d="m 137.0225,32.3358 v -3.675947 h 0.47978 V 32.3358 Z m 0,-4.445003 v -0.705556 h 0.47978 v 0.705556 z"
         style="font-style:normal;font-variant:normal;font-weight:normal;font-stretch:normal;font-size:7.05556px;font-family:Raleway;-inkscape-font-specification:'Raleway, @wght=400';font-variant-ligatures:normal;font-variant-caps:normal;font-variant-numeric:normal;font-variant-east-asian:normal;font-variation-settings:'wght' 400;fill:#3f3027;fill-opacity:1;stroke-width:0.264583"
         id="path986" />
      <path
         d="m 140.15341,32.406356 q -0.39511,0 -0.73378,-0.148167 -0.33867,-0.155222 -0.58561,-0.416278 -0.24695,-0.268111 -0.38806,-0.613834 -0.13405,-0.345722 -0.13405,-0.740834 0,-0.515055 0.23283,-0.945445 0.23989,-0.430389 0.65617,-0.684389 0.41627,-0.261056 0.94544,-0.261056 0.54328,0 0.94545,0.261056 0.40922,0.261056 0.64205,0.691445 0.23284,0.423334 0.23284,0.931334 0,0.05644 0,0.112889 0,0.04939 -0.007,0.07761 h -3.14678 q 0.0353,0.395111 0.21872,0.705556 0.1905,0.303389 0.48684,0.486834 0.30339,0.176389 0.65616,0.176389 0.35984,0 0.67734,-0.183445 0.32455,-0.183444 0.45155,-0.479778 l 0.41628,0.112889 q -0.11289,0.261056 -0.34572,0.472722 -0.23283,0.211667 -0.55033,0.331612 -0.31045,0.112889 -0.67028,0.112889 z m -1.35467,-2.08139 h 2.71639 q -0.0282,-0.402167 -0.21872,-0.705556 -0.18345,-0.30339 -0.48684,-0.472723 -0.29633,-0.176389 -0.65616,-0.176389 -0.35984,0 -0.65617,0.176389 -0.29633,0.169333 -0.48683,0.479778 -0.18345,0.303389 -0.21167,0.698501 z"
         style="font-style:normal;font-variant:normal;font-weight:normal;font-stretch:normal;font-size:7.05556px;font-family:Raleway;-inkscape-font-specification:'Raleway, @wght=400';font-variant-ligatures:normal;font-variant-caps:normal;font-variant-numeric:normal;font-variant-east-asian:normal;font-variation-settings:'wght' 400;fill:#3f3027;fill-opacity:1;stroke-width:0.264583"
         id="path988" />
      <path
         d="m 143.9203,32.406356 q -0.45155,0 -0.83961,-0.148167 -0.38805,-0.148167 -0.67028,-0.451556 l 0.19756,-0.338667 q 0.31045,0.289278 0.62089,0.423334 0.3175,0.127 0.67028,0.127 0.43039,0 0.6985,-0.169333 0.26811,-0.176389 0.26811,-0.500945 0,-0.218723 -0.13406,-0.331612 -0.127,-0.119944 -0.37394,-0.1905 -0.23989,-0.07761 -0.57856,-0.162278 -0.381,-0.105833 -0.64205,-0.218722 -0.254,-0.119944 -0.38806,-0.296333 -0.127,-0.183445 -0.127,-0.472723 0,-0.359834 0.17639,-0.592667 0.18345,-0.239889 0.49389,-0.359834 0.3175,-0.127 0.70556,-0.127 0.42333,0 0.74789,0.134056 0.32455,0.134056 0.52916,0.373945 l -0.23283,0.324555 q -0.19756,-0.225778 -0.47272,-0.331611 -0.26811,-0.112889 -0.59973,-0.112889 -0.22577,0 -0.43039,0.0635 -0.20461,0.05645 -0.33866,0.197556 -0.127,0.134055 -0.127,0.373945 0,0.197555 0.0988,0.310444 0.0988,0.105834 0.29633,0.183445 0.19755,0.07055 0.48683,0.155222 0.41628,0.112889 0.72673,0.232834 0.31044,0.112889 0.47977,0.296333 0.16934,0.183445 0.16934,0.515056 0,0.515056 -0.38806,0.804334 -0.38805,0.289278 -1.02306,0.289278 z"
         style="font-style:normal;font-variant:normal;font-weight:normal;font-stretch:normal;font-size:7.05556px;font-family:Raleway;-inkscape-font-specification:'Raleway, @wght=400';font-variant-ligatures:normal;font-variant-caps:normal;font-variant-numeric:normal;font-variant-east-asian:normal;font-variation-settings:'wght' 400;fill:#3f3027;fill-opacity:1;stroke-width:0.264583"
         id="path990" />
      <path
         d="m 147.88145,32.159411 q -0.0564,0.02117 -0.17639,0.07761 -0.11994,0.05644 -0.28928,0.09878 -0.16933,0.04233 -0.36688,0.04233 -0.20462,0 -0.38806,-0.07761 -0.17639,-0.07761 -0.28222,-0.232833 -0.10584,-0.162278 -0.10584,-0.395111 v -2.631724 h -0.508 v -0.381001 h 0.508 v -1.241778 h 0.47978 v 1.241778 h 0.84667 v 0.381001 h -0.84667 v 2.497668 q 0.0141,0.197556 0.14111,0.296333 0.13406,0.09878 0.30339,0.09878 0.19756,0 0.35984,-0.0635 0.16227,-0.07055 0.19755,-0.09878 z"
         style="font-style:normal;font-variant:normal;font-weight:normal;font-stretch:normal;font-size:7.05556px;font-family:Raleway;-inkscape-font-specification:'Raleway, @wght=400';font-variant-ligatures:normal;font-variant-caps:normal;font-variant-numeric:normal;font-variant-east-asian:normal;font-variation-settings:'wght' 400;fill:#3f3027;fill-opacity:1;stroke-width:0.264583"
         id="path992" />
      <path
         d="m 151.88052,32.406356 q -0.39511,0 -0.73378,-0.148167 -0.33867,-0.155222 -0.58561,-0.416278 -0.24695,-0.268111 -0.38806,-0.613834 -0.13405,-0.345722 -0.13405,-0.740834 0,-0.515055 0.23283,-0.945445 0.23989,-0.430389 0.65617,-0.684389 0.41628,-0.261056 0.94544,-0.261056 0.54328,0 0.94545,0.261056 0.40922,0.261056 0.64205,0.691445 0.23284,0.423334 0.23284,0.931334 0,0.05644 0,0.112889 0,0.04939 -0.007,0.07761 h -3.14678 q 0.0353,0.395111 0.21873,0.705556 0.1905,0.303389 0.48683,0.486834 0.30339,0.176389 0.65617,0.176389 0.35983,0 0.67733,-0.183445 0.32456,-0.183444 0.45156,-0.479778 l 0.41627,0.112889 q -0.11289,0.261056 -0.34572,0.472722 -0.23283,0.211667 -0.55033,0.331612 -0.31045,0.112889 -0.67028,0.112889 z m -1.35467,-2.08139 h 2.71639 q -0.0282,-0.402167 -0.21872,-0.705556 -0.18344,-0.30339 -0.48683,-0.472723 -0.29634,-0.176389 -0.65617,-0.176389 -0.35983,0 -0.65617,0.176389 -0.29633,0.169333 -0.48683,0.479778 -0.18345,0.303389 -0.21167,0.698501 z"
         style="font-style:normal;font-variant:normal;font-weight:normal;font-stretch:normal;font-size:7.05556px;font-family:Raleway;-inkscape-font-specification:'Raleway, @wght=400';font-variant-ligatures:normal;font-variant-caps:normal;font-variant-numeric:normal;font-variant-east-asian:normal;font-variation-settings:'wght' 400;fill:#3f3027;fill-opacity:1;stroke-width:0.264583"
         id="path994" />
      <path
         d="m 155.43807,32.3358 -1.48873,-3.675947 h 0.50095 l 1.25589,3.196169 1.26294,-3.196169 h 0.47273 l -1.48873,3.675947 z"
         style="font-style:normal;font-variant:normal;font-weight:normal;font-stretch:normal;font-size:7.05556px;font-family:Raleway;-inkscape-font-specification:'Raleway, @wght=400';font-variant-ligatures:normal;font-variant-caps:normal;font-variant-numeric:normal;font-variant-east-asian:normal;font-variation-settings:'wght' 400;fill:#3f3027;fill-opacity:1;stroke-width:0.264583"
         id="path996" />
      <path
         d="m 159.56998,32.406356 q -0.39512,0 -0.73378,-0.148167 -0.33867,-0.155222 -0.58561,-0.416278 -0.24695,-0.268111 -0.38806,-0.613834 -0.13406,-0.345722 -0.13406,-0.740834 0,-0.515055 0.23284,-0.945445 0.23989,-0.430389 0.65617,-0.684389 0.41627,-0.261056 0.94544,-0.261056 0.54328,0 0.94545,0.261056 0.40922,0.261056 0.64205,0.691445 0.23284,0.423334 0.23284,0.931334 0,0.05644 0,0.112889 0,0.04939 -0.007,0.07761 h -3.14678 q 0.0353,0.395111 0.21872,0.705556 0.1905,0.303389 0.48684,0.486834 0.30338,0.176389 0.65616,0.176389 0.35984,0 0.67734,-0.183445 0.32455,-0.183444 0.45155,-0.479778 l 0.41628,0.112889 q -0.11289,0.261056 -0.34572,0.472722 -0.23284,0.211667 -0.55034,0.331612 -0.31044,0.112889 -0.67027,0.112889 z m -1.35467,-2.08139 h 2.71639 q -0.0282,-0.402167 -0.21872,-0.705556 -0.18345,-0.30339 -0.48684,-0.472723 -0.29633,-0.176389 -0.65616,-0.176389 -0.35984,0 -0.65617,0.176389 -0.29633,0.169333 -0.48683,0.479778 -0.18345,0.303389 -0.21167,0.698501 z"
         style="font-style:normal;font-variant:normal;font-weight:normal;font-stretch:normal;font-size:7.05556px;font-family:Raleway;-inkscape-font-specification:'Raleway, @wght=400';font-variant-ligatures:normal;font-variant-caps:normal;font-variant-numeric:normal;font-variant-east-asian:normal;font-variation-settings:'wght' 400;fill:#3f3027;fill-opacity:1;stroke-width:0.264583"
         id="path998" />
      <path
         d="m 165.22071,32.3358 h -0.47978 v -2.053168 q 0,-0.649111 -0.1905,-0.945445 -0.1905,-0.303389 -0.59972,-0.303389 -0.28222,0 -0.55739,0.141111 -0.27517,0.134056 -0.48683,0.373945 -0.20461,0.232833 -0.29634,0.536222 V 32.3358 h -0.47978 v -3.675947 h 0.43745 v 0.832556 q 0.14817,-0.268111 0.38806,-0.465667 0.23988,-0.204611 0.54327,-0.3175 0.30339,-0.112889 0.62795,-0.112889 0.30339,0 0.51505,0.112889 0.21167,0.112889 0.33867,0.324556 0.127,0.204611 0.18345,0.500945 0.0564,0.289278 0.0564,0.649111 z"
         style="font-style:normal;font-variant:normal;font-weight:normal;font-stretch:normal;font-size:7.05556px;font-family:Raleway;-inkscape-font-specification:'Raleway, @wght=400';font-variant-ligatures:normal;font-variant-caps:normal;font-variant-numeric:normal;font-variant-east-asian:normal;font-variation-settings:'wght' 400;fill:#3f3027;fill-opacity:1;stroke-width:0.264583"
         id="path1000" />
      <path
         d="m 167.97326,32.159411 q -0.0564,0.02117 -0.17639,0.07761 -0.11994,0.05644 -0.28928,0.09878 -0.16933,0.04233 -0.36689,0.04233 -0.20461,0 -0.38805,-0.07761 -0.17639,-0.07761 -0.28222,-0.232833 -0.10584,-0.162278 -0.10584,-0.395111 v -2.631724 h -0.508 v -0.381001 h 0.508 v -1.241778 h 0.47978 v 1.241778 h 0.84667 v 0.381001 h -0.84667 v 2.497668 q 0.0141,0.197556 0.14111,0.296333 0.13406,0.09878 0.30339,0.09878 0.19756,0 0.35983,-0.0635 0.16228,-0.07055 0.19756,-0.09878 z"
         style="font-style:normal;font-variant:normal;font-weight:normal;font-stretch:normal;font-size:7.05556px;font-family:Raleway;-inkscape-font-specification:'Raleway, @wght=400';font-variant-ligatures:normal;font-variant-caps:normal;font-variant-numeric:normal;font-variant-east-asian:normal;font-variation-settings:'wght' 400;fill:#3f3027;fill-opacity:1;stroke-width:0.264583"
         id="path1002" />
      <path
         d="m 175.85289,32.3358 h -0.47978 v -2.053168 q 0,-0.642056 -0.20461,-0.945445 -0.20461,-0.303389 -0.60678,-0.303389 -0.41628,0 -0.74789,0.296334 -0.32455,0.296333 -0.45861,0.762 V 32.3358 h -0.47978 v -2.053168 q 0,-0.649111 -0.19755,-0.945445 -0.19756,-0.303389 -0.60678,-0.303389 -0.40922,0 -0.74083,0.289278 -0.33162,0.289278 -0.46567,0.762 V 32.3358 h -0.47978 v -3.675947 h 0.43745 v 0.832556 q 0.23283,-0.430389 0.59266,-0.663222 0.36689,-0.232834 0.81139,-0.232834 0.45861,0 0.74084,0.261056 0.28222,0.261056 0.34572,0.684389 0.254,-0.465667 0.60678,-0.705556 0.35983,-0.239889 0.81139,-0.239889 0.31044,0 0.52211,0.112889 0.21872,0.112889 0.34572,0.324556 0.13405,0.204611 0.1905,0.500945 0.0635,0.289278 0.0635,0.649111 z"
         style="font-style:normal;font-variant:normal;font-weight:normal;font-stretch:normal;font-size:7.05556px;font-family:Raleway;-inkscape-font-specification:'Raleway, @wght=400';font-variant-ligatures:normal;font-variant-caps:normal;font-variant-numeric:normal;font-variant-east-asian:normal;font-variation-settings:'wght' 400;fill:#3f3027;fill-opacity:1;stroke-width:0.264583"
         id="path1004" />
      <path
         d="m 178.46289,32.406356 q -0.39511,0 -0.73377,-0.148167 -0.33867,-0.155222 -0.58562,-0.416278 -0.24694,-0.268111 -0.38805,-0.613834 -0.13406,-0.345722 -0.13406,-0.740834 0,-0.515055 0.23284,-0.945445 0.23989,-0.430389 0.65616,-0.684389 0.41628,-0.261056 0.94545,-0.261056 0.54328,0 0.94544,0.261056 0.40923,0.261056 0.64206,0.691445 0.23283,0.423334 0.23283,0.931334 0,0.05644 0,0.112889 0,0.04939 -0.007,0.07761 h -3.14678 q 0.0353,0.395111 0.21872,0.705556 0.1905,0.303389 0.48683,0.486834 0.30339,0.176389 0.65617,0.176389 0.35983,0 0.67733,-0.183445 0.32456,-0.183444 0.45156,-0.479778 l 0.41628,0.112889 q -0.11289,0.261056 -0.34572,0.472722 -0.23284,0.211667 -0.55034,0.331612 -0.31044,0.112889 -0.67028,0.112889 z m -1.35466,-2.08139 h 2.71639 q -0.0282,-0.402167 -0.21873,-0.705556 -0.18344,-0.30339 -0.48683,-0.472723 -0.29633,-0.176389 -0.65617,-0.176389 -0.35983,0 -0.65616,0.176389 -0.29634,0.169333 -0.48684,0.479778 -0.18344,0.303389 -0.21166,0.698501 z"
         style="font-style:normal;font-variant:normal;font-weight:normal;font-stretch:normal;font-size:7.05556px;font-family:Raleway;-inkscape-font-specification:'Raleway, @wght=400';font-variant-ligatures:normal;font-variant-caps:normal;font-variant-numeric:normal;font-variant-east-asian:normal;font-variation-settings:'wght' 400;fill:#3f3027;fill-opacity:1;stroke-width:0.264583"
         id="path1006" />
      <path
         d="m 182.75962,32.159411 q -0.0564,0.02117 -0.17639,0.07761 -0.11994,0.05644 -0.28928,0.09878 -0.16933,0.04233 -0.36688,0.04233 -0.20462,0 -0.38806,-0.07761 -0.17639,-0.07761 -0.28222,-0.232833 -0.10584,-0.162278 -0.10584,-0.395111 v -2.631724 h -0.508 v -0.381001 h 0.508 v -1.241778 h 0.47978 v 1.241778 h 0.84667 v 0.381001 h -0.84667 v 2.497668 q 0.0141,0.197556 0.14111,0.296333 0.13406,0.09878 0.30339,0.09878 0.19756,0 0.35984,-0.0635 0.16227,-0.07055 0.19755,-0.09878 z"
         style="font-style:normal;font-variant:normal;font-weight:normal;font-stretch:normal;font-size:7.05556px;font-family:Raleway;-inkscape-font-specification:'Raleway, @wght=400';font-variant-ligatures:normal;font-variant-caps:normal;font-variant-numeric:normal;font-variant-east-asian:normal;font-variation-settings:'wght' 400;fill:#3f3027;fill-opacity:1;stroke-width:0.264583"
         id="path1008" />
      <path
         d="m 185.2004,29.083187 q -0.47977,0.01411 -0.84666,0.268111 -0.35984,0.254 -0.508,0.698501 V 32.3358 h -0.47978 v -3.675947 h 0.45155 v 0.881945 q 0.1905,-0.388055 0.50095,-0.627944 0.3175,-0.23989 0.67028,-0.268112 0.0705,-0.0071 0.11994,-0.0071 0.0565,0 0.0917,0.0071 z"
         style="font-style:normal;font-variant:normal;font-weight:normal;font-stretch:normal;font-size:7.05556px;font-family:Raleway;-inkscape-font-specification:'Raleway, @wght=400';font-variant-ligatures:normal;font-variant-caps:normal;font-variant-numeric:normal;font-variant-east-asian:normal;font-variation-settings:'wght' 400;fill:#3f3027;fill-opacity:1;stroke-width:0.264583"
         id="path1010" />
      <path
         d="m 185.84643,32.3358 v -3.675947 h 0.47978 V 32.3358 Z m 0,-4.445003 v -0.705556 h 0.47978 v 0.705556 z"
         style="font-style:normal;font-variant:normal;font-weight:normal;font-stretch:normal;font-size:7.05556px;font-family:Raleway;-inkscape-font-specification:'Raleway, @wght=400';font-variant-ligatures:normal;font-variant-caps:normal;font-variant-numeric:normal;font-variant-east-asian:normal;font-variation-settings:'wght' 400;fill:#3f3027;fill-opacity:1;stroke-width:0.264583"
         id="path1012" />
      <path
         d="m 188.98439,32.406356 q -0.40217,0 -0.74084,-0.148167 -0.33161,-0.155222 -0.58561,-0.423334 -0.24694,-0.268111 -0.38805,-0.613833 -0.13406,-0.345723 -0.13406,-0.733779 0,-0.522111 0.23283,-0.9525 0.23284,-0.430389 0.64912,-0.68439 0.41627,-0.254 0.95955,-0.254 0.51506,0 0.91017,0.239889 0.39511,0.232834 0.58561,0.635001 l -0.46567,0.148167 q -0.15522,-0.282223 -0.43744,-0.437445 -0.27517,-0.162278 -0.61383,-0.162278 -0.36689,0 -0.67028,0.1905 -0.30339,0.1905 -0.48684,0.522111 -0.17639,0.331612 -0.17639,0.754945 0,0.416278 0.18345,0.754945 0.18344,0.338667 0.48683,0.543278 0.30339,0.197556 0.67028,0.197556 0.23989,0 0.45861,-0.08467 0.22578,-0.08467 0.38806,-0.225777 0.16933,-0.148167 0.22578,-0.317501 l 0.47272,0.141112 q -0.0988,0.261055 -0.33161,0.472722 -0.22578,0.204611 -0.53622,0.324556 -0.30339,0.112889 -0.65617,0.112889 z"
         style="font-style:normal;font-variant:normal;font-weight:normal;font-stretch:normal;font-size:7.05556px;font-family:Raleway;-inkscape-font-specification:'Raleway, @wght=400';font-variant-ligatures:normal;font-variant-caps:normal;font-variant-numeric:normal;font-variant-east-asian:normal;font-variation-settings:'wght' 400;fill:#3f3027;fill-opacity:1;stroke-width:0.264583"
         id="path1014" />
      <path
         d="m 192.46862,32.406356 q -0.45155,0 -0.83961,-0.148167 -0.38805,-0.148167 -0.67028,-0.451556 l 0.19756,-0.338667 q 0.31044,0.289278 0.62089,0.423334 0.3175,0.127 0.67028,0.127 0.43039,0 0.6985,-0.169333 0.26811,-0.176389 0.26811,-0.500945 0,-0.218723 -0.13406,-0.331612 -0.127,-0.119944 -0.37394,-0.1905 -0.23989,-0.07761 -0.57856,-0.162278 -0.381,-0.105833 -0.64205,-0.218722 -0.254,-0.119944 -0.38806,-0.296333 -0.127,-0.183445 -0.127,-0.472723 0,-0.359834 0.17639,-0.592667 0.18344,-0.239889 0.49389,-0.359834 0.3175,-0.127 0.70555,-0.127 0.42334,0 0.74789,0.134056 0.32456,0.134056 0.52917,0.373945 l -0.23283,0.324555 q -0.19756,-0.225778 -0.47272,-0.331611 -0.26812,-0.112889 -0.59973,-0.112889 -0.22578,0 -0.43039,0.0635 -0.20461,0.05645 -0.33866,0.197556 -0.127,0.134055 -0.127,0.373945 0,0.197555 0.0988,0.310444 0.0988,0.105834 0.29634,0.183445 0.19755,0.07055 0.48683,0.155222 0.41628,0.112889 0.72672,0.232834 0.31045,0.112889 0.47978,0.296333 0.16934,0.183445 0.16934,0.515056 0,0.515056 -0.38806,0.804334 -0.38806,0.289278 -1.02306,0.289278 z"
         style="font-style:normal;font-variant:normal;font-weight:normal;font-stretch:normal;font-size:7.05556px;font-family:Raleway;-inkscape-font-specification:'Raleway, @wght=400';font-variant-ligatures:normal;font-variant-caps:normal;font-variant-numeric:normal;font-variant-east-asian:normal;font-variation-settings:'wght' 400;fill:#3f3027;fill-opacity:1;stroke-width:0.264583"
         id="path1016" />
    </g>
  </g>
</svg>
