<?xml version="1.0" encoding="UTF-8" standalone="no"?>
<svg
   xmlns:dc="http://purl.org/dc/elements/1.1/"
   xmlns:cc="http://creativecommons.org/ns#"
   xmlns:rdf="http://www.w3.org/1999/02/22-rdf-syntax-ns#"
   xmlns:svg="http://www.w3.org/2000/svg"
   xmlns="http://www.w3.org/2000/svg"
   xmlns:xlink="http://www.w3.org/1999/xlink"
   xmlns:sodipodi="http://sodipodi.sourceforge.net/DTD/sodipodi-0.dtd"
   xmlns:inkscape="http://www.inkscape.org/namespaces/inkscape"
   width="120mm"
   height="11mm"
   viewBox="0 0 182.06418 17.308294"
   version="1.1"
   id="svg8"
   inkscape:version="1.0.1 (c497b03c, 2020-09-10)"
   sodipodi:docname="colorScale.svg">
  <defs
     id="defs2">
    <rect
       x="60.708076"
       y="27.919224"
       width="3.4087422"
       height="11.200153"
       id="rect903" />
    <rect
       x="82.94606"
       y="21.751022"
       width="4.0580268"
       height="10.71319"
       id="rect897" />
    <linearGradient
       inkscape:collect="always"
       id="linearGradient46">
      <stop
         style="stop-color:#b31140;stop-opacity:1"
         offset="0"
         id="stop42" />
      <stop
         style="stop-color:#b50e59;stop-opacity:0.88235295"
         offset="0.11222192"
         id="stop64" />
      <stop
         style="stop-color:#843294;stop-opacity:1"
         offset="0.21909119"
         id="stop62" />
      <stop
         style="stop-color:#7940a6;stop-opacity:1"
         offset="0.33165738"
         id="stop60" />
      <stop
         style="stop-color:#6a49ae;stop-opacity:1"
         offset="0.4415558"
         id="stop58" />
      <stop
         style="stop-color:#574aae;stop-opacity:1"
         offset="0.54805475"
         id="stop56" />
      <stop
         style="stop-color:#4551b5;stop-opacity:1"
         offset="0.6696651"
         id="stop54" />
      <stop
         style="stop-color:#0874b0;stop-opacity:1"
         offset="0.79061472"
         id="stop52" />
      <stop
         style="stop-color:#04898a;stop-opacity:1"
         offset="0.89447546"
         id="stop50" />
      <stop
         style="stop-color:#459451;stop-opacity:1"
         offset="1"
         id="stop44" />
    </linearGradient>
    <linearGradient
       inkscape:collect="always"
       xlink:href="#linearGradient46"
       id="linearGradient48"
       x1="180.81705"
       y1="52.797516"
       x2="19.483698"
       y2="52.98732"
       gradientUnits="userSpaceOnUse"
       gradientTransform="matrix(1,0,0,0.48939903,-0.64928425,25.784957)" />
  </defs>
  <sodipodi:namedview
     id="base"
     pagecolor="#ffffff"
     bordercolor="#666666"
     borderopacity="1.0"
     inkscape:pageopacity="0.0"
     inkscape:pageshadow="2"
     inkscape:zoom="1.63"
     inkscape:cx="348.23378"
     inkscape:cy="30.829129"
     inkscape:document-units="mm"
     inkscape:current-layer="layer1"
     inkscape:document-rotation="0"
     showgrid="false"
     inkscape:window-width="1792"
     inkscape:window-height="683"
     inkscape:window-x="6"
     inkscape:window-y="23"
     inkscape:window-maximized="0" />
  <metadata
     id="metadata5">
    <rdf:RDF>
      <cc:Work
         rdf:about="">
        <dc:format>image/svg+xml</dc:format>
        <dc:type
           rdf:resource="http://purl.org/dc/dcmitype/StillImage" />
        <dc:title />
      </cc:Work>
    </rdf:RDF>
  </metadata>
  <g
     inkscape:label="Layer 1"
     inkscape:groupmode="layer"
     id="layer1"
     transform="translate(-7.4245661,-44.75841)">
    <g
       aria-label="good/neutral"
       id="text893"
       style="font-style:normal;font-variant:normal;font-weight:normal;font-stretch:normal;font-size:4.58611px;line-height:1.25;font-family:Raleway;-inkscape-font-specification:Raleway;font-variant-ligatures:normal;font-variant-caps:normal;font-variant-numeric:normal;font-variant-east-asian:normal;fill:#000000;fill-opacity:1;stroke:none;stroke-width:0.264583">
      <path
         d="m 14.775104,58.331446 q -0.243064,0 -0.449439,-0.100895 -0.206375,-0.100894 -0.357716,-0.27058 -0.146756,-0.174272 -0.229306,-0.394406 -0.08255,-0.220133 -0.08255,-0.454024 0,-0.252236 0.07796,-0.47237 0.08255,-0.224719 0.229305,-0.398991 0.151342,-0.174273 0.353131,-0.270581 0.201789,-0.100894 0.449439,-0.100894 0.307269,0 0.531988,0.155927 0.229306,0.155928 0.385234,0.385234 V 55.90998 h 0.279752 v 2.398535 q 0,0.3302 -0.160513,0.55492 -0.155928,0.229305 -0.426509,0.343958 -0.265994,0.114653 -0.582436,0.114653 -0.408163,0 -0.6604,-0.146756 -0.252236,-0.146755 -0.412749,-0.394405 l 0.192616,-0.151342 q 0.14217,0.224719 0.376061,0.334786 0.238478,0.110067 0.504472,0.110067 0.233892,0 0.426509,-0.08714 0.197202,-0.08255 0.311855,-0.252236 0.119239,-0.169687 0.119239,-0.426509 v -0.472369 q -0.137583,0.224719 -0.376061,0.362303 -0.238478,0.132997 -0.499886,0.132997 z m 0.08714,-0.261408 q 0.142169,0 0.27058,-0.05045 0.132998,-0.05045 0.243064,-0.132997 0.110067,-0.08714 0.183445,-0.192616 0.07338,-0.105481 0.09172,-0.215548 v -0.738363 q -0.06879,-0.174273 -0.197203,-0.30727 -0.128411,-0.137583 -0.293511,-0.210961 -0.160514,-0.07796 -0.334786,-0.07796 -0.201789,0 -0.362303,0.08714 -0.155927,0.08255 -0.265994,0.22472 -0.105481,0.137583 -0.1651,0.311855 -0.05962,0.174273 -0.05962,0.348545 0,0.192616 0.06879,0.366889 0.06879,0.169686 0.188031,0.307269 0.123825,0.132997 0.284339,0.206375 0.1651,0.07338 0.348544,0.07338 z"
         style="font-style:normal;font-variant:normal;font-weight:normal;font-stretch:normal;font-size:4.58611px;font-family:Raleway;-inkscape-font-specification:Raleway;font-variant-ligatures:normal;font-variant-caps:normal;font-variant-numeric:normal;font-variant-east-asian:normal;fill:#f5f5f5;fill-opacity:1;stroke-width:0.264583"
         id="path861" />
      <path
         d="m 17.665213,58.345204 q -0.256822,0 -0.476955,-0.09631 -0.215547,-0.100895 -0.376061,-0.270581 -0.155928,-0.174272 -0.243064,-0.394405 -0.08714,-0.224719 -0.08714,-0.472369 0,-0.256823 0.08714,-0.476956 0.08714,-0.224719 0.24765,-0.394405 0.160514,-0.174273 0.376061,-0.270581 0.220133,-0.100894 0.476955,-0.100894 0.256822,0 0.47237,0.100894 0.215547,0.09631 0.376061,0.270581 0.160514,0.169686 0.24765,0.394405 0.08714,0.220133 0.08714,0.476956 0,0.24765 -0.08714,0.472369 -0.08714,0.220133 -0.24765,0.394405 -0.155928,0.169686 -0.376061,0.270581 -0.215548,0.09631 -0.476956,0.09631 z m -0.866775,-1.229077 q 0,0.265994 0.114653,0.486127 0.119239,0.215548 0.316442,0.343959 0.197202,0.123825 0.43568,0.123825 0.238478,0 0.435681,-0.128411 0.197202,-0.128412 0.316441,-0.348545 0.119239,-0.224719 0.119239,-0.486128 0,-0.265994 -0.119239,-0.486127 -0.119239,-0.220133 -0.316441,-0.348545 -0.197203,-0.128411 -0.435681,-0.128411 -0.238478,0 -0.43568,0.132998 -0.192617,0.132997 -0.311856,0.35313 -0.119239,0.215547 -0.119239,0.486128 z"
         style="font-style:normal;font-variant:normal;font-weight:normal;font-stretch:normal;font-size:4.58611px;font-family:Raleway;-inkscape-font-specification:Raleway;font-variant-ligatures:normal;font-variant-caps:normal;font-variant-numeric:normal;font-variant-east-asian:normal;fill:#f5f5f5;fill-opacity:1;stroke-width:0.264583"
         id="path863" />
      <path
         d="m 20.397173,58.345204 q -0.256822,0 -0.476955,-0.09631 -0.215547,-0.100895 -0.376061,-0.270581 -0.155928,-0.174272 -0.243064,-0.394405 -0.08714,-0.224719 -0.08714,-0.472369 0,-0.256823 0.08714,-0.476956 0.08714,-0.224719 0.24765,-0.394405 0.160514,-0.174273 0.376061,-0.270581 0.220133,-0.100894 0.476955,-0.100894 0.256823,0 0.47237,0.100894 0.215547,0.09631 0.376061,0.270581 0.160514,0.169686 0.24765,0.394405 0.08714,0.220133 0.08714,0.476956 0,0.24765 -0.08714,0.472369 -0.08714,0.220133 -0.24765,0.394405 -0.155928,0.169686 -0.376061,0.270581 -0.215547,0.09631 -0.476956,0.09631 z m -0.866775,-1.229077 q 0,0.265994 0.114653,0.486127 0.119239,0.215548 0.316442,0.343959 0.197203,0.123825 0.43568,0.123825 0.238478,0 0.435681,-0.128411 0.197202,-0.128412 0.316441,-0.348545 0.119239,-0.224719 0.119239,-0.486128 0,-0.265994 -0.119239,-0.486127 -0.119239,-0.220133 -0.316441,-0.348545 -0.197203,-0.128411 -0.435681,-0.128411 -0.238477,0 -0.43568,0.132998 -0.192617,0.132997 -0.311856,0.35313 -0.119239,0.215547 -0.119239,0.486128 z"
         style="font-style:normal;font-variant:normal;font-weight:normal;font-stretch:normal;font-size:4.58611px;font-family:Raleway;-inkscape-font-specification:Raleway;font-variant-ligatures:normal;font-variant-caps:normal;font-variant-numeric:normal;font-variant-east-asian:normal;fill:#f5f5f5;fill-opacity:1;stroke-width:0.264583"
         id="path865" />
      <path
         d="m 21.950503,57.111541 q 0,-0.339373 0.137583,-0.619125 0.142169,-0.284339 0.389819,-0.454025 0.24765,-0.169686 0.564092,-0.169686 0.298097,0 0.531989,0.160514 0.238477,0.155927 0.371475,0.380647 v -1.458383 h 0.311855 v 2.971799 q 0,0.06421 0.02752,0.09631 0.02752,0.02752 0.08255,0.0321 v 0.24765 q -0.09172,0.01376 -0.14217,0.0092 -0.09631,-0.0046 -0.169686,-0.07796 -0.07338,-0.07338 -0.07338,-0.160513 v -0.233892 q -0.14217,0.233892 -0.385234,0.371475 -0.243064,0.137583 -0.504472,0.137583 -0.24765,0 -0.458611,-0.100894 -0.206375,-0.100895 -0.362303,-0.275167 -0.151341,-0.174272 -0.238477,-0.394405 -0.08255,-0.22472 -0.08255,-0.463197 z m 1.994958,0.366888 v -0.738363 q -0.05962,-0.1651 -0.192617,-0.298097 -0.132997,-0.137584 -0.302683,-0.215548 -0.1651,-0.08255 -0.3302,-0.08255 -0.192617,0 -0.348545,0.08255 -0.155927,0.07796 -0.27058,0.215548 -0.110067,0.137583 -0.169686,0.311855 -0.05962,0.174272 -0.05962,0.357717 0,0.192616 0.06421,0.366888 0.06879,0.174273 0.192617,0.311856 0.123825,0.132997 0.284338,0.206375 0.160514,0.07338 0.348545,0.07338 0.119239,0 0.24765,-0.04586 0.128411,-0.04586 0.243064,-0.123825 0.119238,-0.08255 0.197202,-0.192617 0.07796,-0.110067 0.09631,-0.229306 z"
         style="font-style:normal;font-variant:normal;font-weight:normal;font-stretch:normal;font-size:4.58611px;font-family:Raleway;-inkscape-font-specification:Raleway;font-variant-ligatures:normal;font-variant-caps:normal;font-variant-numeric:normal;font-variant-east-asian:normal;fill:#f5f5f5;fill-opacity:1;stroke-width:0.264583"
         id="path867" />
      <path
         d="m 27.257063,55.043205 -2.164644,3.256138 h -0.353131 l 2.164644,-3.256138 z"
         style="font-style:normal;font-variant:normal;font-weight:normal;font-stretch:normal;font-size:4.58611px;font-family:Raleway;-inkscape-font-specification:Raleway;font-variant-ligatures:normal;font-variant-caps:normal;font-variant-numeric:normal;font-variant-east-asian:normal;fill:#f5f5f5;fill-opacity:1;stroke-width:0.264583"
         id="path869" />
      <path
         d="m 29.62844,58.299343 h -0.311856 v -1.334558 q 0,-0.421922 -0.123825,-0.614539 -0.123825,-0.197202 -0.389819,-0.197202 -0.183444,0 -0.362303,0.09172 -0.178858,0.08714 -0.316441,0.243064 -0.132997,0.151341 -0.192617,0.348544 v 1.462969 H 27.619724 V 55.90998 h 0.284339 v 0.541161 q 0.09631,-0.174272 0.252236,-0.302684 0.155927,-0.132997 0.35313,-0.206374 0.197203,-0.07338 0.408164,-0.07338 0.197203,0 0.334786,0.07338 0.137583,0.07338 0.220133,0.210961 0.08255,0.132997 0.119239,0.325613 0.03669,0.188031 0.03669,0.421923 z"
         style="font-style:normal;font-variant:normal;font-weight:normal;font-stretch:normal;font-size:4.58611px;font-family:Raleway;-inkscape-font-specification:Raleway;font-variant-ligatures:normal;font-variant-caps:normal;font-variant-numeric:normal;font-variant-east-asian:normal;fill:#f5f5f5;fill-opacity:1;stroke-width:0.264583"
         id="path871" />
      <path
         d="m 31.329814,58.345204 q -0.256822,0 -0.476955,-0.09631 -0.220133,-0.100895 -0.380647,-0.270581 -0.160514,-0.174272 -0.252236,-0.398991 -0.08714,-0.22472 -0.08714,-0.481542 0,-0.334786 0.151341,-0.614538 0.155928,-0.279753 0.426509,-0.444853 0.27058,-0.169686 0.614538,-0.169686 0.353131,0 0.614539,0.169686 0.265994,0.169686 0.417336,0.449439 0.151342,0.275166 0.151342,0.605366 0,0.03669 0,0.07338 0,0.0321 -0.0046,0.05045 h -2.045405 q 0.02293,0.256822 0.142169,0.458611 0.123825,0.197203 0.316442,0.316442 0.197202,0.114652 0.426508,0.114652 0.233891,0 0.440266,-0.119238 0.210961,-0.119239 0.293511,-0.311856 l 0.270581,0.07338 q -0.07338,0.169686 -0.22472,0.307269 -0.151341,0.137584 -0.357716,0.215547 -0.201789,0.07338 -0.435681,0.07338 z m -0.880533,-1.352902 h 1.765653 q -0.01834,-0.261409 -0.14217,-0.458611 -0.119239,-0.197203 -0.316441,-0.30727 -0.192617,-0.114652 -0.426509,-0.114652 -0.233891,0 -0.426508,0.114652 -0.192616,0.110067 -0.316441,0.311856 -0.119239,0.197203 -0.137584,0.454025 z"
         style="font-style:normal;font-variant:normal;font-weight:normal;font-stretch:normal;font-size:4.58611px;font-family:Raleway;-inkscape-font-specification:Raleway;font-variant-ligatures:normal;font-variant-caps:normal;font-variant-numeric:normal;font-variant-east-asian:normal;fill:#f5f5f5;fill-opacity:1;stroke-width:0.264583"
         id="path873" />
      <path
         d="M 32.97114,57.313329 V 55.90998 h 0.311855 v 1.348316 q 0,0.408164 0.137584,0.609953 0.142169,0.201789 0.417336,0.201789 0.183444,0 0.35313,-0.07796 0.174272,-0.08255 0.30727,-0.229306 0.132997,-0.151341 0.201788,-0.348544 V 55.90998 h 0.311856 v 2.013302 q 0,0.06421 0.02752,0.09631 0.02752,0.02752 0.08255,0.0321 v 0.24765 q -0.05503,0.0046 -0.08714,0.0046 -0.0321,0.0046 -0.05962,0.0046 -0.09172,-0.0092 -0.160514,-0.07338 -0.06421,-0.06421 -0.06879,-0.155928 l -0.0092,-0.321028 q -0.155927,0.275167 -0.426508,0.431094 -0.265994,0.155928 -0.57785,0.155928 -0.376061,0 -0.568678,-0.261408 -0.192616,-0.261408 -0.192616,-0.770467 z"
         style="font-style:normal;font-variant:normal;font-weight:normal;font-stretch:normal;font-size:4.58611px;font-family:Raleway;-inkscape-font-specification:Raleway;font-variant-ligatures:normal;font-variant-caps:normal;font-variant-numeric:normal;font-variant-east-asian:normal;fill:#f5f5f5;fill-opacity:1;stroke-width:0.264583"
         id="path875" />
      <path
         d="m 36.863601,58.18469 q -0.03669,0.01376 -0.114652,0.05045 -0.07796,0.03669 -0.188031,0.06421 -0.110067,0.02752 -0.238478,0.02752 -0.132997,0 -0.252236,-0.05045 -0.114652,-0.05045 -0.183444,-0.151342 -0.06879,-0.105481 -0.06879,-0.256822 V 56.15763 h -0.3302 v -0.24765 h 0.3302 v -0.807156 h 0.311856 v 0.807156 h 0.550333 v 0.24765 h -0.550333 v 1.623483 q 0.0092,0.128411 0.09172,0.192616 0.08714,0.06421 0.197203,0.06421 0.128411,0 0.233891,-0.04127 0.105481,-0.04586 0.128411,-0.06421 z"
         style="font-style:normal;font-variant:normal;font-weight:normal;font-stretch:normal;font-size:4.58611px;font-family:Raleway;-inkscape-font-specification:Raleway;font-variant-ligatures:normal;font-variant-caps:normal;font-variant-numeric:normal;font-variant-east-asian:normal;fill:#f5f5f5;fill-opacity:1;stroke-width:0.264583"
         id="path877" />
      <path
         d="m 38.45011,56.185146 q -0.311856,0.0092 -0.550333,0.174273 -0.233892,0.165099 -0.3302,0.454024 v 1.4859 H 37.257721 V 55.90998 h 0.293511 v 0.573264 q 0.123825,-0.252237 0.325614,-0.408164 0.206375,-0.155928 0.435681,-0.174272 0.04586,-0.0046 0.07796,-0.0046 0.03669,0 0.05962,0.0046 z"
         style="font-style:normal;font-variant:normal;font-weight:normal;font-stretch:normal;font-size:4.58611px;font-family:Raleway;-inkscape-font-specification:Raleway;font-variant-ligatures:normal;font-variant-caps:normal;font-variant-numeric:normal;font-variant-east-asian:normal;fill:#f5f5f5;fill-opacity:1;stroke-width:0.264583"
         id="path879" />
      <path
         d="m 38.64158,57.611427 q 0,-0.22472 0.128411,-0.385234 0.128411,-0.1651 0.35313,-0.252236 0.229306,-0.09172 0.527403,-0.09172 0.174272,0 0.362303,0.02752 0.18803,0.02752 0.334786,0.08255 v -0.201789 q 0,-0.302683 -0.178859,-0.481542 -0.178858,-0.178858 -0.495299,-0.178858 -0.192617,0 -0.380648,0.07338 -0.183444,0.06879 -0.385233,0.206375 l -0.119239,-0.220134 q 0.233892,-0.160513 0.458611,-0.238477 0.22472,-0.08255 0.458611,-0.08255 0.440267,0 0.697089,0.252236 0.256822,0.252236 0.256822,0.697089 v 1.105252 q 0,0.06421 0.02752,0.09631 0.02752,0.02752 0.08714,0.0321 v 0.24765 q -0.05045,0.0046 -0.08714,0.0092 -0.03669,0.0046 -0.05503,0 -0.114653,-0.0046 -0.174273,-0.07338 -0.05962,-0.06879 -0.06421,-0.146756 l -0.0046,-0.174272 q -0.160514,0.206375 -0.417336,0.321028 -0.256822,0.110066 -0.522817,0.110066 -0.229305,0 -0.417336,-0.09631 -0.183444,-0.100895 -0.288925,-0.265994 -0.100894,-0.169687 -0.100894,-0.371475 z m 1.600552,0.183444 q 0.05045,-0.06421 0.07796,-0.123825 0.02752,-0.05962 0.02752,-0.105481 v -0.348544 q -0.155928,-0.05962 -0.325614,-0.09172 -0.1651,-0.0321 -0.334786,-0.0321 -0.334786,0 -0.541161,0.132997 -0.206375,0.132998 -0.206375,0.362303 0,0.132997 0.06879,0.252236 0.06879,0.114653 0.201788,0.192617 0.132998,0.07338 0.311856,0.07338 0.224719,0 0.417336,-0.08714 0.197203,-0.08714 0.302683,-0.224719 z"
         style="font-style:normal;font-variant:normal;font-weight:normal;font-stretch:normal;font-size:4.58611px;font-family:Raleway;-inkscape-font-specification:Raleway;font-variant-ligatures:normal;font-variant-caps:normal;font-variant-numeric:normal;font-variant-east-asian:normal;fill:#f5f5f5;fill-opacity:1;stroke-width:0.264583"
         id="path881" />
      <path
         d="m 41.347026,54.951483 h 0.311855 v 2.806699 q 0,0.178858 0.06421,0.233892 0.06421,0.05503 0.155928,0.05503 0.08255,0 0.1651,-0.01834 0.08255,-0.01834 0.142169,-0.03669 l 0.05503,0.252236 q -0.08714,0.03669 -0.215547,0.05962 -0.123825,0.02293 -0.215547,0.02293 -0.210961,0 -0.339372,-0.123825 -0.123825,-0.123825 -0.123825,-0.339372 z"
         style="font-style:normal;font-variant:normal;font-weight:normal;font-stretch:normal;font-size:4.58611px;font-family:Raleway;-inkscape-font-specification:Raleway;font-variant-ligatures:normal;font-variant-caps:normal;font-variant-numeric:normal;font-variant-east-asian:normal;fill:#f5f5f5;fill-opacity:1;stroke-width:0.264583"
         id="path883" />
    </g>
    <g
       aria-label="combat/defensive"
       id="text893-0"
       style="font-style:normal;font-variant:normal;font-weight:normal;font-stretch:normal;font-size:4.58611px;line-height:1.25;font-family:Raleway;-inkscape-font-specification:Raleway;font-variant-ligatures:normal;font-variant-caps:normal;font-variant-numeric:normal;font-variant-east-asian:normal;fill:#000000;fill-opacity:1;stroke:none;stroke-width:0.264583">
      <path
         d="m 80.679339,58.345204 q -0.261408,0 -0.481542,-0.09631 -0.215547,-0.100895 -0.380647,-0.275167 -0.160514,-0.174272 -0.252236,-0.398991 -0.08714,-0.22472 -0.08714,-0.476956 0,-0.339372 0.151342,-0.619125 0.151341,-0.279752 0.421922,-0.444852 0.27058,-0.1651 0.623711,-0.1651 0.334786,0 0.591608,0.155927 0.256822,0.151342 0.380647,0.41275 l -0.302683,0.09631 q -0.100895,-0.183445 -0.284339,-0.284339 -0.178858,-0.105481 -0.398992,-0.105481 -0.238477,0 -0.43568,0.123825 -0.197203,0.123825 -0.316442,0.339372 -0.114652,0.215548 -0.114652,0.490714 0,0.270581 0.119238,0.490714 0.119239,0.220133 0.316442,0.353131 0.197203,0.128411 0.43568,0.128411 0.155928,0 0.298098,-0.05503 0.146755,-0.05503 0.252236,-0.146755 0.110066,-0.09631 0.146755,-0.206375 l 0.30727,0.09172 q -0.06421,0.169686 -0.215548,0.307269 -0.146755,0.132998 -0.348544,0.210961 -0.197203,0.07338 -0.426508,0.07338 z"
         style="font-style:normal;font-variant:normal;font-weight:normal;font-stretch:normal;font-size:4.58611px;font-family:Raleway;-inkscape-font-specification:Raleway;font-variant-ligatures:normal;font-variant-caps:normal;font-variant-numeric:normal;font-variant-east-asian:normal;fill:#f5f5f5;fill-opacity:1;stroke-width:0.264583"
         id="path886" />
      <path
         d="m 83.151109,58.345204 q -0.256822,0 -0.476956,-0.09631 -0.215547,-0.100895 -0.376061,-0.270581 -0.155927,-0.174272 -0.243063,-0.394405 -0.08714,-0.224719 -0.08714,-0.472369 0,-0.256823 0.08714,-0.476956 0.08714,-0.224719 0.247649,-0.394405 0.160514,-0.174273 0.376061,-0.270581 0.220134,-0.100894 0.476956,-0.100894 0.256822,0 0.472369,0.100894 0.215547,0.09631 0.376061,0.270581 0.160514,0.169686 0.24765,0.394405 0.08714,0.220133 0.08714,0.476956 0,0.24765 -0.08714,0.472369 -0.08714,0.220133 -0.24765,0.394405 -0.155927,0.169686 -0.376061,0.270581 -0.215547,0.09631 -0.476955,0.09631 z m -0.866775,-1.229077 q 0,0.265994 0.114653,0.486127 0.119239,0.215548 0.316441,0.343959 0.197203,0.123825 0.435681,0.123825 0.238478,0 0.43568,-0.128411 0.197203,-0.128412 0.316442,-0.348545 0.119239,-0.224719 0.119239,-0.486128 0,-0.265994 -0.119239,-0.486127 -0.119239,-0.220133 -0.316442,-0.348545 -0.197202,-0.128411 -0.43568,-0.128411 -0.238478,0 -0.435681,0.132998 -0.192616,0.132997 -0.311855,0.35313 -0.119239,0.215547 -0.119239,0.486128 z"
         style="font-style:normal;font-variant:normal;font-weight:normal;font-stretch:normal;font-size:4.58611px;font-family:Raleway;-inkscape-font-specification:Raleway;font-variant-ligatures:normal;font-variant-caps:normal;font-variant-numeric:normal;font-variant-east-asian:normal;fill:#f5f5f5;fill-opacity:1;stroke-width:0.264583"
         id="path888" />
      <path
         d="m 88.419188,58.299343 h -0.311856 v -1.334558 q 0,-0.417336 -0.132997,-0.614539 -0.132997,-0.197202 -0.394405,-0.197202 -0.270581,0 -0.486128,0.192616 -0.210961,0.192617 -0.298097,0.4953 v 1.458383 h -0.311856 v -1.334558 q 0,-0.421922 -0.128411,-0.614539 -0.128411,-0.197202 -0.394405,-0.197202 -0.265995,0 -0.481542,0.18803 -0.215547,0.188031 -0.302683,0.4953 v 1.462969 H 84.864952 V 55.90998 h 0.284339 v 0.541161 q 0.151342,-0.279753 0.385234,-0.431095 0.238477,-0.151341 0.527402,-0.151341 0.298097,0 0.481542,0.169686 0.183444,0.169686 0.224719,0.444853 0.1651,-0.302684 0.394406,-0.458612 0.233891,-0.155927 0.527402,-0.155927 0.201789,0 0.339372,0.07338 0.14217,0.07338 0.22472,0.210961 0.08714,0.132997 0.123825,0.325613 0.04127,0.188031 0.04127,0.421923 z"
         style="font-style:normal;font-variant:normal;font-weight:normal;font-stretch:normal;font-size:4.58611px;font-family:Raleway;-inkscape-font-specification:Raleway;font-variant-ligatures:normal;font-variant-caps:normal;font-variant-numeric:normal;font-variant-east-asian:normal;fill:#f5f5f5;fill-opacity:1;stroke-width:0.264583"
         id="path890" />
      <path
         d="m 90.253273,58.345204 q -0.279753,0 -0.51823,-0.142169 -0.238478,-0.146756 -0.371475,-0.366889 v 0.463197 h -0.279753 v -3.34786 h 0.311855 v 1.458383 q 0.160514,-0.243064 0.385234,-0.38982 0.224719,-0.151341 0.522816,-0.151341 0.252236,0 0.449439,0.10548 0.201789,0.105481 0.343958,0.284339 0.14217,0.174272 0.215547,0.398992 0.07338,0.220133 0.07338,0.454025 0,0.252236 -0.08714,0.472369 -0.08255,0.220133 -0.238478,0.394405 -0.155927,0.169686 -0.362302,0.270581 -0.201789,0.09631 -0.444853,0.09631 z m -0.07338,-0.275166 q 0.192617,0 0.357717,-0.07796 0.1651,-0.07796 0.284339,-0.215547 0.119239,-0.137584 0.183444,-0.30727 0.06421,-0.174272 0.06421,-0.357716 0,-0.252236 -0.110067,-0.47237 -0.105481,-0.224719 -0.298097,-0.357716 -0.188031,-0.137584 -0.444853,-0.137584 -0.183444,0 -0.343958,0.08255 -0.155928,0.08255 -0.279753,0.220134 -0.119239,0.132997 -0.197203,0.293511 v 0.74295 q 0.01835,0.123824 0.09631,0.233891 0.07796,0.105481 0.192616,0.183445 0.119239,0.07796 0.24765,0.123825 0.128411,0.04586 0.24765,0.04586 z"
         style="font-style:normal;font-variant:normal;font-weight:normal;font-stretch:normal;font-size:4.58611px;font-family:Raleway;-inkscape-font-specification:Raleway;font-variant-ligatures:normal;font-variant-caps:normal;font-variant-numeric:normal;font-variant-east-asian:normal;fill:#f5f5f5;fill-opacity:1;stroke-width:0.264583"
         id="path892" />
      <path
         d="m 91.721688,57.611427 q 0,-0.22472 0.128412,-0.385234 0.128411,-0.1651 0.35313,-0.252236 0.229306,-0.09172 0.527403,-0.09172 0.174272,0 0.362302,0.02752 0.188031,0.02752 0.334786,0.08255 v -0.201789 q 0,-0.302683 -0.178858,-0.481542 -0.178858,-0.178858 -0.4953,-0.178858 -0.192616,0 -0.380647,0.07338 -0.183444,0.06879 -0.385233,0.206375 l -0.119239,-0.220134 q 0.233892,-0.160513 0.458611,-0.238477 0.224719,-0.08255 0.458611,-0.08255 0.440267,0 0.697089,0.252236 0.256822,0.252236 0.256822,0.697089 v 1.105252 q 0,0.06421 0.02752,0.09631 0.02752,0.02752 0.08714,0.0321 v 0.24765 q -0.05045,0.0046 -0.08714,0.0092 -0.03669,0.0046 -0.05503,0 -0.114652,-0.0046 -0.174272,-0.07338 -0.05962,-0.06879 -0.06421,-0.146756 l -0.0046,-0.174272 q -0.160513,0.206375 -0.417336,0.321028 -0.256822,0.110066 -0.522816,0.110066 -0.229306,0 -0.417336,-0.09631 -0.183445,-0.100895 -0.288925,-0.265994 -0.100895,-0.169687 -0.100895,-0.371475 z m 1.600553,0.183444 q 0.05045,-0.06421 0.07796,-0.123825 0.02752,-0.05962 0.02752,-0.105481 v -0.348544 q -0.155927,-0.05962 -0.325613,-0.09172 -0.1651,-0.0321 -0.334786,-0.0321 -0.334786,0 -0.541161,0.132997 -0.206375,0.132998 -0.206375,0.362303 0,0.132997 0.06879,0.252236 0.06879,0.114653 0.201789,0.192617 0.132997,0.07338 0.311856,0.07338 0.224719,0 0.417336,-0.08714 0.197202,-0.08714 0.302683,-0.224719 z"
         style="font-style:normal;font-variant:normal;font-weight:normal;font-stretch:normal;font-size:4.58611px;font-family:Raleway;-inkscape-font-specification:Raleway;font-variant-ligatures:normal;font-variant-caps:normal;font-variant-numeric:normal;font-variant-east-asian:normal;fill:#f5f5f5;fill-opacity:1;stroke-width:0.264583"
         id="path894" />
      <path
         d="m 95.54199,58.18469 q -0.03669,0.01376 -0.114653,0.05045 -0.07796,0.03669 -0.18803,0.06421 -0.110067,0.02752 -0.238478,0.02752 -0.132997,0 -0.252236,-0.05045 -0.114653,-0.05045 -0.183445,-0.151342 -0.06879,-0.105481 -0.06879,-0.256822 V 56.15763 h -0.3302 v -0.24765 h 0.3302 v -0.807156 h 0.311855 v 0.807156 h 0.550334 v 0.24765 h -0.550334 v 1.623483 q 0.0092,0.128411 0.09172,0.192616 0.08714,0.06421 0.197202,0.06421 0.128411,0 0.233892,-0.04127 0.10548,-0.04586 0.128411,-0.06421 z"
         style="font-style:normal;font-variant:normal;font-weight:normal;font-stretch:normal;font-size:4.58611px;font-family:Raleway;-inkscape-font-specification:Raleway;font-variant-ligatures:normal;font-variant-caps:normal;font-variant-numeric:normal;font-variant-east-asian:normal;fill:#f5f5f5;fill-opacity:1;stroke-width:0.264583"
         id="path896" />
      <path
         d="m 98.233751,55.043205 -2.164644,3.256138 h -0.35313 l 2.164644,-3.256138 z"
         style="font-style:normal;font-variant:normal;font-weight:normal;font-stretch:normal;font-size:4.58611px;font-family:Raleway;-inkscape-font-specification:Raleway;font-variant-ligatures:normal;font-variant-caps:normal;font-variant-numeric:normal;font-variant-east-asian:normal;fill:#f5f5f5;fill-opacity:1;stroke-width:0.264583"
         id="path898" />
      <path
         d="m 98.355281,57.111541 q 0,-0.339373 0.137584,-0.619125 0.142169,-0.284339 0.389819,-0.454025 0.24765,-0.169686 0.564091,-0.169686 0.298098,0 0.531989,0.160514 0.238476,0.155927 0.371476,0.380647 v -1.458383 h 0.31185 v 2.971799 q 0,0.06421 0.0275,0.09631 0.0275,0.02752 0.0825,0.0321 v 0.24765 q -0.0917,0.01376 -0.14217,0.0092 -0.0963,-0.0046 -0.16968,-0.07796 -0.0734,-0.07338 -0.0734,-0.160513 v -0.233892 q -0.14217,0.233892 -0.38524,0.371475 -0.243059,0.137583 -0.504467,0.137583 -0.24765,0 -0.458611,-0.100894 -0.206375,-0.100895 -0.362303,-0.275167 -0.151342,-0.174272 -0.238478,-0.394405 -0.08255,-0.22472 -0.08255,-0.463197 z m 1.994959,0.366888 v -0.738363 q -0.0596,-0.1651 -0.19262,-0.298097 -0.13299,-0.137584 -0.302681,-0.215548 -0.1651,-0.08255 -0.3302,-0.08255 -0.192616,0 -0.348544,0.08255 -0.155928,0.07796 -0.270581,0.215548 -0.110066,0.137583 -0.169686,0.311855 -0.05962,0.174272 -0.05962,0.357717 0,0.192616 0.06421,0.366888 0.06879,0.174273 0.192616,0.311856 0.123825,0.132997 0.284339,0.206375 0.160514,0.07338 0.348544,0.07338 0.119239,0 0.24765,-0.04586 0.128411,-0.04586 0.243066,-0.123825 0.11924,-0.08255 0.1972,-0.192617 0.078,-0.110067 0.0963,-0.229306 z"
         style="font-style:normal;font-variant:normal;font-weight:normal;font-stretch:normal;font-size:4.58611px;font-family:Raleway;-inkscape-font-specification:Raleway;font-variant-ligatures:normal;font-variant-caps:normal;font-variant-numeric:normal;font-variant-east-asian:normal;fill:#f5f5f5;fill-opacity:1;stroke-width:0.264583"
         id="path900" />
      <path
         d="m 102.39608,58.345204 q -0.25683,0 -0.47696,-0.09631 -0.22013,-0.100895 -0.38065,-0.270581 -0.16051,-0.174272 -0.25223,-0.398991 -0.0871,-0.22472 -0.0871,-0.481542 0,-0.334786 0.15134,-0.614538 0.15593,-0.279753 0.42651,-0.444853 0.27058,-0.169686 0.61454,-0.169686 0.35313,0 0.61454,0.169686 0.26599,0.169686 0.41733,0.449439 0.15135,0.275166 0.15135,0.605366 0,0.03669 0,0.07338 0,0.0321 -0.005,0.05045 h -2.04541 q 0.0229,0.256822 0.14217,0.458611 0.12383,0.197203 0.31645,0.316442 0.1972,0.114652 0.4265,0.114652 0.2339,0 0.44027,-0.119238 0.21096,-0.119239 0.29351,-0.311856 l 0.27058,0.07338 q -0.0734,0.169686 -0.22472,0.307269 -0.15134,0.137584 -0.35771,0.215547 -0.20179,0.07338 -0.43568,0.07338 z m -0.88054,-1.352902 h 1.76565 q -0.0183,-0.261409 -0.14216,-0.458611 -0.11924,-0.197203 -0.31645,-0.30727 -0.19261,-0.114652 -0.4265,-0.114652 -0.2339,0 -0.42651,0.114652 -0.19262,0.110067 -0.31644,0.311856 -0.11924,0.197203 -0.13759,0.454025 z"
         style="font-style:normal;font-variant:normal;font-weight:normal;font-stretch:normal;font-size:4.58611px;font-family:Raleway;-inkscape-font-specification:Raleway;font-variant-ligatures:normal;font-variant-caps:normal;font-variant-numeric:normal;font-variant-east-asian:normal;fill:#f5f5f5;fill-opacity:1;stroke-width:0.264583"
         id="path902" />
      <path
         d="M 104.14811,58.299343 V 56.15763 h -0.3302 v -0.24765 h 0.3302 v -0.06421 q 0,-0.293511 0.0825,-0.504472 0.0871,-0.210961 0.24307,-0.321028 0.16051,-0.114652 0.37606,-0.114652 0.14217,0 0.27516,0.04127 0.133,0.04127 0.22931,0.110066 l -0.0963,0.22472 q -0.0596,-0.05045 -0.15593,-0.07796 -0.0963,-0.02752 -0.19261,-0.02752 -0.21555,0 -0.33479,0.169686 -0.11465,0.169686 -0.11465,0.490714 v 0.07338 h 0.6604 v 0.24765 h -0.6604 v 2.141713 z"
         style="font-style:normal;font-variant:normal;font-weight:normal;font-stretch:normal;font-size:4.58611px;font-family:Raleway;-inkscape-font-specification:Raleway;font-variant-ligatures:normal;font-variant-caps:normal;font-variant-numeric:normal;font-variant-east-asian:normal;fill:#f5f5f5;fill-opacity:1;stroke-width:0.264583"
         id="path904" />
      <path
         d="m 106.46267,58.345204 q -0.25683,0 -0.47696,-0.09631 -0.22013,-0.100895 -0.38065,-0.270581 -0.16051,-0.174272 -0.25223,-0.398991 -0.0871,-0.22472 -0.0871,-0.481542 0,-0.334786 0.15134,-0.614538 0.15593,-0.279753 0.42651,-0.444853 0.27058,-0.169686 0.61454,-0.169686 0.35313,0 0.61454,0.169686 0.26599,0.169686 0.41733,0.449439 0.15135,0.275166 0.15135,0.605366 0,0.03669 0,0.07338 0,0.0321 -0.005,0.05045 h -2.04541 q 0.0229,0.256822 0.14217,0.458611 0.12383,0.197203 0.31645,0.316442 0.1972,0.114652 0.4265,0.114652 0.2339,0 0.44027,-0.119238 0.21096,-0.119239 0.29351,-0.311856 l 0.27058,0.07338 q -0.0734,0.169686 -0.22472,0.307269 -0.15134,0.137584 -0.35771,0.215547 -0.20179,0.07338 -0.43568,0.07338 z m -0.88054,-1.352902 h 1.76565 q -0.0183,-0.261409 -0.14217,-0.458611 -0.11923,-0.197203 -0.31644,-0.30727 -0.19261,-0.114652 -0.4265,-0.114652 -0.2339,0 -0.42651,0.114652 -0.19262,0.110067 -0.31644,0.311856 -0.11924,0.197203 -0.13759,0.454025 z"
         style="font-style:normal;font-variant:normal;font-weight:normal;font-stretch:normal;font-size:4.58611px;font-family:Raleway;-inkscape-font-specification:Raleway;font-variant-ligatures:normal;font-variant-caps:normal;font-variant-numeric:normal;font-variant-east-asian:normal;fill:#f5f5f5;fill-opacity:1;stroke-width:0.264583"
         id="path906" />
      <path
         d="m 110.13564,58.299343 h -0.31186 v -1.334558 q 0,-0.421922 -0.12382,-0.614539 -0.12383,-0.197202 -0.38982,-0.197202 -0.18345,0 -0.36231,0.09172 -0.17885,0.08714 -0.31644,0.243064 -0.13299,0.151341 -0.19261,0.348544 v 1.462969 h -0.31186 V 55.90998 h 0.28434 v 0.541161 q 0.0963,-0.174272 0.25224,-0.302684 0.15592,-0.132997 0.35313,-0.206374 0.1972,-0.07338 0.40816,-0.07338 0.1972,0 0.33479,0.07338 0.13758,0.07338 0.22013,0.210961 0.0825,0.132997 0.11924,0.325613 0.0367,0.188031 0.0367,0.421923 z"
         style="font-style:normal;font-variant:normal;font-weight:normal;font-stretch:normal;font-size:4.58611px;font-family:Raleway;-inkscape-font-specification:Raleway;font-variant-ligatures:normal;font-variant-caps:normal;font-variant-numeric:normal;font-variant-east-asian:normal;fill:#f5f5f5;fill-opacity:1;stroke-width:0.264583"
         id="path908" />
      <path
         d="m 111.58936,58.345204 q -0.29351,0 -0.54574,-0.09631 -0.25224,-0.09631 -0.43568,-0.293511 l 0.12841,-0.220133 q 0.20179,0.18803 0.40357,0.275166 0.20638,0.08255 0.43568,0.08255 0.27976,0 0.45403,-0.110066 0.17427,-0.114653 0.17427,-0.325614 0,-0.14217 -0.0871,-0.215547 -0.0825,-0.07796 -0.24307,-0.123825 -0.15593,-0.05045 -0.37606,-0.105481 -0.24765,-0.06879 -0.41734,-0.142169 -0.1651,-0.07796 -0.25223,-0.192617 -0.0825,-0.119239 -0.0825,-0.307269 0,-0.233892 0.11465,-0.385234 0.11924,-0.155927 0.32103,-0.233891 0.20637,-0.08255 0.45861,-0.08255 0.27517,0 0.48613,0.08714 0.21096,0.08714 0.34396,0.243064 l -0.15135,0.210961 q -0.12841,-0.146756 -0.30727,-0.215547 -0.17427,-0.07338 -0.38981,-0.07338 -0.14676,0 -0.27976,0.04127 -0.13299,0.03669 -0.22013,0.128411 -0.0825,0.08714 -0.0825,0.243064 0,0.128411 0.0642,0.201789 0.0642,0.06879 0.19261,0.119238 0.12841,0.04586 0.31644,0.100895 0.27058,0.07338 0.47237,0.151341 0.20179,0.07338 0.31186,0.192617 0.11006,0.119239 0.11006,0.334786 0,0.334786 -0.25223,0.522817 -0.25224,0.18803 -0.66499,0.18803 z"
         style="font-style:normal;font-variant:normal;font-weight:normal;font-stretch:normal;font-size:4.58611px;font-family:Raleway;-inkscape-font-specification:Raleway;font-variant-ligatures:normal;font-variant-caps:normal;font-variant-numeric:normal;font-variant-east-asian:normal;fill:#f5f5f5;fill-opacity:1;stroke-width:0.264583"
         id="path910" />
      <path
         d="M 113.01758,58.299343 V 55.90998 h 0.31185 v 2.389363 z m 0,-2.889249 v -0.458611 h 0.31185 v 0.458611 z"
         style="font-style:normal;font-variant:normal;font-weight:normal;font-stretch:normal;font-size:4.58611px;font-family:Raleway;-inkscape-font-specification:Raleway;font-variant-ligatures:normal;font-variant-caps:normal;font-variant-numeric:normal;font-variant-east-asian:normal;fill:#f5f5f5;fill-opacity:1;stroke-width:0.264583"
         id="path912" />
      <path
         d="m 114.73164,58.299343 -0.96767,-2.389363 h 0.32561 l 0.81633,2.077508 0.82091,-2.077508 h 0.30727 l -0.96767,2.389363 z"
         style="font-style:normal;font-variant:normal;font-weight:normal;font-stretch:normal;font-size:4.58611px;font-family:Raleway;-inkscape-font-specification:Raleway;font-variant-ligatures:normal;font-variant-caps:normal;font-variant-numeric:normal;font-variant-east-asian:normal;fill:#f5f5f5;fill-opacity:1;stroke-width:0.264583"
         id="path914" />
      <path
         d="m 117.41738,58.345204 q -0.25683,0 -0.47696,-0.09631 -0.22013,-0.100895 -0.38065,-0.270581 -0.16051,-0.174272 -0.25223,-0.398991 -0.0871,-0.22472 -0.0871,-0.481542 0,-0.334786 0.15134,-0.614538 0.15593,-0.279753 0.42651,-0.444853 0.27058,-0.169686 0.61454,-0.169686 0.35313,0 0.61454,0.169686 0.26599,0.169686 0.41733,0.449439 0.15135,0.275166 0.15135,0.605366 0,0.03669 0,0.07338 0,0.0321 -0.005,0.05045 h -2.04541 q 0.0229,0.256822 0.14217,0.458611 0.12383,0.197203 0.31645,0.316442 0.1972,0.114652 0.4265,0.114652 0.2339,0 0.44027,-0.119238 0.21096,-0.119239 0.29351,-0.311856 l 0.27058,0.07338 q -0.0734,0.169686 -0.22472,0.307269 -0.15134,0.137584 -0.35771,0.215547 -0.20179,0.07338 -0.43568,0.07338 z m -0.88054,-1.352902 h 1.76565 q -0.0183,-0.261409 -0.14217,-0.458611 -0.11923,-0.197203 -0.31644,-0.30727 -0.19261,-0.114652 -0.4265,-0.114652 -0.2339,0 -0.42651,0.114652 -0.19262,0.110067 -0.31644,0.311856 -0.11924,0.197203 -0.13759,0.454025 z"
         style="font-style:normal;font-variant:normal;font-weight:normal;font-stretch:normal;font-size:4.58611px;font-family:Raleway;-inkscape-font-specification:Raleway;font-variant-ligatures:normal;font-variant-caps:normal;font-variant-numeric:normal;font-variant-east-asian:normal;fill:#f5f5f5;fill-opacity:1;stroke-width:0.264583"
         id="path916" />
    </g>
    <g
       aria-label="aggressive/evil"
       id="text893-8"
       style="font-style:normal;font-variant:normal;font-weight:normal;font-stretch:normal;font-size:4.58611px;line-height:1.25;font-family:Raleway;-inkscape-font-specification:Raleway;font-variant-ligatures:normal;font-variant-caps:normal;font-variant-numeric:normal;font-variant-east-asian:normal;fill:#000000;fill-opacity:1;stroke:none;stroke-width:0.264583">
      <path
         d="m 151.35849,57.611427 q 0,-0.22472 0.12842,-0.385234 0.12841,-0.1651 0.35313,-0.252236 0.2293,-0.09172 0.5274,-0.09172 0.17427,0 0.3623,0.02752 0.18803,0.02752 0.33479,0.08255 v -0.201789 q 0,-0.302683 -0.17886,-0.481542 -0.17886,-0.178858 -0.4953,-0.178858 -0.19262,0 -0.38065,0.07338 -0.18344,0.06879 -0.38523,0.206375 l -0.11924,-0.220134 q 0.23389,-0.160513 0.45861,-0.238477 0.22472,-0.08255 0.45861,-0.08255 0.44027,0 0.69709,0.252236 0.25682,0.252236 0.25682,0.697089 v 1.105252 q 0,0.06421 0.0275,0.09631 0.0275,0.02752 0.0871,0.0321 v 0.24765 q -0.0505,0.0046 -0.0871,0.0092 -0.0367,0.0046 -0.055,0 -0.11466,-0.0046 -0.17428,-0.07338 -0.0596,-0.06879 -0.0642,-0.146756 l -0.005,-0.174272 q -0.16051,0.206375 -0.41733,0.321028 -0.25683,0.110066 -0.52282,0.110066 -0.22931,0 -0.41734,-0.09631 -0.18344,-0.100895 -0.28892,-0.265994 -0.1009,-0.169687 -0.1009,-0.371475 z m 1.60056,0.183444 q 0.0504,-0.06421 0.078,-0.123825 0.0275,-0.05962 0.0275,-0.105481 v -0.348544 q -0.15593,-0.05962 -0.32562,-0.09172 -0.1651,-0.0321 -0.33478,-0.0321 -0.33479,0 -0.54116,0.132997 -0.20638,0.132998 -0.20638,0.362303 0,0.132997 0.0688,0.252236 0.0688,0.114653 0.20179,0.192617 0.133,0.07338 0.31186,0.07338 0.22472,0 0.41733,-0.08714 0.19721,-0.08714 0.30269,-0.224719 z"
         style="font-style:normal;font-variant:normal;font-weight:normal;font-stretch:normal;font-size:4.58611px;font-family:Raleway;-inkscape-font-specification:Raleway;font-variant-ligatures:normal;font-variant-caps:normal;font-variant-numeric:normal;font-variant-east-asian:normal;fill:#f5f5f5;fill-opacity:1;stroke-width:0.264583"
         id="path919" />
      <path
         d="m 155.00868,58.331446 q -0.24306,0 -0.44944,-0.100895 -0.20637,-0.100894 -0.35771,-0.27058 -0.14676,-0.174272 -0.22931,-0.394406 -0.0825,-0.220133 -0.0825,-0.454024 0,-0.252236 0.078,-0.47237 0.0825,-0.224719 0.22931,-0.398991 0.15134,-0.174273 0.35313,-0.270581 0.20179,-0.100894 0.44944,-0.100894 0.30727,0 0.53199,0.155927 0.2293,0.155928 0.38523,0.385234 V 55.90998 h 0.27975 v 2.398535 q 0,0.3302 -0.16051,0.55492 -0.15593,0.229305 -0.42651,0.343958 -0.26599,0.114653 -0.58244,0.114653 -0.40816,0 -0.66039,-0.146756 -0.25224,-0.146755 -0.41275,-0.394405 l 0.19261,-0.151342 q 0.14217,0.224719 0.37606,0.334786 0.23848,0.110067 0.50447,0.110067 0.2339,0 0.42651,-0.08714 0.19721,-0.08255 0.31186,-0.252236 0.11924,-0.169687 0.11924,-0.426509 v -0.472369 q -0.13759,0.224719 -0.37606,0.362303 -0.23848,0.132997 -0.49989,0.132997 z m 0.0871,-0.261408 q 0.14217,0 0.27058,-0.05045 0.13299,-0.05045 0.24306,-0.132997 0.11007,-0.08714 0.18345,-0.192616 0.0734,-0.105481 0.0917,-0.215548 v -0.738363 q -0.0688,-0.174273 -0.19721,-0.30727 -0.12841,-0.137583 -0.29351,-0.210961 -0.16051,-0.07796 -0.33478,-0.07796 -0.20179,0 -0.36231,0.08714 -0.15592,0.08255 -0.26599,0.22472 -0.10548,0.137583 -0.1651,0.311855 -0.0596,0.174273 -0.0596,0.348545 0,0.192616 0.0688,0.366889 0.0688,0.169686 0.18803,0.307269 0.12383,0.132997 0.28434,0.206375 0.1651,0.07338 0.34855,0.07338 z"
         style="font-style:normal;font-variant:normal;font-weight:normal;font-stretch:normal;font-size:4.58611px;font-family:Raleway;-inkscape-font-specification:Raleway;font-variant-ligatures:normal;font-variant-caps:normal;font-variant-numeric:normal;font-variant-east-asian:normal;fill:#f5f5f5;fill-opacity:1;stroke-width:0.264583"
         id="path921" />
      <path
         d="m 157.83917,58.331446 q -0.24306,0 -0.44944,-0.100895 -0.20637,-0.100894 -0.35772,-0.27058 -0.14675,-0.174272 -0.2293,-0.394406 -0.0825,-0.220133 -0.0825,-0.454024 0,-0.252236 0.078,-0.47237 0.0825,-0.224719 0.22931,-0.398991 0.15134,-0.174273 0.35313,-0.270581 0.20179,-0.100894 0.44944,-0.100894 0.30727,0 0.53199,0.155927 0.2293,0.155928 0.38523,0.385234 V 55.90998 h 0.27975 v 2.398535 q 0,0.3302 -0.16051,0.55492 -0.15593,0.229305 -0.42651,0.343958 -0.26599,0.114653 -0.58244,0.114653 -0.40816,0 -0.6604,-0.146756 -0.25223,-0.146755 -0.41275,-0.394405 l 0.19262,-0.151342 q 0.14217,0.224719 0.37606,0.334786 0.23848,0.110067 0.50447,0.110067 0.2339,0 0.42651,-0.08714 0.19721,-0.08255 0.31186,-0.252236 0.11924,-0.169687 0.11924,-0.426509 v -0.472369 q -0.13759,0.224719 -0.37606,0.362303 -0.23848,0.132997 -0.49989,0.132997 z m 0.0871,-0.261408 q 0.14217,0 0.27058,-0.05045 0.13299,-0.05045 0.24306,-0.132997 0.11007,-0.08714 0.18345,-0.192616 0.0734,-0.105481 0.0917,-0.215548 v -0.738363 q -0.0688,-0.174273 -0.19721,-0.30727 -0.12841,-0.137583 -0.29351,-0.210961 -0.16051,-0.07796 -0.33478,-0.07796 -0.20179,0 -0.36231,0.08714 -0.15592,0.08255 -0.26599,0.22472 -0.10548,0.137583 -0.1651,0.311855 -0.0596,0.174273 -0.0596,0.348545 0,0.192616 0.0688,0.366889 0.0688,0.169686 0.18803,0.307269 0.12383,0.132997 0.28434,0.206375 0.1651,0.07338 0.34855,0.07338 z"
         style="font-style:normal;font-variant:normal;font-weight:normal;font-stretch:normal;font-size:4.58611px;font-family:Raleway;-inkscape-font-specification:Raleway;font-variant-ligatures:normal;font-variant-caps:normal;font-variant-numeric:normal;font-variant-east-asian:normal;fill:#f5f5f5;fill-opacity:1;stroke-width:0.264583"
         id="path923" />
      <path
         d="m 160.90355,56.185146 q -0.31185,0.0092 -0.55033,0.174273 -0.23389,0.165099 -0.3302,0.454024 v 1.4859 h -0.31186 V 55.90998 h 0.29351 v 0.573264 q 0.12383,-0.252237 0.32562,-0.408164 0.20637,-0.155928 0.43568,-0.174272 0.0459,-0.0046 0.078,-0.0046 0.0367,0 0.0596,0.0046 z"
         style="font-style:normal;font-variant:normal;font-weight:normal;font-stretch:normal;font-size:4.58611px;font-family:Raleway;-inkscape-font-specification:Raleway;font-variant-ligatures:normal;font-variant-caps:normal;font-variant-numeric:normal;font-variant-east-asian:normal;fill:#f5f5f5;fill-opacity:1;stroke-width:0.264583"
         id="path925" />
      <path
         d="m 162.2389,58.345204 q -0.25682,0 -0.47696,-0.09631 -0.22013,-0.100895 -0.38064,-0.270581 -0.16052,-0.174272 -0.25224,-0.398991 -0.0871,-0.22472 -0.0871,-0.481542 0,-0.334786 0.15134,-0.614538 0.15593,-0.279753 0.42651,-0.444853 0.27058,-0.169686 0.61454,-0.169686 0.35313,0 0.61454,0.169686 0.26599,0.169686 0.41734,0.449439 0.15134,0.275166 0.15134,0.605366 0,0.03669 0,0.07338 0,0.0321 -0.005,0.05045 h -2.0454 q 0.0229,0.256822 0.14217,0.458611 0.12382,0.197203 0.31644,0.316442 0.1972,0.114652 0.42651,0.114652 0.23389,0 0.44026,-0.119238 0.21096,-0.119239 0.29351,-0.311856 l 0.27058,0.07338 q -0.0734,0.169686 -0.22472,0.307269 -0.15134,0.137584 -0.35771,0.215547 -0.20179,0.07338 -0.43568,0.07338 z m -0.88054,-1.352902 h 1.76566 q -0.0183,-0.261409 -0.14217,-0.458611 -0.11924,-0.197203 -0.31644,-0.30727 -0.19262,-0.114652 -0.42651,-0.114652 -0.23389,0 -0.42651,0.114652 -0.19262,0.110067 -0.31644,0.311856 -0.11924,0.197203 -0.13759,0.454025 z"
         style="font-style:normal;font-variant:normal;font-weight:normal;font-stretch:normal;font-size:4.58611px;font-family:Raleway;-inkscape-font-specification:Raleway;font-variant-ligatures:normal;font-variant-caps:normal;font-variant-numeric:normal;font-variant-east-asian:normal;fill:#f5f5f5;fill-opacity:1;stroke-width:0.264583"
         id="path927" />
      <path
         d="m 164.68738,58.345204 q -0.29351,0 -0.54575,-0.09631 -0.25223,-0.09631 -0.43568,-0.293511 l 0.12841,-0.220133 q 0.20179,0.18803 0.40358,0.275166 0.20638,0.08255 0.43568,0.08255 0.27975,0 0.45403,-0.110066 0.17427,-0.114653 0.17427,-0.325614 0,-0.14217 -0.0871,-0.215547 -0.0825,-0.07796 -0.24306,-0.123825 -0.15593,-0.05045 -0.37606,-0.105481 -0.24765,-0.06879 -0.41734,-0.142169 -0.1651,-0.07796 -0.25223,-0.192617 -0.0825,-0.119239 -0.0825,-0.307269 0,-0.233892 0.11465,-0.385234 0.11924,-0.155927 0.32103,-0.233891 0.20637,-0.08255 0.45861,-0.08255 0.27516,0 0.48612,0.08714 0.21097,0.08714 0.34396,0.243064 l -0.15134,0.210961 q -0.12841,-0.146756 -0.30727,-0.215547 -0.17427,-0.07338 -0.38982,-0.07338 -0.14675,0 -0.27975,0.04127 -0.133,0.03669 -0.22013,0.128411 -0.0826,0.08714 -0.0826,0.243064 0,0.128411 0.0642,0.201789 0.0642,0.06879 0.19262,0.119238 0.12841,0.04586 0.31644,0.100895 0.27058,0.07338 0.47237,0.151341 0.20179,0.07338 0.31185,0.192617 0.11007,0.119239 0.11007,0.334786 0,0.334786 -0.25223,0.522817 -0.25224,0.18803 -0.66499,0.18803 z"
         style="font-style:normal;font-variant:normal;font-weight:normal;font-stretch:normal;font-size:4.58611px;font-family:Raleway;-inkscape-font-specification:Raleway;font-variant-ligatures:normal;font-variant-caps:normal;font-variant-numeric:normal;font-variant-east-asian:normal;fill:#f5f5f5;fill-opacity:1;stroke-width:0.264583"
         id="path929" />
      <path
         d="m 166.89982,58.345204 q -0.29351,0 -0.54575,-0.09631 -0.25223,-0.09631 -0.43568,-0.293511 l 0.12841,-0.220133 q 0.20179,0.18803 0.40358,0.275166 0.20638,0.08255 0.43568,0.08255 0.27975,0 0.45403,-0.110066 0.17427,-0.114653 0.17427,-0.325614 0,-0.14217 -0.0871,-0.215547 -0.0825,-0.07796 -0.24306,-0.123825 -0.15593,-0.05045 -0.37606,-0.105481 -0.24765,-0.06879 -0.41734,-0.142169 -0.1651,-0.07796 -0.25224,-0.192617 -0.0825,-0.119239 -0.0825,-0.307269 0,-0.233892 0.11466,-0.385234 0.11924,-0.155927 0.32103,-0.233891 0.20637,-0.08255 0.45861,-0.08255 0.27516,0 0.48612,0.08714 0.21097,0.08714 0.34396,0.243064 l -0.15134,0.210961 q -0.12841,-0.146756 -0.30727,-0.215547 -0.17427,-0.07338 -0.38982,-0.07338 -0.14675,0 -0.27975,0.04127 -0.133,0.03669 -0.22013,0.128411 -0.0825,0.08714 -0.0825,0.243064 0,0.128411 0.0642,0.201789 0.0642,0.06879 0.19262,0.119238 0.12841,0.04586 0.31644,0.100895 0.27058,0.07338 0.47237,0.151341 0.20179,0.07338 0.31185,0.192617 0.11007,0.119239 0.11007,0.334786 0,0.334786 -0.25223,0.522817 -0.25224,0.18803 -0.66499,0.18803 z"
         style="font-style:normal;font-variant:normal;font-weight:normal;font-stretch:normal;font-size:4.58611px;font-family:Raleway;-inkscape-font-specification:Raleway;font-variant-ligatures:normal;font-variant-caps:normal;font-variant-numeric:normal;font-variant-east-asian:normal;fill:#f5f5f5;fill-opacity:1;stroke-width:0.264583"
         id="path931" />
      <path
         d="M 168.32803,58.299343 V 55.90998 h 0.31186 v 2.389363 z m 0,-2.889249 v -0.458611 h 0.31186 v 0.458611 z"
         style="font-style:normal;font-variant:normal;font-weight:normal;font-stretch:normal;font-size:4.58611px;font-family:Raleway;-inkscape-font-specification:Raleway;font-variant-ligatures:normal;font-variant-caps:normal;font-variant-numeric:normal;font-variant-east-asian:normal;fill:#f5f5f5;fill-opacity:1;stroke-width:0.264583"
         id="path933" />
      <path
         d="m 170.04209,58.299343 -0.96767,-2.389363 h 0.32562 l 0.81633,2.077508 0.82091,-2.077508 h 0.30727 l -0.96767,2.389363 z"
         style="font-style:normal;font-variant:normal;font-weight:normal;font-stretch:normal;font-size:4.58611px;font-family:Raleway;-inkscape-font-specification:Raleway;font-variant-ligatures:normal;font-variant-caps:normal;font-variant-numeric:normal;font-variant-east-asian:normal;fill:#f5f5f5;fill-opacity:1;stroke-width:0.264583"
         id="path935" />
      <path
         d="m 172.72783,58.345204 q -0.25682,0 -0.47695,-0.09631 -0.22013,-0.100895 -0.38065,-0.270581 -0.16051,-0.174272 -0.25223,-0.398991 -0.0871,-0.22472 -0.0871,-0.481542 0,-0.334786 0.15134,-0.614538 0.15593,-0.279753 0.42651,-0.444853 0.27058,-0.169686 0.61454,-0.169686 0.35313,0 0.61454,0.169686 0.26599,0.169686 0.41733,0.449439 0.15134,0.275166 0.15134,0.605366 0,0.03669 0,0.07338 0,0.0321 -0.005,0.05045 h -2.04541 q 0.0229,0.256822 0.14217,0.458611 0.12383,0.197203 0.31644,0.316442 0.19721,0.114652 0.42651,0.114652 0.23389,0 0.44027,-0.119238 0.21096,-0.119239 0.29351,-0.311856 l 0.27058,0.07338 q -0.0734,0.169686 -0.22472,0.307269 -0.15134,0.137584 -0.35772,0.215547 -0.20178,0.07338 -0.43568,0.07338 z m -0.88053,-1.352902 h 1.76565 q -0.0183,-0.261409 -0.14217,-0.458611 -0.11923,-0.197203 -0.31644,-0.30727 -0.19261,-0.114652 -0.42651,-0.114652 -0.23389,0 -0.4265,0.114652 -0.19262,0.110067 -0.31645,0.311856 -0.11923,0.197203 -0.13758,0.454025 z"
         style="font-style:normal;font-variant:normal;font-weight:normal;font-stretch:normal;font-size:4.58611px;font-family:Raleway;-inkscape-font-specification:Raleway;font-variant-ligatures:normal;font-variant-caps:normal;font-variant-numeric:normal;font-variant-east-asian:normal;fill:#f5f5f5;fill-opacity:1;stroke-width:0.264583"
         id="path937" />
      <path
         d="m 176.68973,55.043205 -2.16464,3.256138 h -0.35313 l 2.16464,-3.256138 z"
         style="font-style:normal;font-variant:normal;font-weight:normal;font-stretch:normal;font-size:4.58611px;font-family:Raleway;-inkscape-font-specification:Raleway;font-variant-ligatures:normal;font-variant-caps:normal;font-variant-numeric:normal;font-variant-east-asian:normal;fill:#f5f5f5;fill-opacity:1;stroke-width:0.264583"
         id="path939" />
      <path
         d="m 178.01261,58.345204 q -0.25682,0 -0.47696,-0.09631 -0.22013,-0.100895 -0.38064,-0.270581 -0.16052,-0.174272 -0.25224,-0.398991 -0.0871,-0.22472 -0.0871,-0.481542 0,-0.334786 0.15135,-0.614538 0.15592,-0.279753 0.4265,-0.444853 0.27058,-0.169686 0.61454,-0.169686 0.35313,0 0.61454,0.169686 0.266,0.169686 0.41734,0.449439 0.15134,0.275166 0.15134,0.605366 0,0.03669 0,0.07338 0,0.0321 -0.005,0.05045 h -2.0454 q 0.0229,0.256822 0.14217,0.458611 0.12382,0.197203 0.31644,0.316442 0.1972,0.114652 0.42651,0.114652 0.23389,0 0.44026,-0.119238 0.21096,-0.119239 0.29351,-0.311856 l 0.27059,0.07338 q -0.0734,0.169686 -0.22472,0.307269 -0.15135,0.137584 -0.35772,0.215547 -0.20179,0.07338 -0.43568,0.07338 z m -0.88053,-1.352902 h 1.76565 q -0.0183,-0.261409 -0.14217,-0.458611 -0.11924,-0.197203 -0.31644,-0.30727 -0.19262,-0.114652 -0.42651,-0.114652 -0.23389,0 -0.42651,0.114652 -0.19262,0.110067 -0.31644,0.311856 -0.11924,0.197203 -0.13758,0.454025 z"
         style="font-style:normal;font-variant:normal;font-weight:normal;font-stretch:normal;font-size:4.58611px;font-family:Raleway;-inkscape-font-specification:Raleway;font-variant-ligatures:normal;font-variant-caps:normal;font-variant-numeric:normal;font-variant-east-asian:normal;fill:#f5f5f5;fill-opacity:1;stroke-width:0.264583"
         id="path941" />
      <path
         d="m 180.32501,58.299343 -0.96767,-2.389363 h 0.32562 l 0.81632,2.077508 0.82092,-2.077508 h 0.30727 l -0.96767,2.389363 z"
         style="font-style:normal;font-variant:normal;font-weight:normal;font-stretch:normal;font-size:4.58611px;font-family:Raleway;-inkscape-font-specification:Raleway;font-variant-ligatures:normal;font-variant-caps:normal;font-variant-numeric:normal;font-variant-east-asian:normal;fill:#f5f5f5;fill-opacity:1;stroke-width:0.264583"
         id="path943" />
      <path
         d="M 182.05949,58.299343 V 55.90998 h 0.31186 v 2.389363 z m 0,-2.889249 v -0.458611 h 0.31186 v 0.458611 z"
         style="font-style:normal;font-variant:normal;font-weight:normal;font-stretch:normal;font-size:4.58611px;font-family:Raleway;-inkscape-font-specification:Raleway;font-variant-ligatures:normal;font-variant-caps:normal;font-variant-numeric:normal;font-variant-east-asian:normal;fill:#f5f5f5;fill-opacity:1;stroke-width:0.264583"
         id="path945" />
      <path
         d="m 183.07646,54.951483 h 0.31186 v 2.806699 q 0,0.178858 0.0642,0.233892 0.0642,0.05503 0.15593,0.05503 0.0825,0 0.1651,-0.01834 0.0825,-0.01834 0.14217,-0.03669 l 0.055,0.252236 q -0.0871,0.03669 -0.21554,0.05962 -0.12383,0.02293 -0.21555,0.02293 -0.21096,0 -0.33937,-0.123825 -0.12383,-0.123825 -0.12383,-0.339372 z"
         style="font-style:normal;font-variant:normal;font-weight:normal;font-stretch:normal;font-size:4.58611px;font-family:Raleway;-inkscape-font-specification:Raleway;font-variant-ligatures:normal;font-variant-caps:normal;font-variant-numeric:normal;font-variant-east-asian:normal;fill:#f5f5f5;fill-opacity:1;stroke-width:0.264583"
         id="path947" />
    </g>
    <rect
       style="fill:url(#linearGradient48);fill-opacity:1;stroke-width:0.185095"
       id="rect40"
       width="174.05403"
       height="3.9593847"
       x="12.016929"
       y="49.651466" />
    <text
       xml:space="preserve"
       id="text895"
       style="font-style:normal;font-weight:normal;font-size:10.58329999999999949px;line-height:1.25;font-family:sans-serif;white-space:pre;shape-inside:url(#rect897);fill:#000000;fill-opacity:1;stroke:none;" />
    <text
       xml:space="preserve"
       id="text901"
       style="font-style:normal;font-weight:normal;font-size:10.58329999999999949px;line-height:1.25;font-family:sans-serif;white-space:pre;shape-inside:url(#rect903);fill:#000000;fill-opacity:1;stroke:none;" />
  </g>
</svg>
