<?xml version="1.0" encoding="iso-8859-1"?>
<!-- Generator: Adobe Illustrator 16.0.0, SVG Export Plug-In . SVG Version: 6.00 Build 0)  -->
<!DOCTYPE svg PUBLIC "-//W3C//DTD SVG 1.1//EN" "http://www.w3.org/Graphics/SVG/1.1/DTD/svg11.dtd">
<svg id="wand01original" version="1.1" xmlns="http://www.w3.org/2000/svg" xmlns:xlink="http://www.w3.org/1999/xlink" x="0px" y="0px"
	 width="533.174px" height="39.916px" viewBox="0 0 533.174 39.916" style="enable-background:new 0 0 533.174 39.916;"
	 xml:space="preserve">
<g id="Layer_1_1_">
	<path d="M532.674,19.957c0-3.862-208.651-7.072-323.201-8.153c-20.451-0.193-37.899-0.315-50.628-0.365
		c-0.223-4.061-0.682-7.385-1.583-8.067c0-0.002,0.001-0.002,0.001-0.002c-0.003-0.002-0.007-0.004-0.01-0.008
		c-0.021-0.015-0.042-0.024-0.063-0.036c-0.033-0.018-0.067-0.037-0.101-0.049c-0.024-0.008-0.046-0.015-0.07-0.019
		c-0.037-0.01-0.075-0.013-0.113-0.013c-0.02,0-0.042-0.001-0.063,0c-0.058,0.008-0.117,0.022-0.177,0.049
		c-0.017,0.005-0.034,0.017-0.049,0.024c-0.049,0.025-0.099,0.052-0.15,0.09c-0.021,0.017-0.045,0.034-0.069,0.051
		c-0.047,0.039-0.098,0.085-0.147,0.134c-0.021,0.024-0.041,0.041-0.064,0.066c-0.071,0.077-0.144,0.163-0.218,0.262
		c-0.019,0.026-0.049,0.05-0.072,0.078c-0.1,0.038-0.198,0.114-0.293,0.239c-0.174,0.113-0.401,0.227-0.673,0.34
		c-0.08,0.035-0.16,0.066-0.245,0.098c-0.032,0.012-0.068,0.024-0.102,0.036c-0.096,0.035-0.195,0.069-0.302,0.105
		c-0.015,0.003-0.032,0.009-0.046,0.012c-0.512,0.167-1.137,0.33-1.875,0.489c-0.058,0.013-0.114,0.025-0.172,0.039
		c-0.139,0.025-0.285,0.057-0.432,0.086c-0.081,0.015-0.159,0.03-0.242,0.046c-0.139,0.027-0.285,0.053-0.43,0.079
		c-0.1,0.019-0.201,0.036-0.303,0.054c-0.142,0.025-0.29,0.049-0.439,0.073c-0.114,0.02-0.229,0.036-0.348,0.057
		c-0.15,0.023-0.303,0.047-0.459,0.07c-0.126,0.02-0.254,0.038-0.383,0.057c-0.159,0.024-0.322,0.044-0.487,0.069
		c-0.136,0.019-0.274,0.04-0.415,0.055c-0.166,0.023-0.335,0.045-0.506,0.066c-0.152,0.02-0.308,0.04-0.466,0.061
		c-0.169,0.02-0.342,0.04-0.516,0.061c-0.17,0.018-0.343,0.038-0.517,0.059c-0.055,0.007-0.113,0.012-0.168,0.017
		c0.179-3.562,0.168-5.77-0.608-5.77c-0.623,0-1.2,1.425-1.664,3.834c-0.138,0.105-0.28,0.259-0.433,0.476
		c-0.608,0.86-3.956,1.747-10.673,2.418c-0.313,0.015-0.625,0.028-0.944,0.041c-0.205,0.008-0.413,0.018-0.622,0.023
		c-0.377,0.017-0.757,0.034-1.145,0.046c-0.209,0.01-0.421,0.016-0.636,0.024c-0.399,0.014-0.804,0.025-1.214,0.042
		c-0.211,0.005-0.424,0.011-0.636,0.019c-0.419,0.014-0.844,0.026-1.271,0.036c-0.219,0.007-0.439,0.012-0.662,0.021
		c-0.433,0.01-0.874,0.021-1.32,0.032c-0.224,0.005-0.449,0.009-0.677,0.016c-0.464,0.01-0.935,0.02-1.409,0.029
		c-0.212,0.005-0.423,0.009-0.637,0.014c-0.519,0.009-1.044,0.017-1.577,0.026c-0.182,0.003-0.361,0.005-0.548,0.01
		c-0.599,0.008-1.21,0.014-1.827,0.021c-0.122,0.002-0.24,0.004-0.363,0.005c-3.022,0.035-6.241,0.05-9.663,0.042
		c-0.146-0.002-0.294-0.002-0.439-0.003c-0.704-0.002-1.411-0.004-2.132-0.008c-0.208-0.002-0.419-0.003-0.629-0.005
		c-0.665-0.003-1.333-0.007-2.011-0.015c-0.255-0.002-0.513-0.003-0.773-0.006c-0.638-0.006-1.282-0.011-1.933-0.019
		c-0.295-0.003-0.594-0.006-0.891-0.009c-0.632-0.01-1.267-0.016-1.91-0.027c-0.31-0.003-0.623-0.009-0.938-0.014
		c-0.647-0.008-1.298-0.019-1.957-0.031c-0.317-0.004-0.634-0.01-0.953-0.017c-0.664-0.011-1.333-0.023-2.008-0.036
		c-0.334-0.006-0.666-0.015-1-0.02c-0.682-0.014-1.373-0.029-2.065-0.043c-0.329-0.009-0.654-0.017-0.983-0.023
		c-0.72-0.017-1.45-0.034-2.183-0.053c-0.32-0.007-0.637-0.016-0.957-0.022c-0.776-0.022-1.562-0.042-2.35-0.064
		c-0.287-0.007-0.572-0.014-0.863-0.024c-0.851-0.023-1.714-0.05-2.579-0.074c-0.24-0.006-0.477-0.013-0.718-0.021
		c-1.086-0.033-2.182-0.069-3.294-0.104c-0.019,0-0.037,0-0.057-0.002c-2.328-0.077-4.71-0.159-7.152-0.251
		c-0.106-0.003-0.212-0.007-0.317-0.012c-1.077-0.04-2.167-0.081-3.268-0.125c-0.334-0.013-0.677-0.027-1.013-0.042
		c-0.887-0.037-1.778-0.072-2.68-0.11c-0.408-0.015-0.821-0.033-1.23-0.052c-0.845-0.035-1.694-0.071-2.55-0.108
		c-0.453-0.02-0.908-0.041-1.364-0.061c-0.833-0.037-1.668-0.076-2.513-0.113c-0.473-0.022-0.948-0.043-1.424-0.066
		c-0.832-0.039-1.668-0.076-2.512-0.117c-0.521-0.026-1.042-0.053-1.567-0.077c-0.807-0.039-1.618-0.08-2.435-0.12
		c-0.554-0.026-1.113-0.055-1.672-0.084c-0.817-0.041-1.641-0.085-2.469-0.126c-0.561-0.027-1.123-0.057-1.688-0.089
		c-0.832-0.041-1.673-0.088-2.515-0.131c-0.585-0.031-1.17-0.062-1.759-0.095c-0.849-0.047-1.708-0.093-2.566-0.14
		c-0.582-0.033-1.161-0.064-1.749-0.099c-0.904-0.05-1.823-0.104-2.739-0.155c-0.556-0.034-1.106-0.063-1.667-0.096
		c-0.95-0.057-1.915-0.113-2.877-0.171c-0.551-0.033-1.097-0.064-1.653-0.098c-1.017-0.061-2.049-0.125-3.081-0.188
		c-0.505-0.031-1.006-0.06-1.515-0.092c-1.543-0.095-3.096-0.192-4.667-0.292c-0.931-0.058-1.731,0.257-2.418,0.854
		C4.214,5.093,0.5,11.758,0.5,19.957c0,8.198,3.714,14.864,8.363,15.184c0.688,0.592,1.489,0.912,2.419,0.851
		c32.373-2.056,58.732-3.14,79.28-3.555c18.1-0.361,31.938-0.206,42.125,0.247c6.726,0.674,10.073,1.56,10.684,2.422
		c0.153,0.214,0.295,0.372,0.433,0.477c0.464,2.408,1.041,3.834,1.664,3.834c0.778,0,0.787-2.211,0.607-5.772
		c5.366,0.593,8.423,1.311,9.527,2.032c0.095,0.124,0.193,0.199,0.293,0.239c0.023,0.024,0.054,0.052,0.072,0.076
		c0.092,0.123,0.182,0.227,0.268,0.314c0.03,0.028,0.056,0.051,0.084,0.077c0.059,0.051,0.117,0.101,0.173,0.14
		c0.031,0.02,0.06,0.036,0.088,0.053c0.054,0.028,0.106,0.05,0.16,0.064c0.025,0.009,0.051,0.018,0.078,0.021
		c0.056,0.009,0.112,0.007,0.167,0c0.016-0.004,0.033-0.002,0.049-0.007c0.073-0.017,0.143-0.049,0.208-0.096
		c0.007-0.007,0.014-0.015,0.021-0.02c0.059-0.043,0.115-0.103,0.17-0.168c0.017-0.021,0.033-0.046,0.05-0.069
		c0.045-0.061,0.087-0.127,0.129-0.202c0.018-0.031,0.035-0.061,0.051-0.094c0.042-0.08,0.081-0.169,0.12-0.261
		c0.01-0.024,0.021-0.041,0.03-0.064h-0.002c0.547-1.382,0.859-4.073,1.032-7.205c10.188-0.04,23.404-0.129,38.762-0.259
		c0.106,0,0.213-0.003,0.321-0.003c0.844-0.008,1.693-0.015,2.548-0.024c0.34-0.002,0.682-0.005,1.023-0.008
		c0.598-0.004,1.199-0.009,1.803-0.017c0.631-0.007,1.267-0.01,1.905-0.016c0.425-0.004,0.854-0.01,1.284-0.012
		c0.725-0.007,1.455-0.015,2.189-0.021c0.379-0.005,0.757-0.007,1.139-0.01c10.559-0.1,21.905-0.218,33.816-0.353h-0.002
		C361.033,26.427,532.674,23.459,532.674,19.957z"/>
</g>
<g id="Layer_1">
</g>
</svg>
