<?xml version="1.0" encoding="iso-8859-1"?>
<!-- Generator: Adobe Illustrator 16.0.0, SVG Export Plug-In . SVG Version: 6.00 Build 0)  -->
<!DOCTYPE svg PUBLIC "-//W3C//DTD SVG 1.1//EN" "http://www.w3.org/Graphics/SVG/1.1/DTD/svg11.dtd">
<svg id="wand09original" version="1.1" xmlns="http://www.w3.org/2000/svg" xmlns:xlink="http://www.w3.org/1999/xlink" x="0px" y="0px"
	 width="454.687px" height="28.986px" viewBox="0 0 454.687 28.986" style="enable-background:new 0 0 454.687 28.986;"
	 xml:space="preserve">
<g id="Layer_9">
	<path d="M453.698,12.453c-0.035-0.036-0.088-0.068-0.158-0.104c-0.022-0.011-0.054-0.023-0.081-0.037
		c-0.053-0.022-0.111-0.044-0.174-0.065c-0.041-0.014-0.09-0.028-0.139-0.043c-0.066-0.019-0.136-0.038-0.212-0.059
		c-0.061-0.014-0.125-0.03-0.191-0.045c-0.08-0.017-0.169-0.036-0.259-0.052c-0.076-0.016-0.152-0.032-0.238-0.05
		c-0.091-0.016-0.194-0.031-0.296-0.047c-0.214-0.036-0.446-0.073-0.695-0.106c-0.072-0.011-0.137-0.021-0.209-0.029
		c-0.148-0.02-0.312-0.041-0.472-0.06c-0.072-0.008-0.139-0.017-0.212-0.027c0,0,0,0,0,0.002c-1.795-0.214-4.271-0.416-7.355-0.609
		c-0.021-0.003-0.041-0.003-0.059-0.005c-0.541-0.032-1.106-0.066-1.688-0.1c-0.267-0.016-0.546-0.03-0.82-0.047
		c-0.329-0.017-0.666-0.036-1.012-0.052c-0.325-0.019-0.656-0.037-0.993-0.053c-0.324-0.017-0.655-0.033-0.99-0.049
		c-0.345-0.019-0.688-0.035-1.041-0.052c-0.343-0.016-0.697-0.031-1.047-0.048c-0.666-0.031-1.346-0.059-2.042-0.089
		c-0.354-0.016-0.709-0.03-1.071-0.047c-0.396-0.017-0.806-0.033-1.211-0.049c-0.386-0.013-0.775-0.03-1.169-0.046
		c-0.392-0.014-0.785-0.028-1.187-0.046c-0.479-0.018-0.965-0.036-1.454-0.052c-0.329-0.011-0.649-0.024-0.98-0.037
		c-6.524-0.232-14.02-0.45-22.277-0.649c-0.081-0.003-0.165-0.004-0.247-0.006c-2.584-0.064-5.242-0.125-7.969-0.183
		c-0.201-0.004-0.403-0.008-0.604-0.015c-2.684-0.058-5.429-0.114-8.235-0.17c-0.221-0.004-0.44-0.007-0.663-0.012
		c-1.173-0.022-2.359-0.046-3.557-0.069c-0.286-0.004-0.57-0.01-0.857-0.017c-1.378-0.024-2.765-0.05-4.166-0.074
		c-0.254-0.004-0.513-0.009-0.769-0.014c-1.14-0.019-2.285-0.04-3.441-0.061c-0.411-0.006-0.825-0.013-1.239-0.019
		c-1.348-0.025-2.702-0.047-4.069-0.07c-0.213-0.002-0.427-0.007-0.639-0.012c-1.327-0.02-2.666-0.042-4.011-0.062
		c-0.34-0.006-0.681-0.01-1.022-0.016c-1.312-0.021-2.63-0.042-3.956-0.058c-0.204-0.005-0.404-0.007-0.607-0.011
		c-1.524-0.022-3.059-0.045-4.599-0.068c-0.267-0.004-0.533-0.008-0.799-0.01c-1.419-0.02-2.848-0.041-4.28-0.062
		c-0.151-0.002-0.302-0.002-0.452-0.005c-12.411-0.17-25.312-0.322-38.353-0.457c-0.749-0.008-1.497-0.016-2.245-0.022
		c-1.752-0.018-3.506-0.034-5.262-0.052c-0.859-0.009-1.715-0.02-2.576-0.027l0.002,0.003c-34.267-0.333-68.867-0.557-97.505-0.71
		c-1.299-0.973-2.677-1.824-4.229-2.291c-5.144-1.546-7.848-0.036-10.73,2.214c-6.001-0.03-11.634-0.058-16.817-0.081
		c-1.109-0.55-2.229-0.975-3.364-1.115c-1.701-0.211-4.943-0.499-5.982,0.822c-0.175-0.072-0.351-0.141-0.527-0.207
		c-0.094-0.037-0.189-0.071-0.284-0.106c-0.148-0.053-0.297-0.105-0.448-0.155c-0.261-0.097-0.523-0.191-0.788-0.282
		c-0.109-0.039-0.219-0.075-0.329-0.11c-0.209-0.071-0.418-0.14-0.629-0.208c-0.128-0.039-0.257-0.079-0.386-0.118
		c-0.192-0.059-0.384-0.116-0.577-0.171c-0.126-0.036-0.251-0.071-0.377-0.107c-0.231-0.062-0.462-0.124-0.692-0.184
		c-0.082-0.021-0.164-0.044-0.244-0.064c-0.305-0.077-0.608-0.147-0.911-0.214c-0.104-0.025-0.206-0.045-0.309-0.068
		c-0.215-0.045-0.428-0.09-0.64-0.132c-0.109-0.02-0.217-0.042-0.325-0.063c-0.222-0.041-0.441-0.08-0.66-0.118
		c-0.085-0.012-0.169-0.029-0.253-0.041c-0.298-0.049-0.594-0.092-0.883-0.131c-0.052-0.008-0.102-0.011-0.153-0.018
		c-0.24-0.031-0.478-0.059-0.71-0.082c-0.087-0.008-0.172-0.016-0.257-0.023c-0.205-0.019-0.405-0.035-0.603-0.048
		c-0.077-0.004-0.155-0.009-0.231-0.016c-0.252-0.012-0.5-0.023-0.739-0.029c-0.012,0-0.025,0-0.037,0
		c-0.253-0.003-0.496-0.001-0.731,0.006c-0.062,0-0.12,0.005-0.18,0.009c-0.173,0.005-0.34,0.017-0.503,0.03
		c-0.065,0.007-0.13,0.014-0.194,0.019c-0.165,0.017-0.322,0.037-0.475,0.061c-0.043,0.008-0.088,0.013-0.131,0.021
		c-0.189,0.034-0.368,0.074-0.535,0.117c-0.033,0.009-0.061,0.021-0.092,0.03c-0.13,0.036-0.252,0.08-0.366,0.125
		c-0.044,0.019-0.086,0.036-0.129,0.057c-0.097,0.043-0.185,0.09-0.268,0.142c-0.034,0.021-0.071,0.042-0.102,0.062
		c-0.107,0.072-0.204,0.151-0.281,0.235c-0.965,1.058-4.619,1.444-15.445,1.169c-0.152-0.126-0.303-0.249-0.453-0.362
		c-3.522-2.704-8.794-4.723-14.042-5.295c-4.548-0.499-9.59-0.096-13.433,1.748c-1.41,0.674-2.589,1.703-3.898,2.529
		c-6.975-0.356-14.953-0.776-24.072-1.261c-0.62-0.437-1.248-0.85-1.89-1.227c-2.621-1.541-5.369-1.923-8.43-1.777
		c-1.67,0.082-2.711,0.043-4.197,0.749c-0.614,0.29-1.099,0.889-1.616,1.397c-1.228-0.065-2.473-0.131-3.733-0.198
		c-0.884-1.002-1.38-2.253-3.784-1.588c-1.035,0.287-1.701,0.722-2.092,1.276c-9.719-0.516-20.394-1.08-32.118-1.692
		C10.77,0.404,0.5,7.886,0.5,14.285c0,6.399,10.27,13.883,15.039,13.633c2.619-0.137,5.171-0.269,7.687-0.401
		c0.438-0.025,0.879-0.048,1.315-0.07c0.784-0.041,1.557-0.081,2.332-0.122c0.823-0.044,1.643-0.087,2.455-0.13
		c0.65-0.034,1.293-0.067,1.937-0.102c0.702-0.037,1.401-0.073,2.094-0.11c0.859-0.044,1.713-0.091,2.56-0.135
		c0.56-0.028,1.113-0.06,1.667-0.09c0.875-0.044,1.744-0.091,2.605-0.136c0.177-0.011,0.351-0.019,0.528-0.028
		c4.535-0.24,8.874-0.471,13.028-0.69c1.226-0.066,2.437-0.131,3.629-0.193c1.792-0.095,3.552-0.19,5.273-0.281
		c2.023-0.106,4.002-0.212,5.93-0.314c0.052,0.017,0.104,0.037,0.158,0.052c0.089,0.027,0.182,0.046,0.273,0.066
		c0.079,0.018,0.155,0.038,0.236,0.053c0.097,0.017,0.197,0.023,0.295,0.035c0.079,0.009,0.157,0.018,0.238,0.022
		c0.105,0.007,0.214,0,0.323-0.005c0.08,0,0.158,0.003,0.239-0.004c0.116-0.007,0.239-0.029,0.359-0.047
		c0.078-0.012,0.154-0.019,0.235-0.034c0.138-0.026,0.283-0.067,0.427-0.108c0.068-0.019,0.132-0.028,0.201-0.051
		c0.146-0.045,0.296-0.105,0.447-0.162c6.638-0.353,12.681-0.672,18.182-0.958c0.05,0.042,0.101,0.079,0.149,0.121
		c0.056,0.042,0.109,0.083,0.164,0.127c0.249,0.196,0.492,0.383,0.73,0.561c0.063,0.047,0.127,0.096,0.189,0.143
		c0.27,0.198,0.533,0.381,0.789,0.55c0.057,0.037,0.111,0.072,0.166,0.105c0.231,0.146,0.455,0.282,0.671,0.4
		c0.036,0.021,0.073,0.043,0.108,0.061c0.237,0.125,0.461,0.225,0.678,0.306c0.05,0.019,0.1,0.035,0.149,0.05
		c0.217,0.075,0.427,0.132,0.621,0.152c0.311,0.033,0.613,0.051,0.909,0.055c0.127,0.002,0.248-0.008,0.372-0.01
		c0.166-0.005,0.333-0.005,0.493-0.017c0.141-0.013,0.275-0.035,0.411-0.054c0.138-0.017,0.278-0.027,0.412-0.052
		c0.143-0.024,0.277-0.064,0.416-0.095c0.122-0.028,0.249-0.051,0.369-0.086c0.137-0.036,0.269-0.085,0.402-0.129
		c0.114-0.039,0.231-0.072,0.343-0.114c0.131-0.052,0.257-0.11,0.386-0.168c0.107-0.047,0.218-0.089,0.322-0.14
		c0.126-0.061,0.247-0.133,0.37-0.198c0.102-0.054,0.206-0.108,0.305-0.167c0.12-0.07,0.235-0.148,0.352-0.226
		c0.096-0.063,0.195-0.122,0.289-0.19c0.114-0.081,0.225-0.166,0.336-0.252c0.091-0.069,0.184-0.137,0.274-0.21
		c0.109-0.088,0.215-0.181,0.321-0.275c0.087-0.074,0.174-0.147,0.258-0.227c0.106-0.095,0.208-0.196,0.311-0.299
		c0.08-0.077,0.163-0.154,0.242-0.236c0.039-0.041,0.078-0.082,0.116-0.123c3.486-0.172,6.694-0.327,9.641-0.464h0
		c3.292-0.152,6.266-0.282,8.943-0.387c2.312,1.74,4.634,3.624,7.042,4.811c-0.003,0-0.004,0-0.007,0
		c0.039,0.018,0.077,0.033,0.117,0.053c0.166,0.079,0.333,0.157,0.5,0.229c0.073,0.033,0.146,0.063,0.218,0.094
		c0.172,0.073,0.344,0.14,0.517,0.201c0.064,0.025,0.128,0.05,0.192,0.072c0.469,0.162,0.942,0.293,1.418,0.385
		c0.074,0.015,0.147,0.024,0.221,0.037c0.164,0.028,0.329,0.052,0.494,0.07c0.09,0.009,0.179,0.017,0.27,0.022
		c0.153,0.013,0.307,0.019,0.461,0.023c0.092,0.002,0.183,0.002,0.275,0.002c0.164-0.005,0.327-0.014,0.49-0.027
		c0.082-0.007,0.162-0.01,0.244-0.018c0.245-0.029,0.49-0.063,0.737-0.116c3.129-0.656,5.121-3.458,8.079-4.253
		c0.226-0.062,0.458-0.095,0.693-0.113c2.303,0.923,5.192,1.863,7.984,2.423l0.104,0.501c0.414,1.467,5.444,1.267,7.358,0.67
		c4.205-1.31,1.863-4.116,4.655-6.021c0.114-0.078,0.23-0.135,0.345-0.195c1.019-0.004,2.059-0.009,3.123-0.012
		c1.738,0.688,3.436,2.182,4.893,2.752c2.545,0.997,5.25,0.633,7.836,0.99c5.57,2.544,11.744,4.184,16.068,1.957
		c2.92-1.506,3.51-3.785,4.589-5.865c4.18-0.021,8.492-0.044,12.917-0.071c5.602,2.017,9.989,2.944,17.26,0.583
		c0.289-0.094,0.585-0.224,0.883-0.375c0.1-0.051,0.202-0.113,0.304-0.167c0.093-0.051,0.184-0.101,0.277-0.153
		c4.03-0.026,8.125-0.053,12.267-0.081c0.104,0.055,0.21,0.11,0.312,0.159c3.16,1.495,5.182,0.812,7.207-0.212
		c18.903-0.137,38.653-0.301,58.09-0.503c0.077,0,0.152,0,0.226-0.002c6.631-0.067,13.222-0.142,19.731-0.219c0,0,0,0,0.001,0
		c0.739-0.009,1.469-0.018,2.203-0.026c0.387-0.006,0.774-0.01,1.161-0.015c1.005-0.012,2.015-0.024,3.013-0.037
		c14.769-0.185,29.02-0.395,42.202-0.631c0.124-0.002,0.249-0.004,0.374-0.007c0,0,0,0-0.002,0
		c6.867-0.123,13.437-0.254,19.64-0.394c0.07-0.003,0.135-0.003,0.203-0.005c9.912-0.225,18.864-0.469,26.543-0.733
		c0.053-0.002,0.102-0.005,0.154-0.007c2.087-0.072,4.08-0.146,5.969-0.225c0.188-0.007,0.368-0.013,0.554-0.022
		c0.814-0.031,1.615-0.063,2.392-0.099c0.11-0.004,0.222-0.011,0.331-0.015c0.801-0.035,1.572-0.071,2.331-0.108
		c0.116-0.006,0.245-0.012,0.362-0.015v-0.002c4.523-0.218,8.239-0.451,11.009-0.697c0.004,0,0.006,0,0.008,0
		c0.824-0.073,1.559-0.149,2.21-0.224c0.059-0.007,0.109-0.015,0.168-0.021c0.249-0.031,0.488-0.059,0.709-0.089
		c0.08-0.013,0.156-0.023,0.231-0.032c0.188-0.027,0.365-0.053,0.528-0.082c0.08-0.013,0.152-0.024,0.227-0.037
		c0.144-0.026,0.28-0.051,0.407-0.077c0.068-0.015,0.134-0.026,0.196-0.042c0.117-0.025,0.219-0.05,0.314-0.076
		c0.052-0.014,0.104-0.028,0.149-0.041c0.092-0.028,0.168-0.057,0.236-0.083c0.031-0.013,0.068-0.025,0.094-0.035
		c0.083-0.039,0.151-0.081,0.19-0.122C454.35,15.452,454.35,13.118,453.698,12.453z M88.381,23.188
		c-0.386,0.132-0.801,0.184-1.212,0.19c-0.413,0.009-0.822-0.021-1.225-0.072c-0.812-0.101-1.611-0.285-2.389-0.521
		c-1.562-0.471-3.034-1.166-4.448-1.917c-1.406-0.766-2.762-1.594-4.096-2.483c-0.665-0.442-1.318-0.906-1.943-1.41
		c-0.626-0.499-1.218-1.039-1.783-1.604c-0.572-0.559-1.083-1.167-1.597-1.763c-0.51-0.602-1.01-1.21-1.509-1.817
		c-0.997-1.214-2.055-2.389-3.081-3.566l-1.533-1.752c-0.258-0.289-0.521-0.572-0.793-0.85c-0.267-0.279-0.539-0.552-0.821-0.815
		c-1.122-1.066-2.365-2.001-3.761-2.772c-0.021-0.012-0.03-0.038-0.017-0.061c0.011-0.019,0.034-0.026,0.055-0.021
		c1.551,0.454,2.972,1.312,4.212,2.333c0.309,0.256,0.611,0.524,0.902,0.798c0.288,0.277,0.568,0.563,0.842,0.853
		c0.549,0.579,1.053,1.193,1.529,1.823c0.946,1.265,1.754,2.61,2.707,3.85c0.944,1.246,2.008,2.412,3.216,3.398
		c0.603,0.495,1.244,0.947,1.888,1.389c0.647,0.438,1.305,0.864,1.974,1.276c0.668,0.412,1.35,0.807,2.039,1.191l2.062,1.162
		c1.369,0.774,2.757,1.499,4.207,2.087c0.726,0.29,1.467,0.54,2.228,0.735c0.764,0.193,1.534,0.354,2.325,0.251
		c0.026-0.005,0.049,0.015,0.053,0.039C88.415,23.16,88.402,23.181,88.381,23.188z M157.94,25.564
		c-0.656,0.323-1.409,0.484-2.16,0.461c-0.753-0.018-1.495-0.2-2.186-0.473c-0.695-0.271-1.349-0.618-1.979-0.994
		c-0.63-0.375-1.238-0.778-1.829-1.2c-1.185-0.833-2.324-1.709-3.512-2.479c-0.594-0.383-1.199-0.746-1.823-1.043
		c-0.622-0.296-1.276-0.526-1.921-0.629c-0.69-0.101-1.403-0.165-2.112-0.191c-0.711-0.025-1.427-0.017-2.146,0.002
		c-1.438,0.04-2.892,0.162-4.367,0.199c-1.472,0.038-2.979-0.022-4.442-0.357c-1.465-0.325-2.851-0.944-4.079-1.741
		c-1.219-0.767-2.441-1.527-3.713-2.208c-1.269-0.683-2.577-1.298-3.927-1.812c-0.675-0.252-1.361-0.48-2.054-0.682
		c-0.696-0.2-1.397-0.374-2.103-0.523c-1.414-0.306-2.838-0.515-4.281-0.679c-1.446-0.187-2.901-0.404-4.335-0.762
		c-0.716-0.179-1.427-0.386-2.125-0.633c-0.697-0.251-1.376-0.542-2.041-0.87c-1.33-0.653-2.503-1.518-3.749-2.185
		c-0.625-0.327-1.28-0.602-1.974-0.757c-0.691-0.16-1.415-0.202-2.14-0.155c-0.025,0.002-0.047-0.017-0.049-0.041
		c-0.002-0.024,0.016-0.045,0.038-0.049c0.72-0.137,1.471-0.172,2.211-0.068c0.741,0.102,1.462,0.334,2.137,0.637
		c0.677,0.3,1.316,0.658,1.945,1.009c0.632,0.351,1.257,0.683,1.905,0.978c1.29,0.586,2.65,1.028,4.042,1.353
		c1.394,0.323,2.819,0.556,4.252,0.794c1.439,0.238,2.884,0.542,4.293,0.937c0.706,0.196,1.404,0.416,2.093,0.658
		c0.691,0.236,1.374,0.492,2.048,0.767c2.702,1.089,5.273,2.45,7.797,3.867c1.234,0.709,2.576,1.199,3.966,1.45
		c1.39,0.258,2.819,0.286,4.253,0.219c1.436-0.064,2.885-0.219,4.359-0.293c1.473-0.075,2.967-0.045,4.458,0.181
		c0.792,0.139,1.514,0.421,2.191,0.755c0.678,0.336,1.309,0.729,1.91,1.147c1.207,0.839,2.316,1.759,3.444,2.637
		c1.13,0.872,2.265,1.742,3.548,2.339c0.641,0.293,1.313,0.527,2.017,0.603c0.702,0.082,1.425-0.009,2.103-0.252
		c0.024-0.008,0.052,0.004,0.061,0.025C157.971,25.529,157.961,25.555,157.94,25.564z M213.422,19.789
		c-0.429,0.051-0.865,0.057-1.3,0.035c-0.436-0.024-0.872-0.073-1.301-0.161c-0.861-0.168-1.695-0.446-2.496-0.782
		c-1.608-0.677-3.074-1.589-4.501-2.51l-2.108-1.409c-0.697-0.469-1.4-0.926-2.122-1.343c-0.721-0.418-1.46-0.8-2.222-1.125
		c-0.764-0.321-1.547-0.598-2.365-0.742c-0.817-0.134-1.665-0.148-2.506-0.05c-0.844,0.088-1.678,0.265-2.518,0.434
		c-0.84,0.174-1.688,0.346-2.566,0.422c-0.438,0.035-0.882,0.042-1.328,0.014c-0.455-0.033-0.877-0.1-1.31-0.179
		c-0.858-0.165-1.7-0.406-2.513-0.713c-0.405-0.153-0.808-0.319-1.204-0.493c-0.394-0.177-0.782-0.371-1.164-0.572
		c-1.516-0.818-2.946-1.82-4.094-3.073c-0.017-0.018-0.016-0.047,0.003-0.064c0.016-0.015,0.042-0.015,0.06-0.001
		c2.753,1.963,5.852,3.347,9.087,4.182c0.402,0.104,0.818,0.209,1.214,0.277c0.403,0.071,0.816,0.109,1.234,0.123
		c0.836,0.026,1.683-0.072,2.523-0.209c0.841-0.144,1.679-0.321,2.532-0.451c0.855-0.124,1.73-0.216,2.615-0.137
		c0.879,0.076,1.75,0.273,2.577,0.559c0.83,0.285,1.621,0.655,2.384,1.061c1.527,0.813,2.956,1.753,4.356,2.694
		c1.395,0.953,2.783,1.889,4.256,2.663c1.474,0.767,3.064,1.354,4.775,1.463c0.026,0.002,0.046,0.024,0.044,0.05
		C213.463,19.771,213.445,19.787,213.422,19.789z M243.619,19.789c-0.874-0.111-1.741-0.126-2.622-0.145
		c-0.879-0.025-1.777-0.06-2.683-0.233c-0.181-0.038-0.307-0.183-0.318-0.354l-0.002-0.028c-0.036-0.518-0.172-1.017-0.448-1.301
		c-0.265-0.29-0.721-0.408-1.257-0.455c-0.534-0.045-1.117-0.033-1.721-0.068c-0.301-0.018-0.61-0.044-0.924-0.099
		c-0.321-0.056-0.606-0.133-0.903-0.222c-0.588-0.178-1.182-0.438-1.683-0.82c-0.507-0.379-0.893-0.842-1.259-1.276
		c-0.365-0.44-0.729-0.87-1.133-1.269c-0.401-0.4-0.834-0.766-1.305-1.091c-0.935-0.655-2-1.125-3.103-1.445
		c-1.105-0.326-2.232-0.539-3.355-0.788l-3.399-0.722c-1.137-0.249-2.279-0.519-3.39-0.9c-0.025-0.007-0.038-0.035-0.029-0.059
		c0.008-0.02,0.028-0.032,0.048-0.029c1.171,0.097,2.328,0.208,3.487,0.352c1.158,0.142,2.319,0.309,3.469,0.565
		c1.151,0.251,2.276,0.641,3.35,1.127c1.074,0.485,2.108,1.035,3.089,1.667c0.981,0.634,1.891,1.391,2.726,2.189
		c0.421,0.393,0.825,0.774,1.269,1.055c0.44,0.288,0.934,0.479,1.465,0.614c0.546,0.138,1.051,0.205,1.619,0.209
		c0.562,0.011,1.146-0.016,1.776,0.042c0.313,0.029,0.643,0.085,0.976,0.207c0.334,0.118,0.668,0.328,0.91,0.615
		c0.244,0.285,0.384,0.619,0.461,0.937c0.052,0.214,0.079,0.426,0.091,0.631c0.717,0.179,1.468,0.29,2.228,0.409
		c0.868,0.14,1.759,0.289,2.592,0.598c0.025,0.008,0.036,0.035,0.027,0.058C243.663,19.78,243.64,19.792,243.619,19.789z
		 M265.771,19.789c-0.476,0.169-1.02,0.25-1.564,0.12c-0.55-0.124-1.025-0.471-1.389-0.841c-0.371-0.374-0.67-0.771-0.974-1.127
		c-0.306-0.354-0.615-0.666-0.969-0.882c-0.36-0.23-0.775-0.394-1.224-0.54c-0.45-0.146-0.938-0.265-1.431-0.432
		c-0.493-0.165-0.995-0.383-1.432-0.703c-0.111-0.077-0.214-0.162-0.319-0.254c-0.056-0.048-0.093-0.088-0.138-0.131
		c-0.056-0.052-0.093-0.093-0.14-0.143c-0.178-0.189-0.341-0.386-0.49-0.59c-0.598-0.814-1.03-1.693-1.734-2.355
		c-0.35-0.327-0.753-0.595-1.188-0.79c-0.429-0.193-0.902-0.342-1.36-0.495l-1.38-0.455c-0.463-0.145-0.93-0.281-1.399-0.401
		c-0.943-0.24-1.897-0.415-2.898-0.517c-0.026-0.002-0.046-0.027-0.042-0.051c0.002-0.021,0.018-0.037,0.036-0.04
		c0.99-0.246,2.039-0.222,3.05-0.082c0.505,0.077,1.008,0.179,1.499,0.32c0.491,0.134,0.972,0.309,1.433,0.526
		c0.459,0.222,0.904,0.463,1.329,0.766c0.419,0.304,0.802,0.644,1.14,1.018c0.687,0.728,1.212,1.578,1.906,2.234
		c0.172,0.164,0.351,0.319,0.537,0.462c0.046,0.032,0.099,0.074,0.138,0.1c0.05,0.033,0.104,0.075,0.148,0.101
		c0.089,0.057,0.187,0.12,0.286,0.171c0.396,0.216,0.822,0.371,1.284,0.489c0.458,0.12,0.945,0.21,1.449,0.345
		c0.505,0.13,1.029,0.329,1.497,0.642c0.479,0.32,0.844,0.743,1.136,1.157c0.297,0.413,0.54,0.829,0.812,1.195
		c0.271,0.365,0.578,0.677,0.981,0.864c0.404,0.189,0.892,0.242,1.391,0.228c0.026,0,0.047,0.021,0.048,0.045
		C265.802,19.765,265.787,19.783,265.771,19.789z M373.267,18.427c-0.642,0.281-1.356,0.425-2.07,0.415
		c-0.715-0.006-1.42-0.139-2.103-0.31c-1.364-0.335-2.678-0.84-4.024-0.898c-0.67-0.024-1.354,0.029-2.025,0.136
		c-0.675,0.103-1.345,0.271-2.047,0.398c-0.698,0.129-1.438,0.207-2.178,0.157c-0.737-0.043-1.464-0.218-2.142-0.436
		c-1.368-0.433-2.617-1.057-3.908-1.33c-0.646-0.138-1.297-0.199-1.953-0.163c-0.162,0.01-0.33,0.023-0.49,0.04
		c-0.169,0.02-0.323,0.042-0.482,0.07c-0.314,0.062-0.628,0.148-0.938,0.256c-1.24,0.43-2.394,1.175-3.666,1.814
		c-0.636,0.321-1.31,0.615-2.043,0.798c-0.732,0.187-1.527,0.224-2.283,0.095l-0.01-0.003c-0.178-0.03-0.316-0.152-0.369-0.308
		c-0.212-0.611-0.617-1.153-1.146-1.593c-0.524-0.439-1.155-0.786-1.825-1.062c-1.344-0.545-2.819-0.839-4.302-1.024
		c-1.485-0.191-2.993-0.263-4.502-0.265c-1.509,0.002-3.022,0.053-4.531,0.18c-0.752,0.062-1.506,0.141-2.255,0.244
		c-0.747,0.1-1.484,0.242-2.233,0.391c-0.747,0.145-1.502,0.283-2.268,0.362c-0.767,0.081-1.554,0.088-2.321-0.053
		c-0.766-0.131-1.509-0.419-2.159-0.828c-0.653-0.402-1.253-0.875-1.811-1.383c-0.56-0.507-1.079-1.045-1.672-1.483
		c-0.586-0.443-1.247-0.779-1.959-0.986c-0.705-0.21-1.452-0.317-2.194-0.368c-0.744-0.052-1.495-0.033-2.237,0.036
		c-1.487,0.14-2.948,0.5-4.393,0.918c-1.45,0.413-2.893,0.893-4.378,1.274c-1.484,0.389-3.02,0.681-4.589,0.725
		c-1.561,0.047-3.159-0.158-4.625-0.739c-1.471-0.566-2.742-1.446-3.984-2.286c-0.624-0.417-1.242-0.834-1.887-1.201
		c-0.646-0.365-1.318-0.681-2.025-0.909c-0.705-0.228-1.443-0.358-2.194-0.382c-0.748-0.025-1.503,0.044-2.248,0.187
		c-0.026,0.004-0.049-0.012-0.055-0.038c-0.004-0.021,0.012-0.043,0.034-0.052c1.463-0.417,3.068-0.479,4.576-0.079
		c1.516,0.391,2.859,1.198,4.134,1.994c1.274,0.802,2.539,1.601,3.917,2.106c0.688,0.253,1.392,0.419,2.124,0.515
		c0.729,0.094,1.468,0.131,2.206,0.1c1.478-0.055,2.945-0.356,4.399-0.723c1.456-0.375,2.907-0.817,4.39-1.198
		c1.483-0.371,3.004-0.681,4.553-0.769c0.773-0.042,1.554-0.029,2.324,0.054c0.77,0.085,1.536,0.227,2.276,0.477
		c0.736,0.246,1.437,0.616,2.037,1.096c0.604,0.476,1.127,1.021,1.673,1.523c1.079,1.005,2.34,1.907,3.819,2.136
		c0.732,0.119,1.484,0.099,2.229,0.009c0.745-0.09,1.479-0.258,2.223-0.425c0.737-0.17,1.485-0.34,2.243-0.467
		c0.754-0.126,1.51-0.235,2.271-0.325c3.039-0.361,6.116-0.482,9.193-0.178c1.531,0.171,3.073,0.45,4.548,1.027
		c0.737,0.289,1.455,0.662,2.09,1.179c0.555,0.449,1.038,1.029,1.339,1.697c0.536,0.052,1.075,0,1.607-0.129
		c0.624-0.158,1.229-0.421,1.832-0.724c1.202-0.607,2.395-1.386,3.8-1.854c0.352-0.118,0.714-0.213,1.085-0.279
		c0.185-0.034,0.373-0.057,0.552-0.075c0.189-0.021,0.371-0.033,0.556-0.042c0.742-0.028,1.493,0.046,2.209,0.219
		c1.439,0.347,2.685,1.014,3.962,1.447c0.643,0.225,1.28,0.393,1.938,0.449c0.655,0.062,1.32,0.009,1.995-0.099
		c0.674-0.105,1.368-0.242,2.079-0.325c0.712-0.084,1.429-0.11,2.152-0.055c1.463,0.132,2.772,0.689,4.084,1.098
		c0.656,0.204,1.327,0.368,2.013,0.411c0.683,0.045,1.376-0.04,2.029-0.271c0.023-0.009,0.051,0.002,0.059,0.025
		C373.302,18.392,373.29,18.418,373.267,18.427z"/>
</g>
<g id="Layer_1">
</g>
</svg>
