<?xml version="1.0" encoding="iso-8859-1"?>
<!-- Generator: Adobe Illustrator 16.0.0, SVG Export Plug-In . SVG Version: 6.00 Build 0)  -->
<!DOCTYPE svg PUBLIC "-//W3C//DTD SVG 1.1//EN" "http://www.w3.org/Graphics/SVG/1.1/DTD/svg11.dtd">
<svg id="wand04original" version="1.1" xmlns="http://www.w3.org/2000/svg" xmlns:xlink="http://www.w3.org/1999/xlink" x="0px" y="0px"
	 width="437.273px" height="39.175px" viewBox="0 0 437.273 39.175" style="enable-background:new 0 0 437.273 39.175;"
	 xml:space="preserve">
<g id="Layer_4">
	<path d="M62.73,26.552c-1.024,2.453-2.335,4.821-3.731,7.094c-1.549,2.519-4.542,3.692-7.406,4.063
		c-2.27,0.293-6.124,0.432-8.032-0.977c-1.753-1.294-1.971-5.439,0.813-5.527l0.023-0.201c-2.381-0.59-3.443,2.17-3.318,4.01
		c0.104,1.546,0.939,2.864,2.316,3.661c-3.209-0.397-6.369-1.116-9.5-1.895c-3.382-0.843-6.934-2.253-10.43-2.224
		c-3.479,0.03-6.96-0.017-10.435-0.209c-1.58-0.088-3.157-0.205-4.731-0.366c-0.989-0.101-3.476,0.018-4.19-0.663
		c-1.264-0.646-1.565-2.3-1.655-3.552c-0.133-1.873-0.785-3.785-1.08-5.651H1.372c-0.342-2.229-0.631-4.478-0.755-6.729l0.001,0
		C0.5,15.545,0.43,13.68,0.607,11.841c0.094-0.968,0.161-2.363,1.19-2.824C3.975,8.041,6.344,7.526,8.713,7.24
		c5.74-0.691,11.599-0.188,17.336,0.286c11.663,0.964,25.145,3.09,36.093-2.165c1.093-0.524,2.147-1.129,3.143-1.814
		c1.281-0.882,2.29-2.048,3.514-2.97c-0.844,5.097-2.636,9.926-3.355,15.045C64.919,19.369,64.205,23.031,62.73,26.552z
		 M62.73,26.552C62.237,27.732,63.224,25.372,62.73,26.552L62.73,26.552z M147.133,35.12c-0.019-0.231-0.069-0.456-0.151-0.676
		c0.005,0.016,0.007,0.021-0.001-0.004c-0.162-0.475-0.044-0.129-0.006-0.015c-1.275-3.711-3.967-7.541-6.494-10.51
		c-1.757-2.063-3.774-3.854-5.694-5.765c-1.893-1.884-3.727-3.825-5.692-5.639c-3.864-3.567-8.717-6.633-14.106-7.289
		c-2.159-0.263-5.85,0.059-6.249,2.781c-0.224,1.534,2.188,5.53,4.188,4.605l0.111,0.171c-1.971,1.619-4.922-1.969-5.558-3.522
		c-1.056-2.599,1.294-5.051,3.682-5.805c-2.203-0.333-4.485-0.546-6.845-0.644c0-0.001,0-0.002,0-0.003
		c-11.818-0.471-23.651,1.49-35.235,3.55c-0.325,2.516-1.004,5.037-1.495,7.531c-0.374,1.895-0.909,3.729-1.566,5.546
		c-1.572,4.348-2.955,8.795-4.694,13.081c29.241-2.124,60.708-4.323,81.82,2.037c-0.432-0.273-0.865-0.562-1.337-0.767
		c-0.419-0.171-0.722-0.035-1.054-0.172C141.612,32.173,145.92,35.216,147.133,35.12z M69.216,2.44
		c0.035-0.405,0.043-0.606,0.042-0.693c0.03-0.87-0.071-1.336-0.348-1.232l0.108,0.001C69.117,1.153,69.181,1.796,69.216,2.44z
		 M436.065,18.197c-0.882-0.407-1.947-0.426-2.902-0.486c-4.696-0.293-1.134-0.07-0.083-0.005
		c-17.328-1.078-34.68-1.785-52.032-2.355v0c-3.393-0.11-6.787-0.215-10.182-0.315v0c-35.733-0.98-71.475-1.547-107.221-1.771
		c-3.439-0.021-6.878-0.036-10.317-0.057v0c-0.848-0.004-1.697-0.007-2.543-0.011c0,0,0,0,0,0
		c-27.771-0.162-55.535,0.218-83.303,0.218c-1.807,2.298-3.622,4.582-5.718,6.637c-1.928,1.887-3.629,4.001-5.564,5.866
		c34.771,0.456,69.548,0.504,104.322,0.302c26.079-0.152,52.16-0.459,78.234-0.995l0,0c8.784-0.208,17.568-0.389,26.353-0.632v0.001
		c6.305-0.177,12.61-0.365,18.914-0.58l0,0c0.915-0.032,1.829-0.062,2.743-0.094v-0.001c4.058-0.142,8.112-0.291,12.169-0.456
		v-0.001c3.202-0.127,6.35-0.261,9.439-0.4v0.001c4.392-0.183,8.783-0.419,13.176-0.643v-0.001c3.83-0.202,7.545-0.415,11.126-0.638
		v0.001c1.294-0.081,4.09,0.097,4.09-1.694C436.766,19.303,436.903,18.585,436.065,18.197z M158.296,22.599
		C158.021,22.848,158.573,22.354,158.296,22.599L158.296,22.599z M150.784,23.598c-0.205,1.03,0.149,2.156,1.366,2.202
		c2.219,0.117,4.623-1.823,6.146-3.201c2.753-2.437,4.32-6.062,6.361-9.044c1.09-1.594,2.313-3.094,3.741-4.414
		c0.815-0.752,1.983-1.412,2.524-2.39c-0.434-0.283-1.192-0.051-1.611,0.137l-0.129-0.159c0.105-0.126,0.24-0.233,0.374-0.338
		c-6.288,2.096-13.019,2.767-19.627,2.959c-7.576,0.221-15.309-0.054-22.843-0.872c3.545,2.938,5.809,7.037,9.12,10.2
		c3.413,3.26,7.396,5.751,9.82,9.887c1.741-0.271,3.438-0.637,5.109-1.197c-1.222-0.458-1.881-1.643-1.736-2.9
		c0.098-0.885,1.345-3.361,2.574-2.184C151.526,22.803,150.991,22.589,150.784,23.598z" fill="#5566FF"/>
</g>
<g id="Layer_1">
</g>
</svg>
