<?xml version="1.0" encoding="iso-8859-1"?>
<!-- Generator: Adobe Illustrator 16.0.0, SVG Export Plug-In . SVG Version: 6.00 Build 0)  -->
<!DOCTYPE svg PUBLIC "-//W3C//DTD SVG 1.1//EN" "http://www.w3.org/Graphics/SVG/1.1/DTD/svg11.dtd">
<svg id="wand06original" version="1.1" xmlns="http://www.w3.org/2000/svg" xmlns:xlink="http://www.w3.org/1999/xlink" x="0px" y="0px"
	 width="408.241px" height="45.698px" viewBox="0 0 408.241 45.698" style="enable-background:new 0 0 408.241 45.698;"
	 xml:space="preserve">
<g id="Layer_6">
	<path d="M407.283,21.519c-0.037-0.038-0.096-0.074-0.171-0.111c-0.021-0.011-0.055-0.021-0.079-0.032
		c-0.065-0.026-0.131-0.052-0.216-0.078c-0.036-0.013-0.081-0.023-0.121-0.034c-0.091-0.026-0.184-0.05-0.292-0.076
		c-0.053-0.011-0.11-0.023-0.163-0.035c-0.115-0.024-0.232-0.048-0.364-0.071c-0.022-0.005-0.041-0.01-0.066-0.014v0.002
		c-2.207-0.393-6.749-0.749-13.174-1.076c-1.073-0.056-2.205-0.108-3.381-0.162c-0.081-0.003-0.164-0.007-0.244-0.01
		c-0.499-0.022-1.008-0.045-1.525-0.066c-0.127-0.006-0.255-0.012-0.384-0.018c-0.263-0.01-0.521-0.021-0.789-0.032
		c0,0.001,0,0.001,0,0.001c-2.193-0.091-4.527-0.178-7.005-0.263c0-0.001,0-0.001,0-0.001c-0.054-0.002-0.11-0.004-0.164-0.006
		c-0.906-0.031-1.833-0.061-2.776-0.092c-0.181-0.006-0.362-0.011-0.544-0.016c-0.908-0.03-1.831-0.058-2.771-0.087
		c-0.069-0.002-0.133-0.005-0.2-0.007c-2.553-0.077-5.216-0.151-7.983-0.224c-0.378-0.01-0.765-0.019-1.145-0.03
		c-0.52-0.013-1.035-0.026-1.561-0.039c-0.598-0.015-1.206-0.03-1.813-0.045c-0.393-0.01-0.787-0.019-1.183-0.029
		c-0.572-0.014-1.149-0.026-1.729-0.041c-0.474-0.01-0.951-0.021-1.432-0.033c-0.537-0.013-1.071-0.024-1.614-0.036
		c-0.665-0.016-1.34-0.03-2.015-0.044c-0.334-0.007-0.657-0.016-0.994-0.022c-2.432-0.053-4.924-0.103-7.459-0.154
		c-0.231-0.004-0.467-0.009-0.699-0.014c-0.566-0.011-1.137-0.021-1.707-0.033c-0.261-0.004-0.519-0.011-0.781-0.015
		c-2.624-0.05-5.298-0.099-8.018-0.147c-0.559-0.009-1.131-0.019-1.692-0.029c-0.575-0.009-1.157-0.021-1.737-0.029
		c-0.525-0.008-1.051-0.018-1.58-0.026c-1.014-0.017-2.033-0.034-3.055-0.05c-0.315-0.005-0.625-0.01-0.94-0.016c0,0,0,0,0,0.001
		c-2.715-0.043-5.47-0.085-8.253-0.127c-0.96-0.013-1.925-0.029-2.892-0.041c-4.04-0.059-8.138-0.115-12.285-0.168
		c-0.344-0.005-0.687-0.01-1.033-0.014c-2.453-0.032-4.924-0.063-7.408-0.092c-0.452-0.006-0.911-0.011-1.367-0.017
		c-1.519-0.018-3.042-0.036-4.567-0.054c-0.647-0.007-1.291-0.015-1.939-0.023c-4.638-0.052-9.308-0.103-13.998-0.152
		c-0.014,0-0.029,0-0.041,0c-3.531-0.036-7.069-0.071-10.611-0.105c-0.064,0-0.127-0.001-0.192-0.001
		c-2.99-0.028-5.981-0.056-8.971-0.083c-0.164-0.001-0.327-0.003-0.492-0.005c-4.639-0.042-9.264-0.08-13.863-0.117
		c-0.217-0.001-0.435-0.005-0.65-0.007c0,0,0,0,0,0.001c-7.141-0.059-14.211-0.111-21.145-0.16c-0.441-0.003-0.889-0.006-1.328-0.01
		c0,0,0,0,0,0.001c-7.217-0.051-14.276-0.098-21.109-0.139c-0.329-0.002-0.65-0.004-0.977-0.007
		c-1.222-0.007-2.438-0.013-3.644-0.021c-0.289-0.002-0.585-0.004-0.872-0.005c-18.358-0.108-34.82-0.189-47.825-0.249
		c-0.758-0.003-1.5-0.007-2.235-0.009c-15.434-0.071-25.541-0.113-27.42-0.146c-0.018,0-0.029,0-0.046,0
		c-0.06-0.002-0.113-0.003-0.153-0.004l-0.098-0.003c-0.007-0.002-0.011-0.002-0.014-0.002c-0.004-0.001,0-0.001,0.011-0.003
		c0.005,0,0.009,0,0.02-0.001c0.018-0.001,0.047-0.002,0.079-0.002c0.017,0,0.03-0.001,0.049-0.002
		c-2.229,0.031-4.379,0.071-6.478,0.117c0.004-0.014,0.01-0.024,0.015-0.037c0.721-2.29-1.19-5.731-3.443-6.336
		c-1.667-0.447-2.565,1.215-3.709,0.926c-0.636-0.161-1.149-0.957-1.509-1.628c-0.012-0.375-0.038-0.74-0.091-1.094
		c-0.498-3.276-2.445-7.107-6.222-7.686c-4.44-0.681-7.224,0.598-8.013,4.749c-0.772,4.07-1.489,5.44-5.811,6.785
		c-1.621,0.504-3.832,1.427-5.542,0.733c-0.175-0.071-0.328-0.156-0.477-0.243c0.794-0.926,1.097-2.275,0.118-3.879
		c-1.429-2.342-3.845-2.968-6.301-2.484c-0.08,0-0.162-0.012-0.241-0.008c-4.233,0.202-5.239,2.303-8.519,4.236
		c-3.01,1.772-7.756,0.781-11.115,2.034c-3.361,1.251-6.246,2.617-8.418,4.953c-1.005,0.451-1.938,0.831-3.281,0.75
		c-3.792-0.226-4.749-4.373-8.755-4.292c-3.954,0.08-6.311,3.656-10.368,3.619c-2.614-0.022-4.353-1.057-5.877-2.539
		c1.908,0.049,0.648-3.896-2.033-3.49c-2.979,0.452-1.665,4.333-1.034,6.175c2.156,6.295,7.849,7.744,13.313,10.237
		c1.71,0.781,2.903,1.966,3.964,3.505c-1.952-0.84-2.986,0.886-3.5,2.527c-0.55,1.751-0.147,3.553,1.387,4.818
		c2.473,2.038,6.722,2.349,9.648,1.521c-1.022,2.604,2.291,4.442,3.261,1.338c0.478-1.533,1.021-2.843,1.847-4.047
		c0.719-0.457,1.411-0.962,2.092-1.479c1.225-0.726,2.506-1.335,3.651-1.865c6.585-3.052,14.369-4.546,21.605-4.286
		c8.917,0.321,17.195,1.328,25.752,3.568c3.968,1.877,7.889,4.038,11.869,5.91c0.141,0.427,0.325,0.85,0.582,1.262
		c1.679,2.691,4.812,3.521,7.688,3.973c0.349,0.056,0.709,0.104,1.077,0.15c0.113,0.014,0.229,0.024,0.343,0.038
		c0.264,0.029,0.528,0.059,0.799,0.085c0.132,0.013,0.263,0.021,0.396,0.032c0.271,0.024,0.548,0.043,0.826,0.061
		c0.124,0.006,0.246,0.015,0.372,0.021c0.365,0.02,0.734,0.035,1.108,0.043c0.036,0.002,0.073,0.004,0.109,0.004
		c0.417,0.01,0.836,0.012,1.259,0.01c0.104-0.002,0.207-0.006,0.31-0.008c0.321-0.004,0.645-0.014,0.968-0.027
		c0.131-0.003,0.262-0.012,0.393-0.017c0.309-0.016,0.62-0.035,0.93-0.058c0.124-0.01,0.247-0.018,0.37-0.028
		c0.375-0.032,0.75-0.068,1.124-0.11c0.044-0.007,0.087-0.009,0.131-0.015h-0.001c2.242-0.266,4.448-0.742,6.433-1.481
		c-0.001,0-0.002,0.002-0.004,0.002c0.007-0.002,0.013-0.006,0.019-0.008c0.243-0.091,0.48-0.191,0.716-0.289
		c0.086-0.037,0.175-0.069,0.26-0.106c0.23-0.101,0.454-0.21,0.676-0.318c0.083-0.042,0.172-0.079,0.253-0.121
		c0.216-0.109,0.422-0.228,0.63-0.347c0.084-0.047,0.172-0.091,0.255-0.142c0.199-0.117,0.389-0.244,0.579-0.371
		c0.083-0.056,0.17-0.106,0.252-0.163c0.185-0.127,0.358-0.267,0.533-0.403c0.078-0.061,0.162-0.117,0.239-0.182
		c0.17-0.141,0.33-0.29,0.49-0.439c0.073-0.064,0.149-0.129,0.219-0.196c0.153-0.152,0.294-0.31,0.436-0.469
		c0.067-0.075,0.14-0.144,0.206-0.222c0.135-0.161,0.258-0.333,0.383-0.501c0.06-0.081,0.126-0.158,0.183-0.242
		c0.119-0.174,0.223-0.354,0.329-0.535c0.053-0.089,0.111-0.173,0.16-0.265c0.047-0.085,0.083-0.178,0.127-0.266
		c0.217-0.253,0.433-0.509,0.614-0.771c1.261-1.822,2.019-4.759,1.422-7.138c2.991-0.015,6.235-0.027,9.714-0.044l0-0.001
		c2.531-0.012,5.187-0.023,7.952-0.038c0.811-0.003,1.637-0.007,2.467-0.012c8.953-0.044,18.981-0.095,29.758-0.156
		c0.125-0.002,0.252-0.002,0.375-0.003c1.284-0.007,2.581-0.014,3.884-0.022c0.359-0.001,0.719-0.004,1.079-0.006
		c0.906-0.004,1.818-0.011,2.732-0.017c0.523-0.003,1.039-0.006,1.564-0.01c7.412-0.044,15.106-0.095,22.984-0.149
		c0.536-0.004,1.076-0.007,1.615-0.011c0.762-0.006,1.525-0.013,2.291-0.019c0.249-0.001,0.496-0.003,0.744-0.004
		c13.153-0.096,26.754-0.207,40.354-0.335c0.321-0.003,0.643-0.005,0.964-0.009c2.756-0.025,5.512-0.054,8.265-0.082v0.001
		c0.082-0.002,0.166-0.002,0.248-0.003c2.338-0.022,4.672-0.047,7.001-0.073v0.002c0.304-0.004,0.602-0.007,0.903-0.011
		c3.595-0.039,7.177-0.078,10.736-0.119c0.253-0.003,0.511-0.005,0.764-0.008c0,0,0,0,0-0.001c2.635-0.031,5.256-0.063,7.86-0.095
		c1.251-0.016,2.499-0.03,3.743-0.047V28.69c2.688-0.033,5.358-0.068,8.007-0.105c1.077-0.014,2.153-0.03,3.224-0.043v-0.001
		c4.081-0.058,8.105-0.117,12.055-0.18c0.448-0.008,0.894-0.015,1.34-0.021c1.007-0.015,2.006-0.031,3.001-0.048
		c0.312-0.006,0.63-0.009,0.94-0.014c2.788-0.047,5.53-0.095,8.229-0.143c0.214-0.004,0.421-0.008,0.636-0.012
		c1.575-0.028,3.133-0.058,4.676-0.087c0.196-0.004,0.399-0.007,0.595-0.011v-0.001c2.456-0.046,4.871-0.095,7.235-0.144v0.001
		c1.793-0.038,3.552-0.077,5.288-0.115c0.188-0.003,0.378-0.008,0.565-0.011c0.411-0.009,0.812-0.021,1.219-0.029
		c0.56-0.011,1.122-0.025,1.675-0.038c0.249-0.006,0.495-0.012,0.742-0.018c3.624-0.086,7.103-0.174,10.417-0.265
		c0.205-0.007,0.404-0.012,0.611-0.019c0.518-0.014,1.034-0.028,1.545-0.043c0.33-0.011,0.653-0.021,0.979-0.028
		c0.454-0.014,0.906-0.027,1.352-0.041c0.406-0.012,0.805-0.023,1.202-0.036c0.365-0.011,0.73-0.022,1.091-0.033
		c0.412-0.013,0.817-0.027,1.225-0.039c0.385-0.013,0.766-0.025,1.144-0.037c0.125-0.005,0.255-0.008,0.379-0.013v-0.001
		c2.501-0.082,4.874-0.168,7.103-0.256c0,0.001,0,0.001,0,0.001c0.052-0.002,0.099-0.006,0.147-0.007
		c0.495-0.02,0.979-0.039,1.458-0.059c0.208-0.008,0.417-0.017,0.621-0.025c0.498-0.021,0.982-0.043,1.461-0.063
		c0.135-0.006,0.275-0.012,0.41-0.018c7.408-0.33,12.859-0.695,15.813-1.094c0,0,0,0,0,0.001c0.199-0.027,0.383-0.056,0.558-0.082
		c0.058-0.009,0.108-0.018,0.164-0.025c0.132-0.023,0.258-0.043,0.376-0.065c0.056-0.01,0.109-0.021,0.162-0.03
		c0.13-0.025,0.246-0.051,0.357-0.076c0.021-0.004,0.048-0.01,0.069-0.015c0.125-0.03,0.233-0.062,0.33-0.091
		c0.029-0.01,0.054-0.019,0.08-0.027c0.067-0.023,0.127-0.047,0.179-0.069c0.022-0.01,0.043-0.021,0.061-0.029
		c0.06-0.031,0.11-0.063,0.142-0.094C407.895,24.361,407.895,22.15,407.283,21.519z"/>
</g>
<g id="Layer_1">
</g>
</svg>
