<?xml version="1.0" encoding="iso-8859-1"?>
<!-- Generator: Adobe Illustrator 16.0.0, SVG Export Plug-In . SVG Version: 6.00 Build 0)  -->
<!DOCTYPE svg PUBLIC "-//W3C//DTD SVG 1.1//EN" "http://www.w3.org/Graphics/SVG/1.1/DTD/svg11.dtd">
<svg id="wand07original" version="1.1" xmlns="http://www.w3.org/2000/svg" xmlns:xlink="http://www.w3.org/1999/xlink" x="0px" y="0px"
	 width="428.959px" height="36.695px" viewBox="0 0 428.959 36.695" style="enable-background:new 0 0 428.959 36.695;"
	 xml:space="preserve">
<g id="Layer_7">
	<path d="M427.976,16.526c-0.033-0.033-0.086-0.065-0.147-0.098c-0.018-0.009-0.037-0.02-0.059-0.029
		c-0.059-0.024-0.125-0.051-0.203-0.079c-0.021-0.007-0.037-0.014-0.059-0.021c-0.103-0.033-0.222-0.066-0.353-0.097
		c-0.029-0.007-0.062-0.012-0.092-0.021c-0.112-0.024-0.233-0.051-0.366-0.076c-0.045-0.009-0.088-0.018-0.13-0.026
		c-0.172-0.032-0.354-0.063-0.556-0.093c-0.201-0.033-0.419-0.063-0.647-0.094c-0.058-0.008-0.12-0.015-0.183-0.024
		c-0.195-0.026-0.403-0.051-0.618-0.076c-0.049-0.005-0.095-0.012-0.144-0.017c-0.266-0.031-0.546-0.06-0.838-0.09
		c-0.059-0.005-0.119-0.012-0.178-0.017c-0.249-0.026-0.509-0.049-0.775-0.075c-0.076-0.008-0.152-0.014-0.23-0.021
		c-0.333-0.028-0.672-0.059-1.03-0.088c-0.006,0-0.014-0.002-0.02-0.002c-0.349-0.029-0.715-0.056-1.091-0.085
		c-0.092-0.007-0.186-0.013-0.281-0.021c-0.345-0.025-0.695-0.05-1.058-0.075c-0.051-0.004-0.1-0.008-0.152-0.01
		c-0.423-0.03-0.865-0.059-1.317-0.086c-0.071-0.006-0.142-0.009-0.21-0.014c-0.388-0.025-0.781-0.049-1.187-0.073
		c-0.104-0.006-0.203-0.01-0.305-0.017c-0.966-0.055-1.983-0.111-3.049-0.165c-0.088-0.003-0.178-0.009-0.268-0.013
		c-0.52-0.027-1.052-0.054-1.6-0.08c-0.014-0.001-0.029-0.001-0.045-0.001c-0.6-0.029-1.216-0.058-1.845-0.086
		c-0.006,0-0.012,0-0.02,0c-0.604-0.027-1.222-0.053-1.852-0.08c-0.047-0.002-0.092-0.004-0.136-0.006
		c-2.508-0.105-5.203-0.207-8.079-0.307v0.002c-10.501-0.362-23.35-0.681-37.726-0.962c-0.046,0-0.095-0.002-0.141-0.002
		c-1.875-0.038-3.781-0.072-5.708-0.109c-0.189-0.003-0.38-0.007-0.573-0.01c-1.864-0.034-3.752-0.068-5.66-0.101
		c-0.231-0.004-0.466-0.008-0.701-0.012c-1.898-0.032-3.815-0.064-5.755-0.095c-0.251-0.006-0.502-0.008-0.755-0.014
		c-1.969-0.03-3.957-0.064-5.964-0.094c-0.065,0-0.132-0.002-0.2-0.002c-25.515-0.389-53.788-0.69-81.388-0.924
		c-0.008,0-0.016,0-0.022,0c-3.624-0.031-7.232-0.06-10.823-0.088c-0.248-0.002-0.495-0.004-0.741-0.006
		c-28.438-0.224-55.612-0.378-77.649-0.489c0.001,0,0.002,0,0.003,0c-15.441-0.076-28.35-0.132-37.411-0.174
		c-0.573-0.002-1.129-0.004-1.67-0.007c-0.25-4.836-0.878-8.482-2.356-6.45c-1.6,2.203-23.81,4.608-80.636,2.087
		c0-0.008,0-0.018,0-0.025h0c-0.003-0.102-0.005-0.199-0.007-0.299c-0.003-0.138-0.006-0.276-0.009-0.41
		c-0.003-0.122-0.005-0.24-0.008-0.358c-0.004-0.154-0.008-0.307-0.013-0.458c-0.003-0.1-0.005-0.2-0.009-0.298
		c-0.005-0.17-0.011-0.339-0.016-0.503c-0.002-0.073-0.005-0.148-0.008-0.219c-0.007-0.214-0.015-0.419-0.023-0.619
		c-0.001-0.019-0.001-0.042-0.002-0.062c-0.01-0.224-0.02-0.437-0.03-0.642c-0.001-0.028-0.003-0.056-0.004-0.082
		c-0.008-0.169-0.018-0.33-0.028-0.483c-0.002-0.049-0.005-0.094-0.009-0.14c-0.008-0.127-0.016-0.246-0.025-0.361
		c-0.004-0.054-0.008-0.104-0.012-0.153c-0.008-0.1-0.017-0.196-0.026-0.286c-0.005-0.046-0.009-0.092-0.014-0.135
		c-0.009-0.088-0.019-0.168-0.029-0.245c-0.003-0.033-0.008-0.067-0.012-0.098c-0.013-0.092-0.026-0.172-0.041-0.241
		c-0.001-0.008-0.002-0.016-0.003-0.021c-0.016-0.075-0.032-0.132-0.048-0.176c-0.005-0.015-0.01-0.021-0.015-0.033
		c-0.012-0.025-0.024-0.047-0.037-0.059c-0.007-0.006-0.014-0.006-0.02-0.007c-0.012-0.004-0.023-0.002-0.036,0.007
		c-0.007,0.005-0.014,0.014-0.022,0.023c-0.012,0.017-0.025,0.042-0.038,0.072c-0.008,0.018-0.016,0.035-0.023,0.056
		c-0.015,0.04-0.029,0.094-0.043,0.15c-0.007,0.026-0.014,0.047-0.021,0.078C42.326,0.983,42.303,1.09,42.28,1.22
		c-0.601,3.337-10.467,7.044-37.141,0C5.083,1.205,5.028,1.218,4.976,1.245C4.967,1.251,4.958,1.255,4.949,1.26
		c-0.051,0.035-0.1,0.088-0.147,0.16C4.794,1.432,4.787,1.444,4.779,1.458C4.68,1.623,4.587,1.87,4.502,2.19
		c-0.003,0.012-0.006,0.023-0.01,0.033C4.45,2.39,4.409,2.571,4.368,2.773C4.366,2.786,4.364,2.798,4.362,2.809
		c-0.123,0.632-0.229,1.428-0.319,2.35C3.392,5.521,2.85,6.171,2.398,7.026C2.385,7.051,2.373,7.074,2.359,7.099
		C2.261,7.291,2.167,7.494,2.077,7.703C2.058,7.748,2.039,7.795,2.02,7.841C1.935,8.047,1.854,8.263,1.777,8.487
		C1.758,8.539,1.741,8.593,1.724,8.646C1.648,8.873,1.575,9.106,1.508,9.35C1.497,9.39,1.487,9.43,1.476,9.47
		c-0.208,0.769-0.379,1.597-0.516,2.467c-0.014,0.086-0.03,0.172-0.042,0.259c-0.032,0.213-0.06,0.43-0.087,0.646
		c-0.019,0.153-0.039,0.305-0.058,0.461c-0.022,0.195-0.042,0.393-0.062,0.59c-0.017,0.182-0.034,0.364-0.05,0.545
		c-0.016,0.182-0.03,0.364-0.043,0.549c-0.014,0.208-0.028,0.417-0.039,0.626c-0.01,0.163-0.02,0.326-0.027,0.489
		c-0.012,0.243-0.02,0.484-0.026,0.728c-0.004,0.132-0.01,0.265-0.013,0.395c-0.008,0.375-0.014,0.75-0.014,1.12
		c0,0.368,0.005,0.742,0.014,1.117c0.002,0.131,0.009,0.263,0.013,0.396c0.006,0.243,0.015,0.485,0.026,0.729
		c0.007,0.162,0.017,0.326,0.027,0.489c0.011,0.209,0.024,0.418,0.039,0.625c0.013,0.186,0.027,0.367,0.043,0.551
		c0.015,0.181,0.032,0.361,0.049,0.542c0.02,0.201,0.04,0.398,0.063,0.595c0.018,0.154,0.038,0.304,0.056,0.454
		c0.028,0.219,0.055,0.436,0.088,0.652c0.012,0.083,0.027,0.163,0.04,0.246c0.138,0.875,0.31,1.712,0.52,2.483
		c0.01,0.038,0.019,0.076,0.03,0.112c0.067,0.246,0.141,0.479,0.217,0.708c0.017,0.052,0.033,0.105,0.051,0.156
		c0.077,0.225,0.159,0.438,0.244,0.647c0.019,0.046,0.038,0.09,0.056,0.137c0.09,0.21,0.184,0.413,0.282,0.604
		c0.014,0.025,0.026,0.048,0.039,0.073c0.449,0.851,0.99,1.498,1.636,1.863c0.003,0,0.005,0.002,0.008,0.004v0.002
		c0.091,0.92,0.197,1.716,0.319,2.348c0.002,0.012,0.004,0.023,0.006,0.037c0.041,0.201,0.082,0.383,0.125,0.55
		c0.003,0.009,0.005,0.019,0.008,0.03c0.085,0.32,0.178,0.568,0.278,0.734c0.007,0.013,0.015,0.027,0.022,0.039
		c0.047,0.07,0.097,0.124,0.148,0.157c0.008,0.006,0.018,0.009,0.026,0.015c0.053,0.028,0.107,0.043,0.164,0.026
		c26.674-7.043,36.54-3.336,37.141,0c0.026,0.143,0.051,0.256,0.075,0.353c0.007,0.031,0.014,0.056,0.021,0.082
		c0.018,0.064,0.034,0.115,0.05,0.158c0.006,0.017,0.014,0.036,0.02,0.049c0.021,0.044,0.042,0.075,0.062,0.083l0.001,0.001
		c0.02,0.009,0.04-0.009,0.058-0.038c0.007-0.007,0.012-0.022,0.019-0.034c0.013-0.029,0.025-0.064,0.039-0.111
		c0.005-0.021,0.011-0.04,0.016-0.062c0.016-0.068,0.032-0.146,0.046-0.239c0.001-0.015,0.003-0.025,0.006-0.037
		c0.014-0.104,0.029-0.221,0.042-0.35c0.005-0.045,0.01-0.095,0.015-0.146c0.009-0.1,0.019-0.203,0.029-0.314
		c0.004-0.057,0.009-0.114,0.013-0.174c0.011-0.145,0.021-0.297,0.031-0.459c0.003-0.047,0.006-0.093,0.01-0.143
		c0.011-0.176,0.02-0.362,0.029-0.556c0.004-0.085,0.008-0.173,0.012-0.261c0.006-0.141,0.012-0.284,0.018-0.434
		c0.004-0.103,0.008-0.199,0.012-0.305c0.007-0.186,0.014-0.38,0.021-0.579c0.002-0.087,0.005-0.173,0.008-0.264
		c0.006-0.23,0.014-0.468,0.02-0.712c0.003-0.105,0.006-0.212,0.008-0.319c0.004-0.192,0.009-0.387,0.013-0.581
		c0.002-0.102,0.005-0.201,0.007-0.303c56.826-2.521,79.036-0.114,80.636,2.087c1.478,2.031,2.106-1.613,2.356-6.451
		c29.947-0.14,107.996-0.438,177.256-1.253h-0.002c0.535-0.005,1.065-0.012,1.598-0.018c0.05-0.002,0.099-0.002,0.147-0.002
		c7.117-0.086,14.134-0.178,20.989-0.272c0.253-0.003,0.506-0.007,0.755-0.012c0.926-0.013,1.85-0.025,2.769-0.04
		c0.64-0.008,1.277-0.018,1.916-0.025c0.84-0.014,1.682-0.026,2.52-0.038c1.141-0.018,2.276-0.035,3.406-0.053
		c0.524-0.007,1.045-0.017,1.568-0.024c1.011-0.017,2.016-0.032,3.018-0.047c0.242-0.005,0.49-0.009,0.734-0.013
		c9.972-0.162,19.452-0.339,28.221-0.53c0.269-0.009,0.539-0.012,0.804-0.02c6.657-0.148,12.891-0.303,18.611-0.472v0.001
		c4.502-0.131,8.678-0.268,12.49-0.411c0.053-0.002,0.107-0.004,0.162-0.006c0.638-0.024,1.269-0.05,1.887-0.074
		c0.069-0.003,0.14-0.005,0.21-0.007c1.349-0.056,2.645-0.108,3.89-0.165c0.023-0.001,0.049-0.001,0.076-0.003
		c0.564-0.025,1.12-0.051,1.666-0.076c0.112-0.006,0.226-0.012,0.339-0.019c0.464-0.021,0.916-0.042,1.36-0.065
		c0.128-0.007,0.257-0.013,0.384-0.018c0.427-0.024,0.844-0.045,1.253-0.068c0.122-0.005,0.245-0.011,0.364-0.02
		c1.026-0.055,2.003-0.112,2.925-0.169c0.118-0.007,0.233-0.015,0.351-0.022c0.335-0.021,0.662-0.043,0.984-0.064
		c0.134-0.01,0.267-0.017,0.401-0.027c0.296-0.021,0.584-0.04,0.866-0.062c0.127-0.009,0.256-0.019,0.379-0.027
		c0.312-0.023,0.611-0.047,0.903-0.071c0.08-0.007,0.16-0.013,0.238-0.019c0.366-0.03,0.723-0.061,1.062-0.092
		c0.055-0.004,0.104-0.009,0.158-0.014c0.274-0.025,0.54-0.051,0.795-0.076c0.102-0.011,0.201-0.021,0.298-0.031
		c0.201-0.02,0.396-0.04,0.579-0.062c0.102-0.011,0.2-0.022,0.298-0.034c0.18-0.021,0.353-0.042,0.521-0.062
		c0.08-0.013,0.162-0.021,0.233-0.031c0.199-0.026,0.381-0.052,0.556-0.079c0.037-0.008,0.08-0.011,0.119-0.017
		c0.204-0.033,0.39-0.066,0.566-0.098c0.045-0.008,0.084-0.018,0.129-0.025c0.123-0.025,0.24-0.05,0.345-0.073
		c0.051-0.011,0.098-0.022,0.143-0.036c0.088-0.021,0.17-0.043,0.239-0.065c0.043-0.013,0.082-0.022,0.117-0.036
		c0.068-0.022,0.127-0.047,0.182-0.071c0.021-0.009,0.051-0.02,0.072-0.03c0.065-0.034,0.12-0.069,0.153-0.104
		C428.619,19.503,428.619,17.186,427.976,16.526z"/>
</g>
<g id="Layer_1">
</g>
</svg>
