<?xml version="1.0" encoding="iso-8859-1"?>
<!-- Generator: Adobe Illustrator 16.0.0, SVG Export Plug-In . SVG Version: 6.00 Build 0)  -->
<!DOCTYPE svg PUBLIC "-//W3C//DTD SVG 1.1//EN" "http://www.w3.org/Graphics/SVG/1.1/DTD/svg11.dtd">
<svg id="wand05original" version="1.1" xmlns="http://www.w3.org/2000/svg" xmlns:xlink="http://www.w3.org/1999/xlink" x="0px" y="0px"
	 width="435.887px" height="28.966px" viewBox="0 0 435.887 28.966" style="enable-background:new 0 0 435.887 28.966;"
	 xml:space="preserve">
<g id="Layer_5">
	<path d="M434.905,16.287c-0.031,0.034-0.084,0.066-0.146,0.098c-0.015,0.009-0.034,0.018-0.052,0.024
		c-0.068,0.032-0.145,0.062-0.24,0.094c-0.006,0.001-0.008,0.003-0.012,0.005c-0.1,0.032-0.22,0.064-0.349,0.095
		c-0.035,0.008-0.07,0.016-0.102,0.024c-0.13,0.029-0.271,0.059-0.427,0.088c-0.01,0.002-0.018,0.004-0.027,0.006
		c-0.165,0.031-0.351,0.062-0.545,0.093c-0.049,0.007-0.1,0.015-0.148,0.022c-0.191,0.028-0.39,0.057-0.604,0.086
		c-0.016,0.002-0.029,0.004-0.045,0.006c-0.229,0.029-0.479,0.06-0.738,0.09c-0.061,0.007-0.12,0.015-0.185,0.021
		c-0.242,0.026-0.493,0.054-0.759,0.08c-0.026,0.003-0.058,0.007-0.087,0.01c-0.293,0.029-0.601,0.059-0.922,0.088
		c-0.068,0.006-0.141,0.013-0.217,0.019c-0.298,0.026-0.605,0.053-0.93,0.079c-0.034,0.004-0.067,0.007-0.103,0.009
		c-0.354,0.029-0.728,0.058-1.111,0.086c-0.075,0.006-0.155,0.011-0.231,0.017c-0.362,0.026-0.734,0.053-1.12,0.079
		c-0.031,0.002-0.059,0.004-0.094,0.007c-0.419,0.028-0.857,0.057-1.306,0.086c-0.074,0.004-0.15,0.009-0.225,0.013
		c-0.427,0.026-0.867,0.054-1.317,0.08c-0.026,0.001-0.054,0.002-0.085,0.004c-0.487,0.028-0.988,0.056-1.501,0.084
		c-0.066,0.003-0.13,0.006-0.196,0.01c-1.053,0.057-2.159,0.112-3.316,0.168c-0.035,0-0.064,0.002-0.098,0.004
		c-2.701,0.127-5.675,0.249-8.907,0.367h-0.002c-9.069,0.33-20.106,0.626-32.527,0.893c-0.002,0-0.004,0-0.004,0
		c-1.224,0.026-2.461,0.052-3.712,0.077c-0.273,0.006-0.55,0.011-0.826,0.017c-0.947,0.02-1.904,0.038-2.868,0.058
		c-0.36,0.007-0.726,0.014-1.092,0.021c-1.001,0.021-2.009,0.039-3.024,0.058c-0.257,0.006-0.51,0.01-0.77,0.016
		c-1.266,0.023-2.545,0.047-3.835,0.069c-0.255,0.005-0.517,0.01-0.773,0.014c-1.024,0.019-2.055,0.035-3.093,0.055
		c-0.419,0.007-0.84,0.013-1.262,0.021c-0.987,0.017-1.98,0.034-2.977,0.051c-0.319,0.005-0.639,0.011-0.96,0.015
		c-1.343,0.023-2.693,0.044-4.054,0.066c-0.165,0.002-0.335,0.005-0.501,0.008c-1.175,0.017-2.354,0.035-3.542,0.054
		c-0.42,0.006-0.842,0.013-1.263,0.02c-1.008,0.014-2.021,0.03-3.036,0.045c-0.372,0.006-0.741,0.01-1.115,0.016
		c-2.813,0.041-5.657,0.081-8.527,0.119c-0.286,0.005-0.57,0.008-0.854,0.012c-1.229,0.017-2.46,0.033-3.695,0.049
		c-0.242,0.003-0.483,0.007-0.725,0.009c-17.493,0.228-35.816,0.419-54.004,0.58c-0.626,0.006-1.254,0.01-1.882,0.016
		c-0.455,0.004-0.911,0.008-1.367,0.013c-0.452,0.004-0.904,0.008-1.356,0.011c-4.743,0.041-9.469,0.08-14.163,0.117
		c-0.568,0.005-1.136,0.009-1.704,0.014c-2.872,0.022-5.732,0.044-8.577,0.064c-0.257,0.002-0.519,0.005-0.777,0.006l0,0
		c-27.794,0.205-53.917,0.344-74.619,0.444c-4.561,0.021-8.87,0.041-12.863,0.06c-1.264,0.005-2.503,0.011-3.705,0.017
		c-8.152,0.036-14.84,0.065-19.682,0.09c-5.003,4.771-13.075,8.366-14.597,6.402c0.137-0.792,0.06-1.616-0.086-2.404
		c-0.157-0.799-0.38-1.578-0.635-2.338c-0.492-1.523-1.102-2.998-1.42-4.447c-0.162-0.729-0.259-1.469-0.29-2.202
		c-0.038-0.733-0.005-1.463,0.114-2.165c0.122-0.701,0.321-1.374,0.618-1.978c0.301-0.602,0.692-1.135,1.181-1.561
		c0.487-0.425,1.061-0.758,1.707-0.978c0.316-0.114,0.67-0.207,0.98-0.261c0.321-0.049,0.653-0.076,0.991-0.066
		c1.355,0.037,2.765,0.591,4.03,1.372c1.268,0.792,2.415,1.817,3.39,2.967c0.491,0.573,0.929,1.187,1.305,1.827
		c0.363,0.63,0.667,1.349,0.894,2.058c0.223,0.712,0.367,1.447,0.331,2.17c-0.035,0.721-0.257,1.426-0.711,1.997
		c-0.226,0.283-0.5,0.537-0.808,0.752c-0.077,0.055-0.156,0.106-0.238,0.155l-0.12,0.071l-0.132,0.075
		c-0.165,0.09-0.341,0.178-0.518,0.253c-0.706,0.31-1.476,0.478-2.229,0.411c-0.753-0.059-1.467-0.356-2.062-0.803
		c-0.597-0.451-1.087-1.032-1.484-1.667c-0.395-0.642-0.708-1.327-0.94-2.035c-0.228-0.713-0.411-1.44-0.491-2.156
		c-0.084-0.706-0.076-1.425,0.109-1.935c0.092-0.255,0.22-0.426,0.37-0.544c0.154-0.118,0.369-0.199,0.653-0.238
		c0.141-0.02,0.295-0.024,0.458-0.02c0.074,0.001,0.175,0.011,0.234,0.014l0.137,0.017c0.032,0.003,0.068,0.009,0.109,0.016
		c0.316,0.053,0.644,0.147,0.959,0.279c0.628,0.264,1.227,0.655,1.647,1.134c0.211,0.236,0.375,0.492,0.463,0.75
		c0.092,0.258,0.116,0.512,0.059,0.771c-0.057,0.26-0.193,0.529-0.398,0.783c-0.024,0.033-0.052,0.063-0.08,0.096l-0.038,0.044
		l-0.049,0.052c-0.048,0.051-0.111,0.113-0.167,0.164c-0.116,0.105-0.237,0.194-0.357,0.257c-0.241,0.122-0.461,0.146-0.69,0.048
		c-0.225-0.098-0.451-0.329-0.545-0.603c-0.096-0.275-0.069-0.543,0.129-0.715c0.189-0.166,0.536-0.218,0.883-0.208
		c0.009,0.031,0.031,0.065,0.028,0.094c-0.004,0.063-0.062,0.149-0.112,0.262c-0.019,0.043-0.006,0.095,0.036,0.123
		c0.046,0.031,0.111,0.021,0.145-0.025l0.002-0.003c0.051-0.068,0.146-0.138,0.205-0.275c0.058-0.14,0.036-0.29,0.003-0.407
		c-0.013-0.046-0.05-0.083-0.101-0.099l-0.034-0.009c-0.207-0.061-0.426-0.106-0.66-0.109c-0.231-0.003-0.487,0.033-0.729,0.16
		c-0.241,0.125-0.445,0.356-0.537,0.614c-0.096,0.257-0.105,0.524-0.066,0.773c0.087,0.496,0.356,0.969,0.834,1.277
		c0.237,0.152,0.526,0.252,0.82,0.274c0.295,0.022,0.586-0.026,0.842-0.115c0.257-0.089,0.485-0.215,0.688-0.353
		c0.103-0.071,0.194-0.141,0.292-0.225l0.062-0.053l0.068-0.062c0.042-0.04,0.085-0.08,0.127-0.123
		c0.335-0.334,0.64-0.752,0.803-1.255c0.168-0.499,0.181-1.064,0.045-1.566c-0.131-0.503-0.377-0.946-0.668-1.329
		c-0.597-0.761-1.358-1.318-2.208-1.715c-0.427-0.196-0.877-0.354-1.363-0.448c-0.059-0.011-0.122-0.022-0.192-0.033l-0.167-0.023
		c-0.145-0.014-0.247-0.026-0.375-0.031c-0.246-0.014-0.5-0.012-0.765,0.017c-0.522,0.051-1.11,0.233-1.597,0.611
		c-0.492,0.374-0.8,0.908-0.958,1.403c-0.302,1.007-0.192,1.912-0.02,2.755c0.194,0.842,0.477,1.635,0.846,2.391
		c0.367,0.761,0.823,1.479,1.36,2.134c0.539,0.656,1.167,1.256,1.912,1.708c0.738,0.458,1.6,0.751,2.48,0.791
		c0.88,0.044,1.747-0.153,2.527-0.483c0.196-0.083,0.386-0.172,0.579-0.27l0.134-0.072l0.142-0.078
		c0.094-0.054,0.186-0.108,0.275-0.168c0.361-0.234,0.7-0.514,0.988-0.842c0.586-0.653,0.942-1.496,1.06-2.345
		c0.125-0.852,0.062-1.706-0.095-2.524c-0.079-0.411-0.18-0.814-0.301-1.211l-0.093-0.299l-0.046-0.144l-0.054-0.153
		c-0.073-0.201-0.149-0.4-0.235-0.595c-0.336-0.781-0.771-1.509-1.259-2.198c-0.986-1.37-2.206-2.578-3.635-3.565
		c-0.716-0.49-1.487-0.928-2.327-1.262c-0.837-0.333-1.746-0.57-2.701-0.631c-0.478-0.031-0.964-0.017-1.449,0.056
		c-0.494,0.078-0.932,0.189-1.383,0.342c-0.89,0.306-1.753,0.79-2.459,1.442c-0.709,0.648-1.257,1.445-1.62,2.282
		c-0.371,0.838-0.574,1.713-0.659,2.577c-0.087,0.864-0.065,1.721,0.035,2.561c0.109,0.839,0.299,1.659,0.555,2.455
		c0.063,0.196,0.137,0.411,0.204,0.589c0.074,0.207,0.152,0.39,0.233,0.58c0.163,0.379,0.333,0.749,0.508,1.11
		c0.345,0.729,0.714,1.434,1.064,2.138c0.343,0.708,0.687,1.411,0.958,2.136c0.24,0.637,0.431,1.292,0.504,1.971
		c-0.77-0.723-2.686-1.444-6.913-1.99c0.021-0.001,0.044,0.002,0.061-0.011c0.046-0.039,0.052-0.104,0.013-0.147
		c-0.815-0.934-1.566-1.819-2.269-2.739c-0.704-0.917-1.361-1.854-2.016-2.799c-0.655-0.942-1.354-1.87-2.023-2.834
		c-0.336-0.481-0.657-0.974-1.008-1.454c-0.35-0.48-0.722-0.953-1.087-1.433c-0.741-0.957-1.394-1.961-1.946-3.026
		c-0.561-1.057-0.952-2.249-1.651-3.3C94.999,7.4,94.58,6.918,94.101,6.496c-0.471-0.43-0.987-0.817-1.536-1.15
		c-0.139-0.082-0.27-0.164-0.42-0.241c-0.137-0.07-0.265-0.141-0.417-0.213c-0.294-0.143-0.581-0.266-0.881-0.377
		c-0.352-0.129-0.713-0.233-1.079-0.319c18.489-0.164,23.583-1.688,24.636-3.126c1.476-2.015,9.596,1.592,14.619,6.382
		c0.469,0.002,0.959,0.004,1.461,0.007c0.01,0.004,0.016,0.012,0.027,0.014c1.701,0.175,3.344,0.542,4.922,1.076
		c0.788,0.269,1.558,0.577,2.317,0.912c0.757,0.337,1.497,0.712,2.229,1.098c0.367,0.195,0.728,0.396,1.088,0.603
		c0.361,0.209,0.72,0.419,1.059,0.632c0.672,0.417,1.32,0.9,1.954,1.413c1.267,1.03,2.498,2.17,3.862,3.251
		c0.681,0.539,1.403,1.058,2.178,1.525c0.39,0.232,0.793,0.45,1.208,0.651c0.208,0.099,0.42,0.195,0.637,0.282l0.312,0.122
		l0.308,0.118c1.634,0.615,3.312,1.136,5.044,1.5c1.728,0.363,3.517,0.588,5.335,0.464c0.905-0.066,1.817-0.216,2.695-0.507
		c0.424-0.14,0.906-0.326,1.319-0.6c0.42-0.269,0.789-0.617,1.075-1.002c0.58-0.776,0.837-1.635,1.079-2.437
		c0.239-0.804,0.425-1.606,0.768-2.31c0.68-1.426,1.972-2.578,3.488-3.163c0.758-0.294,1.571-0.445,2.376-0.445
		c0.805,0.009,1.601,0.156,2.326,0.452c0.378,0.15,0.673,0.309,0.972,0.54c0.295,0.224,0.569,0.488,0.819,0.772
		c0.492,0.572,0.914,1.218,1.164,1.884c0.264,0.655,0.339,1.342,0.154,1.773c-0.091,0.216-0.23,0.386-0.449,0.541
		c-0.11,0.077-0.24,0.146-0.383,0.206c-0.072,0.031-0.146,0.061-0.225,0.086l-0.12,0.039l-0.088,0.022
		c-0.537,0.122-1.237-0.01-1.851-0.315c-0.611-0.302-1.17-0.784-1.43-1.302c-0.131-0.258-0.179-0.505-0.142-0.734
		c0.031-0.23,0.161-0.473,0.385-0.7c0.055-0.058,0.116-0.112,0.181-0.166l0.089-0.072l0.111-0.077c0.114-0.078,0.27-0.155,0.42-0.21
		c0.305-0.109,0.643-0.167,0.95-0.126c0.31,0.039,0.578,0.164,0.772,0.384c0.049,0.056,0.096,0.116,0.136,0.183
		c0.045,0.075,0.076,0.136,0.104,0.209c0.055,0.142,0.08,0.288,0.067,0.429c-0.021,0.278-0.225,0.567-0.493,0.648
		c-0.13,0.036-0.259,0.021-0.375-0.072c-0.09-0.068-0.156-0.185-0.208-0.314c0.063-0.004,0.139-0.008,0.214-0.029
		c0.045-0.011,0.078-0.052,0.077-0.098c0-0.056-0.048-0.1-0.105-0.1h-0.005c-0.054,0.001-0.108-0.01-0.179-0.02
		c-0.068-0.01-0.155-0.015-0.244,0.002c-0.065,0.013-0.112,0.07-0.108,0.137l0.001,0.024c0.014,0.222,0.061,0.468,0.23,0.686
		c0.167,0.222,0.492,0.353,0.784,0.323c0.591-0.054,1.04-0.509,1.181-1.032c0.075-0.264,0.075-0.542,0.023-0.799
		c-0.026-0.128-0.067-0.261-0.111-0.373c-0.048-0.122-0.108-0.241-0.182-0.356c-0.295-0.461-0.809-0.792-1.334-0.922
		c-0.529-0.135-1.07-0.123-1.581,0.007c-0.257,0.068-0.497,0.155-0.749,0.29l-0.159,0.089l-0.172,0.109
		c-0.104,0.072-0.208,0.147-0.31,0.231c-0.401,0.331-0.772,0.805-0.925,1.387c-0.153,0.581-0.062,1.189,0.147,1.688
		c0.208,0.506,0.527,0.923,0.881,1.283c0.358,0.358,0.763,0.66,1.207,0.901c0.442,0.241,0.923,0.428,1.441,0.537
		c0.517,0.106,1.078,0.132,1.647,0.02c0.069-0.016,0.14-0.03,0.223-0.053l0.185-0.055c0.125-0.04,0.25-0.083,0.374-0.134
		c0.249-0.104,0.497-0.233,0.733-0.398c0.238-0.166,0.462-0.367,0.652-0.604c0.188-0.237,0.339-0.507,0.442-0.787
		c0.21-0.562,0.217-1.136,0.138-1.644c-0.08-0.512-0.254-0.974-0.461-1.404c-0.436-0.848-1.01-1.579-1.704-2.194
		c-0.347-0.307-0.721-0.587-1.134-0.826c-0.207-0.119-0.424-0.228-0.653-0.319c-0.24-0.096-0.449-0.155-0.675-0.218
		c-0.892-0.234-1.818-0.317-2.719-0.23c-0.902,0.075-1.778,0.306-2.595,0.653c-0.814,0.353-1.57,0.825-2.231,1.403
		c-0.661,0.579-1.213,1.274-1.642,2.038c-0.214,0.384-0.376,0.793-0.531,1.183l-0.448,1.165c-0.295,0.762-0.638,1.484-1.13,2.01
		c-0.246,0.261-0.525,0.471-0.84,0.626c-0.316,0.16-0.647,0.252-1.043,0.337c-0.768,0.161-1.562,0.228-2.362,0.221
		c-1.602-0.013-3.224-0.282-4.813-0.689c-1.591-0.415-3.156-0.962-4.684-1.596l-0.284-0.119l-0.277-0.12
		c-0.175-0.08-0.35-0.16-0.522-0.247c-0.345-0.173-0.686-0.362-1.021-0.569c-0.674-0.408-1.326-0.878-1.978-1.371
		c-1.304-0.986-2.584-2.094-4.006-3.104c-0.711-0.507-1.452-0.993-2.247-1.422c-0.397-0.209-0.789-0.393-1.179-0.578
		c-0.393-0.185-0.789-0.363-1.188-0.534c-0.798-0.348-1.62-0.649-2.451-0.919c-0.831-0.272-1.68-0.495-2.539-0.665
		c-0.161-0.032-0.324-0.053-0.485-0.081c5.635,0.025,12.683,0.056,20.859,0.094c0,0,0,0,0,0c2.129,0.009,4.335,0.02,6.611,0.03
		c10.751,0.051,23.085,0.113,36.421,0.19c0.251,0.001,0.506,0.003,0.76,0.004c0.909,0.006,1.808,0.01,2.725,0.016
		c10.356,0.061,21.28,0.13,32.515,0.211c0.236,0.001,0.473,0.003,0.71,0.005c2.225,0.016,4.458,0.033,6.705,0.049
		c0.574,0.004,1.148,0.008,1.724,0.013c1.87,0.014,3.749,0.028,5.633,0.043c0.497,0.004,0.987,0.007,1.482,0.011v0.001
		c11.729,0.091,23.657,0.195,35.515,0.314c0.017,0,0.031,0,0.047,0c1.584,0.016,3.168,0.032,4.75,0.047
		c0.397,0.005,0.795,0.009,1.191,0.013c14.603,0.15,29.028,0.323,42.769,0.52c0.068,0.001,0.135,0.001,0.201,0.002
		c5.86,0.083,11.594,0.172,17.164,0.265c0.138,0.002,0.273,0.004,0.412,0.007c15.139,0.253,29.041,0.541,40.918,0.868l0,0
		c0.204,0.005,0.405,0.011,0.607,0.017c0.384,0.01,0.766,0.022,1.148,0.032c0.421,0.012,0.84,0.024,1.257,0.036
		c0.368,0.011,0.74,0.021,1.106,0.032c0.442,0.013,0.877,0.026,1.31,0.04c0.333,0.009,0.672,0.019,1,0.03
		c0.727,0.022,1.449,0.045,2.158,0.068c0.26,0.008,0.511,0.017,0.765,0.024c0.464,0.015,0.929,0.031,1.383,0.046
		c0.328,0.01,0.649,0.021,0.971,0.033c0.392,0.013,0.789,0.027,1.177,0.041c0.312,0.011,0.62,0.022,0.928,0.034
		c0.386,0.013,0.768,0.027,1.146,0.042c0.295,0.011,0.589,0.021,0.877,0.033c0.396,0.014,0.782,0.03,1.168,0.045
		c0.269,0.01,0.539,0.021,0.805,0.031c0.392,0.016,0.773,0.031,1.153,0.046c0.251,0.011,0.507,0.021,0.752,0.032
		c0.61,0.025,1.21,0.051,1.793,0.076c0.078,0.003,0.15,0.008,0.225,0.011c0.508,0.022,1.009,0.045,1.498,0.068
		c0.218,0.01,0.427,0.02,0.641,0.03c0.35,0.017,0.698,0.034,1.037,0.051c0.223,0.011,0.438,0.022,0.65,0.033
		c0.33,0.017,0.655,0.034,0.975,0.051c0.205,0.011,0.405,0.021,0.606,0.032c0.323,0.019,0.643,0.037,0.956,0.054
		c0.184,0.011,0.369,0.021,0.548,0.032c0.335,0.019,0.657,0.039,0.977,0.059c0.146,0.009,0.296,0.017,0.44,0.026
		c0.458,0.029,0.906,0.058,1.335,0.087c0.027,0.001,0.053,0.003,0.08,0.006c0.399,0.026,0.787,0.054,1.159,0.082
		c0.131,0.009,0.251,0.019,0.38,0.028c0.267,0.02,0.528,0.041,0.779,0.061c0.143,0.011,0.278,0.023,0.417,0.034
		c0.229,0.019,0.452,0.038,0.669,0.058c0.134,0.011,0.267,0.023,0.397,0.035c0.204,0.02,0.405,0.038,0.602,0.058
		c0.121,0.012,0.246,0.024,0.364,0.036c0.203,0.021,0.394,0.042,0.585,0.062c0.094,0.011,0.191,0.021,0.28,0.031
		c0.271,0.032,0.532,0.063,0.775,0.095c0.008,0.001,0.018,0.002,0.027,0.004c0.232,0.031,0.446,0.061,0.647,0.092
		c0.07,0.011,0.131,0.021,0.194,0.032c0.135,0.022,0.27,0.044,0.388,0.066c0.07,0.013,0.133,0.024,0.195,0.037
		c0.105,0.021,0.207,0.042,0.298,0.062c0.057,0.013,0.115,0.026,0.166,0.039c0.086,0.021,0.162,0.042,0.231,0.063
		c0.043,0.013,0.088,0.026,0.127,0.038c0.068,0.023,0.125,0.047,0.18,0.069c0.025,0.011,0.057,0.022,0.078,0.034
		c0.067,0.034,0.122,0.068,0.155,0.104C435.547,13.335,435.547,15.634,434.905,16.287z M103.903,23.873
		c0.982,0.76,2.078,1.406,3.274,1.78c-2.449-0.31-5.664-0.56-9.869-0.718c0.033-0.046,0.021-0.111-0.027-0.144
		c-1.092-0.739-2.095-1.47-3.044-2.26c-0.95-0.784-1.849-1.611-2.741-2.457c-0.893-0.843-1.823-1.669-2.734-2.536
		c-0.454-0.432-0.903-0.882-1.372-1.303l-1.419-1.273c-0.954-0.856-1.811-1.802-2.534-2.845c-0.73-1.037-1.251-2.235-1.99-3.302
		c-0.368-0.533-0.788-1.033-1.256-1.49c-0.46-0.465-0.954-0.903-1.478-1.309c-0.259-0.203-0.533-0.397-0.807-0.58
		c-0.285-0.188-0.569-0.358-0.867-0.517c-0.595-0.314-1.224-0.577-1.888-0.731c-0.032-0.008-0.071,0-0.098,0.023
		c-0.045,0.039-0.048,0.104-0.008,0.148l1.307,1.406l0.624,0.686l0.622,0.694l1.232,1.384c0.404,0.467,0.83,0.919,1.285,1.352
		c0.913,0.865,1.962,1.66,2.79,2.626c0.835,0.959,1.523,2.025,2.175,3.136c0.328,0.55,0.669,1.113,1.04,1.638
		c0.373,0.531,0.775,1.025,1.185,1.525c0.819,0.997,1.681,1.987,2.69,2.845c1.008,0.854,2.127,1.614,3.342,2.207
		c1.067,0.519,2.215,0.901,3.394,1.058c-14.302-0.492-39.68,0.077-84.354,2.983C8.61,28.144,0.5,20.781,0.5,14.484
		C0.5,8.187,8.61,0.825,12.376,1.07c17.079,1.111,31.333,1.879,43.231,2.378c0.411,0.541,0.839,1.041,1.264,1.536l0.643,0.741
		l0.65,0.732L59.45,7.91c0.424,0.488,0.868,0.961,1.343,1.415c0.949,0.907,2.034,1.74,2.896,2.748c0.87,1,1.591,2.109,2.269,3.266
		c0.342,0.573,0.689,1.151,1.074,1.706c0.383,0.557,0.812,1.084,1.257,1.604c0.892,1.039,1.864,2.042,3.035,2.858
		c0.569,0.396,1.197,0.768,1.823,1.074c0.629,0.313,1.273,0.579,1.921,0.815c1.301,0.469,2.611,0.822,3.974,1.09
		c0.038,0.007,0.077-0.004,0.103-0.034c0.039-0.043,0.033-0.108-0.012-0.146c-1.061-0.884-2.215-1.603-3.321-2.321
		c-1.112-0.72-2.168-1.417-3.16-2.193c-0.984-0.761-1.98-1.561-2.929-2.434c-0.475-0.437-0.93-0.897-1.409-1.346
		c-0.479-0.452-0.975-0.895-1.461-1.351c-0.983-0.906-1.874-1.895-2.63-2.98c-0.766-1.079-1.325-2.319-2.098-3.426
		c-0.387-0.552-0.825-1.07-1.311-1.547c-0.477-0.485-0.986-0.943-1.523-1.372c-0.137-0.106-0.267-0.209-0.412-0.316
		c-0.138-0.098-0.27-0.197-0.413-0.295c-0.287-0.197-0.574-0.383-0.872-0.559c-0.445-0.261-0.911-0.491-1.391-0.695
		C70.106,4.05,80.752,4.255,88.892,4.203c0.005,0.008,0.004,0.02,0.012,0.027c0.46,0.429,0.921,0.817,1.37,1.205
		c0.223,0.192,0.449,0.388,0.661,0.575l0.334,0.293l0.315,0.284c0.421,0.382,0.823,0.776,1.22,1.177
		c0.387,0.407,0.781,0.809,1.196,1.206c0.828,0.79,1.762,1.588,2.421,2.576c0.666,0.98,1.131,2.075,1.518,3.211
		c0.199,0.566,0.394,1.138,0.626,1.694c0.23,0.559,0.503,1.098,0.781,1.637c0.553,1.078,1.153,2.151,1.917,3.128
		C102.026,22.191,102.906,23.098,103.903,23.873z M32.296,26.396c-2.543-1.136-4.661-2.819-6.57-4.701
		c-0.48-0.469-0.942-0.954-1.397-1.448c-0.46-0.49-0.908-0.992-1.349-1.503c-0.223-0.255-0.43-0.511-0.627-0.754
		c-0.204-0.253-0.401-0.515-0.597-0.78c-0.388-0.532-0.777-1.077-1.165-1.638c-0.786-1.11-1.6-2.265-2.612-3.324
		c-1.006-1.061-2.184-2.03-3.592-2.69c-0.693-0.326-1.425-0.587-2.193-0.74c-0.767-0.15-1.574-0.213-2.379-0.092
		c-0.401,0.058-0.8,0.156-1.183,0.299C8.249,9.17,7.886,9.362,7.555,9.59C7.39,9.704,7.232,9.827,7.083,9.958
		c-0.146,0.126-0.295,0.279-0.408,0.401c-0.277,0.301-0.492,0.592-0.694,0.912c-0.792,1.275-1.099,2.695-1.219,4.076
		c-0.058,0.694-0.058,1.39-0.017,2.077c0.047,0.694,0.141,1.383,0.293,2.065c0.307,1.356,0.839,2.704,1.713,3.886
		c0.216,0.295,0.454,0.579,0.71,0.847c0.254,0.265,0.537,0.532,0.855,0.766c0.315,0.236,0.659,0.435,1.033,0.604
		c0.376,0.165,0.786,0.307,1.257,0.35c0.462,0.049,1.015-0.007,1.512-0.27c0.503-0.253,0.866-0.688,1.08-1.101
		c0.422-0.819,0.486-1.652,0.445-2.418c-0.042-0.771-0.214-1.495-0.439-2.193c-0.106-0.333-0.268-0.737-0.453-1.067
		c-0.185-0.341-0.395-0.659-0.634-0.961c-0.478-0.598-1.051-1.166-1.866-1.527c-0.406-0.174-0.895-0.277-1.381-0.21
		c-0.242,0.034-0.473,0.111-0.662,0.194c-0.203,0.092-0.403,0.205-0.591,0.366c-0.186,0.16-0.353,0.374-0.444,0.622
		c-0.094,0.247-0.102,0.507-0.06,0.733c0.087,0.454,0.321,0.797,0.579,1.084c0.264,0.285,0.575,0.51,0.91,0.684
		c0.335,0.169,0.708,0.285,1.087,0.28c0.044,0,0.084-0.029,0.098-0.072c0.017-0.054-0.015-0.11-0.07-0.126H9.715
		c-0.317-0.092-0.596-0.268-0.838-0.475c-0.244-0.204-0.446-0.453-0.601-0.709c-0.153-0.253-0.25-0.536-0.237-0.757
		c0.02-0.224,0.099-0.328,0.27-0.432c0.085-0.051,0.199-0.094,0.322-0.126c0.138-0.036,0.247-0.05,0.353-0.045
		c0.213,0.005,0.427,0.073,0.644,0.203c0.438,0.255,0.842,0.714,1.169,1.211c0.162,0.251,0.308,0.515,0.431,0.782
		c0.129,0.273,0.2,0.51,0.286,0.827c0.165,0.599,0.269,1.21,0.289,1.79c0.018,0.577-0.067,1.136-0.263,1.538
		c-0.094,0.189-0.195,0.301-0.307,0.376c-0.113,0.073-0.282,0.127-0.513,0.127c-0.464,0.007-1.062-0.186-1.587-0.468
		c-0.265-0.137-0.517-0.31-0.775-0.506c-0.253-0.194-0.496-0.403-0.723-0.629c-0.915-0.901-1.594-2.067-1.943-3.334
		c-0.354-1.264-0.415-2.614-0.232-3.915c0.184-1.295,0.661-2.562,1.458-3.525c0.196-0.235,0.427-0.467,0.643-0.645
		c0.138-0.115,0.242-0.194,0.37-0.279c0.123-0.081,0.25-0.155,0.38-0.221c0.522-0.261,1.091-0.397,1.676-0.421
		c1.175-0.047,2.405,0.321,3.495,0.912c0.271,0.147,0.541,0.314,0.786,0.485c0.26,0.182,0.503,0.37,0.743,0.574
		c0.479,0.401,0.924,0.853,1.345,1.337c0.839,0.971,1.609,2.052,2.417,3.159c0.409,0.549,0.821,1.113,1.273,1.659
		c0.226,0.273,0.456,0.548,0.697,0.817c0.249,0.276,0.499,0.53,0.746,0.775c0.496,0.493,1.002,0.978,1.521,1.453
		c0.524,0.471,1.066,0.925,1.621,1.365c0.553,0.443,1.133,0.854,1.728,1.245c0.593,0.395,1.211,0.757,1.848,1.08
		c1.269,0.652,2.63,1.157,4.029,1.396h0.001c0.046,0.008,0.092-0.016,0.113-0.058C32.372,26.479,32.348,26.419,32.296,26.396z
		 M54.685,25.252c-1.188-0.996-2.487-1.814-3.752-2.635c-1.271-0.808-2.524-1.592-3.725-2.409c-0.301-0.203-0.6-0.408-0.897-0.615
		l-0.443-0.31l-0.415-0.312c-0.581-0.442-1.168-0.896-1.74-1.361c-0.575-0.466-1.131-0.955-1.713-1.422l-1.75-1.419
		c-0.578-0.482-1.149-0.976-1.677-1.508c-0.529-0.531-1.031-1.086-1.494-1.674c-0.935-1.167-1.646-2.516-2.53-3.735
		c-0.441-0.611-0.929-1.188-1.451-1.735c-0.517-0.553-1.057-1.087-1.621-1.6c-0.564-0.514-1.152-1.006-1.771-1.464
		c-0.156-0.113-0.31-0.229-0.47-0.336l-0.125-0.087l-0.125-0.084c-0.097-0.062-0.186-0.111-0.281-0.162
		c-0.382-0.193-0.796-0.31-1.202-0.328c-0.037-0.001-0.074,0.016-0.095,0.047c-0.034,0.049-0.019,0.113,0.032,0.145
		c0.322,0.205,0.597,0.432,0.818,0.693c0.204,0.243,0.426,0.569,0.651,0.865c0.449,0.599,0.907,1.185,1.372,1.766
		c0.465,0.579,0.936,1.152,1.42,1.716c0.477,0.569,0.979,1.121,1.521,1.643c1.081,1.043,2.312,1.98,3.342,3.075
		c0.521,0.544,1.008,1.115,1.48,1.701c0.472,0.585,0.915,1.197,1.367,1.807c0.449,0.61,0.902,1.225,1.397,1.805
		c0.487,0.589,1.022,1.138,1.564,1.681c0.543,0.543,1.096,1.074,1.683,1.586l0.218,0.188l0.107,0.092l0.054,0.046l0.028,0.022
		l0.059,0.047l0.473,0.354c0.32,0.23,0.647,0.449,0.981,0.658c1.34,0.825,2.761,1.484,4.201,2.036
		c1.447,0.544,2.896,1.019,4.41,1.403c0.038,0.01,0.081-0.002,0.108-0.032C54.734,25.354,54.729,25.288,54.685,25.252z"
		fill="#735FF8"/>
</g>
<g id="Layer_1">
</g>
</svg>
