<?xml version="1.0" encoding="iso-8859-1"?>
<!-- Generator: Adobe Illustrator 16.0.0, SVG Export Plug-In . SVG Version: 6.00 Build 0)  -->
<!DOCTYPE svg PUBLIC "-//W3C//DTD SVG 1.1//EN" "http://www.w3.org/Graphics/SVG/1.1/DTD/svg11.dtd">
<svg id="wand03original" version="1.1" xmlns="http://www.w3.org/2000/svg" xmlns:xlink="http://www.w3.org/1999/xlink" x="0px" y="0px"
	 width="439.859px" height="22.841px" viewBox="0 0 439.859 22.841" style="enable-background:new 0 0 439.859 22.841;"
	 xml:space="preserve">
<g id="Layer_3">
	<path d="M127.013,5.455c0.278,1.756,0.23,3.551,0.077,5.312c-0.25,2.882-0.417,5.768-0.78,8.641
		c0.031,0.078,0.063,0.155,0.091,0.236c0.312,0.879,0.427,1.789,0.36,2.692c-0.039,0.004-0.079,0.006-0.119,0.001
		c-0.021-0.003-0.042-0.009-0.064-0.014c-0.043-0.011-0.087-0.023-0.133-0.044c-0.024-0.012-0.048-0.021-0.072-0.034
		c-0.048-0.025-0.097-0.058-0.146-0.094c-0.022-0.016-0.045-0.031-0.067-0.05c-0.073-0.058-0.148-0.125-0.225-0.207
		c-0.532-0.566-3.314-1.148-8.83-1.607c0.515-2.009,0.627-5.766,0.627-9.009c0-3.253-0.113-7.021-0.632-9.026
		c0.001,0.006,0.003,0.011,0.004,0.017c0.081-0.007,0.164-0.014,0.244-0.021c0.206-0.017,0.406-0.036,0.604-0.053
		c0.087-0.008,0.177-0.016,0.263-0.023c0.191-0.018,0.378-0.036,0.562-0.054c0.088-0.008,0.174-0.017,0.26-0.025
		c0.179-0.019,0.355-0.036,0.527-0.055c0.082-0.008,0.163-0.017,0.243-0.026c0.169-0.018,0.335-0.036,0.497-0.056
		c0.075-0.008,0.146-0.017,0.22-0.025c0.163-0.019,0.324-0.039,0.479-0.059c0.061-0.008,0.12-0.016,0.18-0.023
		c0.158-0.021,0.314-0.041,0.466-0.062c0.053-0.007,0.103-0.014,0.155-0.021c0.15-0.022,0.299-0.043,0.441-0.064
		c0.044-0.007,0.085-0.014,0.129-0.021c0.146-0.022,0.29-0.045,0.426-0.068c0.021-0.004,0.04-0.007,0.061-0.011
		c0.654-0.111,1.203-0.224,1.649-0.339c0.006-0.002,0.014-0.003,0.021-0.005c0.091-0.023,0.175-0.047,0.258-0.071
		c0.025-0.006,0.052-0.014,0.077-0.021c0.074-0.022,0.142-0.044,0.209-0.066c0.437-0.144,0.724-0.29,0.859-0.434
		c0.063-0.068,0.124-0.114,0.184-0.164c0.042,0.448,0.046,0.893,0.011,1.332C126.668,3.016,126.802,4.13,127.013,5.455z
		 M128.329,5.64c0.124,1.789,0.161,3.792,0.161,5.639c0,1.846-0.037,3.85-0.16,5.639c69.91-0.211,311.03-2.628,311.03-5.639
		C439.359,8.267,198.237,5.85,128.329,5.64z M71.455,18.858c1.362-0.336,2.636-0.827,3.702-1.476
		c1.064-0.647,1.902-1.466,2.39-2.393c0.243-0.465,0.412-0.95,0.488-1.447c0.04-0.248,0.062-0.5,0.063-0.752
		c0-0.266-0.007-0.548-0.013-0.826c-0.006-0.56-0.011-1.129,0.013-1.706c0.031-0.576,0.084-1.16,0.208-1.746
		c0.125-0.585,0.303-1.176,0.595-1.746c0.286-0.571,0.683-1.123,1.201-1.608c0.514-0.485,1.148-0.895,1.843-1.201
		c0.695-0.306,1.438-0.519,2.188-0.66c0.385-0.067,0.771-0.117,1.156-0.153c-0.228,0-0.454-0.001-0.681-0.002
		c-0.314-0.001-0.626-0.001-0.944-0.003c-0.368-0.001-0.744-0.003-1.117-0.006c-0.362-0.001-0.723-0.003-1.09-0.006
		c-0.367-0.002-0.738-0.005-1.109-0.009c-0.376-0.002-0.753-0.005-1.135-0.008c-0.375-0.004-0.756-0.007-1.137-0.011
		C77.729,3.098,77.38,3.094,77.03,3.09c-1.461,0.157-2.905,0.357-4.205,0.775c-1.313,0.398-2.436,1.041-3.157,1.882
		c-0.729,0.84-1.081,1.856-1.234,2.914c-0.078,0.53-0.116,1.071-0.121,1.621c-0.014,0.548-0.003,1.105,0.009,1.671
		c0.002,0.286,0.006,0.565,0.002,0.864c-0.006,0.311-0.032,0.622-0.093,0.933c-0.122,0.618-0.344,1.229-0.686,1.801
		c-0.675,1.148-1.806,2.114-3.132,2.78c-1.327,0.676-2.827,1.063-4.323,1.268c-1.503,0.188-3.016,0.204-4.49,0.051
		c1.472-0.155,2.917-0.354,4.276-0.711c1.363-0.342,2.636-0.837,3.702-1.493c1.065-0.653,1.903-1.48,2.39-2.418
		c0.243-0.469,0.413-0.958,0.489-1.463c0.04-0.251,0.062-0.504,0.062-0.76c0.001-0.268-0.006-0.554-0.012-0.834
		c-0.006-0.566-0.012-1.142,0.013-1.724c0.032-0.583,0.085-1.172,0.208-1.765c0.125-0.591,0.304-1.188,0.596-1.765
		c0.286-0.577,0.682-1.135,1.199-1.625c0.516-0.489,1.148-0.905,1.844-1.213c0.695-0.309,1.438-0.524,2.188-0.666
		c0.64-0.113,1.282-0.171,1.922-0.201c-0.332,0.007-0.663,0.006-0.996,0.032c-0.052-0.001-0.104-0.001-0.156-0.002
		c-0.414-0.005-0.832-0.012-1.251-0.019c-0.396-0.006-0.794-0.012-1.195-0.019C70.445,3,70.008,2.991,69.571,2.983
		c-0.411-0.007-0.822-0.015-1.239-0.022c-0.438-0.008-0.882-0.017-1.327-0.025c-0.419-0.008-0.838-0.017-1.262-0.025
		c-0.465-0.01-0.937-0.02-1.407-0.029c-0.416-0.009-0.83-0.018-1.251-0.027c-0.477-0.011-0.962-0.022-1.445-0.034
		c-0.431-0.009-0.857-0.02-1.292-0.03c-0.521-0.012-1.051-0.025-1.58-0.039c-0.4-0.01-0.795-0.02-1.2-0.03
		c-0.935-0.024-1.879-0.05-2.835-0.077c-0.07-0.002-0.141-0.004-0.21-0.006c-0.891-0.024-1.79-0.051-2.699-0.077
		c-0.385-0.011-0.778-0.024-1.166-0.036c-0.612-0.018-1.224-0.037-1.845-0.057c-0.414-0.013-0.835-0.026-1.253-0.04
		c-0.602-0.02-1.201-0.038-1.811-0.059c-0.454-0.015-0.916-0.03-1.374-0.046c-0.583-0.02-1.165-0.039-1.755-0.06
		c-0.476-0.017-0.959-0.034-1.44-0.051c-0.146-0.005-0.294-0.011-0.442-0.016c-1.702,0.155-3.392,0.371-4.924,0.84
		c-1.543,0.449-2.878,1.186-3.743,2.165c-0.875,0.978-1.296,2.166-1.483,3.392c-0.094,0.614-0.139,1.241-0.149,1.876
		c-0.016,0.634-0.003,1.275,0.01,1.927c0.003,0.328,0.008,0.65,0.003,0.992c-0.007,0.353-0.037,0.707-0.106,1.059
		c-0.138,0.702-0.391,1.396-0.78,2.044c-0.77,1.305-2.063,2.405-3.584,3.171c-1.522,0.775-3.249,1.23-4.978,1.476
		c-0.121,0.017-0.243,0.023-0.363,0.038c5.245-0.235,10.274-0.445,15.069-0.629c0.771,0.07,1.549,0.098,2.331,0.082
		c-0.678,0-1.354-0.026-2.021-0.092c1.564-0.154,3.102-0.362,4.552-0.738c1.452-0.357,2.812-0.883,3.954-1.579
		c1.14-0.697,2.04-1.582,2.564-2.587c0.26-0.502,0.442-1.026,0.524-1.566c0.043-0.269,0.067-0.542,0.068-0.815
		c0-0.284-0.007-0.589-0.013-0.89c-0.006-0.602-0.013-1.213,0.013-1.832c0.033-0.619,0.089-1.246,0.218-1.874
		c0.132-0.627,0.319-1.26,0.627-1.871c0.301-0.612,0.72-1.203,1.264-1.722c0.542-0.519,1.21-0.959,1.944-1.288
		c0.734-0.329,1.519-0.56,2.313-0.712c1.598-0.289,3.211-0.307,4.776-0.155c-1.562,0.157-3.108,0.365-4.504,0.808
		c-1.403,0.42-2.607,1.104-3.384,2.004c-0.785,0.897-1.163,1.987-1.33,3.116c-0.084,0.566-0.125,1.144-0.132,1.729
		c-0.014,0.585-0.003,1.179,0.01,1.781c0.002,0.303,0.006,0.602,0.002,0.918c-0.007,0.329-0.035,0.66-0.099,0.987
		c-0.128,0.654-0.362,1.302-0.722,1.906c-0.71,1.217-1.905,2.24-3.306,2.949c-1.184,0.605-2.499,0.987-3.833,1.228
		c9.691-0.343,18.416-0.579,26.246-0.727c-0.198-0.013-0.397-0.023-0.594-0.044C68.65,19.411,70.095,19.212,71.455,18.858z
		 M84.585,14.99c0.242-0.465,0.412-0.95,0.488-1.447c0.04-0.248,0.062-0.5,0.062-0.752c0-0.266-0.006-0.548-0.012-0.826
		c-0.006-0.56-0.012-1.129,0.013-1.706c0.031-0.576,0.085-1.16,0.208-1.746c0.125-0.585,0.303-1.176,0.596-1.746
		c0.286-0.571,0.683-1.123,1.2-1.608c0.515-0.485,1.148-0.895,1.843-1.201c0.695-0.306,1.438-0.519,2.188-0.66
		c0.487-0.084,0.975-0.134,1.462-0.17c-1.356,0.01-2.754,0.017-4.203,0.019c-0.056,0-0.111,0-0.167,0
		c0.124,0.01,0.249,0.015,0.371,0.027c-1.469,0.156-2.923,0.354-4.23,0.771c-1.313,0.394-2.435,1.03-3.157,1.861
		c-0.729,0.832-1.081,1.838-1.234,2.884c-0.078,0.524-0.116,1.061-0.122,1.604c-0.014,0.543-0.002,1.093,0.009,1.654
		c0.003,0.282,0.007,0.558,0.002,0.853c-0.007,0.31-0.032,0.617-0.093,0.923c-0.122,0.612-0.344,1.218-0.686,1.783
		c-0.674,1.136-1.807,2.092-3.133,2.751c-1.327,0.669-2.827,1.052-4.322,1.254c-0.113,0.015-0.227,0.021-0.34,0.033
		c0.941-0.016,1.882-0.031,2.795-0.043c0.159,0.013,0.32,0.008,0.48,0.017c1.337-0.147,2.65-0.339,3.89-0.661
		c1.363-0.336,2.636-0.827,3.702-1.476C83.26,16.735,84.098,15.917,84.585,14.99z M20.789,20.483
		c1.595-0.379,3.095-0.942,4.356-1.697c1.26-0.754,2.259-1.717,2.841-2.813c0.29-0.546,0.491-1.12,0.583-1.708
		c0.049-0.295,0.074-0.591,0.076-0.89c0.001-0.31-0.007-0.639-0.013-0.962c-0.008-0.651-0.015-1.312,0.013-1.979
		c0.035-0.667,0.095-1.343,0.234-2.019c0.142-0.675,0.345-1.355,0.677-2.013c0.326-0.657,0.777-1.292,1.367-1.848
		c0.586-0.559,1.309-1.033,2.104-1.388c0.796-0.356,1.649-0.607,2.513-0.775c1.003-0.185,2.014-0.264,3.018-0.275h-0.001
		c-0.202-0.008-0.404-0.015-0.607-0.022c-0.616-0.023-1.233-0.046-1.857-0.07c-0.481-0.018-0.967-0.037-1.453-0.056
		c-0.622-0.023-1.247-0.048-1.875-0.073c-0.505-0.02-1.013-0.041-1.523-0.061c-0.639-0.026-1.282-0.052-1.93-0.079
		c-0.504-0.021-1.01-0.042-1.518-0.063c-0.654-0.027-1.313-0.056-1.975-0.083c-0.521-0.022-1.041-0.044-1.566-0.067
		c-0.677-0.029-1.362-0.059-2.047-0.089c-0.508-0.023-1.015-0.045-1.526-0.067c-0.705-0.032-1.418-0.065-2.131-0.097
		c-0.523-0.024-1.043-0.047-1.571-0.072c-0.744-0.034-1.497-0.07-2.25-0.105c-0.488-0.023-0.972-0.046-1.463-0.07
		c-0.813-0.039-1.638-0.079-2.462-0.119C10.341,0.9,9.884,0.878,9.418,0.855C8.143,0.793,6.856,0.729,5.556,0.663
		C4.658,0.618,3.908,0.912,3.278,1.438c-0.004,0-0.008,0-0.012,0C3.25,1.453,3.235,1.47,3.218,1.485
		C3.152,1.542,3.089,1.606,3.025,1.669c-0.079,0.08-0.157,0.162-0.233,0.249C2.731,1.989,2.67,2.061,2.612,2.136
		C2.535,2.237,2.461,2.345,2.388,2.455C2.331,2.54,2.274,2.623,2.221,2.713C2.126,2.873,2.034,3.04,1.948,3.214
		C1.902,3.307,1.859,3.405,1.815,3.502c-0.055,0.12-0.108,0.243-0.158,0.369C1.616,3.974,1.575,4.079,1.535,4.186
		C1.485,4.325,1.438,4.467,1.391,4.61C1.36,4.708,1.327,4.803,1.297,4.901C1.229,5.133,1.165,5.37,1.106,5.611
		c-0.024,0.099-0.045,0.2-0.067,0.301C1.001,6.079,0.965,6.247,0.932,6.417C0.91,6.528,0.89,6.639,0.87,6.752
		C0.839,6.928,0.811,7.104,0.784,7.283C0.769,7.382,0.753,7.48,0.739,7.581c-0.037,0.271-0.07,0.543-0.098,0.818
		C0.635,8.463,0.631,8.527,0.624,8.591C0.604,8.816,0.585,9.04,0.569,9.265C0.563,9.364,0.558,9.461,0.551,9.559
		C0.54,9.761,0.53,9.963,0.523,10.165c-0.004,0.089-0.007,0.178-0.01,0.266C0.505,10.715,0.5,10.998,0.5,11.279
		c0,0.308,0.005,0.619,0.015,0.931c0.004,0.127,0.012,0.256,0.017,0.383c0.008,0.185,0.015,0.37,0.027,0.554
		c0.01,0.169,0.027,0.338,0.041,0.507c0.012,0.145,0.021,0.288,0.035,0.43c0.019,0.19,0.043,0.377,0.066,0.566
		c0.015,0.119,0.027,0.24,0.043,0.358c0.027,0.197,0.061,0.392,0.092,0.586c0.018,0.106,0.033,0.216,0.052,0.321
		c0.036,0.198,0.078,0.388,0.119,0.579c0.021,0.101,0.041,0.202,0.063,0.301c0.044,0.188,0.094,0.371,0.145,0.553
		c0.026,0.098,0.05,0.195,0.077,0.289c0.052,0.176,0.11,0.343,0.168,0.512c0.026,0.079,0.05,0.164,0.079,0.241
		c0.001,0,0.002,0,0.003,0.002c0.78,2.127,2.054,3.603,4.014,3.504c3.992-0.202,7.866-0.39,11.627-0.563
		c0.041,0.001,0.083-0.003,0.124-0.003c-0.506-0.011-1.01-0.035-1.51-0.078C17.509,21.098,19.195,20.881,20.789,20.483z
		 M115.735,2.407c0-0.439-0.047-0.87-0.136-1.292c-0.048,0.045-0.095,0.079-0.145,0.136c-0.506,0.569-3.292,1.156-8.884,1.601
		c-0.042,0.001-0.082,0.003-0.123,0.005c-0.175,0.006-0.349,0.012-0.525,0.018c-0.293,0.01-0.591,0.02-0.89,0.029
		c-0.178,0.005-0.355,0.011-0.536,0.017c-0.31,0.01-0.623,0.018-0.939,0.027c-0.186,0.004-0.373,0.01-0.56,0.015
		c-0.312,0.008-0.627,0.016-0.946,0.024c-0.209,0.005-0.422,0.01-0.634,0.015c-0.309,0.007-0.619,0.013-0.935,0.02
		c-0.219,0.004-0.442,0.009-0.665,0.013c-0.331,0.007-0.662,0.013-0.999,0.02c-0.215,0.003-0.433,0.007-0.651,0.01
		c-0.341,0.005-0.684,0.011-1.032,0.017c-0.23,0.003-0.466,0.005-0.699,0.009c-0.353,0.005-0.705,0.009-1.064,0.014
		c-0.196,0.002-0.395,0.003-0.593,0.005c0.299,0.016,0.597,0.035,0.893,0.065c-1.469,0.156-2.921,0.354-4.229,0.771
		c-1.314,0.394-2.437,1.03-3.158,1.861c-0.729,0.832-1.081,1.838-1.234,2.884c-0.078,0.524-0.115,1.061-0.122,1.604
		c-0.014,0.543-0.002,1.093,0.01,1.654c0.002,0.282,0.006,0.558,0.001,0.853c-0.006,0.31-0.032,0.617-0.093,0.923
		c-0.121,0.612-0.343,1.218-0.686,1.783c-0.674,1.136-1.806,2.092-3.132,2.751c-1.211,0.611-2.568,0.976-3.933,1.188
		c0.546-0.005,1.099-0.01,1.633-0.014c-0.127,0.014-0.254,0.03-0.383,0.043c0.247,0.024,0.496,0.038,0.744,0.055
		c1.372-0.149,2.717-0.342,3.987-0.673c1.362-0.336,2.635-0.827,3.702-1.476c1.064-0.647,1.902-1.466,2.39-2.393
		c0.243-0.465,0.412-0.95,0.488-1.447c0.04-0.248,0.061-0.5,0.063-0.752c0-0.266-0.008-0.548-0.013-0.826
		c-0.006-0.56-0.011-1.129,0.013-1.706c0.032-0.576,0.085-1.16,0.208-1.746c0.125-0.585,0.304-1.176,0.596-1.746
		c0.286-0.571,0.683-1.123,1.2-1.608c0.515-0.485,1.148-0.895,1.842-1.201c0.696-0.306,1.438-0.519,2.188-0.66
		c1.51-0.263,3.029-0.275,4.502-0.125c-1.469,0.156-2.922,0.354-4.229,0.771c-1.314,0.394-2.436,1.03-3.157,1.861
		c-0.73,0.832-1.081,1.838-1.235,2.884c-0.077,0.524-0.115,1.061-0.121,1.604c-0.014,0.543-0.002,1.093,0.009,1.654
		c0.002,0.282,0.006,0.558,0.002,0.853c-0.007,0.31-0.033,0.617-0.094,0.923c-0.122,0.612-0.344,1.218-0.685,1.783
		c-0.674,1.136-1.807,2.092-3.133,2.751c-1.148,0.577-2.426,0.935-3.718,1.152c8.28-0.013,15.136,0.098,20.677,0.296
		c4.931,0.392,7.676,0.895,8.604,1.398c0.271-0.741,0.396-1.522,0.333-2.327c-0.001-0.019-0.001-0.036-0.002-0.054
		c0.127-0.361,0.269-0.719,0.411-1.078c0.558-1.408,0.804-2.735,1.024-4.225c0.153-1.039,0.221-2.104,0.278-3.147
		C117.368,7.632,117.043,4.851,115.735,2.407z" fill="#00A3FF"/>
</g>
<g id="Layer_1">
</g>
</svg>
