<?xml version="1.0" encoding="iso-8859-1"?>
<!-- Generator: Adobe Illustrator 16.0.0, SVG Export Plug-In . SVG Version: 6.00 Build 0)  -->
<!DOCTYPE svg PUBLIC "-//W3C//DTD SVG 1.1//EN" "http://www.w3.org/Graphics/SVG/1.1/DTD/svg11.dtd">
<svg id="wand08original" version="1.1" xmlns="http://www.w3.org/2000/svg" xmlns:xlink="http://www.w3.org/1999/xlink" x="0px" y="0px" width="452.4px"
	 height="33.93px" viewBox="0 0 452.4 33.93" style="enable-background:new 0 0 452.4 33.93;" xml:space="preserve">
<g id="Layer_8">
	<path d="M451.897,23.251c0-0.012,0.001-0.02-0.006-0.03c-0.002-0.002-0.004-0.006-0.005-0.008c-0.008-0.01-0.024-0.018-0.034-0.026
		c-0.017-0.014-0.034-0.029-0.06-0.044c-0.01-0.008-0.018-0.012-0.03-0.02c-0.013-0.007-0.032-0.015-0.044-0.022
		c-0.031-0.015-0.064-0.03-0.102-0.049c-0.03-0.016-0.064-0.028-0.101-0.044c-0.019-0.008-0.031-0.015-0.051-0.021
		c-0.006-0.004-0.01-0.006-0.015-0.008c-0.031-0.014-0.07-0.024-0.103-0.038c-0.043-0.017-0.086-0.034-0.133-0.051
		c-0.038-0.014-0.077-0.028-0.118-0.042c-0.036-0.014-0.076-0.026-0.114-0.04c-0.053-0.017-0.101-0.034-0.156-0.053
		c-0.072-0.024-0.156-0.05-0.238-0.078c-0.049-0.013-0.095-0.03-0.145-0.045c-0.031-0.01-0.06-0.018-0.091-0.028
		c-0.176-0.056-0.365-0.11-0.571-0.173c-0.043-0.012-0.113-0.03-0.199-0.053c-0.012-0.004-0.02-0.006-0.031-0.01
		c-0.041-0.008-0.097-0.022-0.147-0.036c-0.043-0.01-0.088-0.021-0.136-0.032c-0.004,0-0.007-0.002-0.011-0.002
		c-0.025-0.006-0.043-0.012-0.07-0.019c-0.363-0.089-0.859-0.205-1.501-0.353c0.002,0,0.002,0,0.002,0
		c-0.112-0.025-0.22-0.052-0.339-0.076c-0.06-0.016-0.125-0.03-0.187-0.044c-0.199-0.045-0.406-0.095-0.624-0.142
		c-0.098-0.023-0.196-0.046-0.296-0.066c-0.184-0.044-0.373-0.087-0.569-0.131c-0.131-0.03-0.261-0.057-0.396-0.087
		c-0.199-0.046-0.406-0.093-0.617-0.141c-0.122-0.028-0.243-0.055-0.372-0.083c-0.705-0.158-1.462-0.326-2.266-0.505
		c-0.063-0.013-0.129-0.028-0.194-0.041c-0.348-0.076-0.703-0.156-1.066-0.233c-0.093-0.021-0.186-0.042-0.281-0.062
		c-0.344-0.076-0.692-0.152-1.049-0.229c-0.101-0.022-0.199-0.044-0.303-0.064c-1.379-0.302-2.841-0.618-4.359-0.94
		c-0.07-0.017-0.141-0.032-0.213-0.047c-0.432-0.094-0.867-0.187-1.307-0.277c-0.091-0.021-0.18-0.039-0.269-0.057
		c-0.455-0.099-0.914-0.193-1.374-0.29c-0.067-0.015-0.133-0.028-0.199-0.044c-1.587-0.335-3.203-0.668-4.824-1.001
		c-0.098-0.019-0.193-0.041-0.291-0.061c-0.439-0.088-0.878-0.178-1.315-0.267c-0.108-0.022-0.214-0.044-0.321-0.066
		c-0.474-0.096-0.947-0.19-1.418-0.286c-0.056-0.01-0.111-0.021-0.167-0.034c-1.062-0.211-2.113-0.418-3.147-0.623
		c-0.113-0.021-0.227-0.042-0.34-0.065c-0.402-0.078-0.801-0.155-1.196-0.23c-0.122-0.024-0.243-0.048-0.366-0.072
		c-0.389-0.074-0.772-0.148-1.156-0.219c-0.113-0.022-0.229-0.044-0.342-0.063c-0.091-0.018-0.184-0.036-0.272-0.052h0.001
		c-2.945-0.55-5.636-1.023-7.822-1.354c-0.454-0.069-0.89-0.132-1.334-0.198l-0.001-0.002c-0.144-0.019-0.278-0.039-0.418-0.059
		c-0.574-0.086-1.142-0.169-1.699-0.249c-0.281-0.041-0.563-0.081-0.84-0.123c-0.616-0.085-1.223-0.169-1.822-0.253
		c-0.119-0.015-0.244-0.034-0.363-0.052l0.001,0.002c-2.964-0.406-5.723-0.75-8.333-1.039c0,0,0,0,0-0.002
		c-0.167-0.019-0.329-0.034-0.493-0.052c-0.361-0.04-0.721-0.078-1.076-0.115c-0.173-0.018-0.349-0.037-0.521-0.055
		c0.003,0,0.007,0,0.01,0c-0.222-0.024-0.438-0.043-0.657-0.064c-0.201-0.02-0.404-0.04-0.605-0.06
		c-0.121-0.012-0.243-0.024-0.363-0.035c-0.026-0.002-0.051-0.004-0.077-0.008c-0.375-0.036-0.748-0.068-1.118-0.103
		c-0.106-0.008-0.213-0.018-0.32-0.028c-0.055-0.004-0.105-0.008-0.16-0.013c-0.132-0.012-0.265-0.022-0.396-0.034
		c-0.335-0.028-0.67-0.055-1.001-0.083c-0.135-0.01-0.271-0.021-0.404-0.032c-0.103-0.007-0.204-0.015-0.308-0.021
		c-0.245-0.019-0.493-0.039-0.738-0.056c-0.007-0.002-0.015-0.002-0.021-0.002c-0.083-0.006-0.166-0.012-0.248-0.018
		c-0.162-0.01-0.326-0.023-0.488-0.034c-0.042-0.003-0.086-0.004-0.128-0.008c-0.416-0.028-0.829-0.056-1.242-0.082
		c-0.135-0.007-0.271-0.016-0.405-0.024c-0.121-0.005-0.241-0.013-0.362-0.019c-0.042-0.002-0.085-0.006-0.129-0.008
		c-0.371-0.022-0.743-0.042-1.112-0.06c-0.161-0.009-0.324-0.016-0.488-0.024c-0.377-0.017-0.755-0.033-1.129-0.05
		c-0.025,0-0.05-0.002-0.075-0.004c-0.172-0.007-0.346-0.014-0.519-0.02c-0.392-0.014-0.783-0.028-1.175-0.042
		c-0.151-0.002-0.302-0.008-0.454-0.014c-0.529-0.014-1.061-0.028-1.589-0.04c-0.13-0.002-0.261-0.004-0.391-0.006
		c-0.412-0.008-0.826-0.014-1.24-0.02c-0.185-0.002-0.37-0.003-0.555-0.004c-0.383-0.004-0.766-0.006-1.149-0.008
		c-0.168,0-0.337-0.002-0.506-0.002c-0.311,0-0.621,0-0.935,0.002l-0.001-0.002c-0.059,0-0.121,0.002-0.18,0.002
		c-0.173,0.002-0.341,0.002-0.513,0.002c-0.067,0-0.137,0.002-0.204,0.002c-0.486,0.004-0.975,0.008-1.467,0.014
		c-0.184,0.004-0.368,0.008-0.552,0.01c-0.397,0.006-0.798,0.012-1.2,0.021c-0.181,0.003-0.36,0.007-0.543,0.011
		c-0.154,0.003-0.309,0.007-0.463,0.01c-0.029,0-0.06,0.002-0.091,0.002c-0.332,0.009-0.667,0.017-1.004,0.024
		c-0.057,0.002-0.113,0.004-0.17,0.006c-0.586,0.014-1.179,0.034-1.778,0.054c-0.173,0.005-0.347,0.011-0.521,0.017
		c-0.442,0.016-0.889,0.031-1.339,0.048c-0.169,0.005-0.339,0.013-0.511,0.018c-0.024,0.002-0.048,0.002-0.071,0.004l0,0
		c-0.51,0.02-1.026,0.042-1.549,0.063c-0.108,0.004-0.215,0.009-0.322,0.011c-0.647,0.028-1.304,0.057-1.972,0.087
		c-0.133,0.008-0.271,0.013-0.407,0.02c-0.533,0.022-1.07,0.048-1.617,0.076c-0.206,0.01-0.413,0.02-0.622,0.03
		c-0.543,0.026-1.093,0.054-1.65,0.083c-0.142,0.006-0.279,0.013-0.423,0.02c-0.731,0.037-1.475,0.076-2.232,0.116
		c-0.024,0.001-0.05,0.002-0.074,0.002c-0.721,0.04-1.459,0.078-2.204,0.118c-0.195,0.009-0.396,0.021-0.594,0.031
		c-0.382,0.02-0.765,0.042-1.153,0.062c-0.31,0.016-0.63,0.034-0.944,0.052c-0.059,0.002-0.115,0.005-0.173,0.009
		c-0.843,0.045-1.696,0.092-2.573,0.139c-0.259,0.014-0.521,0.03-0.782,0.043c0.003,0,0.006,0,0.009,0
		c-1.242,0.067-2.486,0.138-3.741,0.211c-0.251,0.015-0.504,0.03-0.755,0.044c-1.291,0.078-2.587,0.156-3.89,0.236
		c-0.059,0.003-0.116,0.004-0.174,0.008c-6.438,0.4-13.023,0.842-19.697,1.276c-2.439,0.157-4.887,0.315-7.348,0.469
		c-1.853,0.117-3.709,0.23-5.571,0.341c-0.153,0.007-0.307,0.017-0.459,0.027c-2.052,0.12-4.108,0.236-6.167,0.345
		c-0.528,0.029-1.058,0.057-1.587,0.084c-0.389,0.02-0.777,0.036-1.167,0.056c-7.512,0.384-15.058,0.683-22.56,0.824
		c-0.024,0-0.049,0-0.073,0c-2.533,0.045-5.062,0.075-7.583,0.083c0.004,0.001,0.008,0.003,0.013,0.003
		c-5.346,0.018-10.652-0.065-15.897-0.266c-0.003,0-0.005-0.002-0.007-0.004c-3.333-0.127-6.641-0.303-9.916-0.536
		c-0.153-0.008-0.304-0.022-0.456-0.032c-1.429-0.104-2.85-0.219-4.263-0.345c-0.325-0.028-0.647-0.059-0.972-0.088
		c-1.268-0.119-2.529-0.247-3.785-0.381c-5.612-0.611-11.106-1.408-16.429-2.443c-0.001,0-0.001,0-0.002,0
		c-5.784-1.126-11.376-2.522-16.722-4.242c-0.988-0.318-2.009-0.622-3.045-0.918c-0.198-0.058-0.394-0.113-0.595-0.168
		c-1.003-0.283-2.027-0.553-3.071-0.815c-0.21-0.051-0.422-0.104-0.635-0.157c-1.061-0.258-2.137-0.51-3.236-0.751
		c-0.038-0.006-0.075-0.018-0.114-0.025c-1.122-0.244-2.269-0.474-3.428-0.697c-0.237-0.047-0.473-0.092-0.711-0.138
		c-1.128-0.21-2.272-0.414-3.431-0.608c-0.233-0.037-0.467-0.075-0.701-0.111c-1.167-0.19-2.346-0.372-3.54-0.543
		c-0.057-0.007-0.113-0.016-0.17-0.025c-1.232-0.172-2.482-0.333-3.74-0.486c-0.254-0.031-0.507-0.062-0.761-0.093
		c-1.229-0.145-2.468-0.28-3.718-0.406c-0.233-0.024-0.467-0.045-0.701-0.068c-1.262-0.122-2.53-0.237-3.809-0.339
		c-0.056-0.003-0.111-0.009-0.167-0.015c-1.317-0.104-2.646-0.193-3.978-0.278c-0.25-0.014-0.498-0.031-0.747-0.045
		c-1.305-0.08-2.615-0.146-3.93-0.204c-0.216-0.01-0.431-0.017-0.647-0.026c-1.328-0.054-2.659-0.101-3.995-0.133
		c-0.051-0.002-0.102-0.004-0.153-0.006c-0.849-0.021-1.699-0.036-2.551-0.049c0.001,0,0.003,0,0.004,0
		c-0.024,0-0.048,0-0.073-0.001c-0.493-0.007-0.986-0.01-1.48-0.014c-0.241-0.002-0.481-0.003-0.722-0.005
		c-0.437-0.002-0.873-0.004-1.31-0.005c-0.093,0-0.187,0-0.28,0c-0.139,0-0.279,0.001-0.418,0.001
		c-0.67,0.002-1.341,0.004-2.012,0.011c-0.198,0.002-0.396,0.005-0.594,0.007c-0.093,0.002-0.186,0.003-0.279,0.003
		c-0.192,0.003-0.384,0.003-0.577,0.007c-0.068,0-0.138,0.002-0.207,0.004c-0.989,0.016-1.978,0.038-2.964,0.065
		c-0.06,0.002-0.121,0.002-0.18,0.004c-0.191,0.004-0.382,0.012-0.573,0.018c-0.039,0.001-0.078,0.003-0.118,0.003
		c-1.012,0.031-2.021,0.071-3.028,0.114c-0.189,0.008-0.377,0.016-0.565,0.024c-0.065,0.003-0.13,0.005-0.195,0.007
		c-0.004,0.001-0.009,0.003-0.014,0.003c-0.009,0.002-0.018,0.002-0.028,0.002c-0.981,0.047-1.96,0.098-2.936,0.155
		c-0.176,0.009-0.351,0.018-0.526,0.028c-1.131,0.068-2.258,0.146-3.38,0.229c-0.235,0.018-0.467,0.038-0.701,0.056
		c-0.897,0.068-1.791,0.145-2.681,0.226c-0.296,0.026-0.592,0.052-0.887,0.081c-1.097,0.102-2.188,0.21-3.271,0.329
		c-0.799,0.089-1.573,0.176-2.332,0.269c-0.159,0.021-0.312,0.042-0.469,0.059c-0.598,0.074-1.188,0.15-1.763,0.227
		c-0.062,0.009-0.126,0.016-0.188,0.023c-0.003,0.002-0.007,0.002-0.01,0.004C86.429,5.043,79.697,9.186,60.739,12.629
		c-1.598,0.289-3.121,0.523-4.589,0.714c-0.942,0.123-1.854,0.224-2.748,0.31c-0.131,0.012-0.265,0.026-0.395,0.04
		c-0.916,0.083-1.807,0.147-2.677,0.191c-0.116,0.008-0.23,0.012-0.346,0.018c-0.718,0.036-1.416,0.054-2.106,0.064
		c-0.254,0.005-0.511,0.011-0.762,0.011c-0.744,0.003-1.474-0.004-2.188-0.026c-0.387-0.01-0.774-0.021-1.153-0.04
		c-0.09-0.006-0.178-0.012-0.268-0.016c-0.444-0.023-0.886-0.05-1.32-0.081c-0.071-0.006-0.14-0.013-0.211-0.018
		c-0.449-0.034-0.895-0.074-1.334-0.118c-0.065-0.006-0.129-0.014-0.194-0.02c-0.444-0.046-0.886-0.093-1.323-0.146
		c-0.046-0.007-0.092-0.015-0.139-0.02c-0.452-0.056-0.901-0.117-1.346-0.179c-0.038-0.008-0.076-0.012-0.114-0.02
		c-0.453-0.067-0.903-0.135-1.351-0.21c-0.018-0.003-0.035-0.005-0.052-0.008c-0.466-0.081-0.93-0.161-1.391-0.246
		c-0.004-0.002-0.009-0.002-0.014-0.003c-3.338-0.621-6.562-1.427-9.951-2.264h-0.001c-0.972-0.239-1.957-0.482-2.962-0.723
		c0.002,0,0.003,0,0.005,0c-0.447-0.106-0.9-0.212-1.356-0.319c-0.015-0.004-0.031-0.008-0.047-0.011
		c-0.434-0.101-0.874-0.201-1.316-0.3c-0.083-0.02-0.166-0.038-0.25-0.057c-0.424-0.097-0.855-0.189-1.288-0.282
		c-0.103-0.021-0.201-0.045-0.304-0.066c-0.437-0.093-0.882-0.184-1.331-0.274c-0.101-0.02-0.2-0.042-0.303-0.061
		c-0.477-0.097-0.963-0.189-1.453-0.281c-0.077-0.014-0.149-0.028-0.226-0.042c-0.501-0.094-1.012-0.182-1.528-0.272
		c-0.071-0.01-0.138-0.024-0.208-0.036c-0.567-0.097-1.146-0.191-1.732-0.278c-0.02-0.004-0.04-0.008-0.061-0.011
		C9.794,7.455,9.175,7.364,8.544,7.28C8.276,7.243,8.02,7.212,7.767,7.187c0.01,0.005,0.02,0.01,0.03,0.016
		C2.67,6.662,0.632,8.111,0.507,10.518c-0.001,0-0.004,0-0.006,0c-0.003,0.051,0.007,0.108,0.006,0.159
		c-0.003,0.215,0.003,0.437,0.027,0.665c0.01,0.094,0.025,0.187,0.04,0.283c0.032,0.215,0.075,0.435,0.129,0.66
		c0.025,0.103,0.05,0.205,0.079,0.311c0.066,0.235,0.145,0.477,0.232,0.721c0.034,0.095,0.063,0.188,0.1,0.283
		c0.126,0.331,0.268,0.666,0.428,1.007c0.004,0.011,0.007,0.02,0.012,0.029h0c0.234,0.496,0.509,1.004,0.805,1.52
		c-0.005-0.004-0.009-0.008-0.014-0.012c0.044,0.08,0.096,0.158,0.143,0.237c0.096,0.165,0.194,0.326,0.296,0.49
		c0.1,0.161,0.203,0.325,0.308,0.487c0.109,0.167,0.218,0.335,0.332,0.501c0.108,0.162,0.22,0.323,0.333,0.484
		c0.119,0.169,0.238,0.34,0.36,0.508c0.116,0.161,0.235,0.318,0.355,0.481c0.127,0.167,0.256,0.34,0.387,0.509
		c0.122,0.157,0.246,0.314,0.372,0.472c0.136,0.173,0.271,0.341,0.411,0.51c0.126,0.153,0.256,0.309,0.384,0.463
		c0.142,0.166,0.284,0.335,0.428,0.502c0.133,0.153,0.267,0.304,0.401,0.455c0.145,0.163,0.29,0.326,0.436,0.485
		c0.139,0.151,0.278,0.301,0.417,0.449c0.147,0.157,0.292,0.312,0.439,0.466c0.142,0.148,0.284,0.292,0.426,0.438
		c0.147,0.147,0.293,0.297,0.44,0.443c0.145,0.141,0.289,0.28,0.433,0.421c0.146,0.141,0.291,0.28,0.436,0.417
		c0.148,0.142,0.295,0.274,0.442,0.409c0.141,0.129,0.282,0.258,0.423,0.385c0.151,0.135,0.3,0.262,0.449,0.393
		c0.135,0.115,0.27,0.235,0.404,0.347c0.155,0.131,0.307,0.25,0.46,0.376c0.124,0.1,0.25,0.206,0.373,0.301
		c0.163,0.129,0.32,0.246,0.479,0.368c0.109,0.081,0.22,0.168,0.327,0.246c0.174,0.127,0.342,0.241,0.51,0.354
		c0.087,0.062,0.178,0.129,0.265,0.186c0.251,0.167,0.495,0.32,0.731,0.459c0.464,0.273,0.945,0.525,1.435,0.77
		c0.128,0.062,0.257,0.125,0.386,0.188c0.439,0.211,0.887,0.41,1.346,0.598c0.062,0.026,0.122,0.053,0.185,0.077
		c0.52,0.209,1.054,0.402,1.598,0.58c0.128,0.044,0.259,0.084,0.389,0.127c0.469,0.15,0.945,0.288,1.43,0.419
		c0.098,0.026,0.195,0.055,0.294,0.082c0.573,0.149,1.158,0.282,1.752,0.407c0.118,0.022,0.238,0.048,0.357,0.07
		c0.513,0.101,1.032,0.193,1.559,0.278c0.121,0.018,0.242,0.04,0.364,0.057c0.625,0.097,1.259,0.179,1.904,0.251
		c0.084,0.009,0.169,0.017,0.253,0.024c0.578,0.061,1.163,0.109,1.754,0.153c0.134,0.012,0.268,0.021,0.402,0.028
		c0.678,0.046,1.361,0.08,2.056,0.103c0.01,0,0.019,0,0.028,0c0.681,0.022,1.37,0.03,2.065,0.03c0.135,0.002,0.271,0.002,0.406,0
		c1.43-0.006,2.891-0.049,4.378-0.133c0.124-0.004,0.25-0.013,0.375-0.021c0.729-0.044,1.462-0.093,2.202-0.153
		c0.014-0.002,0.026-0.002,0.039-0.004c0.784-0.062,1.575-0.139,2.37-0.219c0.094-0.011,0.188-0.021,0.281-0.031
		c0.744-0.076,1.491-0.162,2.244-0.255c0.049-0.005,0.099-0.011,0.148-0.019c0.817-0.101,1.64-0.21,2.465-0.326
		c0.014-0.002,0.027-0.004,0.042-0.006c0.001,0,0.002-0.002,0.003-0.002c14.976-2.123,31.382-6.72,45.333-10.271
		c0.895-0.228,1.778-0.451,2.651-0.669c0.172-0.042,0.342-0.084,0.513-0.127c0.872-0.217,1.732-0.429,2.58-0.634
		c0.163-0.039,0.325-0.077,0.487-0.115c0.848-0.203,1.683-0.402,2.503-0.592c0.149-0.032,0.296-0.066,0.443-0.103
		c0.825-0.186,1.636-0.367,2.431-0.538c0.131-0.028,0.259-0.057,0.389-0.085c0.803-0.171,1.592-0.334,2.362-0.485
		c0.106-0.021,0.21-0.04,0.316-0.061c0.785-0.153,1.552-0.296,2.298-0.425c0.076-0.012,0.148-0.024,0.225-0.038
		c0.767-0.131,1.517-0.25,2.242-0.354c0.039-0.004,0.077-0.008,0.116-0.014c0.753-0.108,1.484-0.199,2.187-0.272
		c16.453-1.714,27.517-2.162,37.106-1.822c1.146,0.041,2.273,0.093,3.384,0.154c0.003,0.002,0.007,0.002,0.01,0.002
		c3.376,0.189,6.621,0.477,9.918,0.835h0.001c10.487,1.145,21.531,3.032,39.162,4.925c0.52,0.055,1.04,0.103,1.559,0.155
		c0.001,0.002,0.003,0.004,0.005,0.004c0.099,0.01,0.197,0.017,0.295,0.026c4.01,0.405,8.016,0.726,12.019,0.973
		c0.175,0.011,0.35,0.021,0.526,0.03c1.808,0.107,3.615,0.201,5.422,0.278c0.238,0.012,0.476,0.022,0.713,0.032
		c1.939,0.08,3.877,0.145,5.816,0.193c0.054,0.002,0.106,0.004,0.16,0.006c-0.001,0-0.003-0.002-0.005-0.002
		c6.062,0.149,12.118,0.149,18.169,0.038c0.004,0,0.008,0.002,0.012,0.004c0.193-0.004,0.387-0.012,0.58-0.016
		c4.173-0.083,8.342-0.218,12.509-0.396c0.122-0.006,0.243-0.01,0.366-0.016c-0.002,0-0.004,0-0.006,0
		c19.727-0.856,39.401-2.645,59.07-4.174c3.047-0.237,6.094-0.467,9.141-0.687c0.179-0.013,0.357-0.026,0.535-0.04
		c3.131-0.224,6.262-0.438,9.396-0.634c0.709-0.045,1.395-0.089,2.065-0.134c0.256-0.016,0.503-0.034,0.752-0.051
		c0.436-0.029,0.865-0.059,1.286-0.087c0.236-0.017,0.47-0.033,0.701-0.049c0.475-0.031,0.938-0.066,1.396-0.099
		c0.135-0.009,0.274-0.019,0.408-0.03c7.304-0.533,12.393-1.021,17.789-1.343c0.664-0.04,1.332-0.076,2.01-0.109
		c0.071-0.003,0.142-0.007,0.211-0.011c0.675-0.034,1.358-0.065,2.058-0.092c0.06-0.004,0.121-0.005,0.181-0.007
		c0.724-0.029,1.459-0.054,2.215-0.074c0.018,0,0.036-0.002,0.052-0.002c0.791-0.022,1.604-0.039,2.443-0.054c0,0,0,0-0.001,0
		c2.661-0.045,5.612-0.048,9.017-0.004c0.241,0.002,0.479,0.006,0.725,0.01c0.519,0.008,1.048,0.015,1.592,0.024
		c0.301,0.006,0.614,0.016,0.936,0.028c0.117,0.002,0.24,0.008,0.36,0.014c0.214,0.008,0.427,0.018,0.648,0.028
		c0.143,0.008,0.289,0.015,0.435,0.024c0.206,0.01,0.414,0.022,0.628,0.036c0.163,0.009,0.326,0.02,0.492,0.03
		c0.211,0.015,0.424,0.03,0.642,0.046c0.169,0.011,0.339,0.022,0.513,0.037c0.229,0.016,0.461,0.036,0.695,0.054
		c0.166,0.015,0.331,0.026,0.502,0.041c0.267,0.022,0.541,0.047,0.815,0.071c0.145,0.014,0.285,0.025,0.432,0.039
		c0.87,0.08,1.771,0.167,2.702,0.264c2.467,0.258,5.136,0.571,7.923,0.923c0.835,0.106,1.682,0.215,2.538,0.327
		c0.086,0.011,0.171,0.024,0.256,0.034c0.859,0.114,1.726,0.229,2.599,0.345c3.244,0.44,6.568,0.911,9.856,1.388
		c0.546,0.077,1.09,0.159,1.635,0.238c0.257,0.038,0.514,0.076,0.771,0.114c0.318,0.047,0.637,0.093,0.956,0.14
		c0.247,0.036,0.491,0.074,0.739,0.11c0.304,0.044,0.608,0.089,0.911,0.135c0.289,0.042,0.58,0.085,0.868,0.127
		c0.147,0.022,0.294,0.045,0.442,0.066c4.514,0.671,8.798,1.317,12.522,1.869c0.023,0.002,0.047,0.005,0.07,0.009
		c0.17,0.027,0.34,0.052,0.507,0.076c0.137,0.074,0.277,0.149,0.407,0.237c0.016,0.009,0.037,0.007,0.048-0.01
		c0.011-0.014,0.007-0.034-0.008-0.046c-0.083-0.059-0.174-0.102-0.26-0.155c0.21,0.032,0.416,0.062,0.624,0.093
		c0.052,0.006,0.105,0.016,0.159,0.023c0.44,0.064,0.873,0.127,1.294,0.189c0.016,0.002,0.03,0.004,0.043,0.004
		c0.865,0.127,1.688,0.242,2.461,0.351c0.095,0.013,0.187,0.028,0.279,0.039c0.281,0.04,0.556,0.076,0.824,0.114
		c0.104,0.015,0.205,0.028,0.307,0.042c0.26,0.036,0.511,0.067,0.754,0.101c0.091,0.013,0.182,0.026,0.27,0.035
		c0.317,0.042,0.628,0.082,0.92,0.118c0,0,0,0,0.002,0c0.3,0.04,0.586,0.075,0.859,0.105c0.066,0.008,0.127,0.016,0.19,0.023
		c0.192,0.022,0.382,0.043,0.559,0.062c0.084,0.009,0.163,0.019,0.243,0.026c0.044,0.004,0.09,0.01,0.136,0.016l0,0
		c0.018,0.001,0.033,0.003,0.051,0.005c0.072,0.008,0.138,0.012,0.208,0.02c0.024,0.004,0.049,0.006,0.074,0.007
		c0.043,0.004,0.089,0.01,0.133,0.014c0.032,0.004,0.063,0.008,0.096,0.012c0.082,0.004,0.158,0.011,0.231,0.017
		c0.062,0.006,0.127,0.012,0.187,0.018c0.03,0,0.062,0.002,0.091,0.005c0.058,0.004,0.107,0.008,0.16,0.01
		c0.058,0.004,0.112,0.008,0.167,0.01c0.04,0.002,0.087,0.006,0.127,0.006c0.016,0.002,0.026,0.002,0.042,0.002
		c0.008,0,0.015,0,0.021,0c0.05,0.002,0.089,0.004,0.132,0.004c0.052,0,0.105,0.002,0.151,0.002
		c0.025-0.002,0.049-0.002,0.072-0.004c0.013,0,0.02,0,0.032-0.002c0.041-0.002,0.084-0.004,0.115-0.006
		c0.015,0,0.023-0.002,0.034-0.004c0.021-0.004,0.039-0.008,0.058-0.012c0.028-0.006,0.051-0.011,0.067-0.019
		c0.005-0.002,0.009-0.006,0.014-0.008c0.01-0.006,0.021-0.01,0.025-0.017c0.004-0.002,0.008-0.002,0.009-0.004
		C451.902,23.268,451.897,23.258,451.897,23.251z" fill="#8A58F0
"/>
</g>
<g id="Layer_1">
</g>
</svg>
