<?xml version="1.0" encoding="iso-8859-1"?>
<!-- Generator: Adobe Illustrator 16.0.0, SVG Export Plug-In . SVG Version: 6.00 Build 0)  -->
<!DOCTYPE svg PUBLIC "-//W3C//DTD SVG 1.1//EN" "http://www.w3.org/Graphics/SVG/1.1/DTD/svg11.dtd">
<svg id="wand12original" version="1.1" xmlns="http://www.w3.org/2000/svg" xmlns:xlink="http://www.w3.org/1999/xlink" x="0px" y="0px"
	 width="463.353px" height="41.539px" viewBox="0 0 463.353 41.539" style="enable-background:new 0 0 463.353 41.539;"
	 xml:space="preserve">
<g id="Layer_12">
	<path d="M460.765,23.106c0.063-0.011,0.126-0.021,0.185-0.029c0.15-0.022,0.29-0.046,0.415-0.069
		c0.021-0.004,0.049-0.008,0.068-0.013c0.145-0.028,0.27-0.057,0.379-0.084c0.03-0.006,0.058-0.015,0.088-0.022
		c0.077-0.021,0.146-0.043,0.206-0.065c0.022-0.01,0.047-0.015,0.066-0.022c0.068-0.03,0.125-0.059,0.161-0.089
		c0.693-0.57,0.693-2.58,0-3.149c-0.042-0.035-0.108-0.068-0.196-0.103c-0.019-0.006-0.049-0.015-0.07-0.021
		c-0.079-0.026-0.164-0.053-0.27-0.081c-0.029-0.005-0.068-0.014-0.1-0.021c-0.113-0.024-0.237-0.052-0.38-0.077
		c-0.032-0.007-0.069-0.012-0.103-0.019c-0.165-0.028-0.344-0.057-0.54-0.084c-0.007,0-0.009-0.001-0.016-0.001l0,0
		c-5.29-0.75-22.457-1.363-46.454-1.865l0,0c-0.497-0.011-1.01-0.021-1.512-0.031c-0.599-0.013-1.198-0.025-1.806-0.038
		c-0.342-0.005-0.686-0.012-1.033-0.021c-0.958-0.018-1.929-0.036-2.909-0.055c-0.121-0.002-0.244-0.004-0.362-0.008
		c-5.138-0.097-10.531-0.188-16.144-0.277l0,0c-0.259-0.005-0.524-0.007-0.785-0.014c-9.915-0.153-20.496-0.295-31.509-0.425l0,0
		c-0.042,0-0.083,0-0.123-0.003c-0.931-0.01-1.863-0.021-2.797-0.031c-0.122-0.001-0.241-0.003-0.363-0.005l0,0
		c-3.066-0.036-6.164-0.071-9.289-0.103l0,0c-0.854-0.011-1.716-0.018-2.572-0.027c-0.917-0.01-1.835-0.019-2.759-0.028
		c-0.164-0.003-0.325-0.005-0.489-0.007l0,0c-2.785-0.03-5.588-0.055-8.406-0.082l0,0c-0.313-0.005-0.63-0.006-0.944-0.008
		c-2.142-0.023-4.293-0.042-6.45-0.063c-0.378-0.004-0.755-0.008-1.134-0.01c-5.396-0.049-10.832-0.097-16.29-0.142l0,0
		c-0.006,0-0.011,0-0.018,0c-7.472-0.062-14.98-0.119-22.468-0.172l0,0c-0.362-0.003-0.725-0.005-1.091-0.006
		c-11.372-0.082-22.688-0.154-33.739-0.219c0-0.001-0.001-0.001-0.001-0.001c-2.58-0.016-5.146-0.029-7.695-0.043h0.001
		c-8.189-0.046-16.2-0.09-23.951-0.126h-0.001c-2.098-0.01-4.177-0.021-6.236-0.031c0,0,0.001,0,0.002,0
		c-20.831-0.096-39.51-0.169-54.268-0.224l0,0c-3.248-0.012-6.297-0.026-9.146-0.035c0.655-1.777,1.119-4.155-1.622-4.489
		c-3.036-0.366-4.466,3.191-2.324,3.165c-0.646,0.502-1.334,0.943-2.088,1.303c-3.514-0.012-6.598-0.024-9.195-0.035
		c-1.642-0.682-3.187-1.521-4.962-1.956c-0.04-0.045-0.084-0.084-0.124-0.132c2.213,0.765,3.387-0.801,3.97-2.29
		c0.623-1.587,0.167-3.222-1.575-4.372c-2.805-1.846-7.627-2.129-10.948-1.379c1.16-2.359-2.6-4.028-3.7-1.213
		c-0.542,1.39-1.159,2.578-2.096,3.67c-0.816,0.416-1.601,0.873-2.376,1.344c-1.389,0.659-2.842,1.211-4.141,1.692
		c-1.257,0.464-2.565,0.876-3.892,1.262c-0.168-0.051-0.332-0.103-0.5-0.153c-3.812-1.136-9.197-0.236-12.613-1.845
		c-3.722-1.751-4.863-3.656-9.666-3.84c-0.088-0.005-0.181,0.007-0.269,0.007c-2.788-0.438-5.533,0.127-7.154,2.252
		c-1.111,1.455-0.768,2.679,0.134,3.52c-0.168,0.078-0.343,0.154-0.541,0.217c-1.94,0.631-4.448-0.208-6.288-0.664
		c-4.904-1.219-5.718-2.463-6.594-6.15c-0.895-3.766-4.054-4.926-9.092-4.308c-4.047,0.496-6.241,3.623-6.948,6.467
		c-1.256-0.504-2.516-0.999-3.781-1.473c-0.16-0.391-0.369-0.771-0.661-1.143c-1.905-2.443-5.46-3.192-8.723-3.604
		c-0.396-0.049-0.804-0.095-1.219-0.135c-0.132-0.013-0.267-0.025-0.399-0.038c-0.292-0.026-0.589-0.05-0.89-0.073
		c-0.156-0.01-0.312-0.023-0.468-0.033c-0.302-0.018-0.606-0.038-0.914-0.052c-0.148-0.005-0.293-0.014-0.441-0.02
		c-0.4-0.017-0.806-0.029-1.214-0.037c-0.056-0.003-0.111-0.005-0.167-0.007c-0.467-0.007-0.94-0.01-1.417-0.006
		c-0.127,0.002-0.255,0.005-0.381,0.006c-0.353,0.004-0.707,0.013-1.062,0.023c-0.158,0.007-0.314,0.013-0.47,0.016
		C20.764,0.563,20.422,0.58,20.08,0.6c-0.15,0.008-0.298,0.018-0.447,0.028c-0.404,0.025-0.808,0.06-1.21,0.096
		c-0.068,0.006-0.136,0.007-0.203,0.016c0.001,0,0.002,0,0.003,0c-2.544,0.241-5.047,0.674-7.299,1.344c0.001,0,0.003,0,0.004-0.002
		c-0.006,0.002-0.011,0.005-0.017,0.007c-0.304,0.09-0.6,0.188-0.895,0.289C9.945,2.399,9.874,2.42,9.804,2.445
		C9.512,2.548,9.229,2.657,8.947,2.768c-0.065,0.025-0.134,0.05-0.199,0.077c-0.272,0.11-0.536,0.229-0.796,0.35
		c-0.068,0.03-0.14,0.06-0.207,0.091C7.494,3.404,7.254,3.532,7.016,3.659C6.945,3.697,6.87,3.732,6.8,3.771
		c-0.23,0.13-0.45,0.266-0.668,0.404C6.064,4.217,5.991,4.259,5.923,4.302C5.715,4.439,5.519,4.584,5.324,4.731
		c-0.068,0.051-0.142,0.096-0.207,0.15C4.932,5.024,4.762,5.177,4.591,5.329c-0.066,0.06-0.138,0.116-0.202,0.176
		C4.228,5.657,4.082,5.819,3.935,5.98C3.873,6.048,3.804,6.111,3.745,6.18C3.609,6.338,3.489,6.505,3.368,6.67
		C3.31,6.75,3.245,6.824,3.189,6.906c-0.046,0.067-0.083,0.14-0.125,0.209C2.806,7.356,2.563,7.599,2.349,7.846
		c-2.05,2.363-2.926,6.801,0.201,8.856c-1.136,1.163-1.791,2.465-1.791,3.844c0,1.529,0.782,2.964,2.157,4.22
		c-0.01,0.007-0.021,0.011-0.03,0.017c-3.221,2.032-2.341,6.525-0.275,8.912c0.214,0.244,0.457,0.488,0.715,0.729
		c0.043,0.067,0.079,0.14,0.125,0.208c0.064,0.093,0.14,0.18,0.208,0.274c0.114,0.15,0.222,0.306,0.347,0.451
		c0.068,0.079,0.149,0.155,0.221,0.234c0.137,0.147,0.272,0.3,0.422,0.441c0.073,0.068,0.155,0.132,0.231,0.198
		c0.162,0.145,0.322,0.29,0.497,0.426c0.076,0.06,0.159,0.113,0.235,0.171c0.187,0.138,0.373,0.278,0.572,0.408
		c0.073,0.05,0.153,0.093,0.229,0.141c0.211,0.132,0.424,0.265,0.648,0.391c0.073,0.041,0.151,0.079,0.226,0.117
		c0.235,0.125,0.471,0.251,0.718,0.368c0.071,0.034,0.146,0.063,0.218,0.098c0.258,0.119,0.518,0.234,0.787,0.343
		c0.065,0.029,0.135,0.053,0.201,0.079c0.281,0.11,0.565,0.22,0.857,0.32c0.061,0.023,0.126,0.042,0.188,0.062
		c0.302,0.103,0.606,0.203,0.917,0.296c0.004,0.003,0.01,0.003,0.015,0.005c-0.001,0-0.003,0-0.004-0.002
		c2.252,0.673,4.755,1.104,7.298,1.344c-0.001,0-0.001,0.002-0.001,0.002c0.048,0.005,0.096,0.009,0.145,0.011
		c0.428,0.04,0.857,0.075,1.287,0.103c0.131,0.009,0.263,0.018,0.395,0.023c0.365,0.022,0.728,0.041,1.091,0.054
		c0.137,0.006,0.273,0.013,0.411,0.017c0.387,0.012,0.772,0.02,1.158,0.024c0.097,0.002,0.195,0.004,0.292,0.004
		c0.49,0.004,0.977,0.001,1.458-0.007c0.01,0,0.019,0,0.029,0c0.457-0.009,0.907-0.021,1.354-0.04
		c0.126-0.007,0.249-0.013,0.374-0.019c0.334-0.018,0.665-0.036,0.991-0.06c0.139-0.007,0.275-0.017,0.412-0.026
		c0.319-0.023,0.632-0.051,0.941-0.077c0.122-0.013,0.245-0.023,0.366-0.035c0.418-0.041,0.83-0.085,1.228-0.136
		c3.263-0.41,6.817-1.163,8.724-3.604c0.291-0.373,0.5-0.756,0.661-1.143c1.106-0.416,2.208-0.849,3.309-1.289
		c0.754,2.796,2.939,5.796,6.897,6.283c5.038,0.614,8.197-0.543,9.091-4.309c0.877-3.69,1.69-4.934,6.594-6.152
		c1.839-0.457,4.349-1.295,6.288-0.665c0.199,0.065,0.373,0.142,0.541,0.22c-0.902,0.841-1.246,2.063-0.133,3.518
		c1.622,2.124,4.365,2.693,7.153,2.252c0.089,0,0.18,0.013,0.268,0.009c4.804-0.183,5.945-2.088,9.667-3.842
		c3.416-1.607,8.801-0.71,12.612-1.846c0.254-0.074,0.502-0.152,0.752-0.229c1.42,0.406,2.819,0.843,4.164,1.339
		c1.299,0.481,2.753,1.033,4.144,1.692c0.773,0.469,1.558,0.926,2.373,1.342c0.937,1.092,1.553,2.28,2.095,3.67
		c1.101,2.814,4.86,1.146,3.701-1.213c3.321,0.751,8.143,0.469,10.948-1.38c1.741-1.147,2.196-2.783,1.573-4.371
		c-0.583-1.487-1.756-3.051-3.97-2.29c0.1-0.115,0.209-0.217,0.312-0.327c0.889-0.277,1.729-0.64,2.562-1.016
		c3.181-0.015,7.286-0.029,12.174-0.047c0.273,0.181,0.54,0.368,0.799,0.57c-2.143-0.026-0.712,3.531,2.323,3.164
		c2.376-0.288,2.343-2.111,1.865-3.753c5.928-0.02,12.759-0.046,20.327-0.075l0,0c0.343-0.001,0.697-0.003,1.043-0.003
		c13.234-0.052,28.651-0.116,45.361-0.196c0.366-0.002,0.727-0.004,1.094-0.006l0,0c8.41-0.042,17.142-0.085,26.08-0.136l0,0
		c0.227,0,0.456-0.002,0.683-0.004c19.783-0.111,40.563-0.248,61.134-0.414c0.001,0,0.001,0,0.003,0l0,0
		c11.703-0.094,23.334-0.198,34.674-0.315c0.169,0,0.34-0.002,0.51-0.004l0,0c3.84-0.04,7.648-0.08,11.411-0.122
		c0.445-0.006,0.891-0.01,1.334-0.014l0,0c10.039-0.113,19.763-0.234,29.007-0.366l0,0c0.195-0.005,0.381-0.007,0.573-0.012
		c1.817-0.023,3.613-0.05,5.391-0.077c0.244-0.005,0.495-0.009,0.737-0.014l0,0c2.788-0.04,5.53-0.084,8.211-0.128l0,0
		c1.934-0.033,3.832-0.066,5.706-0.101c0.318-0.003,0.639-0.01,0.953-0.016c0.445-0.008,0.883-0.016,1.325-0.024
		c0.646-0.012,1.295-0.022,1.933-0.035c1.147-0.021,2.282-0.044,3.404-0.064c0,0,0,0,0-0.002c3.201-0.062,6.291-0.125,9.265-0.191
		l0,0c0.264-0.005,0.515-0.012,0.774-0.017c0.534-0.013,1.064-0.022,1.589-0.036c0.45-0.01,0.896-0.021,1.341-0.03
		c0.457-0.011,0.911-0.021,1.362-0.034c0.443-0.008,0.881-0.021,1.317-0.031c0.479-0.011,0.958-0.021,1.429-0.034
		c0.329-0.009,0.654-0.017,0.978-0.024c0.626-0.018,1.245-0.033,1.856-0.05c0.054,0,0.11-0.003,0.164-0.005l0,0
		c2.84-0.075,5.532-0.152,8.062-0.231l0,0c0.062-0.003,0.119-0.004,0.18-0.006c0.482-0.015,0.954-0.031,1.425-0.046
		c0.34-0.013,0.683-0.022,1.019-0.034c0.244-0.008,0.48-0.016,0.722-0.022c0.436-0.018,0.877-0.031,1.302-0.046v-0.003
		c8.406-0.298,14.591-0.628,17.944-0.989l0,0c0.222-0.024,0.427-0.049,0.623-0.073c0.075-0.01,0.142-0.018,0.212-0.025
		C460.499,23.144,460.636,23.125,460.765,23.106z" fill="#BA3ED4"/>
</g>
<g id="Layer_1">
</g>
</svg>
